ply
format ascii 1.0
comment Generated by PyMesh
element vertex 668
property float x
property float y
property float z
property float charge
property float ct
property float hbond
property float hphob
property float nx
property float ny
property float nz
property float si
element face 1216
property list uchar int vertex_indices
end_header
37.868 -26.9255 319.227 -0.0499707 0 0 -1.3 0.562729 -0.826631 -0.00413038 0.523295
44.6955 -1.727 320.954 -0.20125 0 0 -0.4 0.711918 0.224615 -0.665373 0.658536
44.2675 -8.1865 319.734 -0.279244 0 0 4.2 0.934477 0.0268742 -0.355007 0.737869
38.357 6.9655 326.457 0.0883533 1 0 -0.9 0.448462 0.196242 -0.871993 -0.99988
41.7985 -22.6375 319.09 -0.139842 0 -0.328925 -1.3 0.597408 -0.0826762 -0.797664 -0.307777
40.697 -11.17 317.857 -0.0959263 0 0 -0.7 0.482513 0.626414 -0.612198 -0.200267
43.7765 -12.6275 318.074 -0.000316397 0 0 -0.7 0.612272 0.680784 -0.402065 0.774972
40.5515 9.362 328.802 -0.0422443 0 0 -0.9 0.698772 0.584002 0.41311 0.610168
50.7265 -8.86 327.599 -0.236969 0 0 -3.21691 0.763513 0.188508 -0.617667 -0.380611
35.498 15.6405 325.49 0.063414 0 0.17696 -2.26749 0.599748 0.744233 0.293971 0.0660118
40.037 -5.215 317.85 0.0342737 0 0 1.8 0.782535 -0.597296 -0.175719 0.0118859
43.031 -1.729 327.637 0.182217 0 0 3.8 0.825917 0.543469 -0.150008 -0.594192
50.482 -2.2275 324.76 0.0178124 0 0 2.8 0.777757 0.321714 0.539995 0.365999
44.065 -3.437 326.714 0.13259 0 0 3.8 0.71539 0.467555 0.51924 -0.0564286
42.1418 -11.7828 318.493 -0.0293245 1 0 -0.7 0.469488 0.650602 -0.596907 -0.431756
45.45 -22.345 321.795 -0.0665777 0 0 -0.7 0.990653 0.117003 -0.0701217 -0.613997
44.0665 -19.9365 318.874 0.6332 0 0 -3.9 0.212279 -0.644078 -0.734916 0.245907
50.4772 -7.885 326.873 -0.0221296 0 0 -3.5 0.878865 -0.323245 -0.350868 -0.246958
40.7303 2.31037 325.755 0.309773 1 -0.240161 4.5 0.932911 0.280509 0.225811 -0.416667
45.6505 -10.2015 322.537 -0.0289499 0 0 2.8 0.909204 0.308533 -0.279561 0.737357
47.6587 -14.1193 323.66 0.0277005 0 0 1.8 -0.500666 0.310295 -0.808116 -0.65466
43.2369 -0.34675 325.928 0.370287 0 0.809798 -0.4 0.860242 0.143892 0.489162 0.214504
38.3205 -19.4455 315.394 -0.262112 0 -0.668993 -0.7 0.570574 -0.169446 -0.803575 0.244749
39.694 11.3395 330.712 0.131331 0 0.204801 -4.5 0.961155 -0.261312 0.0888679 0.345495
41.559 5.69375 328.271 0.133757 0 0 -0.9 0.909295 -0.147938 -0.38897 -0.0408888
37.5175 -13.5585 311.752 0.049862 0 0 4.2 0.329203 -0.380266 -0.864305 0.41467
49.8252 -4.41175 329.525 0.00563647 0 0 -3.5 0.714739 0.697192 -0.0554112 0.318069
48.078 -19.032 321.664 0.00189738 0 0 -3.9 0.767534 -0.257846 -0.586863 0.374451
38.4458 -8.19275 311.511 0.136772 0 0 -3.5 0.81574 -0.0773487 -0.573223 0.493341
35.7842 -14.572 312.553 0.069264 0 0 4.2 -0.218617 -0.419385 -0.881092 0.756253
44.4935 -17.5315 318.697 0.646933 0 0 -3.9 0.353841 0.259915 -0.898466 0.805748
34.4125 -13.3585 311.642 0.227429 0 0.575885 -3.30951 -0.00854798 -0.919528 -0.392931 -0.421482
41.136 1.78225 324.398 0.651727 0 -0.0113694 -0.352027 0.904563 0.219641 0.365409 -0.738307
37.3734 -8.54788 310.455 0.00115339 0 0 -3.5 0.660017 0.0723461 -0.747759 0.568151
39.2945 -6.908 312.576 0.0154832 0 0 -3.5 0.932588 0.302822 -0.196413 0.999913
34.0825 -19.2595 312.694 0.108829 0 0 -0.4 0.402305 -0.265923 -0.876034 0.683255
36.2346 14.9792 325.172 0.0757077 0 0.892073 -0.4 0.954924 0.284789 0.0837534 0.354116
42.9911 -11.4406 319.124 0.228574 0 0 -0.7 0.481721 0.43199 -0.76245 0.742453
34.6195 -16.251 313.699 0.0461723 0 0 2.0253 0.02225 -0.12621 -0.991754 -0.200484
34.6953 15.7395 326.396 -0.062368 0 0 -3.5 0.506389 0.8522 0.131623 -0.683562
49.764 -11.839 323.331 -0.0517397 0 0 1.8 0.0547934 0.825125 -0.562288 0.826965
37.994 -16.016 312.605 0.0108828 0 0 4.2 0.0265353 -0.621886 -0.782658 0.999916
43.4735 -13.2192 320.809 -0.0485287 0 0 -0.7 0.982375 -0.184558 -0.0296275 -0.693676
49.2928 -5.44225 322.354 -0.0333893 0 0.396777 -0.88769 0.249122 -0.611878 -0.750696 0.0290956
36.9702 16.119 323.204 -0.0970567 0 -0.0285359 -0.774972 0.325406 0.344368 0.880637 0.0859216
33.0438 -18.185 312.745 0.0804453 0 0 -0.4 -0.346185 0.534805 -0.770805 0.74389
47.5305 -1.2335 324.702 -0.00410827 0 0 2.8 -0.292844 0.955997 -0.0176575 0.757896
40.3932 -4.79575 316.993 0.0206603 0 0 1.8 0.77567 -0.536972 -0.33166 0.999875
38.631 -10.849 313.376 0.103712 0 0 4.2 0.921079 0.329441 -0.207562 -0.0968525
41.3955 1.6015 319.93 0.095527 0 0 -3.9 0.756418 0.0788036 -0.649325 0.845407
43.36 -25.862 320.764 0.147085 0 0.0543073 -0.7 0.372253 -0.614798 -0.695306 0.999901
38.4265 5.84775 325.474 0.0290214 0 0 -3.5 0.575754 0.695011 -0.430658 -0.569701
33.236 -23.553 314.507 0.247854 0 0 -4.5 0.292372 -0.249965 -0.923058 -0.621834
51.2113 -1.869 323.503 0.0425377 0 0 2.8 0.936952 0.347957 0.0323592 0.999914
38.5247 -6.08375 312.573 0.0300083 0 0 -3.5 0.442752 0.806148 -0.39255 0.999879
42.856 0.6855 321.751 0.082438 0 0 -0.4 0.508051 0.545659 -0.666438 -0.0672359
41.607 0.0185 327.587 0.213315 0 -0.142087 1.53884 0.605627 0.78006 -0.157234 -0.999909
46.6855 1.22475 333.861 0.040338 0 0 0.317577 0.866188 0.257222 -0.428435 -0.54211
51.427 -6.113 330.636 -0.0348877 0 0 -3.5 0.544438 0.78345 -0.299653 0.64076
39.342 10.966 332.576 0.182941 0 0 -4.5 0.999025 -0.0441242 0.00117108 -0.0744916
53.1645 -15.8088 324.102 -0.310065 0 0 1.8 0.532332 -0.0296624 -0.846016 0.124722
40.8597 -3.4685 317.423 0.03516 0 0 1.8 0.999484 -0.0185509 0.0262335 0.839315
40.7205 9.379 327.775 0.0103436 0 0 -0.9 0.796166 0.545093 -0.262668 0.766506
49.9608 -6.24875 322.733 0.0491953 0 0.69418 -3.5 0.269261 -0.338162 -0.901745 0.704782
40.9045 5.125 327.556 0.22564 0 0 -0.9 0.879391 -0.268616 -0.393086 -0.367918
49.9465 -11.0398 325.793 -0.0634283 0 0 1.8 -0.0565795 0.794698 -0.604363 -0.635297
38.0345 -9.167 311.056 -0.0121103 0 0 -3.5 0.79117 -0.0819783 -0.606077 0.61422
49.4135 -7.102 323.199 0.0121399 0 0.371393 -3.5 -0.0270817 -0.726941 -0.686166 0.999857
41.2145 8.4565 327.974 -0.0307221 0 0 -0.9 0.875773 0.481742 -0.0307612 0.426462
36.6975 -22.8555 316.055 -0.184016 0 0 -0.7 0.822158 -0.227271 -0.521923 -0.390649
35.539 -16.7038 313.97 -0.254086 0 0 4.2 0.273916 -0.296009 -0.915067 -0.255112
37.621 -20.8425 314.942 -0.0325449 0 0 -0.7 0.510029 -0.338224 -0.79087 0.999864
44.9147 1.27725 329.471 0.308387 0 0.701187 -0.7 0.503994 -0.0967876 -0.858267 0.342347
34.157 -18.2183 312.511 0.0553607 0 0 -0.4 0.242837 0.216507 -0.945598 0.999918
43.988 -2.317 320.22 -0.391783 0 0 -0.167794 0.309854 -0.112787 -0.944071 0.727608
44.5045 0.78525 323.717 0.098427 0 0 -0.4 0.74716 0.625968 0.223419 0.999913
44.052 5.2685 330.22 -0.0229956 0 0 -0.7 0.445818 0.813653 -0.373117 0.647485
44.0283 -3.0125 328.702 0.164048 0 0 0.562721 0.797569 0.0547432 -0.600738 -0.466643
50.5445 -6.8045 323.442 0.0331093 0 0.0426656 -3.5 0.640932 -0.432228 -0.634338 0.815897
34.9395 -18.6325 313.185 0.109708 0 0 -0.4 0.717606 0.123945 -0.685331 0.627532
39.772 10.8138 333.833 -0.0120249 0 0 -4.5 0.969678 0.214852 -0.116459 0.589089
38.775 -26.2845 319.072 -0.00240713 0 0 -1.3 0.563504 -0.780458 -0.27083 0.374046
41.1292 9.19525 317.965 0.0897447 0 0.134668 -4.5 0.269329 0.699587 0.661846 -0.573618
40.9193 -25.0515 321.76 -0.059538 0 0 -0.7 -0.403967 -0.908805 0.104329 -0.821079
32.6348 -22.0405 312.969 0.0187827 0 0 -2.2756 0.922702 -0.179275 -0.341293 -0.318023
37.2407 -21.797 315.825 -0.0684397 0 0 -0.7 0.524408 -0.581339 -0.622127 -0.380774
47.0532 3.01325 335.419 0.0503857 0 0 -0.4 0.739415 0.642713 -0.200461 0.741692
46.8075 0.523 333.101 -0.194406 0 0 1.8 0.793625 0.553925 -0.251649 -0.180277
44.479 -0.279 324.271 0.209788 1 0 -0.4 0.793125 0.234746 0.562002 0.560717
41.948 -19.889 318.465 0.280897 0 0 -2.78861 0.0381728 -0.441533 -0.896433 0.137266
45.9215 -22.9352 323.436 -0.118713 0 0 -2.49006 0.861043 -0.0673514 -0.504052 -0.199372
41.826 -24.9452 320.026 0.00324626 0 0.39954 -0.999887 0.419927 -0.620289 -0.662498 -0.519976
49.0224 -0.969 323.355 -0.0457097 0 0 2.8 -0.0772401 0.980033 -0.183217 0.999853
41.979 3.454 328.62 0.253929 0 0 -0.7 0.391991 -0.0202634 -0.919746 -0.2178
47.347 0.644 334.75 -0.037523 0 0 -0.251828 0.99489 0.00873343 -0.100583 0.152181
39.1625 -9.2395 316.672 -0.177956 0 0 -0.7 0.813992 -0.0153957 -0.580673 -0.298848
39.5583 8.72825 330.909 -0.00103544 0 0 -0.9 0.849988 0.355728 0.388558 -0.712071
35.0065 -25.2605 314.055 0.0182189 0 0 -0.4 0.0480687 0.0322744 -0.998322 0.88309
35.698 -25.9535 314.372 0.0172913 0 0 -0.4 0.417303 -0.456435 -0.785828 0.926976
52.5723 -14.9397 323.629 -0.07193 0 0 1.8 0.54674 -0.0437357 -0.836159 0.474744
39.6025 7.93375 331.85 0.0790653 0 0 -0.9 0.867108 0.496832 0.0358066 -0.625868
39.738 11.711 331.689 0.0774987 0 0 -4.5 0.967884 0.0184063 0.250721 0.626072
39.823 -6.028 318.547 0.0325534 0 -0.0884392 2.57213 0.881439 -0.0834653 -0.464863 -0.654612
50.684 -3.604 323.08 -0.0558133 0 0 2.8 0.9398 -0.208235 -0.27095 -0.0585612
46.4753 2.733 331.484 -0.287496 0 -0.866997 -0.7 0.938112 0.346274 -0.00632842 0.999867
34.523 15.9725 327.633 -0.00278226 0 0.359592 -3.5 0.540315 0.788365 -0.294177 -0.702018
43.676 -6.762 319.461 -0.313929 0 0 4.2 0.763065 0.307006 -0.568752 0.464746
47.6545 -17.207 320.72 0.0121969 0 0 -3.9 0.753686 0.395886 -0.524625 0.682873
39.168 -16.3697 315.052 -0.05868 0 0 4.2 0.803296 -0.562817 -0.194815 0.18261
45.1975 -20.598 320.845 0.275405 0 0 -3.9 0.741647 -0.49161 -0.456377 -0.422054
41.3175 4.8845 317.508 0.231209 0 0 -4.5 0.677419 -0.577691 0.455386 0.29544
52.8182 -10.74 326.241 -0.141867 0 0 -3.2 0.445238 0.811504 -0.37845 0.63448
43.612 -1.802 325.443 0.378113 0 0.0209606 1.19324 0.753987 0.279483 0.594469 -0.892948
41.332 7.283 329.443 -0.0643937 0 0 -0.9 0.848812 0.369899 0.377748 0.762175
47.8768 -6.654 323.775 -0.0862463 0 -0.0968475 -3.5 -0.274145 -0.652257 -0.706686 -0.686396
51.9902 -12.6847 324.004 -0.153664 0 0 1.8 0.534355 0.45583 -0.711818 0.0980478
45.9775 -15.5925 322.587 0.0337053 0 0 -0.9 0.199993 0.802925 -0.561528 -0.727272
38.841 -16.759 316.127 -0.110192 0 -0.659712 -0.32065 0.986806 -0.0762278 -0.142837 -0.77664
46.053 -19.716 320.684 0.280447 0 0 -3.9 0.565048 -0.714201 -0.413083 -0.404137
47.8143 -4.88925 320.717 0.0448327 0 0 2.8 0.106995 -0.591996 -0.798807 0.883853
38.1365 -21.112 315.836 -0.0623797 0 0 -0.7 0.539184 -0.457609 -0.707018 -0.0789064
37.88 8.6565 322.518 -0.0187856 0 0 -1.3 0.77136 -0.463139 0.43647 -0.578462
46.2115 -10.696 324.404 -0.058507 0 0 4.09893 0.571943 0.552849 -0.606003 -0.577952
46.4455 -4.5395 326.845 0.0804753 0 0 -3.03729 -0.485903 0.559883 0.671141 -0.999862
39.8823 13.243 327.935 0.156685 0 0.367884 -4.5 0.6656 0.0333742 -0.745562 0.999914
39.7385 9.694 320.101 -0.189515 0 0 -3.5 0.97614 -0.00172888 0.217134 0.0897832
41.752 0.973 324.478 0.242758 0 0 -0.4 0.551655 0.776804 0.30373 -0.834655
44.9815 -22.066 320.736 0.00527477 0 0 -0.7 0.739913 0.129236 -0.660172 0.0933792
41.525 6.366 327.055 0.16385 0 0 -0.9 0.824397 -0.245975 -0.50977 0.999876
41.662 0.72775 328.415 0.247757 0 0 -1.3 0.417453 0.551671 -0.722074 -0.999875
47.5677 -9.60825 325.231 -0.0882143 0 0 3.39567 0.264154 -0.0244748 -0.96417 -0.0196044
40.3585 6.99225 319.603 0.124137 0 0 -0.4 0.782793 0.00932106 0.622213 -0.0178257
41.4782 5.747 318.334 0.263332 0 0.751447 -4.5 0.466522 -0.496878 0.731758 0.791246
47.0479 -11.7646 323.882 -0.032498 0 0 4.2 0.187716 0.385455 -0.903431 0.0506337
39.7339 4.87113 323.456 0.891433 0 0 -3.9 0.352492 0.907947 -0.226674 -0.539888
42.6057 -12.4438 317.675 -0.0336727 0 0 -0.7 0.393456 0.768417 -0.504706 0.0808786
40.1445 2.3895 316.998 0.197227 0 0 -4.5 0.862037 -0.498602 0.0910345 0.291246
40.0732 5.91875 319.484 0.188224 0 0 -0.4 0.835863 -0.338562 0.432098 -0.031054
50.8708 -2.72525 322.628 0.000312265 0 0 2.8 0.940911 -0.0467843 -0.335407 0.526293
49.1382 -4.2755 320.917 0.000701193 0 0 2.8 0.465417 -0.383127 -0.797873 0.696567
39.1691 12.2406 332.661 0.233805 0 0 -4.5 0.866163 0.400298 0.299205 0.32705
40.8385 3.501 316.192 0.298676 0 0 -4.5 0.80366 -0.549993 0.227239 0.142123
37.6971 8.55812 325.178 0.0139064 0 0 -1.3 0.854263 -0.354628 -0.380097 -0.781791
41.305 -14.784 316.314 -0.128427 0 0 -0.7 0.365215 -0.238183 -0.899937 0.321368
48.2308 -14.6093 322.781 -0.0234842 0 0 1.8 -0.372783 0.0881018 -0.923726 0.189871
44.4328 -23.5805 319.86 -0.0171665 0 0 -0.7 0.526173 -0.173121 -0.832569 0.999834
45.6691 -0.17 330.96 0.170839 0 0 -1.3 0.843559 0.0634808 -0.533271 -0.564488
40.4299 15.168 322.582 -0.38633 0 0 -3.5 0.397427 0.0444177 0.916558 -0.178242
37.3795 -1.381 315.289 0.242208 0 0 -3.9 0.750747 -0.0414084 -0.659291 -0.609695
43.2509 -4.60488 320.168 0.35856 0 0 4.2 0.0740694 0.331867 -0.940414 0.451234
43.6866 -2.07538 328.342 0.155839 0 0 2.19092 0.755101 0.33886 -0.561246 -0.0914997
38.962 6.6955 321.522 0.142123 0 0 -0.4 0.532794 0.0921358 0.841214 0.767517
44.318 -15.6359 320.626 0.054274 0 0 -3.44586 0.581913 0.806608 -0.10373 -0.423932
45.5457 -23.1145 320.916 -0.0252868 0 0 -0.7 0.918735 0.0778595 -0.387123 0.631379
39.3419 -4.52537 316.048 0.117845 0 0 1.8 0.60053 -0.412531 -0.684969 0.171255
46.0107 2.45012 332.882 0.0316256 0 -0.604589 -0.7 0.941019 0.338338 0.00312671 -0.321561
48.6073 -6.3855 323.137 -0.0041806 0 0.434718 -3.5 -0.258086 -0.557766 -0.788853 0.00859545
47.222 -7.9775 324.686 -0.35056 0 -0.54413 -3.5 -0.214831 -0.573132 -0.790801 0.641799
43.7567 -13.2854 321.956 -0.0757263 0 0 1.6932 0.886993 -0.21732 -0.40745 -0.999797
34.79 -22.031 314.05 -0.305599 0 0 -0.4 0.369424 -0.398876 -0.8393 0.715748
40.8269 4.08725 322.127 0.36086 0 0 -3.9 0.470418 0.801808 -0.368524 0.662584
43.8656 2.12812 329.009 0.181459 0 0 -0.756861 0.331202 0.0632636 -0.941437 0.337235
45.5615 -22.049 322.771 -0.28813 0 0 -0.7 0.931465 -0.049166 -0.360493 -0.807565
40.5465 5.99288 326.387 0.15854 0 0 -0.9 0.578349 0.103467 -0.809202 0.0859288
36.8993 15.6987 327.802 0.10977 0 0.393824 -4.5 0.135405 0.917844 -0.373132 0.601677
40.6065 -2.1595 317.093 0.0369507 0 0 1.8 0.892732 0.436426 -0.112079 0.999874
38.2404 -1.72025 315.797 0.203003 0 0 1.8 0.346333 0.201814 -0.916147 -0.694862
37.97 1.27775 315.443 0.0164168 0 0 -4.5 0.485728 -0.303504 -0.819728 -0.672541
40.627 -0.174 320.576 0.0331748 0 0 -3.9 0.174617 -0.913269 -0.368033 -0.495398
51.2812 -5.40525 325.896 0.115951 0 0.227176 -3.5 0.969584 0.230062 0.0835366 0.583744
50.2395 -5.39375 330.512 -0.0637337 0 -0.166591 -3.5 0.811963 0.54947 -0.196974 -0.618221
39.6278 -24.9357 318.371 -0.0583143 0 0 -1.3 0.225802 -0.453878 -0.861979 0.561601
39.215 0.607125 316.918 -0.102913 0 0 -4.5 0.967726 -0.156964 -0.19715 -0.556906
42.1119 -18.8169 318.008 0.4614 0 0.0117901 -3.9 -0.209065 -0.193125 -0.958642 0.467821
41.7009 6.11088 332.612 -0.0691997 0 0 -3.5 0.187636 0.626826 -0.756229 -0.67693
50.6745 -4.55331 326.776 0.0352897 0 0.0182171 -3.5 0.791036 0.589185 0.16469 0.811787
45.3568 -1.42475 323.98 0.13725 0 0 1.18397 0.522253 0.834897 0.173776 0.258031
47.1562 -4.15125 327.536 0.085632 0 0 -0.995789 -0.42861 0.874268 0.227922 0.0726042
45.2854 -2.511 321.388 -0.0404877 0 0 1.7114 0.593017 0.438151 -0.67554 -0.0317395
39.0229 -13.8076 313.097 0.0153072 0 0 4.2 0.739035 -0.119111 -0.663054 -0.0466714
43.528 -13.9365 319.73 -0.0367803 0 0 -0.7 0.967104 -0.0435296 0.25063 -0.835631
33.2335 -17.2932 313.46 0.269025 0 0 -0.4 -0.393651 0.475434 -0.786766 0.0318397
39.6255 10.6355 329.645 0.103354 0 0.393103 -2.82918 0.997254 -0.0356689 0.064902 0.0744307
49.1948 -10.2654 326.314 -0.0863093 0 0 4.2 0.339371 0.440399 -0.83119 -0.634625
40.4912 -25.3764 320.648 -0.060577 0 0.268748 -0.876541 0.0962117 -0.984579 0.146111 -0.121375
36.6323 -2.026 314.27 0.273781 0 0 -3.9 0.880449 -0.122024 -0.458169 -0.620631
36.6075 13.5033 323.435 0.0384137 0 0.813233 -1.3 0.730389 0.266336 0.628965 -0.999888
40.199 7.399 331.191 -0.0337123 0 0 -0.9 0.806386 0.486417 0.336364 -0.387862
38.0996 9.54937 324.754 0.0259772 0 0 -1.3 0.978112 -0.206525 -0.0253912 0.173568
46.7707 -14.7998 323.694 0.00384953 0 0 -0.9 -0.0432143 0.44343 -0.895267 -0.999859
36.7323 -27.5824 317.938 -0.290289 0 0 -0.771502 0.753415 -0.649718 -0.101156 0.217943
43.242 -0.15375 321.314 -0.0510173 0 0 -0.4 0.364473 0.617828 -0.696741 0.144246
39.0419 -7.86363 312.306 0.0924517 0 0 -3.5 0.91246 -0.192918 -0.36083 0.625305
40.164 7.74375 333.099 0.117747 0 0 -0.98393 0.581019 0.552018 -0.598074 -0.582227
48.9012 -4.4385 328.141 0.119263 0 0 -3.5 0.223097 0.970832 0.0878286 -0.518454
48.4543 -5.22437 321.687 -0.039396 0 0 2.8 0.305938 -0.813382 -0.494785 0.184408
41.1835 -21.9907 318.424 -0.274451 0 -0.194783 -1.3 0.551148 -0.0680976 -0.831624 0.269901
36.2025 14.136 325.797 -0.244497 0 -0.274048 -3.36155 0.96078 0.184507 -0.207024 -0.743371
35.5656 -15.711 313.401 0.0437167 0 0 4.2 -0.116467 -0.524473 -0.843424 -0.170433
43.948 -12.2218 321.072 0.139265 0 0 2.8 0.902003 -0.387514 -0.190323 -0.240108
40.4613 2.66412 327.366 0.273434 0 -0.00422695 4.5 0.926634 0.165583 -0.337537 -0.658911
48.8644 -7.75663 324.277 -0.286539 0 -0.275329 -3.5 0.0320181 -0.723949 -0.68911 0.214155
42.965 5.77525 332.362 -0.144811 0 0 -3.5 -0.135764 0.655391 -0.742987 -0.808982
41.2599 -1.75637 321.944 -0.0826833 0 0 2.50134 -0.371421 -0.0198488 -0.928252 -0.99988
38.5135 -9.2705 315.034 0.022821 0 0 -2.1 0.994185 0.0202986 -0.105755 -0.327911
41.2919 7.6255 326.956 0.0732853 0 0 -0.9 0.674829 0.275886 -0.684465 0.999865
44.2396 0.5455 322.537 0.124291 0 0 -0.4 0.64055 0.632904 -0.434889 0.648722
51.1061 -5.50025 327.161 0.0300047 0 0 -3.5 0.960472 0.12064 0.250879 0.629893
41.9408 0.722625 320.684 0.044308 0 0 -3.9 0.79393 0.178011 -0.581367 0.0817451
44.962 -24.7374 322.4 -0.0973687 0 0 -0.7 0.729441 -0.68314 -0.035164 0.367222
44.8086 -12.0786 322.299 0.0308162 0 0 2.8 0.745513 -0.435728 -0.504333 0.268997
49.033 -18.249 322.956 -0.108046 0 0 -3.9 0.554894 0.00879959 -0.831875 -0.469479
36.2661 -22.2386 315.272 -0.0266287 0 0 -0.7 0.628611 -0.254926 -0.734752 -0.197518
48.4181 -10.629 325.648 -0.036196 0 0 4.2 0.526474 0.341139 -0.778749 -0.579075
39.7355 14.224 329.306 0.0214134 0 0 -4.5 0.737301 0.668805 0.0953212 0.999885
46.4335 -18.81 319.771 0.17197 0 0 -3.9 0.654681 -0.360967 -0.66415 0.214633
52.9036 -13.9522 324.19 -0.0624983 0 0 1.8 0.685396 0.325983 -0.651128 0.228943
39.5028 -8.1575 316.801 -0.137371 0 -0.982906 -0.7 0.738871 0.0849215 -0.668475 0.858624
44.8951 -0.8265 323.317 0.2263 0 0 -0.4 0.898655 0.433374 0.0678733 0.0859337
40.5505 -14.646 315.618 -0.0883147 0 0 1.32021 0.756327 -0.430031 -0.492994 0.302043
37.2959 13.1521 327.28 -0.300537 0 -0.861356 -3.56776 0.73151 -0.0174153 -0.681609 -0.268641
50.3208 -5.279 329.022 0.0160498 0 0 -3.5 0.915289 0.366534 0.16703 -0.136967
43.0314 -1.653 326.534 0.281313 0 0.266119 0.877183 0.936137 0.318059 0.149952 -0.480303
40.9645 8.4775 318.833 0.113115 0 0.0534769 -4.5 0.4288 0.396207 0.811881 0.398261
41.4582 -11.7402 317.398 -0.0568133 0 0 -0.7 0.380778 0.677882 -0.628875 0.727591
39.8392 -11.5688 317.13 -0.115484 0 0 -0.7 0.583986 0.440199 -0.682045 -0.432242
41.815 7.063 327.8 0.048877 0 0 -0.9 0.989212 0.125475 -0.0755967 0.999854
36.4186 -17.5724 314.699 -0.0251664 0 0.155952 0.131338 0.259774 -0.283017 -0.923265 -0.768354
43.5635 -7.9775 319.012 -0.384917 0 0 4.2 0.301287 0.0274392 -0.953139 0.999886
32.1208 -18.0464 313.756 0.0703423 0 0 -0.4 -0.661402 0.43195 -0.61316 0.148443
42.7636 5.3055 330.607 -0.0156404 0 0 -0.7 -0.00740386 0.993165 -0.116482 -0.488329
45.7899 3.4695 332.056 -0.245691 0 -0.726677 -0.7 0.828644 0.559425 0.019829 0.193535
50.1394 -15.9096 323.306 0.0581143 0 0 1.8 0.322393 -0.236173 -0.916671 -0.654473
44.2091 -13.608 318.059 -0.016041 0 0 -0.7 0.981673 0.0434813 -0.185545 0.800267
43.059 -24.759 320.299 0.0996597 0 0 -0.7 0.311068 -0.482785 -0.81863 0.059358
47.5246 -16.4818 321.506 0.00807927 0 0 -3.9 0.674811 0.541426 -0.501487 0.242556
38.5515 14.792 329.213 -0.0748707 0 0 -4.5 0.552682 0.832969 0.0265493 0.0595824
46.3732 -5.06325 328.264 0.200985 0 0 -3.5 -0.578398 0.810293 -0.0942364 -0.999882
45.397 -3.84325 329.516 0.0198084 0 0 -2.54872 0.214158 0.302193 -0.928879 -0.515912
39.0983 9.69175 332.993 0.12808 0 0 -4.5 0.910364 -0.0005211 -0.413809 -0.793989
40.3921 -20.9766 317.847 -0.242165 0 0 -1.00956 0.703863 -0.0809692 -0.705706 -0.144132
39.2293 -10.6768 316.83 -0.091894 0 0 -0.7 0.853864 0.136256 -0.502345 -0.83595
48.6591 -9.04587 325.808 -0.164156 0 0 1.1218 0.554441 -0.34026 -0.759486 -0.50244
48.968 -1.42387 326.137 0.086018 0 0 2.8 0.1907 0.654832 0.731319 0.999916
46.3225 0.158 331.905 0.05743 0 0 1.8 0.73119 0.374227 -0.570364 -0.184821
45.6034 -14.6499 323.384 -0.0186921 0 0 -0.9 0.367459 0.56986 -0.735006 -0.540837
40.5638 4.899 324.311 1 0 0 -3.9 0.476805 0.860667 -0.178632 0.417545
40.3236 7.1615 326.378 0.0972427 0 0 -0.9 0.289586 0.132267 -0.947969 0.613082
38.9634 -15.7957 313.051 -0.00300588 0 0 4.2 0.671507 -0.461884 -0.579433 0.999844
41.9045 2.19644 321.295 0.146726 0 0 -3.9 0.914093 0.213118 -0.344986 0.693684
36.9772 -9.44925 310.028 0.0395647 0 0.00887575 -3.76667 0.801856 0.0614097 -0.594353 -0.0524777
39.9269 -2.63075 322.011 -0.156299 0 0 4.12575 0.193523 0.225947 -0.954723 -0.999876
51.1127 -6.60563 326.84 0.0293593 0 0 -3.5 0.983478 -0.159969 0.0847356 0.271356
45.4701 -21.2992 321.98 -0.0976527 0 0 -3.9 0.921485 -0.239023 -0.306158 -0.270507
45.1447 4.32725 331.673 -0.133961 0 -0.231167 -1.07706 0.836417 0.443897 -0.321501 -0.10524
50.2593 -1.67463 322.389 0.0394173 0 0 2.8 0.508144 0.73217 -0.45356 0.661461
39.78 11.4951 329.038 0.096143 0 0 -4.5 0.969791 -0.155597 -0.18787 0.397387
43.642 -15.494 318.079 -0.00165196 0 0 -0.7 0.819383 -0.313484 -0.479937 0.264272
36.3353 -21.1369 314.615 -0.0388153 0 0 -0.7 0.483588 -0.314778 -0.816736 0.202199
39.1959 10.1301 330.863 0.184648 0 0 -3.0757 0.934403 0.0145879 0.355919 -0.522131
52.4873 -8.2365 329.346 -0.237211 0 0 -3.5 0.384951 0.320288 -0.86558 -0.359295
53.877 -13.8294 325.204 -0.100296 0 0 -3.2 0.57329 0.345274 -0.74305 -0.148113
45.8666 -11.1499 323.461 -0.0438577 0 0 2.92966 0.837907 0.152162 -0.524175 0.0515198
39.7593 -15.1272 316.233 -0.281864 0 -0.756475 0.48109 0.617873 -0.758916 -0.205621 -0.776788
47.4416 -10.7916 324.736 -0.051025 0 0 4.2 0.296838 0.58557 -0.754318 0.018867
38.2163 -14.1657 312.527 0.0371813 0 0 4.2 0.592548 -0.376112 -0.712339 0.620641
49.4556 -12.7471 322.62 -0.0173899 0 0 1.8 -0.011606 0.405264 -0.914126 0.999832
43.1775 -19.5868 318.224 0.906333 0 0.138749 -3.9 0.0341317 -0.652043 -0.757413 0.541774
44.2375 -4.44675 326.669 0.0711747 0 0 3.8 0.771957 0.397098 0.496382 -0.999897
49.1955 -2.28863 320.92 0.0321481 0 0 2.8 0.148982 0.58939 -0.793992 0.910662
48.0957 -8.676 325.002 -0.390963 0 0 -3.5 0.16586 -0.60167 -0.781335 0.130083
38.2401 8.13488 326.176 0.054843 0 0 -0.954067 0.603434 -0.242422 -0.75967 -0.966327
47.1502 -1.897 330.866 0.268481 0 0 1.8 0.067581 0.566467 -0.821309 -0.277268
46.3148 -4.61137 320.944 0.0489663 0 0 2.8 -0.0510736 -0.450826 -0.891149 0.264686
41.6548 6.175 329.21 -0.0186187 0 0 -0.9 0.951647 0.307081 0.00831026 -0.0277043
37.5685 -0.0905 315.301 -0.0913507 0 0 -4.37922 0.676558 -0.0343257 -0.735589 -0.317101
38.2766 13.2101 327.573 -0.0497297 0 0 -4.5 0.255968 -0.0463962 -0.965571 0.380075
36.6489 -4.45038 314.159 0.0409373 0 0 -3.08635 0.632751 0.308079 -0.710432 -0.691501
39.3208 8.94888 321.056 -0.0905087 0 0 -3.28775 0.813718 -0.0678681 0.577283 0.172408
45.1185 -9.4185 323.563 -0.039308 1 0 2.8 0.912829 0.366762 -0.179523 -0.416286
48.2275 -1.679 335.262 -0.0263213 0 0 1.8 0.693359 0.375083 0.615278 0.0122226
45.8229 -23.4646 322.275 -0.045816 0 0 -0.7 0.988715 -0.126404 -0.0803977 0.557047
46.0368 -5.593 321.805 0.0478593 0 0 2.8 0.213912 -0.64366 -0.734808 -0.19127
40.118 8.023 319.53 0.077758 0 0 -0.4 0.829239 0.278959 0.484298 -0.295101
37.0238 -26.6735 316.524 -0.234331 0 0 -0.4 0.903545 -0.249454 -0.348396 0.373004
43.1792 -5.81375 319.706 0.187477 0 0 4.2 0.10706 0.372035 -0.922024 0.3922
48.4386 -2.76262 326.499 0.05697 0 0 2.8 0.0997824 0.396659 0.912527 0.237745
50.6601 -3.30825 332.087 -0.0203669 0 0 1.8 0.987102 -0.125981 0.0987826 0.999833
47.749 -1.64388 325.754 0.0733933 0 0 2.8 -0.353806 0.737588 0.575139 0.54925
34.2366 -17.4206 313.167 0.0854267 0 0 -0.4 0.250509 0.420909 -0.871826 0.262611
40.1997 -6.90863 318.838 0.00334627 0 -0.417197 1.64649 0.627446 0.279313 -0.726839 -0.672445
39.8685 -0.482 319.745 0.0645733 0 0 -3.9 0.73971 -0.637392 0.215781 0.226946
37.9347 15.2949 327.86 0.168265 0 0.784296 -4.5 0.539037 0.61421 -0.576355 0.588784
43.6043 -18.7645 317.615 0.561437 0 0.863065 -3.9 0.1833 -0.256824 -0.948916 0.999916
38.2334 9.976 327.038 -0.0357923 0 0 -1.06724 0.385289 0.724252 -0.571849 -0.458108
46.6839 -2.9215 330.046 0.00873133 0 0 -3.5 0.191904 0.549359 -0.813251 -0.214509
45.9234 -16.3836 319.532 0.0431287 0 0 -3.9 0.48314 0.600313 -0.637339 0.677977
33.3849 -13.7984 312.72 0.109877 0 0 -4.5 -0.113992 -0.783055 -0.611417 -0.48314
47.6043 -18.6047 320.382 0.0064927 0 0 -3.9 0.712359 -0.341241 -0.61327 0.971947
47.2581 -5.62375 321.915 -0.0198525 0 0 2.8 0.114361 -0.834241 -0.53941 0.331019
42.4058 -9.48325 319.724 -0.0778517 0 0 3.57721 0.155813 -0.0522672 -0.986403 -0.646278
47.847 -20.27 322.682 0.0070651 0 0 -3.9 0.376022 -0.774363 -0.50889 0.659781
54.042 -10.9275 328.315 -0.202256 0 0 -3.2 0.70329 0.592363 -0.39305 -0.0445609
36.2305 13.6272 324.755 -0.0727183 0 0.146959 -0.644693 0.961295 0.244215 0.127556 -0.856978
47.6516 -5.90125 322.97 -0.109108 0 0 0.353295 0.0832941 -0.842904 -0.531577 -0.505839
46.6229 2.54425 334.206 0.103026 0 0 -0.541487 0.799093 0.417826 -0.432286 0.268355
46.0602 3.4465 334.48 0.153026 0 0 -0.4 0.824396 0.499601 -0.266026 -0.163923
40.9072 6.87162 332.85 0.16892 0 0 -1.37437 0.455179 0.607583 -0.650887 -0.547465
41.0544 -8.704 319.357 -0.103036 0 -0.0588246 3.87302 0.461833 -0.126278 -0.877931 -0.540307
35.6356 15.2306 327.271 -0.096061 0 0 -3.9761 0.235483 0.923376 -0.303192 -0.809443
39.8517 -0.661875 318.728 0.03871 0 0 -3.9 0.964342 -0.0134349 -0.264316 -0.079659
35.9087 17.1675 322.973 -0.0773167 0 0 -0.4 0.327492 0.860229 0.390838 0.461143
40.0391 3.72863 318.837 0.127485 0 0 -4.0069 0.981719 0.105585 0.158366 -0.201623
49.6744 -3.93012 330.505 0.00418503 0 0 -2.88334 0.785681 0.302413 -0.539678 -0.0640174
36.4831 -23.5869 315.129 0.0149272 0 0 -0.4 0.772581 0.235468 -0.589639 0.422168
49.1227 -0.28425 332.037 0.0108391 0 0 1.8 0.248609 0.954095 -0.167022 0.999898
39.5305 8.68025 333.26 0.022193 0 0 -0.9 0.733347 0.443967 -0.514875 -0.813283
45.5805 5.47175 332.605 -0.464757 0 0 -3.09157 0.795665 -0.195185 -0.573428 0.109307
39.072 -3.0995 321.315 0.00168684 0 -0.0518899 2.60007 0.728328 0.517553 -0.449085 -0.999906
50.9416 -10.1236 326.908 -0.27906 0 0 -3.2 0.405863 0.640579 -0.65187 -0.267405
40.4015 -23.3365 317.887 -0.0813943 0 0 -1.3 0.377353 -0.204493 -0.903209 0.999787
44.7018 -1.4655 329.006 0.156674 0 0 -1.3 0.679437 0.157276 -0.716679 0.53666
39.1317 -7.78275 313.431 0.0780957 0 0 -3.5 0.975235 -0.0250136 0.21975 0.606729
44.2716 -2.63063 325.429 0.307261 0 0 2.8 0.457031 0.608439 0.648787 -0.868542
36.2296 -26.7288 315.644 -0.195605 0 0 -0.4 0.626834 -0.447113 -0.638099 0.233373
51.1296 -8.04438 328.361 -0.0858403 0 0 -3.5 0.76096 0.0921475 -0.642222 -0.813577
43.3934 -1.2795 320.086 -0.377473 0 0 -0.4 0.246792 0.415664 -0.875395 0.999887
40.8309 3.89512 327.86 0.35399 0 0.409683 -0.9 0.755286 -0.0616733 -0.652488 -0.635919
45.3602 -5.30225 328.769 0.157154 0 0 -3.5 -0.0265721 0.801455 -0.597464 -0.999899
40.7276 0.233125 319.663 0.03977 0 0 -3.9 0.639996 -0.461561 -0.614302 0.285354
39.8662 12.4969 330.703 0.108935 0 0.173031 -4.5 0.935709 0.188442 0.298224 0.480657
46.1746 -8.04 325.151 -0.079568 0 0 -3.5 0.0638775 -0.410057 -0.90982 -0.744374
40.0376 9.09562 318.721 0.0241117 0 0 -3.99988 0.7438 0.487516 0.457263 -0.465819
37.6432 8.831 324.061 -0.0115194 0 0 -1.3 0.834811 -0.548579 0.0463838 -0.513866
39.1409 -19.1523 316.033 -0.409597 0 -0.757815 -0.7 0.804862 0.014733 -0.593279 0.187057
38.5933 -16.4827 313.76 -0.0037198 0 0 4.2 0.310713 -0.857303 -0.410474 0.522463
35.4825 -19.421 313.801 0.20867 0 0 -0.423045 0.634871 -0.0517274 -0.770884 0.20657
44.0075 -5.927 320.267 0.161054 0 0 4.2 0.751776 0.0862723 -0.653751 0.303901
40.4818 6.64625 331.836 0.0144369 0 0 -0.9 0.776645 0.62719 -0.0587841 -0.573926
41.9538 3.43425 322.42 0.165293 0 0 -3.9 0.871399 0.484763 -0.0752948 0.696209
39.6369 -17.7425 317.628 -0.439573 1 -0.751462 1.81228 0.732132 0.0480158 -0.679468 -0.706293
49.311 -1.95025 334.534 0.0003601 0 0 1.8 0.737712 0.399329 0.54435 0.99982
41.4326 3.03856 320.848 0.148266 0 0 -3.9 0.665445 0.56675 -0.485775 0.635574
49.7585 -8.1095 325.548 -0.093481 0 0 -3.5 0.599336 -0.68363 -0.416469 0.131161
44.2295 4.40413 329.655 0.0352507 0 0 -0.7 0.565822 0.535944 -0.626586 0.540317
50.5412 -2.29875 331.554 0.00424737 0 0 1.8 0.788734 0.236082 -0.567594 0.933849
39.866 -15.352 315.151 -0.083641 0 0 4.2 0.862677 -0.486765 -0.13729 0.29599
44.7127 -18.997 318.415 0.46219 0 0 -3.9 0.441644 -0.0914741 -0.892515 0.330286
52.974 -12.7695 325.067 -0.137927 0 -0.00422688 1.6448 0.692483 0.332526 -0.640229 -0.490154
42.3109 7.1365 318.443 0.142876 0 0 -4.5 0.695945 -0.111988 0.709309 0.999865
39.8151 -1.3115 317.393 0.0572867 0 0 1.8 0.863046 0.470536 -0.183704 -0.109292
41.1549 4.36037 323.54 0.625153 0 0.621872 -3.9 0.690205 0.720646 -0.0654619 0.47211
46.1151 -6.4395 322.749 -0.003865 0 0 2.8 0.337485 -0.827608 -0.448519 0.252139
47.6211 1.944 335.007 -0.0110351 0 0 -0.4 0.939876 0.220316 -0.260947 0.999895
38.8997 -17.913 315.407 -0.227068 0 -0.786898 -0.7 0.771762 -0.178027 -0.610483 0.415285
35.3414 -17.995 314.058 0.183261 0 0 0.114138 0.643488 0.0955228 -0.759473 -0.524166
44.6553 -13.3663 323.203 -0.107246 0 0 1.07622 0.687214 -0.105501 -0.718754 -0.623134
40.021 10.963 321.159 0.0852543 0 0 -3.5 0.800969 -0.575188 0.166151 0.0426003
39.548 -25.846 320.353 -0.0202682 0 0 -1.3 0.334801 -0.89965 0.280245 0.565629
38.0339 6.33887 322.069 0.122181 0 -0.241734 -1.30516 0.735029 0.374211 0.565419 -0.589539
44.5495 -8.2985 322.861 0.0053897 0 0 2.8 0.946493 0.224175 -0.232156 -0.434497
39.5249 -22.2485 317.65 -0.18648 0 0 -0.995833 0.399691 -0.398762 -0.82537 -0.152308
43.2875 -13.5138 316.871 -0.0425323 0 0 -0.7 0.498033 0.383012 -0.777987 0.967428
40.2762 -9.38762 318.651 -0.308641 0 -0.271663 -0.7 0.856164 -0.00218366 -0.516699 -0.960561
50.703 -11.4902 324.335 -0.217822 0 -0.181007 1.8 0.0656895 0.821748 -0.566053 0.303008
40.4279 5.57613 318.549 0.191261 0 0.384632 -3.08283 0.655195 -0.393475 0.644901 -0.466844
38.5261 -11.6281 312.397 0.105241 0 0 4.2 0.774342 0.165255 -0.610808 0.252465
51.9043 -13.7096 323.058 -0.0250887 0 0 1.8 0.485042 0.171359 -0.857537 0.999847
37.208 10.7528 326.983 -0.122734 0 0 -1.3 0.807476 0.535768 -0.246851 -0.903182
51.2757 -6.05075 324.138 0.00136757 0 0 -3.5 0.947374 -0.123579 -0.295315 0.999848
42.8311 -21.9171 319.854 -0.044671 0 -0.209752 -0.876751 0.452287 -0.0907364 -0.887245 -0.921873
37.2424 14.6039 323.097 -0.0285603 0 -0.0171915 -2.62199 0.312256 -0.015671 0.949869 -0.48899
37.3009 15.7186 329.308 -0.0227637 0 0 -4.5 0.488001 0.863204 0.129358 0.608029
37.8517 11.1622 328.034 -0.0907937 0 0 -4.5 0.450722 0.156741 -0.878796 -0.999886
40.2912 12.9811 319.088 -0.036504 0 0 -3.5 0.57723 -0.163151 -0.800117 0.204923
37.0545 -10.8442 310.429 0.233036 0 0 -3.51731 0.927001 -0.160196 -0.339126 -0.265566
41.4305 -7.18325 319.309 -0.041267 0 0 4.2 0.283271 0.203468 -0.937208 -0.112561
39.577 11.85 318.512 -0.0328894 0 0 -3.5 0.780591 0.0487887 -0.623136 0.235311
37.5945 -14.9545 312.468 0.0363593 0 0 4.2 0.134279 -0.341684 -0.930173 0.14446
39.9255 -25.6645 319.204 0.00377853 0 0 -1.3 0.456256 -0.787953 -0.413474 0.548124
35.629 15.8252 328.307 0.057953 0 0.365195 -4.10431 0.313966 0.76427 -0.563309 -0.377862
36.7945 12.3053 326.94 -0.38242 0 0 -2.69488 0.979399 0.0436673 -0.197158 -0.999879
48.3056 -12.0431 323.671 -0.0265733 0 0 2.29393 -0.11875 0.657072 -0.744416 0.256124
40.6198 2.35212 319.389 0.157998 0 0 -3.9 0.832807 0.248194 -0.494805 0.0589724
39.449 -11.9356 313.499 -0.00082441 0 0 4.2 0.923595 0.304281 -0.233207 0.68303
39.3727 -0.006125 317.701 0.0250143 0 0 -3.95068 0.932484 0.0656369 -0.355199 -0.494581
48.02 -2.10613 321.463 -0.0629537 0 0 2.8 -0.312433 0.780375 -0.541665 0.584628
39.663 10.722 317.828 -0.0177755 0 0 -3.89594 0.742718 0.661521 -0.103733 0.0245956
38.8924 -0.56375 316.187 -0.074081 0 0 -4.25023 0.736646 0.0862136 -0.670761 0.133278
41.7961 -20.9883 318.763 -0.420387 0 -0.67835 -1.3 0.501507 -0.170215 -0.848244 -0.251168
37.0875 7.9345 323.352 -0.181867 0 0 -1.3 0.956854 -0.201345 0.209499 -0.999846
54.223 -11.586 327.243 -0.113875 0 0 -3.2 0.587398 0.720008 -0.369529 0.426938
39.6981 15.8623 323.004 -0.777643 0 -0.0555451 -3.5 0.331541 0.306404 0.892299 0.82006
39.8618 -20.2575 316.764 -0.135433 0 0 -0.7 0.859988 0.0873499 -0.502784 0.723719
43.3587 -26.4934 322.128 -0.181679 0 -0.466517 -0.7 0.363035 -0.930268 -0.0529847 0.999891
50.271 -18.5483 323.216 -0.0355667 0 0 1.8 0.107933 -0.0986736 -0.989249 -0.0526236
42.0794 14.0786 321.726 -0.0519457 0 0 -3.5 0.891455 -0.0164843 0.45281 0.999878
40.8758 -0.6965 321.554 -0.077905 0 0 -0.365733 -0.303972 -0.586393 -0.750829 -0.704417
45.2337 7.29725 332.112 -0.72647 0 -0.461024 -3.5 0.164789 0.356489 -0.919652 0.663999
33.3942 -22.0403 313.85 -0.133936 0 0 -2.01323 0.398535 -0.413412 -0.818694 -0.454231
39.5905 -2.0605 315.737 0.042335 0 0 1.8 0.517344 0.400206 -0.756433 0.632831
49.1071 -1.51525 322.141 -0.069452 0 0 2.8 -0.0106586 0.878433 -0.477746 0.48272
39.4336 -21.2096 316.354 -0.0729977 0 0 -0.7 0.579763 -0.39869 -0.710578 0.839885
38.4567 -12.8155 312.095 0.042715 0 0 4.2 0.658297 -0.100397 -0.746034 0.999803
50.7765 -16.8436 323.502 0.095112 0 0 1.8 0.136608 0.130517 -0.98199 -0.482924
45.6782 -19.1606 318.946 0.159759 0 0 -3.9 0.615252 -0.251785 -0.747041 0.859407
39.7264 -12.5883 316.477 -0.126861 0 0 -0.7 0.562347 0.418334 -0.713276 -0.577697
43.3949 -2.58713 326.69 0.218228 1 0 3.8 0.899113 0.420988 0.119853 -0.5771
50.943 -7.022 324.345 -0.130652 0 0 -3.5 0.635359 -0.726535 -0.261661 0.999837
45.2918 -3.77325 320.848 0.0215721 0 0 2.8 0.107628 0.148321 -0.983065 0.338856
40.3033 11.8766 319.805 0.0409427 0 0 -3.5 0.800104 -0.449767 -0.396916 0.164829
47.878 -4.2135 328.372 0.104775 0 0 -3.5 0.116615 0.992798 0.0274414 -0.132383
44.8011 -9.45856 321.905 0.0154114 0 0 2.8 0.798378 0.335967 -0.499719 0.129078
50.9158 -3.17669 324.032 -0.0145561 0 0 2.8 0.987299 -0.0450101 0.152366 0.319724
50.9693 -6.68062 325.792 0.0409723 0 0 -3.5 0.931485 -0.363193 -0.0206425 0.0813571
50.2894 -4.88225 323.023 -0.0221713 0 0 -2.4222 0.790594 -0.163001 -0.590247 -0.117343
39.241 11.881 328.205 0.040619 0 0 -4.5 0.565075 -0.0439571 -0.823868 0.168049
45.8869 -13.7668 324.039 -0.082243 0 0 3.12601 0.231728 0.121471 -0.965167 -0.999865
46.7634 -17.623 319.866 0.0892057 0 0 -3.9 0.573825 0.0726222 -0.815752 0.524127
39.5 -2.423 319.194 0.0276721 0 0 1.8 0.662193 0.0910594 0.74378 -0.510712
42.7706 -16.2204 317.869 0.0171054 0 0 -0.7 0.356091 -0.471432 -0.806816 0.101999
49.9149 -2.30387 325.719 0.0615193 0 0 2.8 0.679245 0.365837 0.636231 0.534187
40.3609 -13.6205 316.317 -0.245757 0 0 -0.7 0.616981 0.448822 -0.646447 -0.455634
46.2415 -20.8994 323.104 0.0518587 0 0 -2.29006 0.608765 -0.594172 -0.525704 -0.999849
52.9958 -10.3343 327.687 -0.104629 0 0 -3.2 0.431313 0.79144 -0.433119 0.11822
50.62 -6.2605 329.243 0.0572633 0 0 -3.5 0.781701 0.617962 -0.084058 -0.63172
35.6855 16.4324 324.188 0.0250343 0 0 -0.4 0.45986 0.784366 0.416291 0.367845
46.9949 -19.4697 321.236 0.0789643 0 0 -3.9 0.444142 -0.72284 -0.529376 -0.0674861
38.9655 -1.12956 320.02 0.090353 0 0 -3.9 0.812061 -0.475867 0.337797 -0.999902
37.9098 -10.5831 311.449 0.0994537 0 0 -3.5 0.866848 -0.139108 -0.478772 0.118899
48.17 -4.109 329.341 -0.0167075 0 0 -3.5 0.231272 0.869078 -0.437284 -0.401336
36.2728 14.9595 326.461 -0.0862357 0 0.104245 -4.21879 0.657893 0.690526 -0.300584 0.156813
40.4775 5.2495 325.484 0.274979 0 0 -3.9 0.753976 0.600568 -0.266156 0.257471
51.1141 -10.6779 326.025 -0.328582 0 -0.47251 1.8 0.0505352 0.870954 -0.488759 0.113736
37.9346 -17.1056 314.601 0.082802 0 -0.716375 -0.557829 0.292216 -0.561167 -0.774404 -0.149906
37.1722 -5.7445 312.591 0.0548 0 0 -3.5 0.30653 0.806209 -0.50603 0.187533
37.3558 -6.38513 311.826 0.073781 0 0 -3.5 0.247258 0.769325 -0.589069 0.106638
43.776 -3.5105 327.787 0.132229 0 0 3.8 0.961338 0.275127 -0.0115685 -0.454455
49.196 -1.01737 333.522 0.0402227 0 0 1.8 0.621197 0.67365 0.400387 0.396981
41.1348 7.12325 318.953 0.104634 0 0 -4.5 0.537874 -0.192076 0.820852 0.0722857
37.896 -18.4155 314.993 -0.141173 0 -0.978484 -0.7 0.314508 -0.179687 -0.932093 0.177467
39.234 5.29637 325.126 0.63411 0 0.114106 -3.9 0.375554 0.894584 -0.242236 -0.999674
50.166 -4.18962 321.703 0.0122765 0 0 2.8 0.740922 -0.441023 -0.506491 0.855994
39.5712 -15.0563 313.345 -0.0122444 0 0 4.2 0.777992 -0.103575 -0.619677 0.999861
47.7808 -13.0554 323.611 0.0272544 0 0 1.8 -0.330082 0.132449 -0.934614 -0.0319565
41.5781 1.8875 328.69 0.2899 0 0 -1.21955 0.483344 0.0829848 -0.871488 -0.754539
43.583 7.254 332.902 -0.487597 0 -0.0287533 -3.5 -0.254519 0.471508 -0.844334 -0.319356
40.5911 14.048 322.699 -0.124056 0 0 -3.5 0.413423 0.0787181 0.90713 0.745274
39.6044 4.89731 319.509 -0.05783 0 0 -0.4 0.95746 -0.0254173 0.287444 -0.661021
37.9401 12.8886 323.176 0.205899 0 0 -1.66899 0.313347 0.181764 0.932081 -0.275381
42.8735 -20.4217 319.291 0.539637 0 -0.236624 -2.83209 0.270652 -0.554775 -0.786748 -0.654089
40.0448 2.55544 318.316 0.257105 0 0 -4.39049 0.978076 -0.194882 -0.0734092 -0.173939
40.6321 4.0585 317.42 0.261426 0 0 -4.5 0.836949 -0.402741 0.370561 -0.279489
36.287 -2.87313 313.732 0.0643797 0 0 -3.9 0.745775 -0.100423 -0.658586 -0.0751316
46.1647 1.24063 332.048 0.0345417 0 -0.994924 -0.7 0.97255 0.0735833 -0.220753 -0.14246
33.3269 -16.1694 313.87 0.274942 0 -0.439431 -3.52515 -0.272234 -0.025136 -0.961903 -0.194352
41.4125 2.8925 323.851 0.761407 0 0 -3.9 0.923711 0.143542 0.355181 -0.0698695
40.0324 9.36369 334.135 -0.127898 0 0 -4.31746 0.725752 0.594297 -0.346547 -0.0723987
43.572 -14.7633 320.634 -0.35724 0 0 -0.7 0.926715 0.366626 -0.0823631 -0.999837
40.193 0.943 319.103 0.122171 0 0 -3.9 0.772144 -0.0791887 -0.630495 -0.559659
38.5765 -11.0279 315.059 -0.0309838 0 0 1.36965 0.948299 0.27712 -0.154707 -0.627366
47.3468 -15.5188 322.747 -0.0260726 0 0 -3.35251 0.0349481 0.723758 -0.689168 -0.0810564
44.0269 -25.2304 321.235 -0.00162912 0 0 -0.7 0.626278 -0.625433 -0.465414 0.0973821
39.5815 -6.881 317.534 0.23461 0 -0.450853 -0.7 0.813054 0.159483 -0.559919 -0.0499673
44.8934 -20.536 319.601 0.226634 0 0 -3.9 0.562161 -0.642913 -0.520229 0.542723
49.6102 -3.39594 326.355 0.0137329 0 0 2.8 0.536113 0.588543 0.605145 0.160801
38.186 -6.44513 315.361 0.0783633 0 0 -2.41943 0.992272 0.0526418 -0.112362 -0.726101
50.338 -4.0045 325.463 0.0199551 0 0.189156 -2.92227 0.876009 0.346579 0.335397 -0.36856
53.0874 -9.51281 328.97 -0.48478 0 0 -3.25001 0.317556 0.445868 -0.836875 -0.334347
32.9488 -20.9406 313.02 0.0253095 0 0 -4.5 0.687547 -0.170543 -0.705829 -0.280204
42.3641 5.34613 329.595 0.038239 0 0 -0.7 0.498625 0.8323 -0.242178 0.0619625
53.7798 -11.9228 326.393 -0.0578473 0 0 -3.2 0.577826 0.567006 -0.587044 -0.181479
38.4881 -9.56763 313.302 0.18188 0 0 -3.5 0.979628 -0.189975 -0.0651056 -0.29129
41.6883 12.8816 321.241 -0.0203101 0 0 -3.5 0.912374 -0.409344 0.00333439 0.552767
37.2381 -2.76894 314.889 0.159746 0 0 1.8 0.575142 0.181344 -0.7977 -0.425042
42.112 4.70687 328.728 0.327044 0 0.293832 -0.9 0.579585 0.307682 -0.754594 0.16888
38.1809 7.89913 321.677 0.0270971 0 0 -0.581655 0.66352 -0.0328652 0.747436 -0.697061
32.3461 -16.9364 314.19 0.366033 0 0 -0.4 -0.485988 0.199565 -0.850875 -0.301094
45.1339 -8.66775 324.779 -0.0538763 0 0 2.8 0.757138 0.152127 -0.635295 -0.849896
47.0285 -2.70025 326.285 0.135197 0 0 2.8 -0.266254 0.561039 0.783801 0.426379
38.8325 -3.10378 315.322 0.0796793 0 0 1.8 0.417038 0.10308 -0.903025 0.361957
43.3156 1.223 323.206 0.130209 0 0 -0.4 0.333979 0.922264 0.194645 0.339756
42.0461 -4.3025 320.749 0.0831223 0 0 4.2 0.0156174 0.449111 -0.89334 -0.432887
44.65 -5.28237 321.175 0.203743 0 0 4.2 0.413333 -0.315231 -0.854275 -0.31781
46.6765 -20.2602 322.21 0.0599023 0 0 -3.9 0.43639 -0.770741 -0.464243 -0.279032
41.0624 11.6216 321.636 0.0131589 0 0 -3.5 0.732388 -0.628241 0.262528 0.999889
39.589 10.6734 319.597 -0.184845 0 0 -3.5 0.991117 -0.0656614 -0.115657 -0.507003
46.2567 -2.67275 321.786 -0.0565067 0 0 2.8 0.0466815 0.820371 -0.569923 -0.196652
34.546 -20.5898 313.46 -0.1108 0 0 -0.4 0.351085 -0.312439 -0.882678 0.206772
46.5669 -3.55675 326.565 0.113421 0 0 2.8 -0.274846 0.478782 0.833803 -0.143747
40.8906 -5.47225 319.549 0.034405 0 0 3.86781 0.586584 0.275161 -0.761713 -0.243966
48.2217 -17.8656 322.157 0.0248409 0 0 -3.9 0.858165 0.134705 -0.495385 -0.380349
36.9259 12.2449 325.796 -0.124908 0 0 -1.3 0.965225 0.260307 0.0240975 -0.146882
38.6685 -2.31825 320.014 -0.111239 0 -0.814679 -3.9 0.966717 0.188184 0.173334 -0.999892
49.0424 -11.6936 324.852 -0.0054713 0 0 1.8 0.122679 0.861537 -0.49265 -0.761034
39.6801 4.77453 322.312 0.46567 0 0 -3.9 0.567542 0.821401 -0.0565309 -0.221652
43.7692 3.55025 328.9 0.122054 0 0 -0.7 0.351062 0.129268 -0.927386 0.750748
39.355 -13.0505 315.177 -0.0541363 0 0 4.2 0.866301 0.490799 -0.0929444 -0.719147
43.9161 -12.5521 319.216 0.11262 0 0 -0.7 0.882583 0.378511 -0.278885 0.248616
36.9588 -0.7065 314.048 0.100542 0 0 -3.9 0.905568 0.0152204 -0.423928 0.390244
38.3836 -9.46412 312.152 0.086639 0 0 -3.5 0.915872 -0.280054 -0.287659 0.350571
38.8994 14.4013 327.956 0.0859473 0 0.479257 -4.5 0.61982 0.590842 -0.516459 0.468937
40.4419 -4.56444 318.581 0.0393287 0 0 1.8 0.988683 -0.149889 0.00634051 0.0909927
42.7325 -10.4417 319.632 0.126463 0 0 2.64225 0.310297 0.285735 -0.906682 -0.260451
50.245 -1.222 324.232 0.0466353 0 0 2.8 0.490606 0.847751 0.201555 0.785451
38.5242 -7.71819 316.092 0.216184 0 -0.480411 -0.7 0.872149 0.137902 -0.469403 -0.492037
47.7215 -0.4765 334.54 -0.389593 0 0 1.8 0.764289 0.598289 0.24065 -0.127906
41.0955 12.573 320.265 -0.00327016 0 0 -3.5 0.740604 -0.501486 -0.447234 0.631773
44.1645 -4.41738 328.793 0.146748 0 0 1.89528 0.78249 0.472437 -0.405601 -0.999885
38.3848 -7.85075 315.043 0.172143 0 0 -3.5 0.966225 0.163198 0.199436 -0.422865
45.6747 -12.1261 323.611 -0.0654663 0 0 3.44638 0.504957 -0.22652 -0.832891 -0.354165
43.9977 -3.50288 320.551 -0.0194824 0 0 2.10166 0.303212 0.0205274 -0.952702 -0.0464496
34.4029 16.3875 325.219 -0.0465233 0 0 -0.659701 0.600496 0.73998 0.303041 -0.286113
38.4921 -5.84888 316.311 -0.128639 0 0 1.8 0.824275 -0.197502 -0.530626 -0.707004
41.3609 1.01981 325.777 0.1488 0 -0.98498 4.5 0.705302 0.671484 0.227285 -0.356601
33.4961 -24.8891 314.57 0.0544633 0 0 -0.4 -0.136614 -0.0605033 -0.988775 -0.158084
39.3821 5.47525 321.195 0.214409 0 0 -2.27174 0.915833 0.203158 0.346376 -0.129025
49.1215 -1.10575 324.974 0.0227142 0 0 2.8 0.156594 0.95271 0.260425 0.339503
46.3732 -9.61175 325.327 -0.0679057 0 -0.029199 2.29639 0.239505 0.27912 -0.929908 -0.869869
51.0402 -4.6305 324.149 0.091803 0 0.294188 -3.5 0.97657 0.152349 -0.151991 0.326631
44.0555 -14.7585 319.005 -0.0213001 0 0 -0.7 0.96517 0.25921 0.0354535 0.209834
39.6681 -24.8749 321.938 -0.196723 0 -0.182417 -0.503641 0.208199 -0.976151 0.0615032 -0.999862
38.8638 9.7435 331.912 0.266187 0 0 -3.87541 0.998295 -0.0105962 0.0574063 -0.999835
49.4103 -13.9727 322.274 -0.0106515 0 0 1.8 -0.179554 0.0459539 -0.982674 0.784951
40.1091 -10.1829 317.867 -0.187273 0 0 -0.7 0.801087 0.178818 -0.571212 -0.0490771
45.5119 -24.2085 321.267 -0.035888 0 0 -0.7 0.788333 -0.520566 -0.327936 0.999875
48.6489 -3.18525 330.109 0.0196749 0 0 1.60852 0.294511 0.421916 -0.857467 0.254419
50.8936 -12.7393 323.32 0.0092318 0 0 1.8 0.363475 0.485022 -0.795386 0.216959
39.5592 1.52437 317.802 0.285577 0 0 -4.13114 0.923646 -0.270991 -0.271002 -0.534351
48.6246 -4.0045 327.133 0.0677617 0 0 -2.50353 0.0783019 0.783557 0.616366 -0.373896
45.1467 3.32575 329.845 0.142061 0 0 -0.7 0.651013 0.416661 -0.634488 0.35199
38.2199 -4.63206 314.842 0.068902 0 0 1.8 0.743417 0.0401836 -0.66762 0.157957
40.2827 -8.30384 317.983 -0.38538 0 -0.982466 -0.7 0.847726 0.0511156 -0.527965 0.320109
43.8581 -9.67488 319.816 -0.0533097 0 0 2.8 0.50445 -0.226383 -0.833235 0.36058
42.5231 2.20306 328.784 0.231317 0 0 -0.7 0.135 0.010146 -0.990794 -0.218488
41.2173 3.909 325.031 0.84018 0 0.256606 -3.9 0.942024 0.199246 0.269984 0.711431
39.3109 -5.57587 317.058 0.034507 0 0 1.8 0.730016 -0.463086 -0.502621 -0.231171
45.6695 0.8205 330.463 0.213407 0 0.00983437 -0.789151 0.820721 -0.167684 -0.546168 -0.0735149
38.0326 -7.29181 311.22 0.0686033 0 0 -3.5 0.61287 0.355238 -0.70583 0.474574
44.1614 5.68044 331.634 -0.112774 0 -0.0941934 -1.85143 0.130367 0.743136 -0.656318 0.0744785
36.9951 -25.2652 315.713 0.084612 0 0 -0.4 0.923936 -0.0797645 -0.374139 0.656939
39.2777 1.42338 315.987 0.0987147 0 0 -4.5 0.743109 -0.510902 -0.432166 0.205919
44.6802 -15.5813 322.019 -0.00314402 0 0 -3.60391 0.485376 0.79499 -0.36387 -0.99984
40.3336 3.83125 321.249 0.388747 0 0 -3.9 0.666497 0.672352 -0.322064 -0.400324
40.4811 -3.22338 316.277 0.0456227 0 0 1.8 0.751837 -0.0749263 -0.655078 0.99985
35.9782 -13.6034 312.227 0.103781 0 0 4.2 -0.0484761 -0.672519 -0.738491 -0.472556
45.4451 -1.89188 322.586 0.0506517 0 0 -0.4 0.671099 0.687849 -0.276567 -0.207824
38.8555 14.4353 330.203 -0.0698167 0 0 -4.5 0.595146 0.700467 0.393888 0.510337
38.1646 -25.215 318.177 -0.048371 0 0 -1.3 0.458337 -0.296053 -0.838021 -0.232691
39.996 7.23575 320.707 0.0946883 0 0 -0.4 0.818026 0.041401 0.57369 0.669175
39.4194 5.92581 326.133 0.187601 0 0 -0.9 0.249283 0.515639 -0.81974 -0.458803
44.0714 -14.3243 322.595 -0.055778 0 0 -0.795769 0.698455 0.360118 -0.618446 -0.999839
37.6757 10.3981 325.671 -0.00958457 0 0 -1.3 0.86888 0.470228 0.154703 -0.128938
36.6937 -12.4064 310.777 0.111489 0 0.0468598 -1.75212 0.63655 -0.634944 -0.43778 -0.0329884
46.6469 -4.057 328.916 -0.14291 0 0 -3.5 -0.237724 0.793959 -0.559568 0.100264
42.6995 -0.25775 327.246 0.198041 0 0.582266 0.03652 0.752925 0.658062 0.00760626 0.202755
40.055 -14.015 314.791 -0.0450903 0 0 4.2 0.925527 0.187644 -0.328921 0.348586
49.1241 -1.30325 330.886 0.0645003 0 0 1.8 0.25387 0.598109 -0.760142 0.880979
38.8927 13.9473 323.067 -0.126836 0 0 -3.5 0.16551 -0.00649051 0.986187 0.16023
43.235 -14.9274 316.82 -0.0473197 0 0 -0.7 0.398569 -0.436807 -0.806438 0.999847
50.407 -4.75688 327.996 0.0228943 0 0 -3.5 0.69635 0.652918 0.297984 0.256265
48.119 -0.41325 332.908 0.0531243 0 0 1.8 0.362287 0.927267 -0.0944707 0.0622546
35.1661 -12.9963 310.096 0.232084 0 0.417949 -4.5 0.135735 -0.921632 -0.363553 0.0791829
39.8797 9.75 326.899 0.092731 0 0 -0.9 0.438254 0.628125 -0.642956 0.876962
36.797 -16.1095 313.552 0.0162327 0 0 4.2 -0.122175 -0.667003 -0.734969 -0.147985
40.1916 8.25881 326.582 0.0769803 0 0 -0.9 0.411889 0.199358 -0.889159 0.221623
46.3495 -1.90912 324.337 -0.000136049 0 0 2.8 -0.0496773 0.962899 0.26525 -0.140086
51.7977 -9.68419 328.206 -0.362623 0 -0.119962 -3.2 0.489519 0.556304 -0.671489 -0.710158
37.0261 -24.0566 317.191 0.0258618 0 0 -0.511972 0.878711 -0.0300805 -0.476406 -0.601114
32.184 -15.3193 314.109 -0.247444 0 -0.181219 -4.5 -0.404574 -0.278546 -0.871052 -0.373152
40.2599 3.74756 326.501 0.539247 0 -0.214313 -1.55494 0.998942 -0.00812582 0.0452727 -0.603451
41.0303 -10.5945 319.113 -0.174253 0 0 1.73042 0.537939 0.455073 -0.709598 -0.999835
49.6298 -4.51587 333.155 0.0254163 0 -0.0317219 -0.206739 0.8954 0.0479532 0.442673 -0.731486
42.3302 8.75806 318.131 0.280809 0 0.808972 -4.5 0.651582 0.524733 0.547811 0.782512
49.9778 -9.02125 326.732 -0.146145 0 -0.0190256 -3.37548 0.657828 -0.142185 -0.739625 -0.193339
38.7909 9.129 325.991 0.0320879 0 0 -0.929552 0.679451 0.195703 -0.70714 0.22406
37.6662 -26.2584 317.957 -0.0523923 0 0 -1.18448 0.748581 -0.439086 -0.49682 0.0603592
43.4276 0.493625 324.769 0.320559 0 0 -0.4 0.541387 0.684627 0.488043 0.313334
40.9481 6.56716 330.532 -0.149708 0 0 -0.9 0.784891 0.523247 0.331902 -0.372845
37.4731 6.78956 325.128 -0.0684933 0 -0.0163941 -2.22552 0.855271 0.383121 -0.348898 -0.999765
41.259 15.6667 322.066 -0.127663 0 0 -3.5 0.643825 0.41047 0.645759 0.631124
41.6162 5.4085 331.626 -0.121902 0 0 -0.9 0.367017 0.903459 -0.221494 -0.905806
42.9603 -23.717 319.538 -0.0181064 0 0 -0.7 0.366043 -0.259064 -0.893811 0.326363
38.768 9.74975 322.183 -0.0433363 0 0 -3.43099 0.845492 -0.366289 0.388556 -0.0333475
38.4139 15.6826 323.255 -0.731937 0 -0.318352 -3.5 0.0727959 0.190248 0.979033 0.590003
42.2397 -8.04106 319.201 -0.44631 0 0 4.2 -0.0411166 -0.112277 -0.992826 0.275478
40.1905 13.0165 329.121 0.0245308 0 0 -4.5 0.97675 0.08125 -0.198389 0.683365
52.2663 -11.4034 324.608 -0.635203 0 -0.540532 1.8 0.469953 0.587726 -0.658576 0.843987
32.4953 -20.2985 312.07 0.117439 0 0.204713 -4.5 0.846768 0.257742 -0.465353 0.388237
45.321 -2.45575 329.541 0.20762 0 0 -1.3 0.566411 0.103916 -0.817545 -0.0690533
32.3796 -19.3564 312.575 0.098756 0 0.0228823 -0.645405 0.0539079 0.318372 -0.946432 0.114486
44.4957 -1.58569 324.713 0.357117 0 0 2.8 0.5888 0.4515 0.670419 -0.126244
34.4758 -14.2899 312.878 0.0748443 0 0 4.2 -0.154085 -0.529792 -0.834013 -0.372858
36.4121 -24.9907 314.563 0.0326652 0 0 -0.4 0.646846 -0.0582236 -0.760395 0.999862
44.4616 -16.0012 319.188 0.155131 0 0 -3.45776 0.642513 0.229993 -0.730945 -0.03306
37.4821 -11.9713 311.545 0.113419 0 0 4.2 0.667761 -0.145602 -0.729997 -0.457009
44.1646 -10.9444 320.301 0.0714533 0 0 2.03482 0.80577 0.0909667 -0.585201 0.232406
37.2096 6.84856 323.155 -0.100392 0 -0.81275 -3.5 0.8881 0.429592 0.163489 -0.818867
36.4462 15.0884 324.075 0.182369 0 0.436509 -0.4 0.837219 0.256948 0.482745 -0.149364
39.2036 -16.2946 317.105 -0.296988 0 -0.734239 -0.7 0.783816 -0.489528 -0.382092 -0.999841
45.004 -5.25375 326.863 0.0546413 0 0 1.28156 0.146285 0.875423 0.46069 -0.999895
50.3035 -2.61181 321.528 0.0638067 0 0 2.8 0.632619 0.243246 -0.735272 0.947023
46.4857 -6.80075 324.104 -0.091699 0 -0.0789108 1.45459 0.0565311 -0.725787 -0.685593 -0.603299
50.3636 -1.44631 332.374 0.0136757 0 0 1.8 0.878012 0.469823 0.0914413 0.999863
51.1961 -6.95687 328.329 -0.0241594 0 0 -3.5 0.922915 0.231766 -0.307428 0.185226
47.5619 -1.00612 331.628 0.306106 0 0 1.61567 0.0658227 0.731836 -0.678295 -0.112404
42.2988 -2.17275 320.434 -0.304713 0 0 -0.4 -0.406393 -0.0763708 -0.910501 0.366243
40.2853 -2.84025 318.539 0.0489697 0 0 1.8 0.91072 0.227093 0.34499 0.299519
45.6559 -17.8474 319.12 0.278685 0 0 -3.9 0.489925 0.145701 -0.859502 0.35397
46.336 -16.0626 320.925 0.0443187 0 0 -3.9 0.317597 0.88583 -0.338285 0.338659
45.4915 3.714 333.248 -0.092714 0 0 -0.7 0.940984 0.293411 -0.168697 -0.523419
51.6856 -16.1109 323.69 0.130158 0 0 1.8 0.241534 -0.0609812 -0.968474 -0.284397
38.0751 -23.1154 317.879 -0.201757 0 0 -1.3 0.388592 -0.393707 -0.833061 -0.99981
47.0755 -0.1585 335.582 0.31557 0 0 0.248972 0.965726 0.101324 0.238968 -0.74359
38.8598 12.3579 333.79 0.0963623 0 0 -4.5 0.854176 0.481542 0.196218 0.193484
38.7819 5.28225 323.567 0.0683947 0 0 -3.9 0.541003 0.838474 -0.065401 -0.653972
39.0895 12.9838 331.436 0.216878 0 0 -4.5 0.759331 0.519952 0.391238 -0.156339
40.9083 -16.0492 318.008 -0.47152 0 -0.67347 0.324926 0.167112 -0.409301 -0.896965 -0.906835
44.1924 -8.69825 321.266 -0.0627143 0 0 3.5527 0.964676 0.071941 -0.253424 -0.373835
42.1012 -0.582937 320.671 -0.0686163 0 0 -0.4 0.0614216 -0.0303568 -0.99765 0.123087
39.8759 -19.1232 317.592 -0.369343 0 0 -0.7 0.78896 0.172922 -0.58961 -0.472723
37.4354 12.0169 324.417 0.033387 0 0 -1.3 0.76413 0.507047 0.398759 -0.224683
52.1204 -6.87619 330.001 -0.0964047 0 0 -3.5 0.290128 0.752662 -0.591037 -0.169512
50.5937 -14.5681 322.719 0.00035811 0 0 1.8 0.261263 -0.131788 -0.956229 0.353783
48.4942 -16.4419 322.612 -0.170468 0 0 -3.9 0.405954 0.0644744 -0.911616 0.0647448
41.6974 -13.2452 316.631 -0.128306 0 0 -0.7 0.246065 0.319301 -0.91515 0.422458
44.4946 -0.63325 321.848 0.11447 0 0 -0.4 0.741192 0.51815 -0.426795 0.385717
44.969 -3.465 326.172 0.122602 0 0 2.96892 0.0297947 0.518113 0.854793 -0.112152
44.1104 -21.616 320.145 0.081487 0 0 -3.9 0.400198 -0.232076 -0.886556 -0.102138
31.232 -19.5378 313.345 0.100553 0 0 -0.4 -0.630608 0.769344 -0.102188 0.112136
36.6792 -19.4114 314.7 0.0192777 0 0 -0.7 0.423057 0.0178315 -0.905928 -0.292421
41.4487 7.78013 333.442 0.121717 0 0 -3.5 0.0707583 0.484843 -0.871734 -0.18798
46.1632 2.12919 329.871 0.467333 0 0.104819 -0.7 0.824515 -0.100747 -0.556799 0.999891
38.3157 13.4207 332.23 0.207066 0 0 -4.5 0.707794 0.668593 0.22806 -0.167451
32.3892 -23.3507 313.852 0.133635 0 0 -4.5 0.76055 -0.437503 -0.479744 -0.430496
44.8236 -7.44897 323.951 -0.0303867 0 0 2.8 0.762349 -0.44444 -0.470423 -0.745319
40.8941 -18.7231 318.293 -0.374977 0 -0.410385 1.15871 0.196186 -0.060552 -0.978695 -0.463965
46.1806 -1.17191 331.029 0.220428 0 0 -1.3 0.522803 0.437115 -0.731852 -0.511608
40.624 -3.771 321.013 0.0037076 0 0 3.79677 -0.0752419 0.722886 -0.686858 -0.414841
40.1825 12.6746 322.891 0.000167833 0 0 -3.5 0.335279 -0.291295 0.895955 0.717334
40.9749 1.12312 327.589 0.21213 0 0 4.5 0.895882 0.355137 -0.266971 -0.695125
41.9658 -5.48419 319.92 0.116146 1 0 4.2 0.139453 0.435939 -0.889106 -0.162005
38.3091 -6.12 313.882 0.0806407 0 0 -3.5 0.827357 0.560897 -0.0295715 0.0780604
44.7257 -6.71763 321.921 0.00665537 0 0 3.77302 0.775512 -0.41608 -0.474825 -0.18836
50.383 -4.296 331.99 -0.038041 0 0 1.8 0.967323 0.243479 0.0707355 0.0760423
42.6684 -17.3596 318.115 0.652703 0 0 -3.9 0.168965 0.124071 -0.977782 -0.164371
45.1397 -10.7369 321.798 0.0537403 0 0 2.8 0.829783 -0.169499 -0.531724 0.4805
39.3218 10.6494 327.973 -0.0140709 0 0 -0.9 0.797875 0.537885 -0.27217 -0.186068
35.766 -4.204 313.146 0.00168684 0 0 -3.5 0.0167329 0.275393 -0.961186 0.250361
39.5575 -0.84975 321.358 0.00325569 0 0 -3.9 0.591959 -0.542723 -0.595849 -0.999873
40.5063 8.12581 329.73 -0.10213 0 0 -0.9 0.781459 0.437364 0.445011 -0.320532
48.402 -3.4135 320.581 -0.00558533 0 0 2.8 0.0224085 0.169383 -0.985295 0.558106
41.9373 -26.0452 321.127 0.190703 0 0.27956 -0.7 -0.22189 -0.905843 -0.36085 0.456585
40.8512 -24.779 318.85 0.0426867 0 0 -1.3 0.459719 -0.589852 -0.663877 0.392472
42.3552 1.777 322.76 0.17486 0 0 -1.82964 0.809166 0.585552 0.0487706 -0.0295395
38.8638 11.4452 322.784 0.154802 0 0 -1.984 0.780071 -0.059585 0.622848 -0.0512153
47.4565 -2.0535 323.052 -0.234819 1 0 2.8 -0.342384 0.90441 -0.254588 -0.393528
43.0078 -0.99825 328.37 0.134781 0 0 -1.3 0.745534 0.201024 -0.635427 -0.561145
39.844 -3.5595 320.2 0.0103514 0 0 2.91512 0.709651 0.701223 0.068428 -0.171552
42.7125 0.746 328.619 0.230416 0 0 -1.3 0.312799 0.317425 -0.895209 -0.203878
38.815 -8.515 314.405 0.0304816 0 0 -3.5 0.956809 -0.113783 0.267527 0.572804
36.7775 -12.0345 309.531 0.199401 0 0 -4.5 0.880882 -0.430048 -0.197753 0.738094
41.0868 -15.3379 317.231 -0.390457 0 0 -0.7 0.223514 -0.799894 -0.556967 -0.67661
35.4535 -23.971 314.384 0.0687927 0 0 -0.4 0.311942 0.297135 -0.902443 0.693228
38.2449 -21.8642 316.653 -0.127595 0 0 -0.7 0.344714 -0.685586 -0.641205 -0.40986
41.2593 13.1241 322.292 -0.031733 0 0 -3.5 0.686023 -0.234918 0.688611 0.58055
40.0277 3.79982 319.941 0.0712323 0 0 -3.9 0.908798 0.407115 -0.091338 -0.478457
34.7236 -23.0695 314.579 0.317435 0 0 -0.4 0.191867 -0.0336542 -0.980844 -0.257055
3 426 598 311
3 311 598 44
3 44 598 371
3 44 371 584
3 598 36 303
3 303 36 197
3 431 36 9
3 9 512 39
3 236 372 547
3 531 474 480
3 580 147 447
3 392 584 558
3 220 197 431
3 276 292 501
3 292 236 501
3 501 236 214
3 214 236 547
3 616 547 633
3 633 614 140
3 633 140 616
3 284 576 190
3 436 435 54
3 435 648 642
3 642 531 466
3 154 531 480
3 154 480 544
3 166 480 474
3 377 410 486
3 374 507 410
3 392 147 580
3 473 396 665
3 583 333 121
3 549 476 151
3 333 188 142
3 188 655 552
3 575 188 552
3 575 552 294
3 294 563 575
3 416 124 586
3 416 586 256
3 330 547 616
3 101 330 616
3 330 101 23
3 330 23 256
3 23 522 259
3 59 522 101
3 239 59 80
3 59 101 140
3 80 59 614
3 140 614 59
3 239 80 457
3 87 57 506
3 94 506 57
3 57 353 94
3 57 305 353
3 315 561 438
3 341 506 280
3 358 379 184
3 171 653 379
3 379 548 171
3 548 81 576
3 576 81 0
3 576 284 568
3 568 548 576
3 545 553 25
3 25 553 595
3 429 375 250
3 192 28 538
3 466 509 642
3 154 47 536
3 536 47 10
3 47 502 10
3 102 502 490
3 482 285 641
3 502 61 607
3 607 165 350
3 607 350 310
3 310 350 385
3 350 400 388
3 388 541 172
3 167 541 388
3 541 136 528
3 541 528 172
3 439 223 131
3 131 223 283
3 549 131 283
3 283 278 549
3 549 151 516
3 579 441 615
3 247 550 565
3 142 188 575
3 247 565 205
3 256 182 647
3 647 182 650
3 647 650 7
3 96 187 650
3 187 96 100
3 193 100 316
3 193 316 631
3 631 316 457
3 305 306 86
3 610 305 155
3 104 155 454
3 104 231 155
3 254 231 530
3 530 344 254
3 76 254 344
3 605 244 561
3 605 561 315
3 605 557 272
3 526 345 313
3 345 287 313
3 26 313 170
3 644 287 572
3 462 525 209
3 462 394 50
3 521 358 184
3 83 184 652
3 462 50 234
3 234 652 91
3 653 320 4
3 4 320 196
3 4 196 389
3 653 171 320
3 171 612 320
3 69 612 568
3 69 568 314
3 314 568 540
3 85 212 258
3 314 663 667
3 258 488 336
3 469 588 590
3 469 590 488
3 488 590 35
3 592 545 29
3 297 592 455
3 564 198 378
3 29 378 198
3 378 25 265
3 66 250 33
3 500 192 472
3 192 322 472
3 322 509 660
3 217 532 95
3 524 532 363
3 308 532 376
3 308 376 585
3 490 641 376
3 585 376 285
3 641 285 376
3 285 337 106
3 483 337 511
3 149 511 337
3 511 409 483
3 511 149 482
3 482 606 511
3 74 511 606
3 74 1 511
3 511 1 178
3 511 178 409
3 191 326 619
3 326 606 619
3 208 619 329
3 419 607 291
3 291 607 310
3 291 649 428
3 291 310 329
3 310 459 329
3 136 452 451
3 349 439 132
3 365 132 439
3 365 439 137
3 137 439 131
3 137 549 516
3 543 495 160
3 495 134 351
3 351 134 246
3 495 615 134
3 615 441 246
3 64 128 24
3 64 24 327
3 327 24 475
3 128 226 24
3 226 113 274
3 68 205 565
3 274 578 470
3 187 578 650
3 398 539 446
3 230 539 76
3 317 539 398
3 470 344 475
3 496 344 530
3 72 161 530
3 496 530 161
3 295 272 526
3 526 430 295
3 526 313 430
3 430 313 26
3 430 194 411
3 26 560 430
3 194 430 560
3 529 194 560
3 560 26 221
3 281 153 15
3 15 153 253
3 109 628 464
3 628 582 370
3 628 450 16
3 89 450 389
3 89 267 450
3 389 196 240
3 393 240 402
3 196 320 361
3 320 612 361
3 402 361 664
3 402 334 393
3 402 664 120
3 71 120 85
3 22 71 630
3 630 440 22
3 258 336 630
3 79 336 35
3 488 35 336
3 79 289 355
3 70 564 227
3 248 378 443
3 443 378 179
3 440 434 354
3 335 108 434
3 434 108 354
3 354 108 117
3 384 403 366
3 472 48 429
3 366 429 48
3 48 384 366
3 204 241 460
3 384 460 497
3 225 241 524
3 225 524 5
3 225 5 224
3 228 533 585
3 300 585 533
3 503 300 533
3 2 533 228
3 533 2 618
3 618 337 643
3 352 643 282
3 114 201 602
3 157 602 201
3 299 352 282
3 282 273 299
3 139 119 651
3 651 273 409
3 409 178 487
3 409 487 651
3 651 386 269
3 218 546 626
3 218 626 206
3 481 206 654
3 206 191 55
3 208 49 249
3 543 160 342
3 535 456 351
3 456 339 351
3 339 160 351
3 93 327 475
3 534 93 496
3 475 496 93
3 150 321 589
3 150 589 77
3 407 150 77
3 407 77 437
3 238 589 295
3 238 295 554
3 237 554 177
3 430 411 554
3 177 554 411
3 529 560 465
3 286 465 421
3 560 175 465
3 421 465 467
3 467 175 169
3 207 169 175
3 169 207 414
3 252 414 207
3 207 560 252
3 252 560 604
3 17 414 252
3 17 343 414
3 17 604 325
3 17 325 8
3 319 8 567
3 302 424 468
3 405 215 464
3 118 464 215
3 427 118 298
3 215 298 118
3 298 215 418
3 464 16 347
3 16 293 347
3 16 267 293
3 16 464 628
3 645 30 347
3 608 30 594
3 257 420 559
3 645 173 636
3 620 393 334
3 334 117 340
3 636 340 617
3 346 556 219
3 556 384 497
3 443 179 556
3 179 384 556
3 224 625 406
3 224 135 625
3 14 224 571
3 14 571 503
3 14 503 37
3 503 533 596
3 596 37 503
3 596 498 37
3 618 412 596
3 646 596 412
3 646 19 262
3 19 279 262
3 262 122 133
3 133 122 264
3 478 279 635
3 213 242 183
3 343 270 201
3 201 114 67
3 67 114 156
3 67 78 408
3 78 415 369
3 415 63 43
3 415 43 442
3 442 43 195
3 43 63 156
3 156 304 43
3 304 195 43
3 299 195 304
3 442 138 103
3 138 601 255
3 601 401 255
3 656 487 566
3 656 566 46
3 566 288 46
3 88 577 591
3 577 514 555
3 112 323 591
3 112 21 222
3 150 222 11
3 407 437 13
3 237 177 123
3 627 479 566
3 627 566 323
3 323 566 591
3 288 479 286
3 177 411 529
3 517 421 12
3 12 504 517
3 421 467 12
3 12 467 413
3 467 519 413
3 413 519 103
3 413 103 138
3 92 656 517
3 519 369 415
3 408 414 343
3 433 319 424
3 567 424 319
3 491 211 27
3 27 298 491
3 298 27 427
3 491 107 235
3 296 418 608
3 418 296 107
3 296 609 107
3 152 296 594
3 520 594 257
3 180 498 199
3 6 135 498
3 158 199 210
3 444 133 382
3 133 264 382
3 382 264 494
3 364 65 433
3 494 364 40
3 115 527 364
3 527 40 364
3 587 348 115
3 367 115 216
3 348 587 471
3 471 587 111
3 587 433 111
3 471 424 391
3 527 367 623
3 367 611 623
3 99 60 611
3 395 624 404
3 232 624 623
3 624 235 461
3 624 461 144
3 624 144 623
3 623 144 523
3 235 609 461
3 158 210 356
3 356 245 551
3 510 444 417
3 245 116 551
3 266 444 382
3 312 383 451
3 289 45 181
3 455 181 477
3 477 181 229
3 229 590 629
3 569 455 477
3 528 385 172
3 515 52 667
3 125 357 583
3 486 357 125
3 357 507 485
3 485 639 357
3 357 639 655
3 357 655 583
3 54 435 642
3 558 584 371
3 449 558 371
3 449 371 186
3 186 371 598
3 621 449 186
3 621 186 303
3 303 186 598
3 492 621 303
3 492 303 197
3 431 197 36
3 309 164 431
3 309 431 39
3 39 431 9
3 105 380 309
3 105 309 39
3 164 309 380
3 531 277 474
3 474 277 453
3 277 648 453
3 474 453 185
3 148 474 185
3 148 185 499
3 558 447 147
3 558 147 392
3 621 655 449
3 449 655 639
3 552 655 621
3 220 373 381
3 373 368 381
3 416 373 276
3 276 373 220
3 492 381 552
3 552 381 368
3 492 220 381
3 292 276 220
3 292 220 431
3 642 277 531
3 277 642 648
3 466 531 513
3 536 513 154
3 154 513 531
3 400 480 166
3 166 474 148
3 388 400 166
3 388 166 275
3 148 275 166
3 275 148 499
3 223 82 332
3 125 332 486
3 486 332 387
3 377 486 387
3 278 476 549
3 476 278 121
3 121 278 583
3 390 476 121
3 333 390 121
3 579 597 390
3 579 390 142
3 142 390 333
3 416 294 373
3 647 563 294
3 647 294 416
3 368 373 294
3 368 294 552
3 256 647 416
3 182 259 650
3 259 182 23
3 256 23 182
3 96 650 259
3 522 96 259
3 239 522 59
3 100 96 522
3 100 522 316
3 316 522 239
3 457 316 239
3 94 613 506
3 305 57 454
3 305 454 155
3 87 454 57
3 244 454 87
3 244 87 561
3 438 561 506
3 341 438 506
3 91 652 653
3 379 653 184
3 184 653 652
3 612 548 568
3 84 399 634
3 469 399 84
3 469 84 588
3 592 31 545
3 545 31 562
3 553 545 562
3 429 595 375
3 375 595 553
3 509 466 505
3 463 505 513
3 513 505 466
3 463 513 536
3 290 532 102
3 490 290 102
3 10 502 102
3 10 102 536
3 536 102 463
3 463 102 532
3 658 502 607
3 502 658 490
3 172 385 388
3 388 385 350
3 385 528 459
3 278 283 125
3 125 283 332
3 332 283 223
3 615 495 359
3 359 516 151
3 516 359 495
3 597 359 390
3 390 359 476
3 476 359 151
3 359 597 615
3 550 441 51
3 51 441 579
3 3 565 550
3 550 51 579
3 271 3 579
3 142 271 579
3 550 579 3
3 3 271 565
3 575 271 142
3 575 565 271
3 647 62 563
3 338 187 100
3 307 338 193
3 631 307 193
3 193 338 100
3 305 610 306
3 610 155 231
3 317 610 254
3 254 610 231
3 539 254 76
3 254 539 317
3 537 632 454
3 537 454 244
3 537 244 146
3 146 244 637
3 637 244 605
3 272 637 605
3 170 313 644
3 644 313 287
3 184 83 521
3 582 91 653
3 91 582 234
3 370 582 4
3 370 4 389
3 653 4 582
3 664 361 612
3 85 612 69
3 212 85 69
3 212 69 314
3 159 258 212
3 159 212 667
3 667 212 314
3 469 488 399
3 31 592 297
3 181 455 289
3 289 455 38
3 198 38 592
3 592 38 455
3 355 289 70
3 70 289 38
3 198 70 38
3 564 70 198
3 545 378 29
3 179 378 265
3 179 265 403
3 366 595 429
3 463 217 505
3 204 660 509
3 95 204 505
3 95 505 217
3 505 204 509
3 241 95 524
3 524 95 532
3 532 308 363
3 376 290 490
3 532 290 376
3 643 337 483
3 643 483 282
3 483 273 282
3 273 483 409
3 606 482 638
3 658 638 482
3 658 482 490
3 490 482 641
3 546 487 178
3 546 178 626
3 626 178 1
3 208 55 619
3 55 191 619
3 291 329 168
3 168 329 619
3 397 203 649
3 203 397 606
3 606 397 619
3 619 397 168
3 251 649 203
3 251 203 638
3 606 638 203
3 419 658 607
3 318 658 493
3 318 638 658
3 419 493 658
3 428 493 419
3 291 428 419
3 649 291 168
3 397 649 168
3 649 318 493
3 428 649 493
3 318 251 638
3 251 318 649
3 459 528 383
3 383 528 451
3 451 528 136
3 452 110 365
3 452 365 312
3 365 110 132
3 666 312 448
3 137 448 365
3 365 448 312
3 543 666 516
3 516 448 137
3 448 516 666
3 495 543 516
3 615 246 134
3 163 432 550
3 550 432 441
3 441 432 246
3 550 247 163
3 432 64 570
3 570 535 432
3 570 64 327
3 128 64 163
3 163 64 432
3 470 475 274
3 274 475 24
3 274 24 226
3 230 470 581
3 581 470 578
3 581 578 338
3 581 338 307
3 581 307 174
3 338 578 187
3 307 631 174
3 446 202 631
3 539 202 446
3 174 631 202
3 174 202 581
3 230 581 539
3 539 581 202
3 657 161 72
3 321 657 537
3 537 657 72
3 589 321 637
3 637 321 146
3 146 321 537
3 589 637 295
3 272 295 637
3 560 221 425
3 622 425 58
3 58 425 170
3 170 425 221
3 560 425 604
3 604 425 622
3 162 90 281
3 423 162 253
3 423 253 484
3 253 162 15
3 15 162 281
3 118 484 109
3 118 109 464
3 628 109 127
3 153 127 253
3 253 127 109
3 253 109 484
3 450 628 370
3 389 450 370
3 267 16 450
3 636 173 89
3 267 89 173
3 636 240 620
3 620 240 393
3 240 636 389
3 389 636 89
3 361 402 240
3 361 240 196
3 22 334 120
3 22 120 71
3 120 334 402
3 355 630 336
3 355 336 79
3 227 630 355
3 630 227 440
3 434 440 227
3 434 227 564
3 434 564 335
3 599 263 662
3 263 599 346
3 346 599 108
3 108 599 117
3 179 403 384
3 460 384 48
3 204 460 472
3 472 460 48
3 225 406 460
3 406 497 460
3 406 225 224
3 241 225 460
3 571 5 524
3 5 571 224
3 585 300 308
3 308 300 571
3 308 571 363
3 363 571 524
3 503 571 300
3 618 360 412
3 360 643 635
3 635 643 352
3 643 360 618
3 279 360 635
3 602 331 635
3 478 635 331
3 352 602 635
3 156 114 304
3 304 114 602
3 304 602 352
3 299 304 352
3 139 195 119
3 566 487 546
3 566 546 176
3 546 218 176
3 55 654 206
3 249 654 208
3 208 654 55
3 456 654 339
3 495 351 160
3 577 481 126
3 126 481 654
3 126 654 32
3 32 654 456
3 514 577 126
3 514 126 18
3 18 126 32
3 18 32 535
3 456 535 32
3 200 570 327
3 535 570 18
3 18 570 200
3 93 534 445
3 93 445 200
3 640 200 445
3 327 93 200
3 659 129 445
3 659 445 534
3 222 21 555
3 222 555 657
3 222 657 11
3 657 150 11
3 150 657 321
3 77 238 508
3 508 437 77
3 589 238 77
3 328 508 238
3 328 238 554
3 123 177 489
3 529 411 194
3 465 286 529
3 467 465 175
3 574 343 17
3 574 17 8
3 574 8 319
3 567 8 325
3 567 325 260
3 604 260 325
3 622 260 604
3 468 567 260
3 567 468 424
3 118 427 484
3 608 418 215
3 405 608 215
3 347 608 405
3 30 608 347
3 420 257 594
3 420 594 645
3 30 645 594
3 617 559 420
3 617 420 645
3 617 645 636
3 340 636 620
3 340 620 334
3 617 340 599
3 662 617 599
3 117 599 340
3 143 662 219
3 219 263 346
3 263 219 662
3 143 422 625
3 219 422 143
3 422 219 556
3 406 625 422
3 556 497 422
3 422 497 406
3 498 135 14
3 498 14 37
3 14 135 224
3 199 498 596
3 646 199 596
3 510 262 133
3 270 130 331
3 331 130 518
3 518 122 478
3 264 518 130
3 157 270 331
3 331 518 478
3 279 478 122
3 279 122 262
3 264 122 518
3 602 157 331
3 213 264 130
3 213 130 242
3 242 130 270
3 242 270 343
3 408 201 67
3 519 415 103
3 103 415 442
3 601 138 442
3 591 176 218
3 591 218 88
3 176 591 566
3 56 555 514
3 555 56 129
3 555 129 659
3 129 56 640
3 514 640 56
3 445 129 640
3 323 112 407
3 222 407 112
3 150 407 222
3 407 13 323
3 323 13 627
3 328 237 600
3 328 600 508
3 508 600 268
3 508 268 437
3 554 237 328
3 600 123 627
3 123 489 627
3 600 627 268
3 13 437 268
3 13 268 627
3 237 123 600
3 286 479 529
3 529 479 489
3 529 489 177
3 65 183 433
3 433 183 319
3 574 319 183
3 574 242 343
3 242 574 183
3 391 424 302
3 395 211 624
3 491 624 211
3 301 484 427
3 180 458 520
3 594 520 152
3 152 520 458
3 42 458 180
3 42 180 199
3 158 458 42
3 158 42 199
3 646 210 199
3 510 210 646
3 510 646 262
3 444 510 133
3 494 264 213
3 364 494 65
3 65 494 183
3 183 494 213
3 367 527 115
3 216 115 348
3 216 348 261
3 261 348 471
3 232 623 611
3 232 611 404
3 624 232 404
3 491 235 624
3 20 144 461
3 20 461 189
3 189 461 245
3 245 461 116
3 116 461 609
3 542 116 609
3 551 116 542
3 551 542 458
3 458 542 152
3 152 542 609
3 551 158 356
3 458 158 551
3 417 245 356
3 510 417 356
3 510 356 210
3 189 245 417
3 189 444 20
3 417 444 189
3 52 634 399
3 52 399 667
3 667 399 159
3 507 357 410
3 410 357 486
3 512 9 426
3 36 598 9
3 426 9 598
3 639 558 449
3 558 639 447
3 621 492 552
3 197 220 492
3 292 164 372
3 292 372 236
3 292 431 164
3 374 410 377
3 580 447 396
3 655 188 583
3 583 188 333
3 586 124 501
3 501 214 586
3 124 416 276
3 124 276 501
3 547 330 214
3 586 214 330
3 140 101 616
3 23 101 522
3 87 506 561
3 81 548 379
3 81 379 358
3 324 540 284
3 284 540 568
3 97 515 667
3 97 593 98
3 98 593 324
3 324 593 540
3 34 538 54
3 34 54 642
3 34 642 322
3 34 322 192
3 192 538 34
3 54 538 436
3 61 502 47
3 61 47 544
3 544 47 154
3 61 165 607
3 165 61 544
3 480 400 544
3 165 400 350
3 165 544 400
3 167 388 275
3 223 573 82
3 349 573 223
3 349 223 439
3 278 125 583
3 507 473 485
3 665 485 473
3 485 665 639
3 597 579 615
3 575 563 565
3 62 565 563
3 330 256 586
3 86 353 305
3 104 454 632
3 104 632 530
3 104 530 231
3 603 315 438
3 315 603 557
3 315 557 605
3 526 557 345
3 345 557 603
3 603 287 345
3 234 50 652
3 652 50 394
3 612 171 548
3 314 540 593
3 593 663 314
3 159 399 488
3 258 159 488
3 29 198 592
3 403 25 595
3 25 378 545
3 403 265 25
3 429 250 66
3 500 429 66
3 66 33 538
3 66 28 500
3 28 66 538
3 642 509 322
3 192 500 28
3 463 532 217
3 285 482 149
3 337 285 149
3 74 606 326
3 326 191 626
3 326 626 1
3 326 1 74
3 310 385 459
3 131 549 137
3 226 128 205
3 128 163 205
3 247 205 163
3 650 113 68
3 68 113 226
3 68 226 205
3 7 62 647
3 62 68 565
3 68 62 7
3 68 7 650
3 650 578 113
3 578 274 113
3 344 470 76
3 230 76 470
3 475 344 496
3 632 537 72
3 72 530 632
3 557 526 272
3 26 170 221
3 281 525 153
3 525 281 209
3 525 462 145
3 525 145 153
3 153 145 127
3 127 145 628
3 462 582 145
3 462 234 582
3 582 628 145
3 85 258 71
3 630 71 258
3 73 289 79
3 73 79 35
3 35 590 73
3 45 73 590
3 73 45 289
3 590 229 45
3 181 45 229
3 569 297 455
3 70 227 355
3 248 41 378
3 248 335 41
3 41 335 564
3 564 378 41
3 248 443 346
3 335 248 108
3 346 108 248
3 595 366 403
3 429 500 472
3 95 241 204
3 618 2 106
3 106 2 228
3 106 337 618
3 585 285 228
3 106 228 285
3 273 651 119
3 273 119 299
3 299 119 195
3 487 656 386
3 487 386 651
3 191 206 626
3 329 459 49
3 329 49 208
3 49 459 383
3 49 383 342
3 342 249 49
3 342 383 543
3 452 312 451
3 339 654 249
3 339 249 342
3 339 342 160
3 432 535 246
3 535 351 246
3 534 496 161
3 659 657 555
3 295 430 554
3 207 175 560
3 252 604 17
3 347 405 464
3 293 645 347
3 173 293 267
3 293 173 645
3 354 22 440
3 22 354 334
3 334 354 117
3 346 443 556
3 618 596 533
3 412 360 19
3 412 19 646
3 279 19 360
3 201 270 157
3 78 67 63
3 67 156 63
3 78 63 415
3 442 195 139
3 601 442 139
3 601 139 651
3 601 651 269
3 401 601 269
3 401 269 386
3 401 386 656
3 288 566 479
3 75 481 577
3 75 577 88
3 75 88 218
3 218 206 75
3 206 481 75
3 200 514 18
3 514 200 640
3 591 21 112
3 577 21 591
3 555 21 577
3 479 627 489
3 421 517 243
3 243 517 288
3 243 288 286
3 243 286 421
3 467 169 519
3 519 169 369
3 369 169 414
3 369 414 408
3 369 408 78
3 408 343 201
3 298 418 107
3 298 107 491
3 609 296 152
3 594 296 608
3 135 362 625
3 559 362 233
3 233 257 559
3 520 257 233
3 559 625 362
3 625 559 143
3 180 233 498
3 498 233 6
3 135 6 362
3 362 6 233
3 180 520 233
3 504 12 53
3 53 12 413
3 413 138 53
3 255 53 138
3 53 255 504
3 401 656 92
3 401 92 255
3 504 255 92
3 504 92 517
3 656 46 517
3 288 517 46
3 587 115 364
3 433 587 364
3 424 111 433
3 471 111 424
3 99 367 216
3 367 99 611
3 609 235 107
3 527 623 266
3 266 623 523
3 266 523 444
3 444 523 144
3 444 144 20
3 494 40 382
3 382 40 266
3 527 266 40
3 161 657 659
3 161 659 534
3 472 322 660
3 472 660 204
3 375 553 661
3 97 667 663
3 97 663 593
3 559 617 662
3 559 662 143
3 85 120 664
3 85 664 612
3 447 639 665
3 447 665 396
3 383 312 666
3 383 666 543
