ply
format ascii 1.0
comment Generated by PyMesh
element vertex 588
property float x
property float y
property float z
property float charge
property float ct
property float hbond
property float hphob
property float nx
property float ny
property float nz
property float si
element face 1076
property list uchar int vertex_indices
end_header
76.528 14.1035 -3.33 0.273002 0 -0.0575288 -4.41814 0.16611 0.574224 -0.80167 -0.999835
84.4565 9.216 4.0595 0.135698 0 -0.00534356 3.8 0.8364 -0.0459362 -0.546191 -0.686286
79.066 6.262 -7.815 -0.307844 0 0 -1.6 -0.182631 0.779804 -0.598792 0.65838
87.751 10.9185 -5.536 0.00928997 0 -0.28125 -1.3 0.104061 0.810899 -0.57586 0.9999
81.896 15.037 5.206 -0.216036 0 -0.69781 -3.5 0.961322 0.271057 -0.048865 -0.684591
92.321 0.598 2.0045 -0.04673 0 0 1.8 0.995623 -0.0178444 0.0917458 0.999874
90.1785 1.227 -1.6765 -0.0798693 0 -0.0502109 1.34796 0.693576 0.148914 -0.704824 -0.999886
75.49 8.8145 -10.741 -0.190509 0 -0.00273823 -1.3 0.760174 0.442105 0.476109 0.645694
65.7385 0.4095 -14.423 -0.122262 0 0 -0.674113 -0.164449 0.168383 -0.971907 -0.216206
83.91 10.4342 2.5825 1 0 0 -3.9 0.84773 -0.344872 -0.403009 -0.495524
75.6045 6.116 -13.9543 -0.0129769 0 0 -1.3 0.258633 -0.132878 -0.956793 0.326089
88.54 14.5527 9.1115 -0.0175212 0 0 -0.9 0.619981 0.760648 -0.192453 0.568241
86.2887 5.1965 2.45125 0.169549 0 0 -1.3 0.478923 0.756037 -0.446139 -0.526406
69.2842 -4.58375 -16.0958 -0.0478233 0 0 -1.3 -0.0858943 -0.26447 -0.960561 0.525707
73.7114 2.774 -12.2689 -0.129761 0 0 -1.3 -0.306718 -0.154461 -0.939184 -0.58064
92.4378 7.94625 10.0077 -0.33366 0 -0.113955 -3.5 0.390046 0.916134 0.0925281 -0.284156
90.1825 2.7575 -3.20925 -0.465437 0 -0.0933201 -3.5 0.939719 -0.341831 -0.00897097 0.0957441
86.7533 11.855 5.07625 0.0896813 0 0 3.8 0.567397 0.52931 -0.630786 0.654064
86.962 9.163 -2.09 0.094205 0 0 -1.3 0.159295 0.625459 0.763824 0.771647
82.594 13.175 -0.266 0.243674 0 0 -3.9 0.745528 0.127683 -0.654129 -0.574892
81.991 12.691 -1.242 0.150987 0 0 -3.9 0.584051 0.127139 -0.801698 0.392722
65.0257 -2.9985 -16.5315 0.122516 0 0 -0.4 0.48661 0.0952571 -0.86841 0.519844
90.54 7.603 4.905 -0.216696 0 -0.899339 -0.7 0.891941 0.200262 -0.405384 0.999889
64.326 1.1295 -14.522 -0.393503 0 0 -0.4 -0.199581 0.249477 -0.947591 0.749106
90.308 3.183 -0.143 0.0255642 0 0 1.8 0.104612 0.969784 -0.220397 0.113387
74.263 10.225 -11.9023 -0.155548 0 -0.101076 -1.3 0.157533 0.97161 -0.176512 0.572051
84.993 5.745 0.948 0.195058 0 0.837149 -0.4 0.939616 0.315268 -0.133148 -0.252185
78.2885 10.3715 -5.65 0.0298601 0 0 1.8 0.360709 -0.171405 -0.916793 0.703082
80.406 5.0435 -8.051 -0.145721 0 0 4.2 0.405992 0.706706 -0.579428 0.183608
78.6253 -1.16425 -14.9452 0.0159466 0 0 -3.9 0.522305 0.603582 -0.6024 0.957282
74.6277 7.5585 -8.227 -0.0418353 0 0 -0.857063 0.716982 0.68641 -0.121562 -0.496762
86.299 3.33625 -0.737 0.108714 0 0 -1.14456 0.568428 0.818485 0.0835006 -0.999902
74.8057 -6.1185 -15.8853 0.0172532 0 0 -0.7 0.790412 0.102996 -0.603855 0.878742
89.202 4.90025 -4.22612 -0.172386 0 0 -3.5 0.511297 0.835939 -0.199454 0.705357
83.0023 9.92325 -2.866 -0.276202 0 -0.789245 -0.4 -0.116618 0.918171 -0.378632 0.289378
73.777 -1.3485 -15.2719 0.66052 0 0.0337583 -3.9 -0.781485 0.538945 -0.314356 0.476951
78.2613 12.3593 -5.29275 0.072248 0 0 1.8 0.414745 0.455204 -0.787893 0.871666
82.7999 16.136 -3.32312 0.309334 0 0 -4.5 0.627198 -0.436599 -0.644983 0.486238
91.2845 1.4105 -1.314 -0.0523333 0 0 1.8 0.589201 0.180923 -0.78747 0.487873
71.8282 -0.747 -13.142 -0.677103 0 -0.784364 3.18964 0.144848 0.39112 -0.90887 -0.535773
82.7 15.349 1.849 0.09473 0 0 -1.82011 0.945316 -0.2913 0.146706 -0.999864
86.855 10.8567 -5.024 0.073631 0 -0.023839 -1.3 -0.618127 0.753614 -0.223574 0.999883
84.7555 5.37875 -6.35575 -0.0387717 0 0 -1.3 -0.0227226 -0.500702 -0.865321 0.077202
82.6655 5.67225 -5.8475 0.0281831 0 0 -1.3 -0.0823463 0.211689 -0.973862 -0.633953
86.2832 0.97925 -6.201 -0.130402 0 -0.13792 -3.35011 -0.333709 0.700984 -0.630286 -0.767675
87.6255 3.351 -6.744 0.085829 0 0.222705 -3.5 -0.434184 0.298127 -0.850061 0.702887
77.1937 9.84025 -5.39075 0.103439 0 0 1.8 0.039653 -0.20799 -0.977327 -0.730779
82.8435 14.4733 1.31525 0.161249 0 0 -3.97117 0.977914 0.0915631 0.187885 -0.462339
87.8388 10.6755 -3.38375 0.253985 0 0.28126 -1.3 0.173657 0.624132 0.761776 0.999901
62.246 1.74675 -13.4945 -0.01221 0 0 -2.42845 0.274937 0.215101 -0.937092 -0.187532
74.124 -6.52725 -16.5557 -0.00859757 0 0 -0.7 0.342594 -0.0660959 -0.937156 0.999909
68.915 -6.97625 -13.4003 -0.159696 0 0 -1.3 -0.204614 -0.560176 -0.802705 -0.999898
74.7913 4.838 -13.709 -0.0610587 0 0 -1.3 -0.332771 -0.373556 -0.865863 0.848047
64.1215 -0.976 -16.19 0.0106569 0 0 -0.4 0.0537703 0.745238 -0.664626 0.958172
70.4725 -6.0165 -15.2517 -0.052346 0 0 -1.3 -0.406271 -0.368864 -0.835992 -0.271614
77.0665 -0.34 -15.6458 0.078039 0 0 -3.9 0.507961 0.418123 -0.753093 0.999898
78.7702 9.6965 -4.7335 0.0828957 0 0 1.8 0.805449 0.199204 -0.558185 0.07685
82.655 2.2385 -4.958 -0.10432 0 -0.178119 -1.3 0.766954 0.105517 -0.632967 -0.999899
68.312 5.75525 -12.2925 -0.0319421 0 0 4.2 -0.619464 0.170533 -0.766278 -0.065457
91.584 3.867 5.767 0.118536 0 0 -0.4 0.626923 0.346012 -0.698028 -0.0281881
75.6957 8.251 -13.5795 0.0530263 0 0 -1.3 0.565657 0.542049 -0.621462 0.444046
75.87 7.2405 -14.177 0.0510753 0 0 -1.3 0.330961 0.13213 -0.934348 0.999899
64.523 4.68525 -12.9675 0.00995913 0 0 -0.4 -0.137952 0.823399 -0.550439 0.99994
88.437 7.45525 -2.92625 -0.0112697 0 0 -1.3 0.924826 -0.28897 0.247371 0.566243
78.975 12.198 -4.579 0.0888527 0 0 1.8 0.927137 0.166217 -0.335842 0.896491
82.411 7.178 -5.6135 -0.00530087 0 0 -1.3 -0.277092 0.41834 -0.864992 0.154104
77.571 13.874 -3.55125 0.0507323 0 0 -1.31455 0.0279082 0.611223 -0.790966 -0.338891
75.89 7.7115 -10.6357 -0.0941937 0 0 -1.3 0.955474 0.120424 0.269384 0.607019
83.9047 17.7935 4.16875 -0.0103555 0 -0.14454 -1.92095 0.818822 -0.551067 -0.160798 0.262454
79.2035 16.103 -4.0565 0.145841 0 0 -4.5 -0.168764 -0.334499 -0.927162 0.639276
68.5465 -5.518 -15.917 -0.0142455 0 0 -1.3 0.203296 -0.549482 -0.810395 0.793117
92.0825 3.02925 1.0405 -0.02455 0 0 1.8 0.788759 0.607455 0.0941116 0.999902
78.0458 9.1175 -5.329 0.056571 0 0 0.101196 0.256514 0.0934063 -0.962017 0.152593
81.366 7.83 -4.757 0.053568 0 0 -1.31914 -0.0824401 0.674531 -0.733629 -0.205721
73.2357 -5.98675 -16.4275 -0.0109855 0 0 -0.7 -0.16622 0.219615 -0.961322 0.781837
66.1807 -5.78125 -16.1472 -0.0324842 0 0 -1.3 0.229527 -0.21192 -0.949951 0.693044
92.3985 4.86775 6.848 -0.315306 0 -0.0962076 -3.16874 0.34845 0.207443 -0.914084 -0.437488
93.4165 4.4745 7.0665 -0.339713 0 -0.130581 -3.5 0.622378 -0.26871 -0.735147 0.42712
75.2132 9.93 -11.7075 -0.00157945 0 0 -1.3 0.673512 0.714225 0.190431 0.898918
76.806 6.22625 -7.04825 0.0351617 0 0 -1.17467 0.322558 0.658229 -0.680214 -0.234286
86.0505 4.9485 -5.864 -0.066772 0 0 -2.4273 -0.0015151 -0.418645 -0.908149 -0.383041
90.7138 3.376 -5.63175 0.162598 0 0.752525 -3.5 0.928287 0.325601 -0.179633 0.999914
80.1565 14.28 -2.203 0.163922 0 0 -4.5 0.463874 -0.497645 -0.732919 -0.712427
84.482 8.191 4.068 0.108954 0 -0.00257541 3.8 0.773618 0.12755 -0.620682 -0.759781
71.4135 13.4338 -9.649 -0.153306 0 0 -3.5 0.259945 0.902327 -0.343851 0.668362
62.8908 -1.0615 -15.7395 0.00374697 0 0 -0.4 -0.422911 0.781785 -0.458213 0.589319
66.051 1.3575 -14.2535 -0.087738 0 0 -0.692119 -0.00289385 0.302958 -0.952999 -0.0932235
85.2805 7.726 4.5465 0.212481 0 0 -0.7 0.361046 0.343781 -0.866868 -0.770445
82.606 8.3595 -4.733 -0.199444 0 -0.672684 -0.538643 -0.376236 0.661102 -0.649146 -0.105611
63.5255 -1.663 -16.6405 0.00949713 0 0 -0.4 -0.111886 0.434677 -0.893609 0.745721
86.5845 1.0715 -10.0017 -0.317085 0 0 -0.914146 0.328688 0.924073 -0.195074 0.320905
85.631 -0.648 -13.6245 -0.278388 0 -0.681138 1.8 0.143924 0.735432 -0.662137 0.133211
69.205 7.1455 -12.925 -0.0129074 0 0 4.2 -0.467021 0.377455 -0.799637 0.506887
65.3555 -5.1155 -16.1835 -0.0841053 0 0 -0.823185 0.233996 -0.203933 -0.950609 -0.114895
83.58 5.16075 -6.233 -0.0311911 0 0 -1.3 -0.0209102 0.0926874 -0.995476 0.202879
69.9675 -6.719 -14.5208 -0.062818 0 0 -1.3 -0.502055 -0.572151 -0.648524 -0.359082
91.07 2.8405 3.679 -0.410627 0 0 1.8 0.657397 0.748612 -0.0860807 0.262222
91.8672 0.98875 2.91075 -0.0615213 0 -0.350738 1.8 0.915902 0.0177872 0.401007 0.347528
79.8595 4.4835 -8.7925 -0.037372 1 0 4.2 0.223104 0.784006 -0.579275 -0.778384
68.2452 0.498 -14.5653 -0.0744383 0 0 -0.7 0.0930104 0.0610656 -0.993791 0.371201
90.498 3.00025 -4.63 -0.038091 0 -0.177923 -3.5 0.986173 -0.0478913 0.158648 0.249531
79.0638 5.308 -8.3605 -0.0819343 0 0 4.2 0.147592 0.675211 -0.722708 0.0784625
86.7247 12.29 6.388 0.104516 0 0 3.8 0.534577 0.615288 -0.579351 -0.599994
85.3702 17.6758 -0.4205 0.0698437 0 0 -4.5 0.969936 0.158255 -0.184876 0.999864
73.923 0.023 -14.203 -0.0391987 0 0 -3.9 -0.581545 0.69584 -0.421441 0.999774
85.474 9.703 -5.815 -0.0549677 0 0 -1.3 -0.45454 0.850944 -0.263228 0.860529
85.3183 17.7275 0.5865 0.134467 0 0.184046 -4.5 0.840258 0.183602 0.510154 0.999907
74.5455 1.838 -12.413 -0.157062 0 -0.00513111 -1.27086 -0.273138 0.0685175 -0.959532 -0.260742
76.699 7.26975 -13.2385 0.0375163 0 0 -1.3 0.893995 0.292454 -0.339477 0.999883
90.6647 7.08375 5.82025 -0.404777 0 -0.868443 -0.7 0.889432 0.304053 -0.341267 -0.0955506
92.2335 8.05325 7.25175 -0.554107 0 -0.748418 -3.5 0.348936 0.664293 -0.661029 0.791256
88.9157 8.54075 -5.06075 -0.238108 0 -0.00897689 -1.3 0.932019 -0.21041 -0.295074 0.811432
70.755 -8.336 -15.6585 0.177212 0 0.406163 -0.7 -0.745013 -0.16354 -0.646692 0.999891
89.541 4.3165 -2.1615 -0.331003 0 -0.517889 -3.5 0.292214 0.690585 0.661591 0.840512
76.8282 6.402 -12.2365 -0.0680903 0 0 -1.3 0.973213 0.185747 0.135479 0.546118
80.228 3.783 -10.1147 -0.0265255 0 0 4.2 0.457061 0.66857 -0.586608 0.467765
76.0615 -1.468 -16.1314 0.54883 0 0 -3.9 0.292753 0.136158 -0.946444 0.521708
80.8232 -0.6355 -12.6671 -0.102882 0 0 1.8 -0.322807 0.403165 -0.856302 0.072776
70.509 10.777 -11.986 0.098185 0 0 -3.5 -0.135416 0.120977 -0.983375 0.687817
86.9144 10.1785 -5.87525 -0.129981 0 -0.325137 -1.3 -0.296955 0.787354 -0.540269 0.0618316
84.3359 13.0946 4.57037 0.608613 0 0 1.34091 0.409416 0.84416 -0.346082 -0.296991
72.6485 -1.54113 -13.3994 -0.708007 0 -0.813861 3.33174 -0.137171 0.567724 -0.811711 -0.999892
69.0489 -3.50087 -16.0077 -0.0266836 0 0 -1.3 -0.287169 0.377228 -0.880473 0.5095
84.4782 7.65088 -7.11775 0.0195 0 0 -1.3 -0.565654 0.261487 -0.782087 0.605498
74.7507 9.84638 -10.8246 -0.265722 0 -0.159351 -1.3 0.620826 0.727751 0.291467 0.22674
82.1821 1.99075 -9.51787 -0.0454627 0 0 3.04047 0.610043 0.703798 -0.364027 -0.200603
74.0441 9.98162 -8.82825 0.0848563 0 0 -3.5 0.99863 -0.0521492 -0.00437245 -0.443471
74.5419 6.50063 -13.9325 -0.0444957 0 0 -1.3 -0.338466 -0.00972072 -0.940928 0.704983
76.3424 5.09625 -10.1053 0.0063899 1 0 -1.3 0.564837 0.789177 0.241162 -0.675551
70.5096 8.44119 -12.5116 -0.0114583 0 0 4.2 -0.0373689 0.420069 -0.906723 0.374717
87.7264 4.60975 -5.67825 -0.0376517 0 0 -3.5 0.355165 0.513835 -0.780917 0.104305
87.3887 6.30762 -5.45612 -0.125451 0 0 -1.3 0.807828 -0.11575 -0.577941 -0.337677
78.4818 -0.368 -12.1248 -0.0923507 0 0 -3.9 0.255065 0.697956 -0.669178 -0.72014
85.2452 13.8348 6.2245 0.0582703 0 0 3.8 0.290567 0.911853 -0.28999 0.523388
76.551 6.26375 -13.3272 0.00203768 0 0 -1.3 0.798489 -0.0839897 -0.596122 0.435803
93.1345 7.47925 10.5688 -0.172632 0 0 -3.5 0.630206 0.7246 0.278918 0.329449
90.609 6.01 5.697 -0.098703 0 -0.251417 -0.7 0.799439 0.0240487 -0.600266 -0.176226
84.1789 7.866 1.43525 0.293177 0 0 -0.4 0.903125 0.385538 0.189011 -0.409351
76.0714 9.25725 -5.50225 -0.185205 0 0 1.8 0.448282 0.0238694 -0.893573 -0.792889
88.7227 12.416 11.1825 -0.0536803 0 0 -0.9 0.985926 -0.0394208 0.162469 -0.0815588
79.2705 3.694 -10.938 -0.0122738 0 0 4.2 0.133918 0.657449 -0.741503 0.788201
85.1395 12.348 3.641 0.514617 0 0.265201 -3.52438 0.779996 0.53463 -0.325234 0.387965
88.46 6.7445 3.96025 0.251327 0 0 -0.7 0.133446 0.0877216 -0.987166 0.2957
90.8942 -0.330375 -0.913875 -0.0366897 0 -0.00879587 1.07765 0.922821 -0.343183 -0.175006 -0.142214
78.7969 11.2695 -5.1115 0.071059 0 0 1.8 0.813004 0.0508127 -0.580037 0.637333
89.947 3.07888 1.90237 0.248842 0 0 1.8 0.129397 0.990897 -0.0371288 -0.100101
85.8236 0.655125 -11.4202 -0.270345 0 0 1.8 0.267656 0.862532 -0.429416 -0.294708
92.0792 8.39775 10.8705 -0.0786833 0 0 -3.5 0.457864 0.8889 -0.014764 0.66668
86.1306 8.4705 4.979 0.249319 0 0 0.399137 0.0537427 0.236642 -0.970109 -0.828226
86.6543 4.66375 1.47175 0.138211 0 0 -1.3 0.450234 0.743285 -0.494789 0.610606
83.348 13.221 0.481 0.185118 0 0 -3.9 0.840163 0.350357 -0.413976 0.218428
90.8465 0.858875 -6.131 -0.132574 0 0 -3.5 0.665883 0.732768 -0.140181 0.0542151
86.004 8.22525 -1.50287 0.103225 0 0 -1.06147 0.538513 0.238834 0.808061 -0.0870792
77.8539 0.978375 -11.3626 -0.216617 0 0 -0.311864 0.202777 0.478894 -0.854133 -0.61861
82.9538 1.34125 -11.895 -0.0305285 0 0 1.8 0.0551213 0.878339 -0.47485 0.604683
77.7269 3.46913 -10.9456 0.0957357 0 0 4.2 0.270553 0.326848 -0.905523 0.0191585
90.7689 0.39425 -1.74688 -0.126471 0 -0.00166747 0.352575 0.738786 0.162139 -0.654146 0.100572
88.7145 14.2825 10.0735 -0.0721197 0 0 -0.9 0.762562 0.623502 0.172467 0.574651
89.2189 4.16038 3.887 0.0763427 0 0 -1.3 0.567722 0.451585 -0.688304 -0.315095
66.1955 6.91719 -10.1556 -0.38853 0 -0.375404 -4.5 -0.587133 0.296891 -0.753081 -0.0511164
82.8424 14.2949 6.9065 -0.182196 0 -0.351454 -2.63551 0.525051 0.709816 -0.469555 -0.999886
89.7195 8.58838 7.2935 -0.071418 0 -0.351395 -1.03252 0.600348 0.69332 -0.39861 -0.732804
74.951 11.9483 -6.56444 0.04699 0 0 1.45068 0.675836 0.290159 -0.677535 0.17067
87.103 1.28537 -6.70638 -0.109435 0 0.149063 -3.31341 -0.499731 0.609453 -0.615497 -0.318718
81.2401 4.69975 -7.166 -0.1518 0 0 3.8497 0.615735 0.662383 -0.426754 -0.643393
85.1759 9.4095 -3.41162 -0.126948 0 -0.0111318 -0.816959 -0.0470583 0.996078 0.0749274 -0.365869
85.6965 0.1815 -12.4823 -0.0405 0 0 1.8 0.306427 0.833636 -0.459514 0.098755
77.2162 0.4785 -12.2629 -0.105023 0 0 -3.9 0.393975 0.82019 -0.414817 -0.304705
76.4516 7.03025 -6.27738 0.098887 0 0 -0.7 0.474081 0.610951 -0.634023 -0.741036
88.2005 8.317 -1.9885 0.087782 0 0 -1.3 0.658399 0.135993 0.740282 0.999905
89.2933 1.66325 -6.59325 -0.0615057 0 0 -3.5 0.410133 0.226807 -0.883374 -0.473257
84.0944 7.62563 3.24237 0.0709157 0 -0.253904 3.32712 0.897125 0.369389 -0.242319 -0.77843
91.423 8.49375 11.6318 -0.03952 0 0 -3.5 0.411759 0.821238 0.394997 0.999831
88.7678 8.714 4.75125 0.57247 0 0 -0.7 0.319723 0.820544 -0.473799 0.547999
86.2754 16.0851 10.7979 -0.123389 0 0 -0.9 0.620487 0.74183 -0.254329 -0.842394
68.2802 -3.2085 -15.3039 -0.086323 0 0 -1.3 -0.325367 0.58801 -0.740527 -0.318111
81.9542 4.89625 -6.2065 -0.357823 0 0 -1.3 0.268106 0.507418 -0.81893 -0.900923
70.576 3.25125 -12.6721 -0.110993 0 -0.152 2.21764 0.487918 -0.0684512 -0.870201 -0.228277
73.3877 -4.22137 -15.5452 0.166839 0 0 -2.76386 -0.0823202 0.149814 -0.985281 -0.403142
67.0076 -3.55413 -15.295 0.009174 0 0 -1.3 0.0656893 0.524631 -0.848791 -0.370835
71.1137 0.0585 -13.1996 -0.391047 0 0 -0.7 0.520006 0.369659 -0.77003 -0.364153
83.7751 8.76225 1.189 0.212317 0 -0.106369 0.400285 0.894347 0.336209 0.295137 -0.647925
70.4451 -7.52875 -14.8807 0.225369 0 0.703174 -0.7 -0.814392 -0.0645432 -0.576715 -0.0686677
76.0153 5.748 -7.889 -0.00129097 0 0 -0.7 0.685089 0.517648 -0.512536 -0.90638
90.7822 8.69287 10.5042 -0.0554847 0 0 -3.5 0.26909 0.959154 0.0872564 0.177207
82.9792 14.1574 3.01513 0.393603 0 0 -3.9 0.933466 0.334633 0.12908 -0.156839
91.042 3.43225 0.53125 0.00935543 0 0 1.8 0.0681469 0.997232 -0.0297535 0.999859
77.0675 4.7745 -9.178 0.232611 0 0 0.451893 0.171827 0.957266 -0.232632 -0.186931
82.611 11.9807 -0.628688 0.197416 0 0 -3.9 0.660374 0.245562 -0.709652 -0.57405
80.7432 13.5647 -1.55 0.18648 0 0 -4.20783 0.441331 -0.216149 -0.870923 -0.591845
84.8503 9.4255 -4.468 -0.100387 0 0 -0.785185 -0.310069 0.941874 -0.129342 0.0418514
70.354 -4.743 -16.0005 -0.0173027 0 0 -1.3 0.144283 -0.277082 -0.949952 0.291663
84.3432 -0.98375 -13.755 -0.0511647 0 -0.021021 1.8 -0.187928 0.459191 -0.868232 0.0823766
73.9109 -3.33313 -15.8569 0.804037 0 0 -3.9 -0.308198 -0.268879 -0.912534 0.18277
84.2231 16.7693 1.11588 0.0973407 0 0 -4.5 0.717734 -0.195124 0.66842 -0.0264309
85.1535 13.5472 5.267 0.0902783 0 0 3.8 0.32111 0.814399 -0.483365 0.999852
71.2334 6.11025 -13.5868 -0.0581493 0 0 4.2 0.211916 0.149954 -0.965715 0.6933
75.8755 4.8315 -13.8547 0.0160184 0 0 -1.3 0.3233 -0.226861 -0.918701 0.936061
90.3455 9.12375 8.1785 -0.0722023 0 -0.52354 -3.17464 0.780357 0.584675 -0.221804 0.191555
83.3876 10.0659 1.75825 0.648483 0 0 -3.9 0.991659 -0.0857417 -0.0962338 -0.999892
87.1823 3.27737 0.512375 0.0647887 0 0 -2.3043 0.409367 0.847466 -0.337965 -0.487972
77.629 -0.473 -14.459 0.184432 0 0 -3.9 0.543638 0.764499 -0.346408 0.0734484
71.8304 2.59612 -11.7701 -0.326918 0 -0.164914 -1.19784 0.231809 -0.00633615 -0.972741 -0.99984
85.9405 13.8837 7.96325 0.0233197 0 0 1.2174 0.296715 0.76274 -0.57462 -0.642703
91.3695 0.2555 3.6835 -0.147008 0 -0.437167 1.8 0.966615 -0.0152864 0.255778 -0.627054
63.4151 1.75738 -13.6433 -0.277602 0 0 -0.4 -0.351459 0.291952 -0.889517 -0.171366
84.8873 7.00938 3.94187 0.194998 0 0 -1.11048 0.529986 0.560608 -0.636265 -0.999861
76.302 2.6995 -11.9552 -0.0183853 0 0 -1.3 0.711621 -0.16168 -0.683707 -0.236634
76.2032 12.238 -5.9635 0.0596867 0 0 1.8 0.257821 0.519463 -0.814669 0.481986
83.3656 10.8096 -0.48575 0.138997 0 0 -3.9 0.768201 0.510787 -0.385958 -0.0716319
67.6995 -2.5495 -14.5077 -0.16452 0 0 -0.884817 -0.0711583 0.431581 -0.899263 -0.820485
66.9333 0.95825 -14.708 -0.0496977 0 0 -0.7 -0.0439433 0.329215 -0.943232 0.815411
76.94 5.14612 -7.96012 0.0848537 0 0 4.2 0.16701 0.834321 -0.525373 -0.82492
76.1133 14.9908 -3.10175 0.10512 0 -0.727255 -4.39991 0.351702 0.299975 -0.886747 -0.452162
90.3614 8.5045 11.9091 0.0450037 0 0 -3.5 0.311965 0.944956 0.0986737 -0.211172
75.8454 -5.04987 -14.6619 0.109896 0 0 -3.9 0.310846 -0.302868 -0.900914 -0.888891
83.5379 12.1109 -0.0225 0.173526 0 0 -3.9 0.775528 0.180421 -0.604983 0.638423
89.6768 8.00075 4.19063 0.207822 0 -0.0420152 -0.7 0.491662 0.486916 -0.721929 0.999875
89.0495 13.7435 7.94875 0.0356757 0 0 -0.9 0.655388 0.47478 -0.58741 0.999902
89.7258 0.711875 -2.97913 -0.114217 0 -0.270307 -3.5 0.874066 0.474452 -0.104425 -0.9999
88.4195 13.56 11.449 -0.0263727 0 0 -0.9 0.947085 0.320799 0.0108623 -0.398061
85.6052 9.17275 -2.00463 0.0615343 0 0 -0.859148 0.248276 0.901871 0.353536 -0.0504448
66.833 6.435 -10.9055 -0.0284598 0 -0.339376 0.638228 -0.622661 0.337786 -0.705828 0.0125596
86.2048 9.99975 -4.7985 -0.0453997 0 0 -1.3 -0.563096 0.821406 -0.0906312 -0.260306
71.8414 11.1062 -11.8705 0.119039 0 0 -3.5 0.20246 0.241071 -0.949155 0.48863
88.133 10.5694 6.259 0.0636837 0 0.00788258 3.22914 0.709606 0.299907 -0.637586 -0.131712
83.548 1.3825 -4.88925 -0.0253271 0 0 4.2 0.166918 0.627212 -0.760752 -0.99989
91.8928 0.6035 -0.8755 -0.0492937 0 0 1.8 0.793744 -0.389638 -0.467068 0.999881
87.478 7.562 4.31575 0.283654 0 0.0484182 -0.7 -0.217497 0.39115 -0.894258 -0.233634
86.7698 2.46 -5.93825 0.0842757 0 0.159433 -3.5 -0.56273 0.177538 -0.807351 -0.56827
74.6913 8.538 -13.5273 0.0494773 0 0.0555323 -1.3 -0.204708 0.382561 -0.900967 0.551733
75.682 7.217 -7.4775 -0.0063093 0 0 -0.7 0.664578 0.592679 -0.455046 0.318463
79.5232 -3.99362 -15.1489 0.0207935 0 0 -3.9 0.0562478 0.0589582 -0.996675 0.540802
73.3268 -0.35575 -13.4213 -0.447097 0 -0.188925 -2.27426 -0.525669 0.479177 -0.702895 -0.226372
76.0717 -7.67812 -14.596 -0.0974463 0 0 -0.7 0.249595 0.118633 -0.961056 -0.5944
67.3441 5.52938 -11.624 -0.045972 0 0 4.2 -0.564019 0.315695 -0.763033 -0.566913
75.8317 0.6215 -13.2498 0.0113845 0 0 -3.79964 0.289222 0.945315 -0.150763 -0.0323065
86.0088 3.86737 0.289375 0.138817 0 0 2.01037 0.721472 0.6617 -0.204036 -0.510998
80.4616 1.87125 -11.0851 -0.038966 0 0 4.2 0.367689 0.345112 -0.863541 0.220706
90.7773 3.445 4.68425 -0.0173724 0 0.392215 0.212719 0.667388 0.513749 -0.539124 -0.154047
91.5527 2.891 -0.291625 -0.0144884 0 0 1.8 0.557009 0.666109 -0.496024 0.623544
84.9258 11.338 3.31875 0.93958 0 0.0728747 -3.9 0.832141 -0.269748 -0.484538 0.239396
84.1266 12.321 1.30237 0.313184 0 0.0837765 -3.9 0.89854 0.181449 -0.399628 0.396816
71.6565 -4.376 -15.6145 -0.0709907 0 0 -1.05004 0.0608506 0.18531 -0.980794 -0.22915
71.1796 -5.3955 -15.733 -0.0338877 0 0 -1.06554 -0.164784 -0.0763727 -0.983368 0.0870811
69.2872 -5.898 -15.2389 -0.11768 0 0 -1.3 0.0229123 -0.602392 -0.797871 -0.160383
76.6148 1.29813 -11.6441 -0.199735 0 0 -3.69499 0.504387 0.277845 -0.817555 -0.56766
73.7085 5.95575 -13.3097 -0.138238 0 0 -1.3 -0.364156 -0.100037 -0.92595 -0.0714631
81.5033 1.75425 -10.5905 -0.0365077 0 0 2.29883 0.161887 0.807856 -0.566711 -0.103444
73.5853 10.4374 -11.1029 -0.00914917 0 -0.23772 -2.27497 0.406007 0.833879 -0.373904 -0.237216
82.3006 -2.2135 -13.7344 -0.0135798 0 0 1.8 -0.209757 0.679427 -0.703122 -0.682692
74.1428 12.4156 -9.59175 0.0300571 0 0 -3.5 0.723696 0.542149 -0.427011 0.999897
83.3217 -2.321 -14.3442 0.186839 0 0 1.8 -0.349057 0.761957 -0.54551 -0.614649
92.7736 3.43613 6.60337 -0.0464353 0 0 -0.4 0.81891 0.0486096 -0.571859 0.290995
87.608 11.3173 -4.23225 0.271954 0 0.747746 -1.3 -0.0711171 0.982539 0.171927 0.999917
94.1543 6.137 7.453 -0.630217 0 -0.50491 -3.5 0.835786 0.114828 -0.536913 0.999885
87.7021 13.7478 7.5895 0.0211448 0 0 -0.9 0.254201 0.520367 -0.81523 0.445594
92.4854 2.13275 6.07275 -0.036444 0 0 -0.4 0.850141 -0.328363 -0.411628 0.666145
77.551 -1.271 -15.3535 0.162612 0 0 -3.9 0.470777 0.251399 -0.845676 0.145235
71.9535 -2.3815 -14.361 -0.424 0 -0.543944 -1.3 -0.00755609 0.729818 -0.6836 -0.489385
90.8512 7.77588 6.72687 -0.193453 0 -0.583069 -2.11143 0.532111 0.658722 -0.531924 0.036716
70.1955 2.17275 -13.4882 -0.33478 0 -0.901705 -0.7 0.392643 0.379941 -0.837542 0.588401
89.4755 8.86175 10.8361 0.0180514 0 0 -3.04862 0.522341 0.818788 0.238214 -0.99984
87.053 0.80675 -9.1565 -0.128556 0 0 -3.2 0.137988 0.988766 0.0574574 -0.149803
84.35 10.0886 -0.3865 0.114077 0 0 -0.4 0.657185 0.712187 0.246775 0.575998
75.5173 9.66575 -12.7465 0.28203 0 0.454264 -1.3 0.466167 0.725409 -0.506428 0.999904
84.9835 3.91313 -5.44238 -0.0186236 0 0 -3.17507 -0.0180631 -0.540684 -0.841032 -0.108281
89.3217 13.5191 9.42237 -0.0383097 0 0 -0.9 0.946243 0.26975 0.17849 0.999801
64.7875 -1.76562 -16.547 0.0313142 0 0 -0.4 0.393827 0.274626 -0.877201 0.999851
75.9112 3.60625 -13.0782 -0.00608287 0 0 -1.3 0.332863 -0.475384 -0.814378 0.43897
79.365 13.545 -2.29825 0.122174 0 0 -3.91825 0.692664 -0.262231 -0.671901 -0.849332
88.1352 2.12669 -7.04981 0.0123616 0 0.45735 -3.5 -0.203286 0.273114 -0.940257 0.170809
83.3765 6.33525 -6.10687 -0.0150028 0 0 -1.3 -0.448731 -0.033375 -0.893043 -0.113386
73.0035 10.199 -11.8965 -0.00137604 0 0.365086 -2.57609 0.114674 0.52358 -0.844224 0.104728
77.7128 4.32925 -10.0353 0.233944 0 0 -0.640988 0.4157 0.777868 -0.471291 -0.069881
78.7962 4.42975 -9.451 0.0310737 0 0 4.2 0.188664 0.856234 -0.480905 -0.161995
81.119 14.7142 -1.975 0.273077 0 0.0367704 -4.5 0.289469 -0.705773 -0.6466 -0.649299
87.983 9.0055 -6.4015 -0.17697 0 -0.417146 -1.3 0.69078 0.0474688 -0.721505 0.291316
88.2322 3.12425 -1.53 -0.038237 0 -0.341401 -3.5 -0.0365153 0.794154 0.606619 -0.832585
73.8532 8.47025 -8.4225 0.0235591 0 0 -1.76065 0.932746 0.357866 0.0437853 -0.99988
86.8599 3.84912 -5.88175 0.0097142 0 0 -3.5 -0.298764 0.166181 -0.939747 -0.0963161
87.8587 9.55488 -2.9105 0.03689 0 0 -1.3 0.459518 0.548376 0.698661 0.172303
82.835 1.61675 -10.3363 -0.0574903 0 0 1.8 0.220786 0.970852 -0.0932744 0.0604261
77.756 6.87025 -6.15675 0.0783293 0 0 -1.6 0.0254161 0.642132 -0.766173 -0.873724
88.4634 8.08813 3.8875 0.347827 0 0.895988 -0.7 0.0242951 0.336345 -0.941425 0.999892
84.3272 1.4585 -10.2133 -0.293707 0 -0.771368 1.8 -0.00055083 0.99999 -0.0045374 0.278059
87.9914 3.22613 1.22575 0.250564 0 0 -0.223082 0.356769 0.859545 -0.365922 -0.538891
68.1417 7.059 -11.9757 -0.000607513 0 0 4.2 -0.667092 0.25497 -0.699985 0.512047
85.6581 6.65837 -7.3225 -0.0153699 0 0 -1.3 0.184276 -0.392888 -0.900934 0.630981
85.042 16.3107 0.1315 0.268129 0 0 -4.5 0.848548 -0.473604 0.235934 0.821214
84.794 16.9445 7.5575 -0.0257231 0 0 -1.3 0.738684 -0.378086 -0.55803 0.261448
89.6024 3.26025 -1.32337 -0.059764 0 -0.180009 -0.421745 0.0833218 0.948126 0.306782 0.0768239
87.1143 5.32475 3.1215 0.182585 0 0 -1.3 0.470132 0.598682 -0.648502 -0.101491
82.0973 9.36112 -2.872 -0.0964783 0 0 -0.4 -0.595348 0.681532 -0.425529 -0.0805736
86.9137 6.409 3.6905 0.176157 0 0 -1.1824 0.215299 0.499467 -0.839154 0.139781
78.2115 10.3021 -1.68938 0.253206 0 0 1.8 0.992146 -0.12471 0.00965129 -0.999888
89.8562 10.1544 8.15063 0.0260513 0 0.0629838 -0.9 0.949481 0.236487 -0.206302 0.227606
88.142 5.27238 -4.719 -0.018153 0 0 -3.5 0.760727 0.486075 -0.430146 -0.239993
92.728 8.29963 8.83 -0.648147 0 -0.000409368 -3.5 0.427462 0.903976 0.010161 0.999863
85.3229 6.74487 -0.87225 0.191856 0 0.203149 -0.842668 0.820391 -0.0431326 0.570174 -0.414082
70.177 -3.57125 -16.342 0.039471 0 0 -1.3 0.0933897 0.212432 -0.972703 0.999891
78.5352 9.65438 -0.74175 0.352953 0 0 -3.2 0.805918 0.232172 -0.544603 -0.999891
89.9099 3.3875 3.796 -0.128038 0 -0.291662 1.8 0.470401 0.799061 -0.374465 -0.581802
79.0748 -2.46625 -14.9145 0.0233876 0 0 -3.9 0.369772 0.13861 -0.918725 0.303196
83.6834 9.92225 0.662 0.216343 0 0 -1.03669 0.903703 0.246771 0.349893 -0.237641
89.6133 1.76 -2.9595 -0.128649 0 -0.164167 -3.5 0.979736 -0.197541 -0.0330911 -0.885483
79.8316 2.79912 -11.2011 -0.0279284 0 0 4.2 0.364613 0.304306 -0.880031 0.825414
82.0973 15.7074 4.37838 0.192527 0 -0.109774 -0.957849 0.950668 -0.234222 0.203395 -0.918461
81.4088 -1.703 -13.3195 -0.265104 0 -0.344262 -0.847843 -0.0522053 0.548807 -0.834317 -0.310012
70.6072 -2.06375 -14.5977 -0.198869 0 -0.160183 -1.20291 0.388035 0.484844 -0.783808 -0.392423
85.0131 16.8286 -1.29912 0.0693993 0 0 -4.5 0.82046 -0.32463 -0.470597 0.999862
69.5125 11.2905 -11.5407 0.236081 0 0.857894 -3.5 -0.521629 0.207565 -0.827538 0.93252
86.0632 6.8355 4.0845 0.226266 0 0 -0.707387 0.0535733 0.629499 -0.775152 -0.824471
84.0715 3.4815 -4.8285 -0.0175899 0 0 -1.3 0.124019 -0.435667 -0.891523 -0.99988
78.0526 5.71112 -7.52325 -0.152145 0 0 0.0373675 -0.215217 0.817275 -0.53455 -0.301314
74.5557 -0.071375 -15.0568 0.275743 0 0 -3.9 -0.540009 0.693244 -0.477288 0.575018
87.9085 4.1885 -2.383 -0.0603923 0 -0.0427287 -3.5 0.152458 0.532563 0.832546 -0.654629
83.513 0.9255 -7.4615 -0.0262517 0 0 4.2 0.442367 0.896817 -0.00552227 -0.618913
79.1479 7.58125 -5.87425 0.00311921 0 0 -1.6 0.194233 0.615605 -0.763743 0.25558
74.7405 -7.39587 -15.5119 -0.0132996 0 0 -0.7 0.53793 -0.241953 -0.807521 0.0838361
77.6245 11.4222 -5.722 0.0836983 0 0 1.8 0.247028 0.21064 -0.945837 0.349032
85.596 1.59975 -9.912 -0.4249 0 -0.229022 1.8 0.18728 0.982293 0.00514791 0.999851
83.9325 11.1414 1.4305 0.49102 0 0 -3.9 0.924836 -0.279846 -0.257615 0.120258
91.1363 2.855 2.31763 0.040791 0 0 1.8 0.555437 0.787898 0.265908 0.236715
64.8905 -4.1245 -16.644 -0.037377 0 0 -0.4 0.368782 -0.0480999 -0.928271 0.75305
65.8682 -3.67088 -15.858 0.119285 0 0 -0.4 0.43472 0.206096 -0.876666 -0.133321
65.7132 4.55538 -12.3356 0.075072 0 0 -0.4 0.138295 0.885597 -0.443387 0.261007
74.6566 10.2284 -6.64725 0.0106607 0 0 0.673485 0.739472 -0.0660207 -0.669942 -0.604045
66.6999 -0.37325 -14.638 -0.0803013 0 0 -0.7 0.0760412 0.181776 -0.980395 -0.237657
74.2316 -1.71975 -16.45 0.63904 0 0.79557 -3.9 -0.342151 0.206783 -0.91661 0.730972
82.0592 3.45187 -8.61487 -0.054656 0 0 4.2 0.836053 0.341055 -0.429765 0.451764
84.9798 6.72512 0.538 0.50645 0 0.79357 -0.4 0.97201 0.105731 0.209802 0.224002
82.7611 15.2115 7.3315 -0.129955 0 0 -1.3 0.593428 0.115138 -0.796609 -0.999888
71.8087 -8.91712 -15.8308 0.00675293 0 -0.359788 -0.7 -0.0277122 -0.46216 -0.886363 0.99982
76.969 -2.23425 -15.5743 0.568483 0 0.010241 -3.9 0.431429 -0.0677121 -0.899602 -0.0844578
88.5638 9.86137 -5.957 -0.39109 0 -0.556505 -1.3 0.688562 0.361932 -0.6284 0.706605
83.5143 7.43738 -6.02738 -0.0506233 0 0 -1.3 -0.634658 0.363185 -0.682133 0.0893701
93.4605 7.6055 9.2455 -0.36271 0 0 -3.5 0.693783 0.710834 0.115676 0.611125
88.8454 3.40525 -6.83025 -0.088179 0 0 -3.5 0.0590776 0.412634 -0.908979 0.735852
70.3347 0.40925 -13.9595 -0.225126 0 -0.0506203 -0.7 0.615566 0.300316 -0.728621 0.421124
84.7154 12.4221 2.41525 0.714303 0 0.787521 -3.9 0.840426 0.441223 -0.314653 0.596886
71.0137 11.8929 -11.8014 0.0258673 0 0 -3.5 0.0502793 0.607902 -0.792419 0.999855
75.2821 -6.05587 -14.96 0.0260451 0 0 -0.7 0.606028 0.0617149 -0.793045 -0.396675
67.1492 -5.02663 -16.0201 0.0259495 0 0 -1.3 0.0876661 -0.0502103 -0.994884 0.21088
81.5318 8.79937 -3.549 0.0071115 0 0 -0.4 -0.198991 0.905383 -0.375079 -0.0594679
83.6725 17.9621 3.10838 0.109314 0 -0.0452508 -1.14917 0.961232 0.0882357 -0.261242 -0.0456358
66.403 5.293 -11.1742 0.0656093 0 0 2.38558 -0.345344 0.656286 -0.670839 -0.258652
88.1404 6.967 -4.50475 -0.142448 0 0 -1.3 0.943415 -0.260815 -0.2048 -0.03995
84.3269 0.997563 -11.6874 -0.036021 0 -0.263608 1.8 0.219874 0.917496 -0.331446 0.118666
74.7815 3.542 -12.8411 -0.0720543 0 0 -1.3 -0.259465 -0.341465 -0.903371 -0.0704101
84.8278 5.41463 -0.20175 0.196116 1 0.208609 1.81591 0.960406 0.258281 0.104459 -0.999879
91.8111 1.21625 6.02037 -0.0157872 0 0 -0.4 0.88106 -0.263652 -0.39271 -0.436081
91.2964 8.46225 8.25469 -0.438803 0 -0.692923 -3.5 0.274613 0.947932 -0.161284 0.0372212
84.4651 9.02325 0.271125 0.156664 0 0 -0.4 0.75594 0.319892 0.571161 0.709786
82.2164 14.8656 6.14131 -0.233839 0 -0.79414 -3.5 0.936374 0.158695 -0.31308 -0.530642
83.7074 13.3393 3.45863 0.945523 0 0 -3.9 0.628658 0.776429 -0.0441286 -0.185205
74.9605 -3.4335 -16.1425 0.99593 0 0 -3.9 -0.0187672 -0.394955 -0.918509 0.806305
62.3727 -0.9015 -14.3708 0.116427 0 0 -0.4 -0.29124 0.724559 -0.624655 -0.58997
83.8298 13.6503 5.80237 0.0250196 0 -0.0646907 2.89785 0.166972 0.944125 -0.284162 -0.436163
79.0351 11.2673 -0.917687 0.274813 0 0 -3.9 0.578201 -0.638528 -0.507903 -0.941995
80.6845 -3.02737 -14.2144 -0.124001 0 -0.178774 -3.9 0.0720573 0.551334 -0.831167 -0.309575
77.1261 0.0805625 -13.6564 0.146402 0 0 -3.9 0.437361 0.872541 -0.217688 0.0984583
93.1148 5.65875 6.91625 -0.64815 0 -0.717221 -3.5 0.237783 0.158602 -0.958282 0.901075
67.1765 2.00163 -13.7766 -0.0284846 0 0 -0.7 0.0892828 0.604962 -0.791233 -0.0545549
88.202 6.16362 -3.723 -0.0801467 0 0 -1.81631 0.968156 0.00280711 0.250334 0.111356
79.6019 8.84737 -0.428625 0.19963 0 0 -3.2 0.222637 0.555614 -0.801078 -0.999912
74.2255 -5.10844 -15.8731 0.0920563 0 0 -0.7 0.364125 0.290948 -0.884738 0.143324
84.0956 16.328 -1.86388 0.197697 0 0 -4.5 0.689723 -0.472421 -0.548726 0.38355
89.1395 3.3705 2.547 0.126803 0 0 1.73905 0.336222 0.880468 -0.334263 -0.3582
76.8351 3.85337 -11.4983 0.067888 0 0 -1.3 0.858546 0.136855 -0.494136 -0.227902
68.3182 2.30481 -13.4573 -0.0586983 0 -0.464924 -0.7 -0.00189041 0.533624 -0.845719 -0.311771
78.4618 -3.45694 -14.9333 0.0998273 0 0 -3.9 0.0534033 -0.0471312 -0.99746 -0.432067
74.2359 9.24894 -9.758 -0.124792 0 0 -2.724 0.888693 0.254299 0.381519 -0.444319
65.215 4.92063 -10.9296 0.34633 0 0 -0.4 -0.399573 0.891016 -0.215481 -0.0596643
69.0619 4.71319 -12.8834 -0.0694913 0 0 4.2 -0.347393 -0.0349036 -0.93707 -0.0263612
71.5403 9.46075 -11.923 0.0901993 0 0.0121522 3.81112 0.0606708 0.211413 -0.975512 -0.664852
74.8806 -4.36569 -15.6144 0.473433 0 0 -3.9 0.143685 -0.325277 -0.934639 -0.0601924
86.0693 4.09762 -1.51575 0.11153 0 0 1.90537 0.682889 0.454446 0.571963 -0.999841
73.8835 7.987 -13.109 -0.0613433 0 0 -1.3 -0.448226 0.172323 -0.877154 -0.403646
74.4467 11.6018 -7.46881 0.076568 0 0 -3.5 0.94877 0.0329818 -0.314242 -0.0972422
84.9703 1.09 -5.87862 -0.0320796 0 0 3.77598 -0.102489 0.859272 -0.501147 -0.198392
85.6304 4.59831 0.962 0.171856 0 0 0.0228735 0.651334 0.646737 -0.396856 -0.506821
83.0563 -0.224562 -13.2273 -0.016256 0 0 1.8 -0.186348 0.382319 -0.905045 0.395582
71.2412 -7.15231 -15.7366 0.0722817 0 0.56164 -0.7 -0.42354 0.0140009 -0.905769 0.305457
72.404 -5.30837 -15.962 -0.0256532 0 0 -0.7 -0.166456 0.216418 -0.962006 0.109363
87.8942 5.1795 3.74537 0.17152 0 0 -1.19618 0.459892 0.381132 -0.802021 -0.527341
83.8962 4.02981 -5.71012 -0.0672397 0 0 -1.3 0.353566 -0.520866 -0.776975 0.0784295
78.3027 -0.481875 -13.3799 0.035584 0 0 -3.9 0.484209 0.834205 -0.263902 0.203798
89.052 2.8965 0.995625 0.241575 0 0 -0.605454 -0.0682767 0.992958 -0.0968144 -0.511751
74.1773 12.5363 -6.04612 0.0490933 0 0 -2.45646 0.289032 0.868342 -0.403042 -0.285027
75.1834 14.4201 -3.815 0.409007 0 0 -0.846194 0.449881 0.375597 -0.810268 -0.479606
78.7276 11.1755 -2.096 0.228456 0 0 -0.983399 0.877644 -0.462223 0.12685 -0.505635
84.4845 10.3014 3.88481 0.942637 0 0 -3.9 0.742297 -0.304698 -0.596787 -0.999827
75.3012 13.594 -4.47625 0.206631 0 0 -0.6864 0.26462 0.632525 -0.727934 -0.041708
88.34 10.3954 11.2701 -0.0801683 0 0 -0.9 0.956878 0.200707 0.210005 -0.96176
71.571 -3.237 -15.398 -0.0632887 0 0 -1.3 0.216939 0.492635 -0.842763 0.0888618
84.2041 8.77275 -5.23131 -0.162404 1 -0.0949714 -1.12869 -0.467765 0.678112 -0.566887 -0.111566
83.2975 13.5899 2.04675 0.555923 0 0 -3.9 0.817783 0.568747 -0.0880841 -0.233674
65.0344 3.62625 -13.4993 0.0820203 0 0 -0.4 0.0189183 0.461973 -0.886692 0.563863
90.0996 4.88625 4.90169 0.236883 0 0.609136 -0.7 0.673185 0.271088 -0.687992 -0.336261
83.0644 15.8278 3.09888 0.202308 0 0 -0.4 0.902179 -0.368581 0.224099 0.135401
75.6293 2.19681 -12.5325 -0.050499 0 0 -1.3 0.305921 -0.118545 -0.944648 0.256435
85.0809 0.46975 -7.144 -0.0667043 0 0 -1.5189 -0.0752584 0.978163 -0.193736 -0.876232
72.9 13.0814 -7.8385 0.0542283 0 0 -3.5 0.26097 0.965345 -0.00178641 0.630085
74.0421 10.5821 -9.98694 0.049316 0 -0.185043 -2.86379 0.937337 0.266296 -0.224692 0.0513713
68.258 -4.30594 -16.0729 0.030543 0 0 -1.3 -0.0605883 0.162164 -0.984902 0.309171
78.0484 -4.57106 -14.8691 0.0876487 0 0 -3.9 -0.0120156 -0.288944 -0.95727 0.123507
89.9122 4.20725 -4.663 -0.145144 0 -0.331077 -3.5 0.657049 0.719798 -0.224002 0.337939
83.0605 14.293 0.2795 0.15614 0 0.108226 -4.07889 0.95891 -0.118659 -0.257704 -0.0983846
77.5169 2.31463 -11.0451 -0.0366143 0 0 4.2 0.204897 0.104353 -0.973205 -0.624321
79.8091 -0.856313 -12.4206 -0.0938117 0 0 -3.0407 0.0606399 0.742876 -0.666677 -0.460258
70.2899 7.24525 -13.0914 -0.027792 0 0 4.2 0.0251133 0.47846 -0.87775 0.367735
90.557 -0.0639375 -2.79113 -0.259464 0 0 -3.5 0.906636 0.398033 0.13993 -0.0903245
80.6355 9.1705 -0.358063 -0.124395 0 0 -2.75702 -0.428135 0.561537 -0.70808 -0.999885
82.8294 13.9451 5.15175 -0.36923 0 -0.723812 -3.5 0.604183 0.790396 -0.101183 -0.596605
70.4435 9.621 -12.0089 0.043872 0 0 4.2 -0.217084 0.17493 -0.960351 0.0631502
72.7692 -7.45831 -16.1158 -0.0765503 0 0 -0.7 -0.0671053 -0.227641 -0.97143 0.3055
84.8744 8.0495 0.0693125 0.306114 1 0 -0.4 0.837611 0.212787 0.50312 0.0717848
85.8911 10.5829 4.51744 0.268872 0 0 3.8 0.458 -0.125593 -0.880035 0.0666239
89.2065 9.03475 12.4955 0.0041757 0 -0.032153 -3.5 0.663608 0.72219 -0.195105 -0.837499
72.3941 0.2125 -12.7325 -0.690397 1 -0.551429 4.2 -0.0296329 0.500944 -0.864972 -0.323602
81.8503 0.5135 -12.7293 -0.0310471 0 0 1.8 -0.321304 0.621215 -0.714742 0.902399
83.6166 16.5054 2.26506 0.118252 0 0 -0.4 0.912562 -0.312062 0.264286 0.271216
85.4036 8.85469 -7.07381 0.0218847 0 0 -1.3 -0.401063 0.437578 -0.804782 0.91007
88.923 11.2008 10.4125 -0.157625 0 0 -0.9 0.907811 0.0227356 0.418764 -0.0183475
76.8966 -3.75887 -15.3326 0.310125 0 0.775708 -3.9 0.284758 -0.34281 -0.895206 0.196409
83.3096 16.9177 6.45138 -0.0598887 0 0 -1.3 0.527581 -0.70223 -0.478049 -0.583262
90.5929 8.51475 9.24775 -0.160663 0 -0.144176 -3.5 0.486276 0.873799 -0.00346135 -0.999802
82.5657 2.16812 -8.10669 -0.0559413 0 0 4.2 0.852672 0.522347 -0.0102004 -0.0250372
79.4682 14.9207 -3.3335 0.152065 0 0 -4.5 0.316389 -0.52155 -0.792391 0.0617632
83.9788 8.85925 2.81175 -0.160812 1 -0.6214 3.8 0.9605 0.126843 -0.247692 -0.118993
91.6014 1.845 3.49569 -0.421373 0 -0.596088 1.8 0.970562 0.190973 0.146759 0.254349
88.8749 8.93563 -4.00725 -0.158049 0 -0.271394 -1.3 0.982769 0.0271253 0.182839 0.482967
78.9097 9.88931 -3.4625 0.203942 0 0 1.8 0.980976 0.0988887 0.167054 -0.061493
72.7165 -2.891 -15.326 0.0074005 0 -0.130428 -3.54834 -0.429782 0.388897 -0.81489 0.140777
85.1827 9.24837 4.7625 0.369303 1 0 3.8 0.467765 -0.0913459 -0.87912 -0.847166
69.1637 3.40013 -12.9958 0.104358 0 -0.173172 -0.7 -0.0187113 0.204744 -0.978637 -0.101061
90.3877 2.57425 -1.73231 -0.0862157 0 0 1.8 0.899827 0.309344 -0.307599 0.153278
83.9816 15.9111 7.66025 -0.0567217 0 0 -1.3 0.430957 -0.255858 -0.86534 -0.395558
67.9899 -1.14762 -14.2965 -0.115285 0 0 -0.7 0.0757834 0.101064 -0.991989 -0.679069
70.6633 4.4105 -13.1585 -0.0970673 0 0 4.2 0.141933 -0.334692 -0.931577 0.382785
86.6175 5.753 -6.14875 -0.100287 0 0 -1.3 0.426031 -0.290971 -0.856641 0.17311
67.2721 7.60094 -10.6328 0.0157255 0 0 4.2 -0.642697 0.217966 -0.73446 -0.573272
75.709 -0.318875 -15.8422 0.302448 0 0 -3.9 -0.0197344 0.626527 -0.77915 0.664476
73.3948 -1.5705 -14.1961 0.254261 0 0 -3.9 -0.701466 0.531721 -0.474571 -0.593841
93.4747 7.3865 7.77187 -0.494363 0 -0.109864 -3.5 0.631156 0.554002 -0.542885 0.563187
84.5205 0.410688 -13.1192 -0.0399557 0 0 1.8 0.127981 0.720736 -0.681293 0.67224
65.3294 5.45937 -9.93937 0.065821 0 -0.460562 -4.5 -0.715191 0.443567 -0.54014 -0.188102
87.889 7.571 -6.29275 -0.099347 0 0 -1.3 0.710332 -0.396482 -0.581575 0.692714
82.4696 4.04331 -6.77575 -0.177377 0 0 -0.278999 0.691222 0.329325 -0.64324 0.176688
82.9299 -1.4425 -13.3984 0.04027 0 0 1.8 -0.290367 0.468049 -0.834636 -0.568559
80.9664 2.803 -9.95613 -0.0319985 0 0 4.2 0.596311 0.481818 -0.642078 -0.431639
89.8187 3.39756 -6.59969 0.136462 0 0.0630705 -3.5 0.469954 0.504129 -0.724567 0.999865
84.535 6.3795 -7.28225 0.0261017 0 0 -1.3 -0.397465 -0.170079 -0.901718 0.999883
72.025 5.375 -13.116 -0.10961 0 0 4.2 0.194157 -0.319328 -0.927541 0.123198
90.4857 2.11162 -5.85969 -0.00632693 0 0.212467 -3.5 0.903646 0.0855724 -0.419645 0.237681
87.6843 6.89981 -2.37913 0.0213368 0 0 -1.3 0.605585 -0.35853 0.710439 0.367733
73.8295 12.6647 -7.999 0.0705717 0 0 -3.5 0.638525 0.765634 -0.078034 0.367487
71.0935 -1.12994 -13.8112 -0.303791 0 0 -0.7 0.508058 0.426036 -0.748579 -0.379119
85.801 12.4694 4.86469 0.13397 0 0 3.8 0.666385 0.484465 -0.566767 0.0771798
69.6481 6.04269 -13.7568 -0.0321044 0 0 4.2 -0.327632 0.0612525 -0.942818 0.99988
74.8363 0.911438 -12.9748 -0.199069 0 0 -1.93497 -0.0694259 0.746919 -0.661281 -0.113589
91.4705 5.20363 6.47775 -0.0659633 0 0 -0.7 0.614433 0.274008 -0.739859 -0.724886
72.2851 3.72594 -11.9784 -0.285554 0 0 1.49233 0.077225 -0.326205 -0.942139 -0.946489
74.7138 12.9768 -5.1435 0.048939 0 0 -0.00659051 0.158099 0.763103 -0.62664 -0.683111
81.0349 8.63325 -1.8895 0.268407 0 0 -1.53666 -0.35794 0.928217 -0.101454 -0.631449
79.2818 8.43581 -1.52513 0.26 0 0 -2.85909 0.238945 0.956 -0.170204 -0.999884
69.2383 1.42675 -14.0083 -0.369463 0 -0.818983 -0.7 0.186416 0.452519 -0.872052 0.43521
88.7585 5.03331 -2.96688 -0.221584 0 -0.200697 -3.5 0.486875 0.771332 0.409878 0.239364
76.1145 7.89981 -5.914 0.0681517 0 0 -0.7 0.473064 0.484908 -0.735577 -0.467629
81.2884 5.9495 -6.13425 -0.073039 0 0 -1.33218 0.348647 0.510144 -0.786256 -0.179232
75.6433 -2.58156 -16.3809 1 0 0 -3.9 0.297168 -0.140255 -0.944468 0.926067
83.6998 1.01544 -8.85763 -0.0863513 0 0 3.31882 0.313077 0.934062 0.171785 -0.434617
85.2896 16.6985 9.3255 -0.0522073 0 0 -1.3 0.80209 0.535853 -0.263655 -0.347583
88.6713 9.51331 6.4935 0.033345 0 0.0171068 0.153946 0.737009 0.378165 -0.560187 -0.364474
84.1389 9.7195 -2.51288 -0.155372 0 -0.127055 -0.4 0.337425 0.922802 -0.185959 -0.0333989
63.6966 4.28306 -12.4941 0.0463 0 0 -0.4 -0.351935 0.842203 -0.408456 0.190897
74.0116 9.83234 -7.66716 0.187784 0 0 -3.06192 0.980309 -0.0764104 -0.182085 -0.674732
76.772 5.2315 -11.0653 -0.0192773 0 0 -1.3 0.861178 0.496386 0.109424 0.204915
68.5245 -6.50012 -14.2024 -0.174018 0 0 -1.3 0.0592906 -0.845922 -0.530001 -0.481062
86.8816 9.68312 -6.801 0.0114491 0 -0.0966496 -1.3 0.0668024 0.679188 -0.730918 0.626879
87.8126 9.22556 5.03937 0.137492 0 0.139464 0.222781 0.303813 0.579262 -0.756408 0.013761
90.3988 3.99712 -3.32612 -0.529557 0 -0.822234 -3.5 0.873471 0.482859 0.0624078 0.637757
87.4386 15.3171 9.2955 0.00913883 0 0 -0.9 0.380615 0.814362 -0.438117 0.404686
79.8206 -1.72137 -13.6622 -0.071592 0 -0.0586033 -3.9 0.467816 0.647032 -0.602078 -0.123588
88.497 12.5228 7.53875 0.0214046 0 0 -0.9 0.565541 0.334972 -0.753629 0.0292111
82.1647 10.5872 -1.73575 0.0838433 0 -0.264528 -0.96 0.0612734 0.554426 -0.829974 0.189278
87.6184 15.3845 10.8213 -0.0439067 0 0 -0.9 0.712325 0.687086 -0.143198 0.196972
82.1537 14.2627 -1.17606 0.189836 0 0.684879 -4.5 0.551395 -0.422598 -0.719288 -0.119057
82.6233 15.2028 -2.58337 0.469387 0 0.322947 -4.5 0.421562 -0.751222 -0.507889 0.731462
92.2802 1.71581 0.0270625 -0.0164175 0 0 1.8 0.960831 0.10163 -0.257827 0.792357
83.3039 9.70075 -4.16488 -0.529873 0 -0.274273 -0.4 -0.158322 0.905488 -0.393732 0.99985
65.6862 -7.02025 -15.695 -0.071742 0 -0.046171 -1.3 0.27215 -0.431088 -0.860289 0.470386
69.4251 -2.37713 -15.2758 -0.0695477 0 0 -1.3 -0.0985583 0.530286 -0.84207 0.207375
82.6776 14.0176 3.96187 0.21604 0 -0.0212416 -3.53328 0.704805 0.700243 0.11362 -0.707734
75.9693 5.18713 -8.98563 -0.0294164 0 0 -1.3 0.689025 0.719305 -0.0885667 -0.99987
89.7253 8.53613 5.54619 -0.174049 0 -0.665428 -0.7 0.611226 0.761641 -0.215188 0.374784
89.6452 9.42188 9.79775 -0.110612 0 0 -0.9 0.804582 0.497514 0.324235 -0.186031
85.7831 0.535563 -8.14888 -0.0704313 0 -0.157343 -2.22547 0.014721 0.981596 0.190404 -0.56537
73.695 -8.46075 -15.4879 -0.243159 0 -0.096113 -0.7 0.211675 -0.515206 -0.830516 0.338896
71.2484 1.42419 -12.2502 -0.313331 0 -0.952774 -0.7 0.508014 0.317653 -0.800636 -0.836488
65.5035 -1.08712 -15.4918 -0.013826 0 0 -0.4 0.421511 0.494385 -0.760206 0.254467
72.6273 6.88281 -12.93 -0.082279 0 0 3.66633 -0.0415243 0.21383 -0.975988 -0.119402
80.6201 0.536563 -11.5115 -0.0418167 0 0 1.8 -0.125278 0.534408 -0.835891 -0.408949
82.8794 17.0299 4.75431 0.0764583 0 0 -0.4 0.721782 -0.688197 0.0735914 -0.772749
69.9294 -0.816625 -14.7167 -0.0939113 0 0 -0.7 0.289299 0.261746 -0.920758 0.464826
79.3841 8.33469 -4.95906 0.122803 0 0 -1.6 0.53041 0.504142 -0.681547 -0.265
69.99 -8.10106 -13.7463 -0.070585 0 0.0171366 1.01955 -0.738107 -0.172096 -0.652366 -0.666503
85.8333 15.3329 8.70406 -0.0126658 0 0 -1.1969 0.615615 0.307984 -0.725371 -0.153529
86.631 6.91175 -1.77262 0.130211 0 0 -1.3 0.482225 -0.145184 0.863933 -0.0446859
74.4729 11.4103 -8.59506 0.0628567 0 0 -3.5 0.998056 0.0189123 -0.0593891 0.651701
73.5075 1.39062 -12.1042 -0.414573 0 -0.607655 2.49972 -0.194047 0.23355 -0.952785 -0.795958
87.0621 3.27863 -1.42762 0.066615 0 0 -3.5 0.289841 0.863062 0.413662 -0.761817
87.0489 5.31362 -2.48069 0.0566507 0 -0.0366785 -2.26661 0.547802 0.10398 0.830121 -0.373424
81.4194 4.36637 -8.63075 -0.0535297 0 0 4.2 0.470828 0.772893 -0.425391 0.638918
91.5855 1.83888 4.99175 -0.166323 0 -0.457937 1.27943 0.915081 0.0981612 -0.391141 -0.046608
73.9034 9.6275 -12.8033 0.131632 0 0 -1.3 -0.232685 0.616001 -0.752595 0.62172
76.7752 4.82556 -12.7816 0.0172866 0 0 -1.3 0.920477 -0.167948 -0.352867 0.676591
79.9894 6.55775 -7.06756 -0.592693 0 0 -1.6 0.31316 0.753641 -0.57789 0.425587
77.6042 -5.80981 -14.3195 0.124387 0 0 -3.9 0.0187795 -0.0522076 -0.99846 -0.673208
86.5147 10.2102 -3.76425 0.109174 0 0.119397 -1.3 -0.416209 0.821468 0.389822 0.273893
72.3699 13.095 -5.96894 0.0589583 0 0 -3.68206 -0.222101 0.97071 -0.091617 0.177127
89.3508 10.9388 7.20575 0.344547 0 0.83532 -0.9 0.735107 0.280975 -0.616985 0.999817
88.8232 10.5793 -4.64575 0.0283632 0 -0.277417 -1.3 0.829783 0.540861 0.137587 0.999887
77.3775 15.0395 -3.0455 -0.319524 0 -0.20918 -4.5 -0.239753 0.171948 -0.955486 -0.296358
81.5498 9.94325 -1.1615 0.106659 0 0 -0.4 -0.721428 0.0812982 -0.687701 -0.514012
79.247 1.3395 -11.313 -0.068902 0 0 4.2 0.00786291 0.22154 -0.97512 -0.188557
65.1279 2.57569 -13.9064 0.0592343 0 0 -0.4 -0.0053955 0.44493 -0.895549 0.304096
78.8149 8.94413 -2.52213 0.290568 0 0 0.15512 0.660123 0.704804 0.259788 -0.787345
87.0043 8.50025 -7.47213 0.0603577 0 0 -1.3 0.349143 0.137125 -0.926982 0.999887
87.2831 10.5601 4.90819 0.10555 0 0 3.8 0.500337 0.134804 -0.855272 0.61903
76.3784 0.327375 -14.7915 0.287788 0 0 -3.9 0.178321 0.93754 -0.298697 0.708632
76.2618 10.4704 -5.67256 0.130869 0 0 1.8 0.260818 -0.175548 -0.949293 -0.335305
86.3343 13.3587 6.98228 0.0484657 0 0 3.8 0.355792 0.752555 -0.554142 0.104901
84.813 6.34 1.75225 0.197915 0 0.133105 -0.946907 0.924272 0.379904 0.0373294 -0.236496
84.9395 1.88928 -4.89628 0.032058 0 0 -2.11975 -0.429397 0.299398 -0.852044 -0.999893
74.6066 8.24869 -6.93775 0.0982963 0 0 -0.7 0.725763 0.401181 -0.558857 -0.848848
84.3913 14.409 7.45188 0.033692 0 0 3.8 0.293104 0.63862 -0.711515 -0.320668
92.028 1.67716 1.74012 0.0240871 0 0 1.8 0.961271 0.203587 0.185772 0.127118
66.8633 3.53781 -12.4924 0.148353 0 0 2.58324 -0.0150697 0.502945 -0.864187 -0.419244
91.6977 6.46694 6.9405 -0.501807 0 -0.303378 -3.5 0.485448 0.184855 -0.854499 -0.409361
80.6445 11.6826 -1.49741 0.133411 0 0 -3.9 0.0207489 -0.337274 -0.941178 0.0537673
89.4197 5.82412 4.41062 -0.0332241 0 0 -0.7 0.526179 -0.0101018 -0.850314 0.111647
77.0549 8.39725 -5.24344 0.110349 0 0 -1.6 0.100297 0.232787 -0.967342 -0.880416
71.9127 7.80219 -12.4299 -0.0755737 0 0 4.2 -0.078434 0.372395 -0.924754 -0.598134
82.4571 16.0734 6.7215 -0.217907 0 0 -3.5 0.788206 -0.436881 -0.433436 -0.999875
91.925 0.140094 0.690562 -0.0108357 0 0 1.8 0.89742 -0.373481 -0.234837 0.331882
85.2536 6.01466 2.66756 0.154143 0 0 -1.3 0.548872 0.704966 -0.449179 -0.375646
87.9552 4.28094 2.5815 0.181056 0 0 -1.3 0.535952 0.690179 -0.486218 -0.128198
83.3653 18.3407 1.99909 0.0846027 0 0 -1.43097 0.89547 0.375954 0.238311 -0.244743
62.7663 2.89162 -12.9579 0.0135954 0 0 -0.4 -0.0772401 0.40137 -0.912653 -0.459251
85.5888 5.08988 -1.29712 0.141165 0 0 2.5166 0.779282 0.161617 0.605475 -0.510823
80.1762 7.13725 -5.42387 -0.028001 1 0 -1.6 0.392719 0.690302 -0.607663 -0.528358
81.1502 15.6613 -3.70341 0.386487 0 0 -4.5 0.144744 -0.688721 -0.710431 0.396378
82.6333 1.52119 -6.4855 -0.0320705 0 0 4.2 0.695273 0.712179 -0.0969335 -0.741031
66.3134 -2.57394 -15.0347 0.046392 0 0 -0.577971 0.540109 0.221855 -0.811827 -0.877479
73.1391 4.65219 -12.5054 -0.267614 0 0 -1.3 -0.263954 -0.398832 -0.878215 -0.543569
72.7119 13.0254 -9.22794 0.119417 0 0 -3.5 0.30804 0.875997 -0.371133 0.324177
79.2023 11.9583 -2.51131 0.165886 0 0 -1.40539 0.885155 -0.26171 -0.384719 0.0282309
75.703 6.3095 -10.484 -0.248985 0 0 -1.3 0.900309 0.297683 0.317534 -0.582658
75.3233 6.66044 -9.02281 -0.090327 0 0 -1.28921 0.899431 0.421288 0.116366 -0.141331
88.0137 1.27275 -7.6305 -0.0917273 0 0.097902 -3.25603 0.0422237 0.885554 -0.462613 -0.032802
84.9627 17.8732 8.56356 0.00810487 0 0 -1.3 0.996931 0.0344827 -0.0702825 -0.0884934
63.9152 -0.025125 -14.4368 -0.0323722 0 0 -0.4 -0.202285 0.518812 -0.830611 -0.277083
85.4158 2.91572 -5.14237 0.0293081 0 0 -3.5 -0.428549 0.0479411 -0.902246 -0.305298
76.0182 8.39625 -12.169 0.0407367 0 0 -1.3 0.930511 0.347609 0.115404 0.218172
79.7247 10.5625 -0.194875 0.247822 0 0 -3.59344 -0.0319041 -0.277042 -0.960328 -0.999878
78.7323 13.5539 -3.66856 0.07735 0 0 1.8 0.566429 0.405067 -0.71769 0.190317
87.0094 0.236719 -11.7758 -0.0548283 0 0 -1.84856 -0.00413118 0.920768 -0.390089 -0.279545
82.2476 2.79684 -6.38416 -0.16508 0 -0.00320139 3.77733 0.938956 -0.14093 -0.313848 -0.500965
83.792 15.078 -0.067 0.159176 0 0.676138 -4.5 0.746772 -0.662077 0.0631322 0.370784
73.0122 11.7453 -10.5285 0.105193 0 0 -3.5 0.511352 0.556632 -0.654736 0.167475
67.2003 -6.60766 -14.8193 0.00670563 0 0 -1.3 0.383172 -0.673296 -0.632338 0.0396651
76.9345 13.0128 -4.77453 0.161033 0 0 1.8 0.136557 0.731053 -0.668516 0.0548932
87.6567 11.5987 6.41725 0.0505953 0 0 3.8 0.620518 0.503718 -0.60102 -0.0305473
90.1364 1.30456 -4.37331 -0.086487 0 0 -3.5 0.857258 0.382029 0.3452 -0.341236
80.1125 8.92031 -3.86028 0.139416 0 0 -1.6 0.414813 0.855822 -0.309028 0.111561
68.8193 8.8625 -11.6853 0.01998 0 0 4.2 -0.454011 0.365812 -0.812438 0.240309
89.4601 11.8666 8.74425 -0.0364213 0 0 -0.9 0.979002 0.184564 -0.0865541 0.327216
74.627 8.11575 -9.43575 -0.0668117 0 0 -1.3 0.734761 0.493111 0.465798 -0.497092
87.6377 14.505 8.37116 -0.00343237 0 0 -0.9 0.213242 0.761787 -0.611726 0.474275
86.991 8.08 -1.62 0.118997 0 0 -1.3 0.272252 0.0030823 0.962221 0.594783
86.1513 7.67 -7.48975 -0.0170438 0 0 -1.3 0.110797 -0.169544 -0.979275 0.575072
85.157 9.555 -1.078 0.095441 0 0 -0.4 0.748271 0.602703 0.277198 0.629638
88.7904 4.539 -5.18836 -0.123503 0 0 -3.5 0.394399 0.777595 -0.489689 0.0892666
78.598 2.82125 -11.1617 -0.00701123 0 0 4.2 -0.0761097 0.158454 -0.984429 0.712173
88.5615 2.7415 -0.1895 -0.0963447 0 0 1.8 0.080527 0.996516 0.0217026 -0.765334
73.7775 13.374 -5.0245 -0.132445 0 0 -3.9 0.115446 0.67206 -0.731442 -0.156094
3 85 357 563
3 550 527 205
3 550 398 527
3 326 539 398
3 527 398 539
3 118 415 311
3 118 341 224
3 341 557 571
3 403 457 557
3 389 457 521
3 93 75 492
3 563 501 53
3 563 86 8
3 8 86 211
3 86 527 363
3 363 211 86
3 374 539 58
3 58 460 374
3 58 235 287
3 460 58 92
3 287 92 58
3 442 577 287
3 222 159 442
3 577 129 92
3 92 129 411
3 249 404 124
3 25 249 124
3 510 457 379
3 379 457 162
3 162 457 389
3 162 389 208
3 208 389 464
3 208 532 162
3 162 532 327
3 162 327 379
3 532 208 320
3 320 208 573
3 464 587 393
3 112 507 182
3 479 572 70
3 572 75 343
3 572 343 70
3 325 75 93
3 325 93 324
3 343 325 179
3 179 405 343
3 21 555 325
3 21 268 555
3 555 501 439
3 328 99 439
3 439 99 505
3 363 370 467
3 363 539 370
3 460 411 196
3 411 129 544
3 544 129 375
3 129 415 375
3 375 415 224
3 375 224 273
3 224 571 273
3 273 571 249
3 273 249 516
3 516 249 25
3 516 378 544
3 7 124 372
3 372 124 404
3 126 404 510
3 477 510 379
3 138 536 327
3 138 469 536
3 138 532 46
3 46 27 72
3 543 72 318
3 27 56 72
3 72 56 506
3 72 506 318
3 558 64 567
3 144 36 64
3 567 573 66
3 319 499 416
3 416 333 383
3 416 383 384
3 384 383 244
3 405 13 245
3 191 245 13
3 13 405 122
3 300 13 122
3 439 210 555
3 493 505 309
3 309 395 493
3 309 458 259
3 505 339 458
3 505 467 339
3 261 339 467
3 261 500 339
3 511 202 463
3 177 261 436
3 177 436 440
3 261 370 436
3 440 436 374
3 196 544 502
3 230 265 60
3 60 265 565
3 565 67 559
3 559 67 560
3 30 536 231
3 536 469 231
3 318 518 283
3 552 576 73
3 88 344 293
3 525 541 486
3 293 486 34
3 20 541 488
3 276 82 429
3 276 553 489
3 483 174 487
3 319 32 342
3 234 342 519
3 425 376 356
3 243 384 244
3 244 191 243
3 395 243 191
3 191 13 300
3 434 444 35
3 39 458 180
3 180 420 39
3 233 39 420
3 444 233 104
3 420 461 233
3 461 104 233
3 556 14 463
3 556 454 247
3 502 247 454
3 502 378 247
3 127 52 247
3 52 127 197
3 10 197 127
3 134 197 10
3 134 517 197
3 134 114 517
3 114 559 478
3 183 560 231
3 560 579 30
3 560 30 231
3 183 231 79
3 314 2 101
3 314 101 187
3 518 28 101
3 28 518 164
3 164 514 28
3 164 518 470
3 470 518 552
3 65 470 73
3 272 65 336
3 65 73 88
3 396 491 190
3 475 165 491
3 190 491 165
3 165 520 190
3 223 190 520
3 475 34 486
3 216 322 209
3 209 322 304
3 209 304 264
3 322 242 241
3 241 242 340
3 19 216 188
3 19 20 488
3 570 489 367
3 37 489 553
3 194 289 106
3 289 103 106
3 422 194 549
3 549 345 422
3 345 68 400
3 133 358 537
3 426 290 438
3 537 438 508
3 290 508 438
3 562 508 290
3 562 473 508
3 508 473 483
3 580 483 11
3 220 267 157
3 578 267 424
3 406 425 371
3 406 371 232
3 303 334 258
3 334 471 116
3 471 329 116
3 116 329 443
3 329 315 443
3 315 329 35
3 35 444 315
3 531 104 461
3 349 52 269
3 349 269 401
3 269 517 207
3 269 207 401
3 140 585 155
3 517 478 369
3 274 478 187
3 128 187 478
3 559 560 495
3 187 275 274
3 514 330 115
3 115 330 451
3 115 451 306
3 330 514 449
3 176 470 43
3 272 453 42
3 272 42 94
3 94 42 386
3 123 423 453
3 582 288 423
3 453 423 288
3 480 423 105
3 105 119 480
3 105 223 119
3 119 223 41
3 105 190 223
3 41 223 520
3 18 281 520
3 281 48 520
3 520 221 18
3 417 152 583
3 152 221 583
3 18 221 152
3 417 353 181
3 9 392 430
3 9 241 392
3 241 459 418
3 17 418 459
3 355 120 141
3 459 141 120
3 195 459 120
3 340 397 355
3 185 355 397
3 570 289 194
3 358 133 195
3 574 485 522
3 578 485 218
3 522 485 578
3 574 522 225
3 574 225 530
3 522 296 474
3 296 578 497
3 578 424 497
3 427 184 147
3 427 147 15
3 352 427 15
3 352 15 298
3 135 147 172
3 232 303 360
3 303 232 371
3 29 258 201
3 531 201 55
3 258 55 201
3 258 334 55
3 409 526 153
3 526 238 503
3 421 503 248
3 451 248 238
3 451 330 125
3 428 569 554
3 428 554 317
3 330 449 569
3 94 386 449
3 288 441 80
3 564 80 280
3 441 288 448
3 448 529 277
3 277 529 480
3 480 335 277
3 335 480 119
3 523 281 432
3 432 281 169
3 3 119 41
3 523 48 281
3 581 509 456
3 331 299 417
3 509 299 551
3 331 137 534
3 137 181 430
3 430 83 171
3 83 430 1
3 435 530 148
3 284 481 173
3 228 284 142
3 228 142 294
3 142 542 385
3 217 173 496
3 399 542 136
3 136 462 399
3 109 260 540
3 260 110 540
3 260 109 496
3 110 260 352
3 362 540 445
3 362 445 255
3 445 298 337
3 382 450 117
3 360 308 250
3 484 387 410
3 192 382 446
3 154 446 382
3 154 348 446
3 154 282 348
3 348 282 285
3 402 317 380
3 554 380 317
3 472 498 321
3 229 564 280
3 280 45 229
3 229 271 163
3 402 163 561
3 271 338 170
3 170 338 452
3 33 584 297
3 347 63 364
3 63 456 364
3 509 551 513
3 551 237 377
3 512 200 586
3 200 548 286
3 149 12 548
3 292 548 12
3 12 547 292
3 385 542 158
3 548 385 158
3 399 59 239
3 239 96 302
3 515 59 253
3 362 77 76
3 76 77 253
3 204 97 431
3 538 5 546
3 538 546 490
3 192 450 382
3 192 446 91
3 446 166 91
3 446 348 166
3 146 166 348
3 146 90 568
3 90 321 263
3 561 498 402
3 16 100 482
3 100 81 407
3 100 407 482
3 16 482 437
3 38 437 240
3 482 113 437
3 437 113 291
3 240 437 24
3 437 291 24
3 24 291 388
3 586 278 512
3 113 468 316
3 158 302 548
3 368 548 302
3 302 145 368
3 145 96 323
3 323 96 431
3 323 431 538
3 323 186 145
3 38 227 156
3 156 227 143
3 156 143 412
3 431 96 515
3 515 96 239
3 574 17 102
3 102 17 459
3 451 238 306
3 49 550 205
3 235 539 346
3 346 539 326
3 222 235 346
3 447 222 346
3 447 159 222
3 447 346 373
3 373 346 326
3 464 389 587
3 501 563 328
3 563 8 328
3 328 8 211
3 370 539 436
3 436 539 374
3 235 58 539
3 92 287 577
3 224 415 118
3 393 573 464
3 182 507 95
3 95 507 51
3 95 51 479
3 343 75 325
3 179 325 555
3 175 405 179
3 210 175 179
3 179 555 210
3 328 439 501
3 467 505 99
3 375 273 544
3 544 273 516
3 404 249 571
3 404 126 372
3 536 477 327
3 469 138 543
3 46 543 138
3 72 543 46
3 576 506 56
3 576 56 433
3 433 56 144
3 558 391 433
3 82 270 429
3 429 270 567
3 567 270 558
3 524 69 429
3 66 524 567
3 567 524 429
3 0 524 66
3 0 66 573
3 0 573 393
3 213 524 0
3 390 213 0
3 390 0 393
3 244 54 191
3 54 244 383
3 245 191 54
3 245 54 95
3 95 54 182
3 182 54 383
3 479 245 95
3 175 122 405
3 493 175 210
3 493 210 439
3 493 439 505
3 395 309 259
3 458 309 505
3 420 180 500
3 500 180 339
3 511 420 500
3 202 511 500
3 463 202 177
3 463 177 440
3 177 202 500
3 177 500 261
3 454 556 463
3 454 463 440
3 544 196 411
3 502 544 378
3 279 579 372
3 279 477 536
3 477 279 372
3 477 372 126
3 30 579 279
3 536 30 279
3 231 469 168
3 168 469 283
3 283 469 543
3 79 231 168
3 283 79 168
3 79 283 314
3 314 283 518
3 552 518 318
3 318 506 552
3 470 552 73
3 88 73 344
3 344 73 576
3 525 293 465
3 465 293 344
3 465 344 576
3 465 576 528
3 528 576 433
3 365 466 301
3 301 466 528
3 301 528 295
3 295 528 433
3 295 433 391
3 359 301 295
3 566 301 359
3 359 295 391
3 541 359 558
3 558 359 391
3 566 359 541
3 301 566 365
3 541 525 566
3 566 525 413
3 566 413 365
3 209 475 486
3 209 188 216
3 486 188 209
3 276 489 488
3 82 276 189
3 189 276 488
3 189 488 541
3 82 189 270
3 270 189 558
3 558 189 541
3 174 483 473
3 267 220 139
3 424 267 139
3 394 424 139
3 342 234 319
3 519 215 406
3 342 215 519
3 425 406 215
3 425 215 376
3 376 215 366
3 366 215 342
3 366 342 32
3 193 356 376
3 178 193 376
3 178 376 366
3 434 243 395
3 384 243 178
3 178 243 434
3 178 434 193
3 434 395 259
3 444 434 259
3 233 444 121
3 121 444 259
3 39 233 121
3 259 458 121
3 121 458 39
3 107 461 511
3 511 461 420
3 14 107 511
3 128 495 187
3 183 495 560
3 495 212 187
3 183 212 495
3 79 314 212
3 79 212 183
3 212 314 187
3 98 101 28
3 98 28 514
3 164 470 176
3 43 470 65
3 43 65 272
3 272 336 453
3 396 88 491
3 88 396 65
3 65 396 336
3 221 520 165
3 221 165 475
3 264 475 209
3 304 353 264
3 199 322 9
3 322 199 304
3 241 9 322
3 397 340 242
3 397 242 150
3 47 397 408
3 47 408 570
3 150 408 397
3 150 19 408
3 150 216 19
3 489 570 488
3 488 408 19
3 408 488 570
3 504 400 68
3 504 426 545
3 160 414 354
3 160 354 332
3 438 332 545
3 438 545 426
3 545 332 354
3 203 133 537
3 508 203 537
3 157 11 483
3 497 424 394
3 262 497 394
3 262 394 419
3 262 419 214
3 334 303 425
3 371 425 303
3 236 531 461
3 107 349 401
3 107 401 461
3 207 369 155
3 207 155 409
3 409 155 585
3 369 207 517
3 274 140 155
3 274 155 369
3 274 369 478
3 559 128 478
3 128 559 495
3 275 140 274
3 115 140 275
3 115 275 98
3 115 98 514
3 43 94 176
3 164 176 449
3 164 449 514
3 449 176 94
3 272 94 43
3 288 42 453
3 299 152 417
3 181 353 304
3 181 304 199
3 181 199 430
3 430 199 9
3 1 430 392
3 435 1 392
3 435 392 418
3 418 392 241
3 141 459 241
3 185 494 355
3 400 307 185
3 185 307 494
3 570 422 40
3 422 570 194
3 47 570 40
3 185 47 40
3 185 397 47
3 185 40 400
3 400 40 422
3 354 414 4
3 354 4 307
3 354 307 545
3 545 307 504
3 504 307 400
3 307 4 494
3 414 494 4
3 120 494 358
3 414 358 494
3 120 358 195
3 537 160 332
3 537 332 438
3 160 358 414
3 358 160 537
3 508 483 203
3 203 483 533
3 203 533 133
3 574 102 485
3 485 102 256
3 256 102 533
3 533 102 459
3 481 225 474
3 496 481 474
3 481 496 173
3 474 225 522
3 352 260 161
3 198 352 161
3 296 198 474
3 474 198 161
3 474 161 496
3 260 496 161
3 427 352 198
3 184 427 497
3 198 497 427
3 497 198 296
3 262 184 497
3 214 172 184
3 262 214 184
3 337 298 15
3 135 337 15
3 135 15 147
3 484 308 360
3 484 360 303
3 361 387 201
3 531 361 201
3 167 236 461
3 167 461 246
3 246 461 401
3 167 246 153
3 153 246 409
3 409 246 207
3 207 246 401
3 167 132 387
3 526 132 153
3 153 132 167
3 117 410 503
3 117 503 421
3 526 503 132
3 132 503 410
3 132 410 387
3 248 503 238
3 282 248 125
3 451 125 248
3 428 125 330
3 386 569 449
3 313 535 226
3 313 226 57
3 554 57 226
3 226 535 380
3 386 313 569
3 569 313 57
3 564 535 313
3 564 313 266
3 266 313 386
3 80 564 266
3 42 80 266
3 80 42 288
3 42 266 386
3 441 280 80
3 338 45 280
3 338 280 130
3 130 280 441
3 130 441 131
3 131 441 448
3 584 130 297
3 297 130 131
3 364 297 347
3 347 297 131
3 347 131 448
3 299 509 152
3 152 509 581
3 299 350 551
3 331 350 299
3 26 350 331
3 350 26 381
3 12 149 547
3 534 547 26
3 534 26 331
3 381 26 547
3 381 547 149
3 430 171 534
3 430 534 137
3 547 534 171
3 547 171 206
3 312 547 206
3 312 206 87
3 87 206 83
3 83 206 171
3 1 435 83
3 83 435 87
3 87 435 148
3 87 148 312
3 228 312 148
3 228 481 284
3 148 481 228
3 481 148 530
3 225 481 530
3 312 228 294
3 385 292 294
3 294 142 385
3 109 540 136
3 462 136 540
3 250 450 252
3 308 117 450
3 308 450 250
3 117 308 410
3 410 308 484
3 428 472 125
3 125 472 282
3 285 282 472
3 317 472 428
3 498 472 317
3 498 317 402
3 226 380 554
3 554 569 57
3 44 402 380
3 44 380 564
3 535 564 380
3 44 564 163
3 229 163 564
3 44 163 402
3 561 163 271
3 170 561 271
3 455 170 452
3 468 33 297
3 468 297 364
3 513 468 364
3 513 364 456
3 513 456 509
3 316 468 513
3 551 377 513
3 316 513 377
3 237 381 149
3 381 237 350
3 350 237 551
3 31 377 237
3 31 237 200
3 31 200 512
3 149 200 237
3 586 286 388
3 200 286 586
3 388 286 368
3 548 368 286
3 385 548 292
3 399 158 542
3 399 239 158
3 158 239 302
3 515 239 59
3 59 76 253
3 76 59 462
3 362 76 540
3 540 76 462
3 431 97 538
3 568 91 166
3 146 568 166
3 561 263 498
3 498 263 321
3 575 151 455
3 305 575 100
3 305 100 16
3 100 575 455
3 219 412 575
3 575 305 219
3 437 6 305
3 6 219 305
3 156 412 219
3 156 219 6
3 156 6 38
3 38 6 437
3 437 305 16
3 278 291 113
3 512 278 316
3 316 278 113
3 377 31 512
3 377 512 316
3 145 388 368
3 96 145 302
3 388 145 186
3 257 351 515
3 312 294 547
3 355 494 120
3 293 525 486
3 528 466 465
3 525 465 413
3 413 465 466
3 413 466 365
3 398 550 476
3 62 326 398
3 62 398 476
3 62 476 326
3 326 476 373
3 311 341 118
3 403 521 457
3 53 85 563
3 85 53 89
3 89 53 268
3 563 205 23
3 563 23 86
3 86 23 527
3 527 23 205
3 527 539 363
3 222 442 287
3 222 287 235
3 415 129 577
3 224 341 571
3 251 457 510
3 571 251 404
3 510 404 251
3 251 571 557
3 251 557 457
3 573 208 464
3 492 75 572
3 324 21 325
3 53 501 268
3 555 268 501
3 328 211 99
3 99 211 467
3 363 467 211
3 460 92 411
3 124 7 78
3 25 124 78
3 78 7 565
3 477 126 510
3 379 327 477
3 532 138 327
3 144 56 27
3 144 27 320
3 532 320 27
3 532 27 46
3 64 558 433
3 64 433 144
3 36 144 320
3 320 573 36
3 573 567 36
3 567 64 36
3 499 333 416
3 383 333 112
3 383 112 182
3 405 245 70
3 70 245 479
3 343 405 70
3 467 370 261
3 460 196 440
3 460 440 374
3 454 440 196
3 265 516 25
3 265 25 78
3 265 78 565
3 265 230 516
3 378 516 230
3 7 560 67
3 7 67 565
3 543 318 283
3 506 576 552
3 20 486 541
3 486 20 188
3 429 553 276
3 69 553 429
3 50 366 32
3 50 32 319
3 50 319 416
3 50 416 74
3 50 74 366
3 416 384 74
3 74 384 366
3 366 384 178
3 300 122 493
3 395 300 493
3 300 395 191
3 122 175 493
3 458 339 180
3 511 463 14
3 196 502 454
3 378 230 127
3 378 127 247
3 61 60 108
3 108 60 565
3 108 134 61
3 10 61 134
3 61 10 127
3 61 127 230
3 61 230 60
3 559 114 565
3 114 108 565
3 108 114 134
3 518 101 2
3 518 2 314
3 491 34 475
3 491 293 34
3 293 491 88
3 322 216 242
3 150 242 216
3 20 19 188
3 367 489 37
3 103 289 310
3 220 157 487
3 487 157 483
3 157 267 11
3 425 356 471
3 425 471 334
3 471 356 329
3 329 356 193
3 434 329 193
3 329 434 35
3 104 315 444
3 315 104 531
3 107 14 349
3 556 349 14
3 247 52 556
3 556 52 349
3 517 269 197
3 197 269 52
3 114 478 517
3 101 98 275
3 187 101 275
3 336 123 453
3 396 423 336
3 336 423 123
3 190 105 396
3 396 105 423
3 353 583 264
3 353 417 583
3 141 241 340
3 340 355 141
3 310 289 570
3 310 570 367
3 422 345 400
3 218 256 580
3 11 218 580
3 218 11 267
3 218 267 578
3 485 256 218
3 296 522 578
3 172 147 184
3 258 29 303
3 303 29 484
3 484 29 387
3 387 29 201
3 531 55 443
3 55 334 116
3 116 443 55
3 315 531 443
3 531 236 361
3 306 238 526
3 115 306 140
3 140 306 585
3 330 569 428
3 480 529 423
3 423 529 582
3 432 111 335
3 432 335 523
3 335 111 277
3 335 3 523
3 3 335 119
3 520 254 41
3 254 520 48
3 48 523 254
3 254 523 3
3 254 3 41
3 169 456 63
3 18 169 281
3 169 581 456
3 417 137 331
3 181 137 417
3 418 530 435
3 17 530 418
3 530 17 574
3 459 195 533
3 533 195 133
3 173 217 284
3 542 284 217
3 542 142 284
3 496 109 22
3 496 22 217
3 542 217 22
3 542 22 136
3 136 22 109
3 298 445 110
3 298 110 352
3 110 445 540
3 236 167 361
3 361 167 387
3 382 117 421
3 382 421 154
3 154 421 248
3 282 154 248
3 45 338 271
3 229 45 271
3 452 338 130
3 584 33 407
3 111 432 347
3 347 448 111
3 111 448 277
3 63 432 169
3 432 63 347
3 200 149 548
3 547 294 292
3 399 462 59
3 77 362 255
3 97 5 538
3 285 321 348
3 348 321 146
3 146 321 90
3 472 321 285
3 81 452 407
3 81 100 455
3 81 455 452
3 482 468 113
3 482 407 33
3 482 33 468
3 515 253 257
3 71 186 323
3 323 538 71
3 71 538 490
3 71 490 240
3 240 186 71
3 490 38 240
3 186 240 24
3 388 186 24
3 546 227 490
3 490 227 38
3 7 372 579
3 7 579 560
3 533 483 580
3 533 580 256
3 18 152 581
3 18 581 169
3 448 288 582
3 448 582 529
3 475 264 583
3 475 583 221
3 452 130 584
3 452 584 407
3 291 278 586
3 291 586 388
3 526 409 585
3 526 585 306
3 521 587 389
