ply
format ascii 1.0
comment Generated by PyMesh
element vertex 584
property float x
property float y
property float z
property float charge
property float ct
property float hbond
property float hphob
property float nx
property float ny
property float nz
property float si
element face 1062
property list uchar int vertex_indices
end_header
46.077 1.1015 91.8785 0.0874007 0 0 4.2 -0.594746 -0.727346 0.342411 -0.667191
47.9445 4.838 94.354 -0.0246985 0 0 4.2 0.327823 0.395655 0.857898 0.336375
63.6285 4.6395 76.33 0.176589 0 0.0229095 -0.7 -0.0271896 -0.605291 0.79554 -0.0433065
44.899 7.559 95.296 -0.195503 0 -0.511424 -0.7 -0.0327297 -0.34425 0.938308 0.576893
45.911 16.413 95.325 -0.061445 0 0.0277465 -0.510944 -0.833536 0.148273 0.532196 -0.680931
59.233 2.1465 83.628 0.0350217 0 0 4.5 -0.582126 -0.370039 0.724017 0.999916
65.3795 0.3015 69.364 -0.133221 0 0 -0.9 0.921593 0.241153 -0.304157 0.214815
55.107 7.287 92.753 -0.0141901 0 0 3.8 -0.226147 -0.170842 0.958994 0.656606
43.052 10.1908 95.5315 -0.416677 0 0 -0.7 0.325789 -0.204438 0.923075 -0.803859
60.3684 1.46137 77.6084 0.35591 0 0 -3.9 0.957141 0.280573 -0.0718361 -0.281201
62.7738 -3.127 70.7272 0.00304396 0 0 -1.22244 0.34773 -0.377804 0.858107 -0.247703
64.424 10.027 87.697 0.122256 0 0.865689 -3.5 0.987979 0.149061 0.0409617 0.319838
66.1497 8.5965 75.5078 0.0345133 0 0.659941 -0.641704 0.784732 -0.443698 0.432814 -0.589651
50.229 3.3975 92.536 -0.038041 0 0 -0.408451 0.70723 -0.419915 0.568768 -0.147339
49.292 9.248 95.5285 0.856513 0 0 -3.9 -0.235758 -0.93495 0.265118 0.751069
65.4975 -0.710125 69.3142 -0.124493 0 0 -0.9 0.956632 -0.0913936 -0.27659 0.243619
59.488 -2.95925 78.0303 0.172664 0 0 -3.9 0.849282 -0.30253 0.432661 -0.2618
54.917 12.003 93.713 -0.00340903 0 0 -3.9 0.584898 -0.551498 0.594764 -0.682127
63.6686 7.95388 86.3083 0.045604 0 0 -3.5 0.574848 -0.816189 0.0581895 0.225205
62.037 1.09375 80.3005 0.0677297 0 0 4.5 0.497665 -0.563608 -0.659299 0.135691
61.745 -7.315 78.086 0.141618 0 0.221681 -4.5 0.840906 0.416966 -0.344987 0.672556
65.182 -1.8975 69.1115 -0.0593893 0 0 -0.9 0.929002 -0.321105 -0.183977 0.218405
45.557 11.42 97.029 0.0038667 0 0 -1.3 -0.0410268 -0.654616 0.754848 0.607895
52.966 2.41025 84.6618 0.130883 0 0.0825479 -0.7 0.972959 -0.212845 0.0897116 -0.647555
66.993 7.32575 73.2832 -0.0794833 0 0 -0.872293 0.637601 -0.229004 0.735542 -0.721977
63.2142 11.047 89.841 -0.173786 0 -0.169461 1.8 0.641681 -0.655744 0.397802 -0.659632
64.4143 4.25275 75.6775 0.065438 0 0 -0.7 0.301326 -0.808275 0.50586 0.184351
62.3325 -6.317 69.3913 -0.0451987 0 0 -1.3 0.999478 -0.0156023 0.0282926 -0.634061
53.7805 -4.127 86.3875 0.153469 0 0 -3.5 0.947178 -0.247517 0.203934 0.472777
63.6143 -3.581 68.5925 -0.0824533 0 0 -0.9 0.722966 -0.678259 0.131469 -0.567201
48.135 -2.955 88.483 0.034552 0 0 -3.5 -0.343183 -0.646832 0.681053 0.716483
64.3395 2.4135 81.8907 0.00755623 0 0 4.5 0.879827 0.196478 -0.432783 0.854668
55.261 3.925 84.702 0.0266977 0 0 4.5 0.463305 -0.878711 0.114959 0.44521
60.5405 -0.339 80.419 0.0901387 0 0 4.08282 0.556737 -0.748905 0.359423 0.106497
44.3833 3.9125 92.9505 -0.249261 0 -0.945585 4.2 -0.208052 -0.373134 0.904149 -0.31876
54.2007 5.5765 90.334 0.124895 0 0 3.8 0.187524 -0.959685 0.209377 -0.101518
60.8955 8.12825 87.716 -0.221737 0 -0.0720257 -3.5 -0.663749 -0.498849 0.557303 0.190323
60.0995 1.84125 76.2337 0.151327 1 0 1.8 0.974924 0.222523 -0.00248482 -0.47951
61.622 7.83225 81.7818 0.0344087 0 -0.0963134 -0.222326 0.866323 -0.240603 -0.437715 -0.707088
64.6257 9.062 87.5048 0.160616 0 0.542106 -3.5 0.992047 -0.10406 0.0708166 0.899034
49.1548 0.74875 92.9137 -0.00084356 0 0 4.2 0.530753 -0.616415 0.581664 0.99987
56.9212 7.01 92.285 -0.0238893 0 0 3.8 0.663628 -0.280449 0.693503 0.999856
56.0522 6.28475 92.3398 -0.0155934 0 0 3.8 0.191945 -0.648837 0.73632 0.999868
64.6162 2.308 82.969 -0.0060208 0 0 4.5 0.944917 0.172672 0.278059 0.99992
47.6255 3.93975 94.7182 -0.0082592 0 0 4.2 0.0449131 0.09186 0.994759 0.99987
66.3317 5.65325 75.632 -0.279756 0 -0.719676 -0.7 0.975064 -0.136953 0.174625 0.782615
66.8075 10.233 77.4222 -0.0236266 0 -0.0984257 1.8 0.929678 -0.166147 -0.328775 -0.198741
43.7785 2.627 91.7225 -0.105468 0 -0.784503 -4.5 -0.393776 -0.576554 0.715909 -0.862646
58.0995 9.6465 89.0405 -0.062769 0 0 4 0.745641 -0.666199 -0.0140663 -0.999857
62.1558 3.749 84.333 -0.0358717 0 0 4.5 0.304315 0.172029 0.936909 0.713279
65.6015 8.842 78.531 0.157988 0 0 1.8 0.0826934 -0.996104 0.0306243 0.049517
67.4177 9.344 80.069 -0.00554427 0 0 1.8 0.654568 -0.637294 0.40669 0.999883
51.742 15.5068 95.3992 -0.235835 0 0 -2.92677 0.343634 0.162559 0.924927 -0.675857
67.6455 5.10875 72.2193 -0.550797 0 -0.386267 -3.5 0.0287222 -0.841376 0.539686 0.665179
43.5067 3.385 92.5025 0.0416297 0 0 0.87827 -0.0840239 -0.692744 0.716272 -0.221484
42.1935 10.1882 96.1465 -0.0150248 0 0 -0.549361 0.745893 -0.221521 0.62815 -0.749547
61.1295 9.0275 88.4655 -0.0822043 0 0.0876172 -3.5 -0.786894 -0.435992 0.436701 -0.414362
62.0537 8.41075 89.3885 0.121657 0 0.728986 -3.5 -0.209182 -0.506575 0.836436 0.552737
49.9352 1.329 92.347 -0.0102595 0 0 4.2 0.897973 -0.355411 0.259474 0.815097
61.171 0.13875 72.6005 0.202234 0 0 1.8 0.689438 -0.539345 0.483511 -0.439111
61.1195 4.3595 84.1107 -0.0988523 0 0 4.5 -0.16763 -0.0216719 0.985612 0.338089
67.6685 4.4055 68.402 -0.055611 0 0 -3.5 0.489101 -0.800863 -0.345541 0.999887
60.652 -5.92075 78.9918 0.154451 0 0.0457182 -0.753788 0.644521 0.723682 0.246732 0.273579
45.862 2.8645 93.349 0.0478977 0 0 4.2 -0.592571 -0.226131 0.773127 -0.421693
51.253 3.76525 92.191 -0.0571427 0 0 -0.7 0.520668 -0.546904 0.655591 0.714345
46.3755 10.7458 96.071 -0.0669557 0 0 -0.981375 0.219501 -0.427819 0.876807 -0.168833
62.7853 11.9338 92.5385 -0.0329524 0 0 -0.700904 0.407788 -0.767853 0.494076 -0.176701
49.3145 0.53275 91.8005 -0.0034105 0 0 4.2 0.645994 -0.75972 -0.0742794 0.999854
59.6525 -0.381 80.969 0.0819363 0 0 0.301513 0.0898565 -0.684145 0.72379 0.181377
57.5718 7.267 91.505 -0.0305128 0 0 3.8 0.862855 -0.132717 0.487716 0.86549
47.3213 10.2675 95.592 -0.0652363 0 0.338335 -2.0949 0.172206 -0.499186 0.84921 -0.242955
38.917 9.38975 97.518 0.0146854 0 0 -0.4 -0.43383 -0.735614 0.520254 0.999838
46.7612 -0.019 90.014 0.080837 0 0 -0.150335 0.221108 -0.875045 0.43059 -0.858687
64.3815 8.667 86.3505 0.0547597 0 0 -3.5 0.883116 -0.461856 0.082437 0.248137
62.7043 -6.363 70.9225 0.032634 0 0 -1.3 0.9832 0.143671 -0.112592 0.215329
49.189 17.468 97.039 -0.0733847 0 0 -0.7 0.319499 0.411967 0.853348 0.495598
66.0257 12.6038 83.734 -0.0128458 0 0 -3.5 0.782788 -0.585024 -0.212107 0.32152
46.5385 0.6065 93.006 0.0300352 0 0 4.2 -0.551749 -0.629238 0.547387 0.763507
64.514 4.7185 76.817 0.182268 0 0.462821 -0.7 0.114917 -0.743029 0.65932 0.999887
46.6565 2.5735 94.0782 0.0174406 0 0 4.2 -0.509866 -0.412743 0.754771 0.594012
58.03 10.552 93.139 -0.0372417 0 0 1.8 -0.288685 -0.490135 0.822453 0.999791
46.467 3.7235 94.509 0.00961187 0 0 4.2 -0.458929 -0.105237 0.882219 0.999881
60.5925 1.095 78.525 0.306091 0 0 -3.40001 0.930624 0.284444 -0.230284 -0.646051
53.939 2.58975 82.016 -0.0070874 0 0 -3.2 0.726323 -0.382748 0.570928 -0.999865
52.5448 12.6345 96.6663 0.171697 0 0 -3.9 0.273476 0.154801 0.949341 0.106205
50.599 9.1695 96.585 0.267639 0 0.884544 -3.9 0.196567 -0.811735 0.549953 0.999934
61.0872 3.11725 74.2178 0.323033 0 0 0.536065 0.477734 -0.717699 0.506633 -0.999878
59.3568 9.642 91.9467 -0.0350673 0 0 1.8 0.219751 -0.855623 0.468635 0.783956
57.375 7.4155 88.8828 -0.0392303 0 0 3.8 0.895729 -0.406953 -0.17905 0.284898
65.2588 -0.7615 72.0973 0.0436133 0 0 -0.9 0.531423 -0.105405 0.840523 0.626921
61.858 8.5655 80.961 0.035504 0 0 -3.5 0.55943 -0.817099 -0.13924 -0.654619
40.8165 13.7647 97.6977 -0.2335 0 0 -0.4 0.313716 0.41927 0.851936 0.251797
49.9427 4.12825 93.3485 -0.042213 0 0 1.59586 0.687913 -0.0325577 0.725063 0.410694
55.6455 8.5955 92.4825 -0.0261315 0 0 3.8 -0.0737597 0.079173 0.994128 -0.0399915
53.197 10.402 95.762 0.0558053 0 0 -3.9 0.506304 -0.707113 0.493607 0.999884
64.3812 8.22975 85.3698 -0.00101758 0 0 -3.5 0.704775 -0.70501 -0.0790778 0.99989
55.167 3.7375 83.6985 0.0722283 0 0 4.5 0.529666 -0.84599 0.0612771 0.609288
65.2562 11.2905 82.2418 -0.170366 0 0 -3.5 0.839085 -0.210164 0.501764 -0.715109
55.56 5.6025 91.51 -0.00250128 0 0 3.8 0.0150257 -0.930993 0.364727 0.999874
61.5135 6.83675 81.5595 0.0112253 0 -0.0653572 4.5 0.892277 0.044901 -0.44925 -0.559399
57.7152 1.45375 80.7203 -0.083481 0 0 1.05939 -0.454707 -0.117329 0.882879 -0.650996
60.328 -2.2075 76.557 1 0 0.0140451 -3.9 0.881738 -0.469445 0.0464628 0.150608
48.2586 17.1011 97.3134 -0.048411 0 0 -0.7 0.0286457 0.234892 0.971599 0.144888
65.7255 0.692125 70.5565 -0.0845367 0 0 -0.9 0.938712 0.107299 -0.327578 0.037852
41.2586 3.58262 91.6959 0.236654 0 0 -0.4 -0.155157 -0.987733 -0.0176007 -0.690592
51.7253 13.4061 96.3146 0.289703 0 0 -3.9 0.118452 0.474031 0.872504 -0.411363
61.1628 -6.32075 76.9118 0.082128 0 0 -0.4 0.960828 0.221201 0.166975 -0.525423
44.9357 1.59425 91.9105 0.0520293 0 0 4.2 -0.369692 -0.674551 0.63899 0.274213
53.8657 11.144 95.5275 0.0367937 0 0 -3.9 0.785048 -0.415143 0.459735 0.594112
61.0745 6.47825 80.556 0.141106 0 0 4.5 0.991838 -0.00398908 -0.127444 -0.714472
60.228 2.26362 74.5731 0.301054 0 -0.800246 1.8 0.875395 -0.155783 0.457619 -0.806828
58.2715 -4.488 81.027 0.176049 0 0 -4.5 0.750693 0.644988 0.143005 -0.0438647
45.274 6.21575 94.7255 -0.0602207 0 -0.983426 -0.7 -0.0544798 -0.50471 0.861568 0.385631
65.992 10.744 81.4135 0.0086094 0 0 1.8 0.538024 -0.209149 0.81657 -0.257984
56.9178 12.5747 93.4037 -0.398827 0 -0.15649 -3.9 -0.00629555 -0.672952 0.739659 -0.658774
60.6732 10.4214 92.1651 -0.0058193 0 0 1.8 0.349987 -0.819157 0.454413 0.0907449
50.6574 12.9449 96.8079 0.306974 0 0 -3.9 -0.182775 0.287479 0.940186 0.193135
43.614 12.3875 97.212 0.0242684 0 0 -1.3 -0.0256941 -0.389806 0.920539 0.382612
58.1302 3.35325 82.1755 0.0905607 0 0 4.5 -0.647824 -0.503558 0.571623 -0.355723
39.9834 7.91488 95.7063 0.294213 0 -0.0220405 -0.4 -0.243394 -0.526716 0.81445 -0.285179
64.4424 10.8413 85.4786 0.0830833 0 0 -3.5 0.968815 -0.0202598 0.246957 -0.50999
64.6584 9.02125 79.0099 0.288368 0 0 0.379859 0.0716645 -0.964293 0.254958 -0.509653
40.2812 6.88375 95.6103 -0.274249 0 -0.259271 -0.4 -0.258864 -0.244462 0.934467 0.571264
64.7732 12.2764 87.4671 -0.204882 0 -0.118903 -3.37628 0.63874 -0.7693 0.0137362 -0.756351
60.146 -1.8455 77.5285 0.9976 0 0 -3.9 0.832956 -0.515685 0.200632 -0.827255
64.31 1.31625 82.3555 0.00593907 0 0 4.5 0.874544 -0.469465 -0.121555 0.884977
50.6476 15.1833 96.2279 -0.05785 0 0 -1.26912 0.641485 -0.103839 0.760075 -0.267875
57.6306 -1.94725 81.0704 0.110828 0 0 -3.9 0.606417 -0.337905 0.719776 0.2281
65.572 8.718 77.492 0.00323835 0 0 1.8 0.450824 -0.880069 0.149115 -0.122505
54.6527 0.3905 82.7896 0.207594 0 0 1.8 0.601424 0.794646 0.0826292 -0.432063
59.7682 13.431 94.7947 0.155567 0 0 1.8 -0.0386535 -0.818317 0.573465 -0.207489
58.853 11.2315 93.5407 -0.0301661 0 0 1.8 0.0237457 -0.3337 0.94238 0.702683
62.6454 8.25263 82.9676 0.040078 0 0 -3.5 0.719918 -0.577911 -0.384365 -0.279381
61.8605 5.0875 83.947 -0.265252 0 0 4.5 0.412289 0.0948511 0.906102 0.257953
44.1574 10.0924 95.4173 -0.169199 0 0 -0.7 -0.134754 -0.102157 0.985599 -0.845498
60.7685 0.725 76.413 0.787603 0 0.0303924 -3.9 0.880137 0.466973 -0.0854158 0.414501
64.5111 8.49912 77.8204 0.160368 0 0 1.01638 0.352547 -0.794157 0.495001 -0.458085
45.5744 4.12262 93.4631 0.0144103 0 -0.231885 4.2 -0.561193 -0.216566 0.79885 -0.375498
52.8036 -1.40838 86.0356 0.17201 0 0 1.8 0.492936 0.376698 0.784292 -0.92546
55.9033 3.90325 81.2172 0.049577 0 0 0.104975 0.367487 -0.590955 0.71814 -0.999889
64.3682 9.797 86.6784 0.112889 0 0.146388 -3.5 0.989407 0.135347 0.0524818 -0.214319
55.805 4.33025 83.1731 0.119289 1 0 4.5 0.534522 -0.836916 0.117717 -0.610341
64.0378 8.1955 88.1208 0.0065466 0 0 -3.5 0.727641 -0.63917 0.248997 0.999851
53.085 6.912 92.912 -0.0303952 0 -0.276246 -0.7 0.350567 -0.0966553 0.931536 0.670279
59.7158 6.76575 85.1325 -0.00709993 0 0 -0.4 0.056737 -0.65855 0.750395 0.218942
49.532 1.7835 90.8365 -0.0352713 0 0 4.2 0.825323 -0.524465 -0.209232 -0.410538
46.241 12.1475 97.619 0.0351673 0 0 -1.3 0.300616 -0.186906 0.935252 0.955017
51.7637 5.10325 92.4948 -0.320568 0 -0.655834 -0.7 0.525234 -0.518079 0.675073 0.209492
59.6236 -4.05713 75.2402 0.227492 0 -0.0556129 -0.909194 0.954462 0.285421 -0.0868144 -0.777088
60.457 4.8125 77.17 0.160354 0 0 -0.400516 0.730713 -0.678615 0.0744284 -0.999904
48.236 13.6356 96.193 -0.234725 0 -0.20007 -1.16374 0.2036 -0.309206 0.928945 -0.916152
64.4904 -2.877 68.1085 -0.0413333 0 0 -0.9 0.744158 -0.630245 0.221403 -0.0347602
65.7565 -1.6305 71.4545 0.0189144 0 0 -0.9 0.701112 -0.547984 0.456241 0.999915
40.263 9.461 97.934 0.0404177 0 0 -0.4 0.119978 -0.643611 0.75589 0.999856
59.8319 10.8246 93.201 -0.0178234 0 0 1.8 0.201146 -0.638494 0.742877 0.233634
53.3925 -2.2675 86.3753 0.254349 0 0.505186 -1.14367 0.660261 0.377848 0.649066 0.0591057
61.1758 5.37525 79.0638 0.18294 0 0.858132 4.5 0.981441 0.0828645 -0.172937 0.10138
60.2651 2.79212 75.7249 -0.309497 0 -0.238452 1.8 0.888091 -0.356319 0.290397 -0.22697
62.99 -6.81488 73.9672 0.0721237 0 0 -3.5 0.486932 0.853988 0.183306 0.0704063
55.5093 -1.19275 85.2956 0.0625697 0 0 1.8 0.687913 0.0290308 0.725212 0.999876
54.929 2.427 81.273 0.0671653 0 0 -3.2 0.583566 -0.277616 0.763138 -0.392405
53.8925 14.5574 95.7085 0.0188307 0 0 -3.9 0.341935 0.381094 0.85898 0.20233
58.2303 9.43475 87.9672 -0.067714 0 0 4.2 0.605173 -0.630847 0.48559 -0.853857
63.0628 5.7105 76.7755 0.163079 0 0.221632 -1.00004 -0.0400683 -0.421417 0.905981 -0.232583
52.627 4.20625 87.7335 -0.159229 0 -0.585648 -0.7 0.769234 -0.307931 0.559872 -0.564536
65.6848 12.3575 85.124 -0.0703047 0 0 -3.5 0.503594 -0.862649 0.047221 -0.272407
50.9691 3.145 89.5775 -0.119689 0 0 -0.7 0.630401 -0.735929 0.246989 -0.373826
63.2965 8.10437 88.8463 0.0368123 0 0 -3.5 0.452505 -0.599117 0.660529 0.915379
67.822 10.1637 79.3474 -0.0130232 0 0 1.8 0.97802 -0.127553 -0.164945 0.999839
62.496 8.56425 79.6395 0.079633 0 0 -2.38098 0.440896 -0.81921 0.366749 -0.29486
58.7949 -3.49638 78.9459 -0.182816 0 0 -0.4 0.770243 -0.00488654 0.637731 -0.272119
64.5096 -1.50663 72.0094 0.0310214 0 0 -0.9 -0.0093571 -0.446146 0.894911 0.999842
61.8828 6.30587 77.634 0.163043 0 0 -1.3 0.589712 -0.522747 0.61561 -0.513159
65.2377 6.70975 76.7031 0.0933397 0 0 -0.7 0.631072 0.127455 0.765181 0.28269
64.9851 -2.01688 67.9006 -0.0078821 0 0 -0.9 0.923421 -0.344554 0.169045 -0.270511
62.6198 1.75563 72.4074 0.037701 0 0 0.763309 0.171526 -0.42157 0.890425 -0.647721
39.5197 4.60063 94.59 0.0611897 0 0 -4.5 0.276984 -0.0410543 0.959997 -0.292723
60.1124 3.91263 78.0027 0.318514 1 0 4.5 0.885461 -0.27897 -0.371665 -0.774268
62.194 6.7825 82.363 -0.170672 0 -0.278991 4.5 0.897757 0.110412 -0.42643 0.202614
55.686 -2.898 83.888 0.0531637 0 0 1.8 0.686694 -0.666603 0.289986 0.999831
47.5845 2.9305 94.4962 0.0030207 0 0 4.2 0.0175586 -0.386936 0.921939 0.768977
43.3503 9.137 95.6492 -0.0420527 0 0 -0.7 0.119404 0.072799 0.990173 -0.12028
60.8452 -0.30775 78.4981 0.297149 0 0 -3.9 0.998188 -0.015242 -0.0582122 0.12801
63.0918 11.5627 91.299 -0.0427333 0 0 0.491266 0.493469 -0.8098 0.317353 -0.1786
61.9774 2.8755 73.745 0.242528 0 0 -0.7 0.100208 -0.828852 0.55042 -0.32442
57.5575 8.00688 86.1083 -0.0327554 0 0 0.89352 0.538811 -0.643079 0.54418 -0.875192
61.4676 7.40788 87.0987 -0.240342 0 -0.167297 -3.5 -0.237228 -0.946195 0.220085 0.433671
60.0306 3.88525 83.6334 0.081565 0 0 4.5 -0.230774 -0.148166 0.96166 -0.433449
54.1279 7.49762 92.3869 0.0424187 0 0.0285011 1.40314 0.177013 0.00689513 0.984184 -0.0481447
62.5536 -6.42188 68.0601 -0.108141 0 -0.545037 -2.2903 0.953576 -0.0325387 0.299389 -0.570274
61.6382 -3.56275 71.5265 0.0197899 0 0 -1.3 0.620927 0.20377 0.75692 -0.0585429
63.054 0.30525 82.8795 0.0179085 0 0 4.5 0.366954 -0.901155 0.23079 0.999864
66.6357 4.21313 68.367 -0.00691307 0 0 -3.5 0.445934 -0.861347 -0.243362 -0.0896989
48.899 4.5495 94.1338 -0.037655 0 0 4.2 0.495658 0.368136 0.786638 0.999833
67.1557 10.1806 80.9321 -0.0101803 0 0 1.8 0.653187 -0.196124 0.731357 0.999862
64.1148 11.9175 92.531 0.043606 0 0 -3.2 0.199567 -0.878102 0.434869 0.870981
51.1647 8.87237 93.4941 -0.128195 0 0.607675 -3.9 0.204918 -0.703804 0.680198 -0.172136
66.198 4.102 66.7467 -0.350357 0 0 -3.5 0.698732 -0.715178 0.017138 0.261127
64.5895 10.0375 84.1647 0.045958 0 0 -3.5 0.93961 -0.339265 -0.0450871 -0.332357
55.6881 5.91975 88.8246 0.000726187 0 0 3.8 0.48204 -0.873277 0.0708878 -0.0832297
58.811 10.0372 89.7633 -0.0563223 0 0 1.82855 0.485585 -0.829866 -0.274827 -0.749326
42.2154 9.00675 95.9307 0.00150177 0 0 -0.7 0.468006 -0.18971 0.863123 -0.130859
47.9046 8.51863 93.4689 -0.519053 1 0 4.2 0.37341 -0.634061 0.677149 -0.819323
56.7125 -2.611 81.404 0.148623 0 0 -4.5 0.671979 -0.0363072 0.73968 -0.659489
63.1795 -4.43125 68.105 -0.386053 0 0 -3.5 0.821057 -0.428778 0.376849 -0.666763
51.8162 11.2086 97.1625 0.180549 0 0 -3.9 0.378604 -0.296186 0.876888 0.725395
53.4799 6.1865 92.3201 -0.143065 0 -0.828966 -0.7 0.489378 -0.537228 0.686946 0.489349
54.3607 -1.549 85.7196 0.102379 0 0 1.8 0.355987 0.0177057 0.934323 0.251917
57.845 -2.833 79.818 0.451873 0 0 -3.9 0.806999 -0.0974087 0.582464 -0.859242
65.8855 9.27925 80.9208 0.0164885 0 0 1.8 0.313403 -0.63548 0.705651 0.522005
61.1351 1.095 73.6332 0.278552 0 0 1.8 0.721195 -0.220794 0.656604 0.266673
40.9635 8.14975 95.958 0.0863397 0 -0.679683 -0.4 0.0988033 -0.499725 0.860531 -0.0468697
48.6259 3.559 94.3735 -0.0153729 0 0 4.2 0.43488 -0.16076 0.886022 0.999795
67.6609 4.90462 71.0265 -0.401223 0 -0.697343 -3.5 0.311796 -0.925373 0.215563 0.133512
60.4706 -0.662125 72.6215 -0.101513 0 0 -0.935539 0.83712 -0.465808 0.286798 -0.598162
62.89 7.418 88.1705 0.00126577 0 0.00903076 -3.5 0.212653 -0.932981 0.290388 0.788454
55.9489 0.37475 80.5745 0.194087 0 0 -3.9 0.312787 0.546869 0.776594 -0.626889
62.7072 -5.42475 70.1103 -0.0336027 0 0 -1.3 0.982812 -0.184364 -0.00946154 0.255988
64.9505 10.0161 82.972 -0.00556937 0 0 -3.5 0.862356 -0.474807 0.175788 0.385249
60.771 11.327 93.5845 -0.037855 0 0 1.8 0.0969979 -0.527242 0.844161 0.783369
50.7836 -0.282125 87.7018 0.172349 0 0 -2.33816 0.61803 0.132991 0.774824 -0.388543
62.8896 0.949 83.8459 0.0056257 0 0 4.5 0.0581137 -0.547614 0.83471 0.999888
63.3392 12.9451 93.3326 -0.193792 0 -0.0379845 -1.91576 0.304676 -0.598191 0.741175 -0.205581
55.6245 4.27175 85.7435 -0.247872 0 0 4.5 0.292304 -0.915168 0.277536 0.301203
41.0827 6.245 95.6405 -0.24721 0 -0.0782706 -0.4 -0.0833163 -0.385286 0.919028 0.799981
54.1847 4.36912 86.6214 -0.0893087 0 0 4.5 0.444787 -0.739592 0.505141 -0.200766
65.926 5.25125 74.2695 -0.263978 0 -0.746518 -0.7 0.823342 -0.56714 0.0214672 0.20583
52.5585 9.904 93.746 0.000294784 0 0 -3.9 0.559946 -0.763472 0.321824 -0.317878
64.884 5.7115 77.219 0.33856 0 0.69149 -0.7 0.227647 -0.0953833 0.969061 0.999892
62.6249 4.92256 83.1009 -0.333593 0 0 4.5 0.817349 0.302708 0.490213 0.22272
62.3104 6.46413 83.3897 -0.258879 0 -0.8289 4.5 0.913548 0.0087044 0.406637 0.252583
40.731 12.1319 98.1039 -0.025997 0 0 -0.4 0.408707 0.0239133 0.912353 0.328613
65.5274 -1.79387 70.2514 -0.027382 0 0 -0.9 0.857741 -0.509732 -0.0667308 0.372115
62.9297 3.893 75.9997 0.105287 0 0 -0.7 0.128194 -0.6856 0.716603 0.999786
66.6852 9.705 76.532 -0.46251 0 -0.574359 1.8 0.911977 -0.404535 0.0681943 0.165643
56.1115 9.53425 92.688 -0.034234 0 0 3.8 0.312971 -0.12282 0.941788 0.629599
47.8896 0.079875 92.6038 0.0172627 0 0 4.2 0.0972944 -0.9506 0.294777 0.999842
60.4755 9.9305 88.1415 -0.14321 0 0 -1.49091 -0.51209 -0.708326 0.485838 -0.999887
56.0713 -1.563 84.1048 0.0739297 0 0 1.8 0.974713 -0.0143884 0.222997 0.942384
64.2565 9.12375 88.5573 0.075421 0 0.201738 -3.5 0.795639 -0.171714 0.580924 0.645407
49.9469 15.2244 97.0915 -0.0314548 0 0 -0.7 0.523412 -0.295983 0.799021 0.87534
60.3893 0.1755 81.7487 0.0508067 0 0 4.5 -0.184804 -0.810346 0.556046 0.209711
67.499 6.24963 72.9713 -0.413707 0 -0.0281365 -3.5 0.296081 -0.462524 0.835708 -0.116347
63.7115 9.16325 79.6973 0.0863507 0 0 -0.848784 0.1463 -0.969041 0.198887 -0.999765
60.743 -1.0645 79.3605 0.128265 0 0 -3.9 0.843134 -0.47884 0.244616 0.631487
62.5363 -5.3775 68.7747 -0.198549 0 -0.224753 -2.38846 0.929644 -0.3324 0.158973 -0.752336
64.1034 -3.64075 67.3759 -0.121344 0 -0.317383 -3.22262 0.607523 -0.50752 0.611015 -0.559401
51.1709 14.2989 95.9454 0.042569 0 0 -3.9 0.238224 0.293989 0.925646 -0.53682
56.1087 7.45538 92.871 -0.0229705 0 0 3.8 0.179865 -0.128298 0.975289 0.999867
61.618 10.928 92.5284 -0.0168842 0 0 1.8 0.405972 -0.779216 0.477503 0.999692
45.2245 10.5641 96.0279 -0.0782563 0 0 -0.786113 -0.216581 -0.454091 0.86423 -0.11869
59.1973 -5.37525 80.83 0.200583 0 0 -4.5 0.654241 0.747037 0.117919 0.126745
49.1386 1.15688 90.005 -0.151516 0 0 -1.8555 0.822226 -0.536093 0.191179 -0.465714
60.9465 2.8955 79.004 0.166838 0 0 4.5 0.72424 -0.0843918 -0.684364 -0.13896
62.3636 -7.41612 70.2796 0.147841 0 0.411529 -1.3 0.992909 0.024742 -0.116274 -0.681223
41.8686 3.83838 94.4329 0.066396 0 0 -0.4 0.219363 -0.701272 0.678305 0.757242
60.2925 -2.1265 72.2148 -0.253381 0 -0.156925 -3.0326 0.915836 -0.0852432 0.392401 -0.556511
60.3737 2.32025 83.8432 0.0188306 0 0 4.5 -0.231801 -0.238863 0.942981 0.391106
61.8532 11.8752 93.4914 -0.0995423 0 0 1.8 0.458656 -0.621113 0.635494 0.230162
60.0298 -1.97213 78.9591 0.228413 0 0 -3.9 0.64165 -0.679627 0.355517 0.493103
65.8265 7.55475 75.5762 0.0914003 0 0.057753 -0.225929 0.861786 0.00665902 0.507228 -0.28413
61.7335 7.7525 88.6965 0.119969 0 0.621217 -3.5 -0.41193 -0.706532 0.575435 0.999884
51.0495 10.1228 96.7945 0.57649 0 0.156439 -3.9 0.339719 -0.509532 0.790549 0.299892
62.33 -6.664 75.2965 -0.300819 0 -0.0183277 -3.5 0.706977 0.473866 0.525009 0.37198
56.5729 6.56537 89.0566 -0.011375 1 0 3.8 0.603986 -0.773054 -0.193878 -0.249418
51.6015 12.2727 97.369 0.105719 0 0 -3.9 0.116365 0.305032 0.945206 0.999897
59.9651 10.1064 89.921 -0.118271 0 0 1.8 -0.128501 -0.970973 -0.201738 -0.577056
62.4277 -4.83612 70.9294 -0.000163237 0 0 -1.3 0.880216 0.0952963 0.464907 -0.0365125
43.301 14.8813 95.7576 -0.0676783 0 0 -1.3 0.0708769 0.910386 0.407644 -0.57845
45.616 1.7915 92.8174 0.0386613 0 0 4.2 -0.567455 -0.506482 0.649208 0.281124
67.3033 10.8914 78.0404 0.00264065 0 0 1.8 0.956657 0.0268918 -0.289972 0.431523
60.3237 9.76225 91.2155 -0.0663367 0 0 1.8 0.238533 -0.95541 0.174053 0.336732
61.4588 -0.483125 76.0429 0.784037 0 0.849229 -3.9 0.999766 0.0174281 -0.0128329 0.99989
53.0848 5.127 89.519 0.183081 0 0 -0.7 0.541054 -0.837972 0.0711643 -0.403612
49.7485 1.23375 88.915 -0.171706 0 0 -0.7 0.688777 -0.366528 0.625494 -0.634669
52.2099 5.98725 93.043 -0.497823 0 -0.972821 -0.7 0.23932 -0.391474 0.888523 0.727827
62.8911 3.286 80.9283 0.0483007 0 0 4.5 0.672237 0.36572 -0.643697 0.477667
52.2793 9.93925 94.8569 0.267688 0 0 -3.9 0.397578 -0.893824 0.207391 0.115276
59.9285 1.1935 82.7206 0.039756 0 0 4.5 -0.476557 -0.66848 0.570989 0.266303
60.7048 -3.30925 72.0095 -0.0939067 0 0 -1.3 0.682655 0.382238 0.622797 -0.697965
55.3058 -2.536 84.8558 0.0723007 0 0 1.8 0.651577 -0.399119 0.645098 0.659409
47.1306 13.9307 96.8665 -0.0775447 0 0 -0.952454 0.0642622 -0.0341854 0.997347 0.164272
51.2525 -1.547 88.353 0.052935 0 0 -3.5 0.523729 0.233663 0.819213 0.888263
66.5583 9.10875 77.9075 0.0125447 0 0 1.8 0.666557 -0.687871 -0.28729 0.273967
63.0418 7.42475 87.07 -0.13415 0 0 -3.5 0.460437 -0.887522 0.0173842 0.582621
66.9583 9.56987 75.3941 -0.093778 0 -0.485764 1.60117 0.810982 -0.298753 0.503045 0.16081
61.0799 -0.732125 71.2874 0.121133 0 0 1.8 0.473866 -0.388529 0.790251 -0.999895
65.1824 4.39988 75.0174 -0.267167 0 -0.478242 -0.7 0.635649 -0.750458 0.181004 0.414764
44.271 15.2067 95.1133 -0.16732 0 0 -1.3 -0.302149 0.642038 0.704622 -0.836978
41.6045 14.6055 97.169 -0.037437 0 0 -1.3 0.151406 0.552774 0.819461 0.632102
45.15 17.071 94.705 -0.072045 0 0 1.8 -0.48906 0.126257 0.863064 -0.627514
54.522 5.50637 88.8884 0.0755007 0 0 3.8 0.212534 -0.971664 0.103433 -0.158032
52.115 4.15825 89.0685 -0.065623 0 0 -0.7 0.762379 -0.61774 0.192809 -0.375734
48.355 7.08825 92.4327 -0.382693 0 0 -0.7 0.333991 -0.0501281 0.941242 -0.999869
44.5949 2.95563 92.6701 0.00183579 0 0 4.2 -0.458191 -0.422897 0.781805 0.135042
46.2308 7.141 95.0857 -0.450047 0 -0.969726 -0.7 0.29371 -0.341511 0.892807 0.650678
50.108 -2.556 88.6865 0.065591 0 0 -3.5 0.264089 -0.184211 0.946744 0.539185
55.6831 -0.295375 83.2344 0.11284 0 0 1.8 0.835173 0.543537 0.0839868 0.300621
60.1043 5.838 84.166 0.00260811 0 0 -0.4 0.0738165 -0.354308 0.932211 -0.410683
61.3768 -4.499 72.654 -0.0116322 0 0 -1.3 0.645783 0.56005 0.51895 0.301878
65.7383 5.18825 76.3546 0.111317 0 -0.182918 -0.7 0.768097 -0.382352 0.513648 0.999833
63.0936 2.88363 73.3184 0.104364 0 0 -0.7 0.125028 -0.824097 0.552478 -0.803237
56.0444 12.9362 93.8494 -0.043695 0 0 -3.9 0.272501 -0.695151 0.665213 -0.645557
54.348 6.22862 91.7523 0.041005 0 0 3.8 -0.00630985 -0.75368 0.657211 -0.126248
51.7771 16.5833 95.4834 -0.32953 0 0 -0.7 0.232799 -0.226197 0.945854 -0.516525
48.7757 -2.33 89.0928 0.0168512 0 0 -3.5 -0.0961699 -0.284088 0.953963 0.849368
58.6497 2.40862 82.3795 0.0514723 0 0 4.5 -0.804571 -0.396998 0.441653 0.186476
59.6768 -3.158 73.6882 -0.234442 0 -0.922279 -3.5 0.967465 0.0661601 0.244201 -0.627726
39.7394 5.7595 94.7681 -0.0172718 0 -0.904357 -0.4 -0.157571 -0.306795 0.938642 -0.470991
54.4178 -0.046375 85.5816 0.0705883 0 0 1.8 0.395646 0.438623 0.806892 0.496639
57.4535 13.6927 94.675 -0.076512 0 -0.628578 -2.0384 -0.0859256 -0.719874 0.688766 -0.159374
61.404 8.213 80.051 0.080926 0 0 -1.3 0.883389 -0.460224 0.0884198 -0.999891
53.4999 -0.613875 85.6294 0.154313 0 0 1.8 0.206499 0.128012 0.970037 -0.648528
55.0023 13.4277 95.4658 0.00286304 0 0 -3.9 0.644322 -0.306 0.700866 0.218894
49.7533 2.48625 92.7485 -0.0196561 0 0 4.2 0.824327 -0.23155 0.516595 0.103117
42.5539 5.08787 94.7858 0.117709 0 0 -0.4 0.453301 -0.412396 0.79022 0.579183
44.3773 8.74737 95.6834 -0.055173 0 0 -0.7 -0.0117055 -0.179402 0.983706 0.246603
53.244 5.08988 87.959 0.0095739 0 0 3.46169 0.446353 -0.825988 0.344256 -0.99985
49.3735 13.4 96.193 0.0120827 0 -0.0719945 -2.60296 -0.2464 -0.186792 0.950997 -0.713454
61.7206 3.70975 80.0916 0.131062 1 0.0164559 4.5 0.816845 0.180176 -0.547997 -0.190354
60.8256 -5.20662 77.57 0.153306 0 0 -0.4 0.828838 0.45596 0.324235 0.535479
43.514 0.441 90.677 0.0979967 0 0 -4.5 0.00844859 -0.168694 0.985632 0.140351
60.9095 -1.1275 77.2919 0.798927 0 0 -3.9 0.926578 -0.344618 0.150638 0.380717
47.8201 0.718125 93.4918 0.0114754 0 0 4.2 0.102649 -0.502089 0.858702 0.999881
53.0462 2.666 87.4905 -0.384453 0 -0.860802 -0.7 0.76853 -0.17032 0.616727 0.999849
58.8284 5.48187 84.1746 0.188709 0 0 4.5 0.176766 -0.634739 0.752237 -0.252215
64.1231 11.1131 86.8666 -0.116117 0 0 -3.5 0.988756 -0.137035 0.0598544 -0.707128
60.2233 1.123 75.4226 0.667783 0 -0.0387458 -3.5545 0.976077 0.214638 -0.034696 -0.557328
62.103 12.857 94.453 -0.368757 0 -0.0292723 1.8 0.243832 -0.632739 0.734974 0.622588
47.2145 16.9125 97.4033 0.135874 0 0.165652 -0.7 -0.34838 -0.00997913 0.9373 0.702054
53.1022 9.73862 91.9519 -0.310684 0 0.852956 -0.186578 0.452693 -0.520098 0.72427 -0.999908
62.1527 7.36575 85.5585 -0.064124 0 0 -3.5 0.29767 -0.953024 0.0560176 0.113521
63.2915 3.2715 75.1042 0.080806 0 0 -0.7 0.0975397 -0.90532 0.413378 0.70759
58.2725 4.41825 83.2749 0.160633 0 0 4.5 -0.284738 -0.628882 0.723485 -0.148058
60.5143 4.23725 76.334 0.0887937 0 -0.379277 1.27822 0.65519 -0.512405 0.555129 -0.724154
57.9627 5.328 84.9352 0.223642 0 0 4.5 0.530217 -0.58633 0.612444 0.571356
56.511 2.72925 80.5772 -0.174121 0 0 -0.4 -0.221304 -0.426098 0.877191 -0.670629
58.0462 14.1115 95.6165 -0.0146083 0 0 1.8 -0.364548 -0.745542 0.557918 0.36388
47.0729 18.5721 96.9789 -0.00705397 0 -0.293045 -0.7 -0.337949 0.453402 0.824753 0.99988
61.413 0.42275 82.8725 0.0310656 0 0 4.5 -0.205787 -0.837993 0.50539 0.61475
63.8887 1.4915 83.5134 -0.00290015 0 0 4.5 0.582681 -0.320937 0.746647 0.999843
62.0059 2.21412 79.7881 0.0888987 0 0 4.5 0.59247 -0.0385155 -0.804671 0.418797
65.0827 3.55325 68.929 -0.00263771 0 0 -2.20015 0.653657 -0.712717 -0.254494 -0.821711
61.2072 1.44175 83.625 0.0163629 0 0 4.5 -0.298177 -0.513452 0.804647 0.565331
67.0882 8.83175 78.8725 -0.00494377 0 0 1.8 0.514515 -0.840741 -0.16861 0.999901
51.6403 7.62738 93.0452 -0.0317328 0 -0.791881 -0.7 0.0248301 -0.112446 0.993348 0.0780399
59.185 3.1785 83.4285 0.0656857 0 0 4.5 -0.565115 -0.090707 0.820011 0.203895
54.942 12.654 94.503 0.0359097 0 0 -3.9 0.643038 -0.603042 0.472062 -0.529928
66.5772 6.05137 73.5539 -0.113731 0 -0.528268 -1.13876 0.808388 -0.384385 0.445822 -0.08798
44.701 1.18756 90.8759 0.180709 0 0 -3.0227 -0.0995028 -0.737535 0.667938 -0.791198
60.6583 0.468563 77.6046 0.68291 0 0 -3.9 0.968067 0.250209 0.0155694 -0.0405258
56.2756 6.00287 87.6612 -0.189823 0 0 4.5 0.716205 -0.615166 0.329578 0.0146716
56.8022 8.468 92.1103 -0.030275 0 0 3.8 0.606226 0.117989 0.786491 0.272629
39.2344 7.15112 95.0854 -0.00675537 0 -0.0954414 -3.90576 -0.208654 -0.330139 0.920582 -0.610528
52.0644 10.3939 96.1667 0.371733 0 0 -3.9 0.42651 -0.716519 0.551988 0.0874005
54.8613 1.01888 81.0502 0.217891 0 0.000284222 -3.2 0.642015 0.238795 0.728556 -0.734002
66.155 4.8405 71.2605 -0.092993 0 -0.977394 -3.46804 0.544566 -0.713008 0.441664 -0.458117
42.6555 7.31962 95.5818 -0.0368557 0 0 -0.635345 0.195058 -0.263319 0.944783 0.329313
48.3971 9.66113 95.1771 0.42458 0 0 -1.64642 -0.311926 -0.767863 0.559543 -0.165443
57.4809 8.37687 91.3384 -0.0363473 0 0 3.8 0.843039 -0.175444 0.508434 -0.139256
63.223 7.84363 85.1646 0.070748 0 0 -3.5 0.41978 -0.890632 -0.174812 0.181924
58.8174 1.50688 81.6646 0.0296612 0 0 4.5 -0.634481 -0.410375 0.655001 -0.273165
58.5699 6.98787 85.2053 0.178343 1 0 4.5 0.277706 -0.463926 0.841221 -0.458118
61.125 -2.121 71.1479 -0.015693 0 0 -1.3 0.449345 0.144232 0.881638 -0.835167
58.9202 -2.3485 79.3597 0.245719 0 0 -3.9 0.555547 -0.584457 0.59142 -0.316464
53.8566 0.786812 84.0434 0.385573 0 0 1.8 0.670464 0.717473 0.18897 -0.432397
51.6741 0.485312 86.9776 0.0836217 0 -0.722507 -0.7 0.626219 -0.221054 0.747653 -0.394212
60.2972 2.38181 78.4176 0.165796 0 0 0.325487 0.885753 0.0201061 -0.463722 -0.548846
44.4547 0.2375 90.3905 0.31625 0 0 -4.5 0.0198613 -0.106958 0.994065 -0.838872
61.0571 -6.41119 77.9269 0.168592 0 0 -0.4 0.899729 0.42892 -0.0807217 -0.329968
43.3231 6.06 94.6394 0.096429 0 0 -0.455049 0.43328 -0.480888 0.762243 -0.262095
44.9595 5.2575 93.5645 0.0244287 0 0.21346 -0.7 -0.249903 -0.52201 0.815509 -0.767451
59.7969 -5.73712 79.568 0.237519 0 0 -2.39041 0.558874 0.759785 0.332245 -0.621207
40.4118 3.42563 94.1615 0.034472 0 0 -2.58122 0.408194 -0.593529 0.693615 0.138568
59.037 10.2215 92.9585 -0.0261407 0 0 1.8 0.0527325 -0.711485 0.70072 0.846012
57.0171 7.36481 87.1453 -0.0288778 0 0 3.87355 0.929539 -0.346447 0.126223 -0.377159
41.2259 3.29288 92.8719 0.0962263 0 0 -0.4 0.153023 -0.987879 0.0260743 0.0720406
65.1464 7.97113 76.7871 0.00616897 0 -0.032489 1.8 0.687109 -0.432974 0.583451 -0.218303
48.3672 -0.10675 89.8025 -0.299754 0 0 1.83373 0.440324 -0.72473 0.529982 0.0304698
65.2821 10.1629 81.8956 -0.0143648 0 0 -3.5 0.703205 -0.42801 0.567724 -0.0447525
64.901 3.50388 67.7227 -0.035539 0 0 -3.5 0.80396 -0.577996 0.139887 -0.783402
59.8435 8.373 87.055 -0.287754 0 -0.617462 -3.5 -0.461552 -0.658356 0.59459 0.276923
55.9777 -1.98869 82.5979 0.0634957 0 0 -2.80261 0.925188 -0.138527 0.353323 -0.236623
60.2163 -4.115 73.2178 -0.0514483 0 -0.153493 -1.65251 0.710586 0.572083 0.409621 -0.784873
66.0566 1.97725 71.3558 0.185455 0 0.0445195 -0.9 0.994086 0.0861488 0.0661191 0.937232
65.575 3.0465 70.7374 -0.141564 0 0 -0.9 0.988684 -0.149287 0.0147629 -0.196236
53.6627 3.52244 85.1197 0.041161 0 0 4.5 0.5831 -0.789906 0.189848 -0.4667
69.5215 5.5335 71.4173 -0.593617 0 -0.051706 -3.5 0.592131 -0.790585 0.156064 0.999807
60.9905 9.51475 89.6817 -0.111748 0 -0.0317564 1.1484 -0.325786 -0.875039 0.35801 0.141318
66.6775 8.304 74.5393 0.221118 0 0 -0.676298 0.790403 -0.341699 0.508434 -0.402494
52.4175 8.884 92.896 -0.0477197 0 0.398148 -0.7 0.516022 -0.032063 0.855975 -0.0656471
67.9546 9.91763 74.3115 -0.0357713 0 0 -0.4 0.871405 0.189735 0.452387 0.723274
52.4512 -0.23175 86.033 -0.111894 0 0 1.8 0.686044 -0.0371379 0.726611 -0.554384
49.813 14.303 96.6182 -0.0264874 0 0 -0.7 0.270541 -0.116649 0.955615 0.0917289
64.668 9.20413 80.9534 -0.00014794 0 0 0.411304 0.226975 -0.920906 0.316883 0.163924
57.2275 6.9075 85.9457 0.053544 0 0 4.5 0.76947 -0.221435 0.599068 -0.6407
59.5283 -4.18644 78.1205 -0.10653 0 0 -0.4 0.762924 0.377476 0.524842 -0.317603
57.6162 8.35437 89.8246 -0.049287 0 0 3.8 0.931486 -0.342134 -0.123604 -0.257448
48.6395 10.7342 96.1827 0.76822 0 0.168269 -3.9 -0.317467 -0.263797 0.910838 0.0963045
62.5413 7.69944 84.0294 -0.0318911 0 0 -3.5 0.745198 -0.666063 -0.032246 -0.187311
63.7966 6.79125 77.0739 0.166635 0 0.227119 -0.847577 0.308247 -0.282228 0.908478 -0.234973
49.6017 9.00506 93.8137 -0.461877 0 0 4.2 -0.0131905 -0.913896 0.405733 -0.434625
49.6073 9.71106 96.6338 0.747373 0 0.144525 -3.9 -0.372208 -0.581879 0.723103 0.629383
66.1551 -0.9165 66.7178 0.119935 0 0 -4.5 0.659734 0.246056 0.710076 0.0759881
59.1445 10.2315 88.6641 -0.064188 0 0 4.2 0.21452 -0.947406 0.237493 -0.999862
44.4659 13.5456 97.3533 -0.0260205 0 0 -1.3 0.01419 0.270069 0.962736 0.582111
61.1942 6.55475 84.3577 -0.100069 0 -0.260991 1.36626 0.401249 -0.626488 0.668216 -0.153789
70.3015 6.35875 70.761 -0.421467 0 0 -3.5 0.858802 -0.501304 -0.105608 0.999809
68.6988 8.84481 72.4001 -0.231451 0 0 -0.652066 0.755268 0.544004 0.365555 0.139181
46.0105 -1.34913 89.1934 0.299768 0 0 -4.5 0.67877 -0.383604 0.626194 -0.729704
59.3106 7.79362 85.7558 -0.130952 0 0 -3.5 -0.066684 -0.735688 0.674029 -0.362315
53.0936 1.57862 86.6675 0.140535 0 -0.0561255 -0.7 0.856529 -0.306763 0.415035 0.455993
50.644 7.112 92.8587 -0.279786 0 0 -0.7 -0.128745 -0.038226 0.990941 -0.238306
53.4436 -4.07294 85.1407 0.0865607 0 0 -3.5 0.834894 -0.456798 -0.307063 -0.262154
64.8814 1.4965 72.81 0.251501 0 0.251346 -0.9 0.347479 -0.238326 0.906895 0.999843
50.2721 11.4424 97.0833 0.41188 0 0 -3.9 -0.314831 0.00455315 0.949137 0.627972
57.8429 6.88775 90.2995 -0.0353787 0 0 3.8 0.949846 -0.294139 -0.106186 0.999879
65.7699 1.1305 66.1953 0.140787 0 0 -4.5 0.825115 0.227889 0.516963 0.140564
64.646 -3.07125 69.9235 0.0162481 0 0 -0.9 0.716064 -0.693185 0.0821357 0.746724
41.4873 5.30963 95.0078 0.0873203 0 0 -0.4 0.00369155 -0.381844 0.924219 0.0316972
49.9453 8.25825 92.9014 -0.674327 0 0.289778 0.042239 -0.0388502 -0.480867 0.875933 -0.602579
57.6072 -3.53294 80.8153 0.228972 0 0 -4.5 0.789737 0.351041 0.503076 -0.109627
40.1673 8.72631 96.6201 0.265959 0 0 -0.4 -0.0444818 -0.826052 0.561836 0.0372497
64.2639 3.31119 74.3899 0.0290738 0 0 -0.7 0.469956 -0.788618 0.396513 0.342659
65.8175 0.64075 71.7421 0.0871513 0 0 -0.9 0.841872 -0.124106 0.525214 0.431808
68.0533 5.72375 67.8683 -0.033476 0 0 -3.5 0.568463 -0.505271 -0.649269 0.205948
61.6432 0.182875 81.3412 0.0490007 0 0 4.5 0.295529 -0.944017 -0.146611 0.32363
66.0075 -0.610875 70.575 -0.0067119 0 0 -0.9 0.997789 -0.0247197 -0.061686 0.660069
40.8625 10.6724 98.1494 0.079865 0 0 -0.4 0.419841 -0.121775 0.899391 0.999787
49.9752 2.45794 89.9053 -0.0972447 0 0 -0.7 0.71195 -0.617704 0.334018 -0.999751
45.8369 9.50775 96.0123 -0.0499933 0 0 -0.7 0.018623 -0.2078 0.977994 0.645882
62.8405 -6.67375 72.8431 0.114862 0 0 -2.41975 0.675441 0.737368 -0.00820631 -0.12358
54.9615 3.58444 82.2876 0.0489293 0 0 4.5 0.538548 -0.783858 0.309082 -0.32224
54.8045 10.381 92.7625 -0.0393863 0 0 3.8 0.0840582 -0.384534 0.919276 -0.170412
49.0164 2.11363 93.3913 -0.0064351 0 0 4.2 0.545484 -0.269805 0.793506 0.322363
42.796 1.3435 90.6555 -0.112888 0 -0.0260076 -4.5 -0.628439 -0.332013 0.703442 0.175159
49.1129 -1.01213 88.8692 0.0484637 0 0 -3.5 0.338534 -0.0466911 0.939795 -0.101048
55.5852 5.47544 90.3254 0.0111281 0 0 3.8 0.164516 -0.985947 -0.0290263 0.510153
54.9514 5.12675 87.5557 -0.242234 0 0 4.45997 0.229647 -0.857881 0.459676 -0.0707601
64.7372 0.722 67.8526 0.0233049 0 0 -1.12357 0.911887 0.399193 0.0954273 -0.444927
65.4779 -2.61987 66.9971 0.0078837 0 0 -4.5 0.61427 -0.301683 0.72915 -0.206271
63.6173 3.5825 82.2207 -0.00863777 0 0 4.5 0.801587 0.552921 -0.227456 0.358439
59.6989 12.1969 93.6221 -0.0207915 0 0 1.8 -0.0799799 -0.412924 0.907247 -0.496848
61.5002 2.03875 73.2934 0.4046 1 0 1.8 0.507356 -0.380631 0.773117 -0.531784
64.1596 2.457 73.0074 0.0113953 0 0 -0.842343 0.256499 -0.473806 0.842446 -0.113137
47.1681 -2.535 88.1598 0.058575 0 0 -3.5 -0.354459 -0.860346 0.366283 -0.0797266
66.1586 8.7075 79.8565 0.034173 0 0 1.8 0.0355662 -0.980708 0.192214 0.77297
43.9179 5.37425 93.6873 0.129774 0 -0.0838213 0.478747 0.311506 -0.549433 0.775298 -0.549032
58.6183 0.405 81.2281 0.083808 0 0 2.04065 -0.213253 -0.175573 0.961092 -0.153211
64.401 1.80025 67.0951 0.124898 0 0 -0.9 0.890008 0.0419217 0.454013 -0.999874
54.2186 -2.97394 85.3811 0.109193 0 0.00853271 0.795269 0.805996 -0.422508 0.414557 0.0777609
54.2752 11.8243 94.8395 0.025909 0 0 -3.9 0.823486 -0.450378 0.345008 -0.263161
59.856 -2.5235 75.3604 0.377627 0 0.120428 -3.9 0.909391 -0.401524 -0.108569 -0.760858
63.1968 -5.56175 67.4209 -0.596953 0 -0.410538 -3.5 0.79017 -0.379392 0.481346 0.082029
50.5476 16.7276 96.509 -0.0432447 0 0 -0.7 0.599998 0.0897395 0.794952 0.302487
53.3052 1.11937 85.5553 0.07195 0 0.199874 0.158574 0.832284 0.267948 0.485291 0.0770712
48.0222 14.8868 97.2403 -0.0485287 0 0 -0.7 0.0156738 -0.376391 0.926328 0.418805
65.2086 3.09925 72.5815 -0.0097453 0 0 -0.865978 0.799031 -0.0430685 0.599746 0.310067
60.7795 7.13188 85.5803 -0.300647 0 0 -3.5 -0.0903808 -0.872945 0.479374 0.0760894
59.0622 -1.438 80.42 0.148755 0 0 -3.9 0.417013 -0.518436 0.746542 0.201333
51.6717 1.61888 87.8378 -0.148088 0 -0.883638 -0.7 0.487534 -0.467764 0.737229 0.728599
42.7431 3.58469 93.3681 0.0932127 0 0 -0.4 0.367638 -0.792447 0.486693 0.484085
56.7406 4.89381 84.4511 0.216944 0 0 4.5 0.384405 -0.900993 0.201108 -0.221227
57.6012 8.5635 88.2664 -0.058331 0 0 3.8 0.819795 -0.522507 0.234356 -0.240618
47.6678 1.77638 93.7281 0.0130249 0 0 4.2 -0.0296416 -0.42989 0.902395 0.0476324
53.5524 -3.26506 87.0008 0.346573 0 0.310466 -3.5 0.748755 0.191185 0.634677 0.880119
68.9984 5.71481 72.5404 -0.727577 0 -0.704401 -3.5 0.411984 -0.517106 0.750247 0.999845
51.9826 2.93156 88.3047 -0.300393 0 -0.736954 -0.7 0.635539 -0.388307 0.667314 -0.0664618
66.2166 6.41719 74.689 -0.231245 0 -0.509957 -0.7 0.961232 -0.127115 0.244692 -0.116715
67.5638 4.50775 69.6982 -0.098432 0 0 -3.5 0.490432 -0.856274 0.162084 0.734467
59.0944 9.06331 87.1534 -0.0911137 0 -0.0137026 2.03734 0.128761 -0.654129 0.745343 -0.445241
64.821 9.529 85.1773 0.0091861 0 0 -3.5 0.988966 -0.147573 -0.0129613 0.574651
63.5296 1.89706 80.773 0.0400377 0 0 4.5 0.728574 0.0902958 -0.678989 0.723363
61.8051 5.10869 76.6036 0.188609 0 0 -1.3 0.245164 -0.69055 0.680467 -0.234791
65.2925 4.66075 72.9115 -0.0406687 0 0 -0.7 0.759385 -0.583063 0.288744 -0.49261
53.9873 13.0247 96.4954 0.00114484 0 0 -3.9 0.549662 -0.0585403 0.833334 0.85966
62.8332 5.019 82.0195 -0.118431 0 0 4.5 0.89625 0.406561 -0.177326 0.437414
63.5336 2.96306 83.6617 -0.0190285 0 0 4.5 0.661948 0.310113 0.682389 0.483631
53.7695 3.20006 83.5087 0.0911353 0 0 4.5 0.611603 -0.759203 0.222604 -0.558941
51.9516 3.77038 90.8783 -0.0681137 0 0 -0.7 0.702074 -0.688506 0.181803 0.745646
55.5189 -0.12525 81.7894 0.095625 0 0 0.78308 0.625551 0.727844 0.280943 -0.579037
53.2354 2.14606 83.3159 0.213187 0 0 -2.59262 0.955787 0.0724702 0.284991 -0.630741
56.1334 -4.008 82.3427 0.10809 0 0 -4.5 0.398753 0.0814753 0.913432 0.118283
63.2621 -7.40369 72.1072 0.108407 0 0 -1.64289 0.821802 0.465887 -0.328012 -0.0437842
53.9774 8.55575 91.9737 0.0020841 0 0.620193 -0.178835 0.0360214 0.135012 0.990189 -0.690331
43.1268 14.4126 96.8586 -0.0181163 0 0 -1.3 0.0966689 0.632054 0.768871 0.336091
63.8604 8.66387 83.8444 0.0362197 0 0 -3.5 0.671766 -0.681653 -0.289964 0.290783
53.3854 3.15394 86.3658 -0.137953 0 -0.98254 -0.7 0.923693 -0.317448 0.214519 -0.0619516
44.2652 6.61837 94.7448 -0.0592817 0 -0.230025 -0.7 0.028855 -0.555661 0.830908 -0.283052
57.8906 2.74012 81.1896 -0.185517 0 0 -0.4 -0.602686 -0.46861 0.64589 -0.922583
58.4519 -5.00875 81.9015 0.154101 0 0 -4.5 0.517109 0.663911 0.540204 0.439147
57.6687 9.90588 92.1591 -0.0336427 0 0 2.23117 0.0804482 -0.655033 0.751305 -0.190483
64.1675 11.8625 90.5575 -0.00871067 0 0 -3.2 0.445899 -0.88644 0.124092 -0.136752
41.9732 2.71856 90.2781 -0.128841 0 -0.502543 -4.5 -0.641914 -0.701058 0.310586 -0.367452
61.6556 3.67494 75.3542 0.137881 0 -0.00152989 -0.463385 0.117729 -0.80202 0.585579 -0.12437
58.803 -4.96294 79.5967 0.0821197 0 0 -1.16889 0.762444 0.541015 0.354938 -0.702683
58.3924 9.164 91.0143 -0.046682 0 0 1.8 0.456456 -0.886483 0.0761286 0.146342
60.6859 -1.60856 75.6446 1 0 0 -3.9 0.849602 -0.510028 -0.13434 0.327902
47.1589 7.89325 93.9043 -0.456307 0 -0.644854 -0.7 0.749098 -0.208492 0.628795 -0.508645
63.2217 -3.79375 70.1136 -0.0230747 0 0 -0.9 0.71736 -0.506647 0.47823 0.0583051
64.2002 -2.47487 71.0368 -0.0118074 0 0 -0.9 0.252908 -0.706607 0.660866 0.308857
42.1455 13.1516 97.2594 -0.0075531 0 0 -0.936804 0.205636 0.0613181 0.976706 0.0475401
61.3937 -5.79275 75.8904 0.00450147 0 0 -0.4 0.850673 0.477811 0.219207 0.200991
65.0891 2.99894 66.6103 -0.0769023 0 0 -2.30785 0.789209 -0.367084 0.49234 -0.418521
63.4502 0.837875 81.1276 0.0344693 0 0 4.5 0.526897 -0.631285 -0.569085 0.999855
57.1081 6.00675 90.7599 -0.0191136 0 0 3.8 0.601622 -0.783383 0.156085 0.999853
59.9708 3.05687 77.0394 -0.0610057 0 -0.840357 1.8 0.996565 -0.0616721 0.0552613 -0.719961
43.8939 11.2471 95.9144 -0.152336 0 0 -1.3 -0.0872535 -0.587598 0.804435 -0.713196
55.8486 14.1174 95.3865 -0.0139383 0 0 -3.9 0.221908 -0.226663 0.948357 0.240616
50.2894 2.81594 91.4017 -0.0496043 0 0 0.127864 0.757271 -0.636608 0.145845 -0.0849242
38.7025 8.2095 95.534 0.288885 0 0 -4.23771 -0.138327 -0.478695 0.867016 -0.48764
49.2171 16.1268 97.6982 -0.0322225 0 0 -0.7 0.239257 0.091501 0.966635 0.999877
58.5636 12.8394 93.8266 -0.0190815 0 0 1.8 -0.176141 -0.55167 0.815252 -0.428574
41.4746 9.57987 97.3806 0.0256488 0 0 -0.4 0.590755 -0.480585 0.64811 0.61395
60.6232 -0.127188 74.2487 0.300704 0 0 0.533257 0.998037 -0.0625427 0.00332487 -0.130921
47.2461 12.032 96.5542 -0.0472287 0 -0.0198762 -1.3 0.36005 -0.203964 0.910364 -0.0797246
60.23 -2.05 74.268 -0.327012 0 -0.297047 -3.5 0.929854 -0.367127 -0.0242893 0.200134
62.1555 -5.30863 71.7976 0.0503097 0 0 -1.3 0.868173 0.41213 0.27645 -0.153566
54.0375 10.7525 93.6045 -0.0318718 0 0 -3.9 0.605431 -0.734828 0.305746 -0.0485911
60.554 -5.04675 75.081 0.0788353 0 0 -0.4 0.743567 0.668322 0.0212924 -0.467989
46.5188 4.83038 94.2439 0.0348477 0 0 4.2 -0.276002 -0.0388029 0.960373 0.0548937
60.9271 4.62469 78.3522 0.230391 0 0.48413 4.28231 0.86815 -0.372614 -0.327832 0.0716913
55.4741 0.021875 84.5259 0.085537 0 0 1.8 0.702417 0.668363 0.244747 0.999863
46.0342 8.34287 95.401 -0.199746 0 -0.343584 -0.7 0.443999 -0.317694 0.837816 0.199201
61.556 -5.58763 73.9126 -0.0435317 0 -0.354104 -2.79761 0.676208 0.697808 0.236236 -0.211936
57.1276 5.62606 85.9308 -0.042169 0 0 4.5 0.805874 -0.412854 0.424403 0.177859
52.8873 5.25262 91.2296 -0.0886933 1 -0.184041 -0.7 0.535276 -0.75554 0.377675 -0.0964061
61.487 5.35656 80.8307 0.14902 0 0.00190973 4.5 0.806914 0.323416 -0.494259 -0.555341
62.7064 9.73206 89.4459 -0.14056 0 0 -2.62203 0.50621 -0.406177 0.76077 -0.108881
53.1903 11.6814 96.2936 0.123305 0 0 -3.9 0.467795 -0.322683 0.822827 0.214699
45.3184 12.5814 97.5263 0.0309674 0 0 -1.3 0.0186139 0.00196528 0.999825 0.267521
42.4248 3.07184 91.5914 0.291891 0 -0.0916374 -1.01666 -0.326237 -0.859263 0.394001 -0.0769071
61.7722 2.25278 84.1012 -0.004137 0 0 4.5 -0.0445112 -0.141776 0.988898 0.456994
50.5385 1.21641 88.2159 -0.0338777 0 0 -0.7 0.568065 -0.400742 0.718824 -0.50313
48.3571 0.108 91.0499 -0.0131038 0 0 4.2 0.419982 -0.907531 0.00183802 0.241762
45.5566 -0.618125 90.4889 0.138095 0 0 -3.94074 0.435832 -0.38758 0.812301 0.162323
64.2617 0.316375 72.1824 -0.0410283 0 0 -0.9 -0.0494954 -0.252936 0.966216 -0.0404172
60.529 -6.48647 81.021 0.249884 0 0 -4.5 0.712918 0.552407 0.431966 0.296459
64.4271 2.23587 68.7204 -0.131966 0 0 -0.9 0.956826 -0.0175052 -0.290134 -0.910312
66.9308 5.65947 67.1103 0.033434 0 0 -3.5 0.73589 -0.458908 -0.497865 -0.354284
38.5751 9.1965 96.565 0.036024 0 0 -1.056 -0.388592 -0.709108 0.588356 -0.0536331
61.9642 10.5183 91.1247 -0.450577 0 -0.397516 1.8 0.444744 -0.796846 0.408949 0.138371
53.971 1.37019 82.0241 0.46381 0 0 -3.2 0.797661 0.371872 0.474814 -0.640289
47.6442 9.22303 94.6553 -0.267572 0 0 -0.7 0.358218 -0.690755 0.628121 -0.231959
61.3294 6.86825 79.3295 0.116675 0 0 -1.3 0.872224 -0.355537 0.335885 -0.371372
61.0718 0.741063 79.4964 0.130468 0 0 3.67898 0.891787 -0.191677 -0.409849 -0.0641084
56.3092 11.3316 92.498 -0.0621317 0 0 3.8 0.0453767 -0.398848 0.915894 -0.576282
56.8414 4.53669 82.576 0.199354 0 0 4.5 -0.0973275 -0.877667 0.469285 -0.588683
49.0578 5.72662 92.8362 -0.187084 0 0 3.51602 0.297845 0.431718 0.851415 -0.422074
45.741 15.564 96.034 -0.0539223 0 0.0242671 -1.26826 -0.391329 0.527043 0.754379 0.0892882
64.9111 11.5253 83.8523 0.0554197 0 0 -3.5 0.911485 -0.393982 0.118208 -0.379018
56.2601 1.3435 80.3062 0.0994473 0 0 -3.47536 0.057157 0.117508 0.991426 -0.99977
66.3744 11.1233 75.7811 -0.0948117 0 0 0.767426 0.98141 0.137429 0.133971 -0.602374
64.2811 11.124 88.7271 -0.0654033 0 0 -3.2 0.844485 -0.477926 0.241727 0.0423116
65.2396 -0.574313 67.9177 0.0119319 0 0 -1.73076 0.977362 0.0461528 0.206477 -0.122548
59.9895 -3.53569 76.622 0.362763 0 0.781082 -3.9 0.98065 0.189235 0.0501566 0.057816
66.1663 3.99184 69.835 -0.0253454 0 0 -2.62429 0.547424 -0.835651 0.0448778 -0.0436023
42.2727 11.6503 96.8775 0.0591097 0 0 -0.4 0.518171 -0.3171 0.794321 -0.177084
56.3009 4.63987 86.7288 -0.434037 0 0 4.5 0.532688 -0.744423 0.40259 0.999884
64.7506 11.8176 85.6517 0.000391127 0 0 -3.5 0.736817 -0.654481 0.169571 -0.483048
46.416 0.1775 91.0005 0.100684 0 0 4.2 -0.264923 -0.832401 0.486749 0.0806567
56.5995 -0.976 81.7602 0.117857 0 0 -3.9 0.497923 0.237983 0.833929 0.0404234
67.8834 8.21175 73.1054 -0.0796877 0 0 -2.25168 0.61806 -0.198121 0.760756 -0.025286
62.61 -1.86806 71.1686 -0.039349 0 0 -0.9 -0.0508219 -0.247855 0.967463 -0.137601
47.1941 -1.01306 88.8316 -0.0236487 0 0 -3.5 0.182342 -0.500349 0.846406 -0.502855
46.09 16.821 96.498 0.160373 0 0.797281 -0.7 -0.816636 -0.00277934 0.577146 0.437563
50.6768 9.14913 95.0036 1 0 0 -3.9 0.281513 -0.93112 0.231874 0.182072
63.0534 7.94759 78.2273 0.226403 0 0 -1.3 0.462991 -0.685834 0.56149 -0.529975
52.0365 -1.30581 87.119 0.108285 0 0 -3.5 0.7111 0.341155 0.614777 0.0405528
51.4429 -2.85353 88.1905 0.124271 0 0 -3.5 0.361826 -0.0503626 0.930884 0.230763
68.8406 5.45025 69.3399 -0.190738 0 0 -3.5 0.650671 -0.732069 -0.201748 0.323582
54.7308 -3.83575 83.0703 -0.321604 0 0 -4.5 0.418025 -0.617651 0.666155 -0.163252
50.6609 5.15413 92.7564 -0.182103 0 -0.0305157 -0.7 0.255331 -0.166075 0.952484 -0.06163
46.9207 6.47631 94.3135 -0.228441 0 -0.720791 -0.7 0.572865 -0.0301312 0.819096 0.208416
62.2693 -0.0680625 71.7346 -0.0127796 0 0 1.60875 0.242342 -0.531935 0.811366 -0.200397
53.0353 14.1555 96.3145 0.0154369 0 0 -3.9 0.0496797 0.413535 0.909132 0.750105
63.3011 8.9775 82.3492 0.0987653 0 0 -3.5 0.424351 -0.898815 -0.109809 -0.321352
41.9789 15.461 95.8827 -0.007604 0 0 -1.3 0.41623 0.726328 0.546991 -0.110061
60.7567 12.3643 93.9133 -0.0528927 0 0 1.8 -0.033376 -0.545052 0.837738 -0.18811
65.0365 2.24177 69.6068 -0.268371 0 0 -0.9 0.857537 -0.17503 -0.48373 -0.0887554
48.8219 12.2907 96.0444 0.0607707 0 -0.651555 -1.76878 -0.10042 0.0514365 0.993615 -0.616347
57.8099 -0.14799 81.4412 0.0723987 0 0 -3.9 0.165848 0.134019 0.977002 0.500052
45.4106 14.3184 96.6786 -0.118681 0 0 -1.3 0.0944892 0.471068 0.877022 -0.335765
47.596 5.97512 93.5756 -0.045186 0 0 4.2 0.678966 0.355526 0.642345 -0.806596
3 6 15 554
3 554 417 439
3 6 439 538
3 342 197 192
3 192 197 539
3 539 61 192
3 61 539 425
3 453 204 245
3 27 245 217
3 499 29 418
3 151 440 174
3 418 174 21
3 418 21 232
3 232 21 15
3 424 427 103
3 427 6 103
3 579 385 384
3 385 579 556
3 213 469 570
3 570 387 213
3 74 267 517
3 74 517 483
3 267 217 499
3 500 418 232
3 232 152 500
3 536 89 424
3 414 536 424
3 424 89 427
3 444 414 457
3 423 444 474
3 457 474 444
3 213 556 469
3 356 53 242
3 356 242 474
3 474 242 348
3 53 466 242
3 242 466 562
3 289 501 485
3 91 231 501
3 305 445 30
3 280 450 179
3 431 483 517
3 517 524 431
3 299 517 190
3 190 363 279
3 363 190 563
3 563 190 10
3 10 500 563
3 563 500 171
3 563 536 574
3 536 414 175
3 574 175 210
3 210 175 443
3 301 444 423
3 301 423 332
3 474 287 423
3 287 26 423
3 287 300 78
3 300 260 173
3 128 377 234
3 260 468 389
3 234 285 552
3 46 234 552
3 102 511 75
3 102 329 456
3 117 530 405
3 557 117 501
3 231 428 557
3 378 564 436
3 436 564 305
3 305 296 436
3 296 569 282
3 28 450 465
3 238 179 382
3 382 179 571
3 382 571 482
3 158 524 263
3 555 452 101
3 497 516 514
3 514 272 497
3 363 256 279
3 59 210 514
3 332 423 233
3 26 78 2
3 26 2 233
3 78 163 2
3 473 163 172
3 163 228 400
3 136 377 128
3 234 283 128
3 283 234 46
3 46 168 283
3 344 50 283
3 283 50 128
3 128 50 136
3 50 446 121
3 50 121 136
3 209 113 379
3 454 240 126
3 240 456 393
3 393 456 318
3 393 318 116
3 281 530 515
3 456 329 281
3 281 329 549
3 65 515 22
3 65 22 250
3 250 430 65
3 507 117 557
3 513 557 428
3 357 181 201
3 513 422 211
3 357 211 122
3 357 224 419
3 224 122 308
3 119 422 540
3 294 47 107
3 321 107 435
3 47 435 107
3 269 63 294
3 137 63 79
3 464 269 77
3 269 107 0
3 269 0 77
3 79 464 180
3 180 464 212
3 434 323 40
3 145 534 252
3 252 534 378
3 252 378 274
3 378 436 274
3 274 220 533
3 220 436 282
3 460 366 411
3 569 465 568
3 155 568 465
3 155 465 450
3 155 450 207
3 207 450 280
3 522 129 365
3 297 238 382
3 561 297 382
3 297 561 480
3 480 561 216
3 216 561 551
3 551 561 581
3 127 561 203
3 421 203 482
3 421 482 490
3 251 111 490
3 372 251 537
3 372 62 320
3 320 62 369
3 259 16 124
3 322 101 497
3 101 452 497
3 124 322 244
3 322 182 244
3 322 350 182
3 135 272 514
3 157 494 334
3 506 157 334
3 521 473 172
3 178 527 99
3 544 567 169
3 136 121 567
3 243 446 394
3 243 394 576
3 394 209 379
3 379 218 394
3 576 218 486
3 486 218 198
3 486 198 471
3 198 218 550
3 550 76 165
3 105 116 265
3 105 265 84
3 105 84 575
3 575 84 475
3 265 205 84
3 529 205 354
3 529 354 94
3 262 205 415
3 415 402 262
3 415 398 402
3 358 402 398
3 358 398 70
3 358 70 543
3 543 70 523
3 523 70 430
3 523 430 316
3 3 316 488
3 488 112 3
3 295 3 112
3 370 488 357
3 461 447 315
3 447 370 315
3 419 255 315
3 255 419 373
3 373 419 176
3 493 435 531
3 376 531 461
3 255 373 376
3 371 447 34
3 371 34 137
3 112 520 573
3 44 180 212
3 520 1 573
3 314 58 509
3 314 509 13
3 13 509 64
3 58 145 509
3 533 467 429
3 429 467 166
3 223 438 225
3 32 386 478
3 365 542 481
3 355 160 542
3 355 551 160
3 551 581 448
3 361 448 241
3 448 459 68
3 448 68 241
3 364 259 459
3 33 459 244
3 241 33 426
3 182 545 244
3 33 244 545
3 426 33 545
3 9 82 350
3 9 367 82
3 82 367 545
3 367 253 545
3 135 37 9
3 506 9 37
3 37 157 506
3 253 521 319
3 319 341 253
3 319 527 276
3 229 133 49
3 298 60 133
3 133 60 49
3 298 133 406
3 298 406 144
3 133 230 406
3 399 230 178
3 178 132 399
3 169 576 90
3 399 132 486
3 399 486 360
3 95 18 360
3 360 18 284
3 18 95 73
3 18 73 284
3 284 73 142
3 142 73 39
3 73 471 140
3 73 140 39
3 39 140 11
3 140 120 326
3 326 120 559
3 508 313 347
3 313 508 161
3 313 161 475
3 313 451 347
3 451 475 108
3 108 475 529
3 108 518 451
3 518 277 227
3 354 566 277
3 354 262 566
3 14 402 358
3 543 523 498
3 498 523 573
3 573 523 295
3 401 202 420
3 92 314 13
3 92 13 572
3 572 13 64
3 572 147 275
3 147 64 479
3 64 509 479
3 147 526 275
3 303 35 437
3 199 437 291
3 199 291 438
3 437 264 505
3 351 525 375
3 351 375 88
3 223 462 558
3 525 558 462
3 462 335 525
3 32 141 462
3 160 551 139
3 139 551 336
3 306 361 278
3 241 426 339
3 339 426 191
3 426 545 19
3 426 19 504
3 545 341 19
3 19 341 504
3 504 341 472
3 276 441 472
3 477 49 532
3 257 532 187
3 60 187 532
3 187 346 257
3 187 60 298
3 187 298 325
3 325 144 362
3 362 335 325
3 410 144 458
3 381 410 458
3 144 406 458
3 162 470 404
3 56 36 261
3 36 186 261
3 261 186 215
3 186 458 331
3 215 186 284
3 528 167 239
3 167 142 239
3 239 11 553
3 258 328 578
3 258 578 219
3 131 154 442
3 442 154 219
3 374 80 491
3 235 491 546
3 131 512 80
3 546 80 512
3 512 114 546
3 512 310 114
3 546 433 235
3 235 352 359
3 352 235 93
3 352 93 248
3 235 433 93
3 248 93 7
3 390 143 188
3 390 345 143
3 188 143 206
3 188 206 303
3 188 303 7
3 206 526 303
3 98 42 303
3 352 69 359
3 69 416 359
3 88 416 264
3 388 271 266
3 56 57 388
3 388 528 541
3 271 388 541
3 541 528 183
3 195 183 492
3 249 66 258
3 219 154 249
3 115 249 154
3 335 462 325
3 346 333 118
3 346 118 306
3 278 343 257
3 125 472 31
3 572 275 412
3 566 14 401
3 488 370 447
3 495 111 251
3 170 396 16
3 16 364 170
3 16 259 364
3 507 250 22
3 210 59 574
3 449 503 380
3 380 503 197
3 554 21 174
3 403 554 440
3 440 554 174
3 15 21 554
3 439 6 554
3 538 449 380
3 449 439 417
3 439 449 538
3 342 579 538
3 342 538 380
3 197 342 380
3 245 27 189
3 245 189 453
3 204 29 245
3 217 245 499
3 499 245 29
3 151 418 29
3 151 29 246
3 453 246 204
3 204 246 29
3 151 246 440
3 418 151 174
3 384 424 103
3 192 556 342
3 342 556 579
3 517 267 190
3 10 190 499
3 499 190 267
3 500 10 499
3 385 457 384
3 457 385 356
3 457 356 474
3 356 213 53
3 213 356 556
3 556 356 385
3 226 474 348
3 226 348 468
3 468 348 389
3 389 348 24
3 24 348 242
3 389 24 562
3 562 24 242
3 549 4 290
3 549 565 4
3 565 290 4
3 485 268 577
3 91 501 289
3 305 564 445
3 502 263 524
3 502 524 519
3 148 519 307
3 519 383 307
3 452 148 307
3 452 307 516
3 383 519 524
3 256 516 307
3 256 307 279
3 299 279 383
3 383 279 307
3 190 279 299
3 574 286 563
3 563 286 363
3 574 536 175
3 175 301 443
3 443 301 184
3 184 301 332
3 444 301 175
3 444 175 414
3 226 287 474
3 26 287 78
3 173 260 377
3 12 234 377
3 12 377 260
3 12 260 389
3 234 12 285
3 285 12 389
3 552 285 391
3 46 270 168
3 102 338 329
3 565 549 329
3 119 122 211
3 119 211 422
3 560 0 349
3 368 560 349
3 0 107 349
3 77 0 560
3 535 560 368
3 72 534 560
3 72 560 535
3 72 535 564
3 564 535 409
3 378 534 72
3 378 72 564
3 282 436 296
3 450 28 413
3 203 561 382
3 203 382 482
3 148 555 519
3 555 148 452
3 497 452 516
3 59 514 214
3 214 514 516
3 574 59 214
3 286 574 214
3 286 214 256
3 286 256 363
3 516 256 214
3 443 184 86
3 86 184 494
3 494 184 332
3 26 233 423
3 163 473 2
3 2 473 233
3 172 400 567
3 163 400 172
3 136 400 377
3 377 400 173
3 173 400 228
3 97 218 379
3 113 97 379
3 550 218 97
3 52 247 575
3 247 52 126
3 126 52 454
3 454 52 304
3 105 575 247
3 105 247 393
3 105 393 116
3 393 247 126
3 393 126 240
3 150 580 318
3 150 318 456
3 515 580 150
3 515 150 281
3 281 150 456
3 580 515 398
3 70 515 65
3 70 65 430
3 398 515 70
3 134 430 250
3 134 507 8
3 507 134 250
3 55 8 557
3 55 557 513
3 507 557 8
3 181 8 201
3 513 201 55
3 55 201 8
3 211 357 201
3 211 201 513
3 176 419 308
3 308 419 224
3 353 308 122
3 353 119 510
3 510 119 540
3 119 353 122
3 107 321 349
3 349 321 368
3 531 435 47
3 531 47 54
3 531 54 461
3 294 54 47
3 447 461 54
3 447 54 34
3 294 34 54
3 137 34 294
3 137 294 63
3 79 63 269
3 79 269 464
3 434 212 464
3 145 252 429
3 274 533 429
3 274 429 252
3 460 533 366
3 366 220 568
3 568 220 282
3 220 366 533
3 411 366 392
3 392 366 568
3 138 392 568
3 155 138 568
3 312 138 207
3 312 207 309
3 207 138 155
3 365 129 542
3 129 480 542
3 542 480 355
3 480 216 355
3 203 421 127
3 208 364 127
3 208 127 421
3 127 364 459
3 495 251 372
3 495 372 396
3 495 396 170
3 124 16 555
3 124 555 101
3 396 555 16
3 322 124 101
3 37 135 327
3 110 157 327
3 110 327 514
3 110 514 210
3 514 327 135
3 37 327 157
3 86 157 110
3 86 494 157
3 443 86 110
3 110 210 443
3 506 334 149
3 334 494 473
3 149 334 473
3 233 473 494
3 177 149 521
3 521 149 473
3 544 156 521
3 544 521 172
3 156 544 109
3 156 109 527
3 99 527 109
3 90 38 311
3 38 99 311
3 311 99 109
3 311 169 90
3 169 311 544
3 544 311 109
3 567 243 169
3 567 121 243
3 136 567 400
3 446 243 121
3 486 132 576
3 120 471 550
3 120 550 559
3 559 550 165
3 198 550 471
3 475 84 529
3 205 529 84
3 262 354 205
3 3 295 523
3 3 523 316
3 181 316 134
3 181 134 8
3 134 316 430
3 531 376 104
3 520 371 137
3 520 137 81
3 112 371 520
3 166 509 429
3 145 429 509
3 479 509 166
3 292 479 166
3 292 166 467
3 273 479 292
3 273 292 317
3 317 292 164
3 467 164 292
3 291 273 317
3 324 164 467
3 164 487 225
3 487 164 324
3 164 225 317
3 317 225 438
3 317 438 291
3 223 225 386
3 223 386 32
3 487 386 225
3 478 386 23
3 478 23 481
3 365 481 455
3 455 481 23
3 455 23 411
3 411 23 487
3 487 23 386
3 365 455 309
3 312 309 455
3 312 455 392
3 411 392 455
3 312 392 138
3 432 96 478
3 432 478 83
3 542 83 481
3 481 83 478
3 216 551 355
3 100 551 448
3 100 448 361
3 33 241 68
3 33 68 459
3 350 82 545
3 350 545 182
3 9 506 367
3 253 367 521
3 521 367 177
3 177 367 506
3 149 177 506
3 331 458 406
3 360 331 399
3 406 399 331
3 399 406 230
3 576 132 90
3 90 132 38
3 99 38 178
3 178 38 132
3 559 123 326
3 140 326 11
3 553 11 326
3 326 123 553
3 442 512 131
3 512 442 130
3 337 512 130
3 302 114 310
3 302 310 508
3 347 302 508
3 17 347 451
3 433 17 518
3 451 518 17
3 484 433 330
3 330 433 518
3 484 330 390
3 518 227 330
3 390 330 227
3 196 390 227
3 196 227 566
3 566 227 277
3 202 543 498
3 420 293 412
3 202 498 293
3 202 293 420
3 548 412 293
3 583 498 573
3 498 583 293
3 293 583 548
3 196 566 401
3 196 401 420
3 345 196 420
3 412 345 420
3 548 572 412
3 92 572 548
3 92 548 193
3 303 526 35
3 35 526 273
3 273 526 479
3 291 35 273
3 35 291 437
3 264 437 199
3 351 199 438
3 351 438 558
3 416 505 264
3 264 199 351
3 88 264 351
3 395 375 525
3 335 395 525
3 462 223 32
3 333 462 547
3 333 547 118
3 547 462 141
3 547 141 432
3 489 118 547
3 489 547 336
3 336 547 139
3 139 547 432
3 160 139 432
3 542 160 83
3 83 160 432
3 100 489 336
3 100 336 551
3 489 100 361
3 489 361 306
3 343 278 339
3 339 278 241
3 276 472 341
3 276 341 319
3 333 346 187
3 325 333 187
3 144 325 298
3 395 335 362
3 410 362 144
3 410 463 185
3 375 185 463
3 470 463 410
3 470 410 381
3 362 410 185
3 463 470 162
3 404 470 237
3 381 237 470
3 56 237 36
3 381 36 237
3 25 553 492
3 553 25 528
3 553 528 239
3 183 528 25
3 183 25 492
3 66 195 222
3 258 66 222
3 442 219 578
3 80 546 491
3 310 512 337
3 433 546 17
3 17 546 302
3 302 546 114
3 347 17 302
3 359 491 235
3 188 7 93
3 188 484 390
3 484 188 93
3 484 93 433
3 345 390 196
3 491 359 496
3 87 374 491
3 87 491 496
3 397 496 359
3 397 359 416
3 397 88 463
3 88 397 416
3 48 397 463
3 48 463 162
3 48 162 404
3 496 397 200
3 496 200 266
3 404 200 48
3 48 200 397
3 56 388 237
3 237 388 266
3 237 266 404
3 200 404 266
3 528 388 57
3 115 271 541
3 249 115 541
3 249 541 66
3 66 541 183
3 66 183 195
3 395 362 185
3 395 185 375
3 333 325 462
3 306 118 489
3 343 532 257
3 202 401 543
3 543 401 358
3 358 401 14
3 447 371 488
3 488 371 112
3 495 170 208
3 495 208 421
3 495 421 111
3 208 170 364
3 417 554 403
3 427 15 6
3 15 427 232
3 6 538 103
3 192 61 556
3 556 61 469
3 570 469 61
3 425 570 61
3 27 217 254
3 74 254 217
3 267 74 217
3 499 418 500
3 152 89 171
3 152 171 500
3 152 232 427
3 89 152 427
3 384 414 424
3 384 457 414
3 466 53 213
3 466 213 387
3 570 407 387
3 577 289 485
3 524 517 299
3 524 299 383
3 171 89 536
3 536 563 171
3 300 226 45
3 226 468 45
3 45 468 260
3 45 260 300
3 300 287 226
3 562 391 285
3 562 285 389
3 329 338 565
3 268 549 288
3 268 485 549
3 582 549 485
3 485 405 582
3 405 501 117
3 501 405 485
3 501 231 557
3 422 71 540
3 71 422 153
3 238 280 179
3 431 524 158
3 502 320 106
3 320 502 555
3 519 555 502
3 300 228 78
3 173 228 300
3 228 163 78
3 344 283 168
3 344 168 51
3 344 51 446
3 344 446 50
3 194 113 209
3 194 51 168
3 194 209 51
3 51 209 446
3 454 511 240
3 75 511 454
3 456 511 102
3 511 456 240
3 405 530 582
3 530 146 515
3 146 530 22
3 515 146 22
3 117 507 530
3 513 428 153
3 422 513 153
3 224 357 122
3 107 269 294
3 323 77 236
3 323 464 77
3 77 560 236
3 534 67 236
3 534 236 560
3 236 40 323
3 323 434 464
3 40 236 67
3 67 534 145
3 436 220 274
3 568 282 569
3 238 522 159
3 238 159 280
3 280 159 207
3 522 238 297
3 522 297 129
3 421 490 111
3 62 372 537
3 320 396 372
3 369 106 320
3 396 320 555
3 350 272 135
3 272 350 322
3 272 322 497
3 332 233 494
3 567 544 172
3 209 394 446
3 576 394 218
3 205 265 415
3 415 265 116
3 318 415 116
3 530 507 22
3 357 316 181
3 316 357 488
3 419 315 357
3 357 315 370
3 255 461 315
3 255 376 461
3 180 44 81
3 180 81 79
3 520 81 44
3 81 137 79
3 44 212 1
3 44 1 520
3 1 193 548
3 193 1 212
3 145 58 67
3 67 58 40
3 434 40 58
3 434 58 314
3 533 460 467
3 487 324 411
3 324 467 460
3 324 460 411
3 159 522 309
3 159 309 207
3 522 365 309
3 297 480 129
3 127 459 561
3 259 124 244
3 490 537 251
3 259 244 459
3 350 135 9
3 156 527 319
3 156 319 521
3 178 476 527
3 230 476 178
3 230 229 476
3 229 230 133
3 243 576 169
3 471 95 486
3 486 95 360
3 73 95 471
3 471 120 140
3 161 575 475
3 475 451 313
3 94 518 108
3 108 529 94
3 277 94 354
3 94 277 518
3 566 85 402
3 262 85 566
3 85 262 402
3 402 14 566
3 573 295 112
3 212 434 92
3 314 92 434
3 92 193 212
3 572 64 147
3 147 479 526
3 558 525 351
3 223 558 438
3 32 478 96
3 32 96 141
3 141 96 432
3 278 361 241
3 253 341 545
3 276 476 441
3 527 476 276
3 229 477 476
3 477 441 476
3 49 60 532
3 229 49 477
3 458 186 381
3 36 381 186
3 186 331 284
3 360 284 331
3 142 167 284
3 215 284 167
3 39 11 239
3 239 142 39
3 154 131 374
3 80 374 131
3 275 206 143
3 345 275 143
3 275 345 412
3 206 275 526
3 303 437 98
3 437 505 98
3 98 505 42
3 42 505 41
3 41 505 69
3 41 69 352
3 416 69 505
3 88 375 463
3 5 306 278
3 257 5 278
3 257 346 5
3 5 346 306
3 221 339 191
3 221 532 343
3 221 343 339
3 472 125 504
3 504 191 426
3 504 125 191
3 125 340 191
3 191 340 221
3 340 532 221
3 477 532 340
3 441 31 472
3 43 477 340
3 43 340 125
3 43 125 31
3 31 441 43
3 43 441 477
3 167 57 261
3 261 215 167
3 57 56 261
3 57 167 528
3 249 258 219
3 115 154 87
3 374 87 154
3 248 42 41
3 248 7 303
3 248 303 42
3 248 41 352
3 496 271 87
3 87 271 115
3 271 496 266
3 130 442 578
3 130 578 328
3 103 538 579
3 103 579 384
3 281 549 582
3 281 582 530
3 415 318 580
3 415 580 398
3 1 548 583
3 1 583 573
3 459 448 581
3 459 581 561
