ply
format ascii 1.0
comment Generated by PyMesh
element vertex 797
property float x
property float y
property float z
property float charge
property float ct
property float hbond
property float hphob
property float nx
property float ny
property float nz
property float si
element face 1469
property list uchar int vertex_indices
end_header
77.645 7.443 -13.034 -0.235495 0 -0 -3.5 -0.826562 -0.559896 0.0575489 -0.771311
88.7445 16.964 -0.9385 0.7447 0 0.0349668 -0.822077 -0.678926 0.608591 -0.410702 -0.668444
85.2125 5.3945 -8.455 0.135716 0 -0.00938087 -0.4 0.0700808 0.801654 0.593667 -0.4368
85.887 8.833 4.219 -0.140629 0 0 -3.5 -0.0132383 -0.345712 0.938247 0.603372
77.7695 16.452 -6.16325 -0.0964183 0 0 -0.9 0.132733 0.98902 -0.064972 0.697609
87.4315 20.142 2.843 -0.303128 0 -0.219903 -3.5 -0.574011 0.672105 -0.467746 0.999889
86.9033 4.8985 -19.2153 0.0198869 0 0 1.9 0.212647 -0.92939 0.301687 0.290776
83.1315 2.2455 -21.2455 0.053023 0 0.662902 -3.5 0.603939 -0.779725 0.165186 0.99992
87.4945 20.3385 3.867 -0.404793 0 -0.0687362 -3.5 -0.658552 0.717839 0.225868 0.999898
86.7818 11.162 -8.70275 0.418033 0 0 -4.5 -0.614876 -0.742192 -0.266608 -0.597527
90.9843 8.263 -20.1055 -0.271317 0 0 1.9 0.980014 0.197985 -0.0193677 -0.720627
79.5139 4.65863 -20.4325 -0.094812 0 0 -3.5 -0.933618 -0.0998833 0.344066 0.278939
79.418 5.181 -15.968 -0.084778 0 0 1.8 -0.710907 0.051235 -0.701417 -0.336052
82.852 16.7297 -4.474 -0.17217 0 0 -0.798478 -0.639958 0.50552 0.578708 -0.354262
78.75 4.25962 -14.1514 -0.0252634 1 0 1.8 -0.663222 -0.675487 -0.322265 0.267485
91.5303 3.33375 -2.858 -0.0629017 0 0 -1.3 -0.980052 -0.195804 0.034042 0.147784
75.0447 8.88813 -8.28463 -0.0370957 0 0 3.8 -0.909968 -0.371534 0.184174 0.449534
91.446 4.7475 -3.049 -0.0615973 0 0 -1.3 -0.989335 0.138595 -0.0448046 0.0454999
84.172 8.4665 -5.839 0.079859 0 0 -0.8 0.603031 -0.661604 0.445684 0.868245
82.0543 4.74925 -18.018 -0.183144 0 0 -3.5 0.122436 -0.757496 0.641256 -0.410746
84.8235 13.705 0.3865 0.0187529 0 0 -0.7 -0.703385 -0.119482 0.700695 0.0796181
80.046 5.0575 -23.2975 -0.464877 0 -0.783352 -3.5 -0.248161 -0.157858 -0.95577 0.685612
74.3325 14.2362 -8.491 0.00895473 0 0 -0.9 -0.865299 0.025967 -0.500583 0.376913
77.0267 7.3085 -14.9867 -0.298197 0 0 -3.27067 -0.479087 -0.877538 -0.0200682 0.11877
92.679 2.116 -1.1505 0.0416373 0 0 -1.3 -0.401636 -0.895108 0.193573 0.550398
92.013 3.65525 -0.0525 -0.0814747 0 -0.0317548 -1.3 -0.856258 -0.438984 0.272239 -0.193949
85.665 7.598 3.003 -0.174728 0 0 -3.5 -0.495685 -0.717051 0.490035 0.491951
78.2747 7.92625 -16.2957 -0.257575 0 0 -3.5 -0.12548 -0.688801 -0.714008 -0.473639
94.3512 5.2735 -11.0837 -0.15051 0 0 -3.5 0.398614 -0.89622 -0.194669 0.389422
81.3465 14.896 -3.294 -0.42026 0 -0.766942 -3.5 -0.642865 0.691072 0.330371 0.40622
85.1277 2.235 -6.69375 0.050879 0 0 -0.4 -0.027712 -0.489398 0.87162 0.761067
84.2026 28.4662 -8.552 -0.35581 0 -0.168422 -0.4 -0.270071 0.0820139 0.959341 0.668792
94.3696 8.20037 -17.5066 -0.0650877 0 0 -1.3 0.501211 -0.381449 -0.776714 0.637678
85.166 8.6645 1.323 -0.112933 0 -0.188646 -3.5 -0.856662 -0.109561 -0.504109 0.245267
84.376 10 -2.466 0.0913173 0 0 -3.5 -0.135014 -0.954801 0.264812 0.584724
83.5263 10.4375 -2.076 0.082701 1 0 -3.5 -0.292842 -0.899345 0.324689 -0.106913
91.8735 4.0995 -9.52 -0.630403 0 -0.637365 -3.34784 0.0749328 -0.968458 -0.237641 -0.509953
82.9665 2.9355 -20.2715 0.0802207 0 0.666059 -3.5 0.456738 -0.728483 0.51059 0.350612
85.985 5.139 -18.3685 -0.114635 0 -0.112728 1.9 0.224508 -0.883268 0.411623 -0.337678
88.111 21.869 -7.201 0.23337 0 0 -3.9 0.880375 0.324488 -0.345901 -0.0833469
89.548 12.126 4.968 0.159991 0 0 -0.4 -0.0935119 -0.87171 0.481017 -0.606372
79.135 24.8105 -7.5995 -0.48459 0 -0.542309 -3.5 -0.267217 0.272339 0.924352 0.773708
92.0052 22.5322 3.7345 0.372423 0 -0.515254 -2.27722 -0.588758 0.177178 0.788652 -0.344797
84.1628 2.4985 -6.926 0.0499653 0 0 -0.4 -0.527328 -0.484579 0.697931 0.873873
82.7809 1.86713 -11.0526 0.139209 0 0.019295 -0.4 -0.350876 -0.879305 0.322039 0.675155
87.5872 12.5898 5.588 0.0298991 0 0 -0.4 -0.688541 -0.663716 0.292218 0.459053
80.7145 2.6775 -12.0775 -0.16882 0 0 1.45785 -0.464132 -0.79489 0.390809 0.747706
90.0825 22.2358 -10.6565 0.225755 0 0 3.42138 0.099992 -0.171654 0.98007 -0.769878
80.157 4.909 -18.4188 -0.0964743 0 0 -3.5 -0.847818 -0.360443 0.388955 0.296416
87.8845 19.8115 4.7705 -0.47431 0 -0.0192569 -3.5 -0.220661 0.671966 0.706945 0.999847
82.708 6.1805 -14.4425 0.152017 0 0 -1.6 -0.0466023 -0.863294 -0.502546 -0.856384
92.9885 4.057 -9.347 -0.31799 0 -0.0928293 -2.99172 0.0829776 -0.871179 -0.483902 0.0111958
85.6595 11.964 0.43475 -0.227758 0 0 -0.7 -0.748091 0.124077 0.651893 -0.999859
75.2915 10.4205 -10.193 -0.0628463 0 0 3.8 -0.617259 0.168217 -0.768567 0.680823
78.5482 11.4765 -12.923 -0.100339 0 -0.169868 3.3887 -0.755526 0.0396219 0.653919 -0.999894
81.5433 17.2635 -7.38875 -0.236187 0 -0.954241 -0.9 -0.680179 0.661911 0.315008 -0.65559
89.438 24.959 1.264 0.917573 0 0 -3.9 -0.690067 0.708195 0.149222 0.661946
79.2425 6.2285 -21.7675 -0.42713 0 -0.798965 -3.5 -0.975116 0.153822 0.159651 0.226771
88.4723 1.751 -11.1433 0.329921 0 0 -4.5 0.323026 -0.893426 0.31216 0.11333
89.9573 12.421 5.85575 -0.0556763 0 -0.355023 -1.89816 -0.140277 -0.955671 0.258874 -0.999726
78.7038 4.06275 -10.9668 -0.278254 0 -0.826406 3.8 -0.236469 -0.934289 0.266807 0.296543
86.1872 5.27375 -7.854 0.218605 0 0 -0.4 -0.342659 0.775074 0.530891 -0.182653
86.678 7.50075 3.373 0.00884183 0 0 -3.5 -0.0810648 -0.629272 0.772946 0.598652
73.8869 16.7426 -10.8566 -0.0315703 0 0 4.5 -0.340463 0.0973852 0.935201 0.639404
80.2495 16.503 -5.59725 -0.0466757 0 0 -0.9 -0.334087 0.882684 0.330537 0.462325
87.856 20.589 -10.2535 0.32245 0 0 3.8 0.752847 -0.0945816 0.651364 -0.999913
81.308 21.835 -6.8865 -0.337023 0 -0.0125726 -1.3 -0.00344638 -0.0535779 0.998558 0.575988
95.027 2.686 -6.476 -0.078521 0 -0.000460669 -1.3 0.152209 -0.582988 -0.798096 -0.590254
75.5965 9.4555 -16.7385 -0.444323 0 -0.195706 -3.5 -0.702644 0.375799 -0.604208 0.999908
91.0652 4.91075 -19.3035 0.18159 0 0 1.9 0.588845 -0.805292 0.0690402 0.954184
93.192 25.4153 -0.351 -0.190906 0 -0.271124 -3.7112 -0.258709 0.901457 -0.347053 0.0973929
74.8802 15.5215 -4.669 0.0268543 0 0 -0.9 -0.651004 0.384316 0.654595 0.999922
80.0577 25.324 -8.0305 -0.539927 0 -0.686837 -3.5 0.234218 0.579133 0.780863 0.771646
88.126 13.465 7.093 0.0250565 0 0 -0.4 -0.66422 -0.180525 0.725412 0.634167
79.115 16.12 -6.367 -0.101773 0 0 -0.9 -0.0705823 0.994013 0.0834085 -0.307735
93.2585 25.5457 0.80725 0.00366517 0 0 -3.52487 -0.346775 0.910036 0.227116 0.210802
78.0225 8.653 -5.826 -0.00690293 0 0 3.8 -0.156264 -0.370758 0.915489 0.99981
89.0745 22.5203 1.876 0.663077 0 0 -3.9 -0.985997 0.0092749 0.166504 -0.153503
91.135 22.312 -5.417 0.096937 0 0 -3.5 0.0402529 0.810921 -0.58377 0.583301
85.368 18.758 -3.926 0.23754 0 0.635374 -3.9 -0.478814 0.519803 0.70749 0.424082
93.949 6.417 -16.5725 -0.0973823 0 0 -1.3 0.397785 -0.613308 -0.682364 0.634305
85.8767 1.041 -15.3065 -0.0426527 0 0 -4.5 0.363228 0.077731 -0.928452 0.863431
91.4853 3.214 -4.06125 -0.0820313 0 0 -1.3 -0.997399 -0.0695636 -0.0188585 0.785237
91.2708 20.2805 5.8825 0.0413377 0 -0.0495901 -1.91246 -0.494447 0.792283 0.357506 0.193119
89.238 19.6855 4.99775 -0.113191 0 0 -3.5 -0.307112 0.690943 0.654431 0.0473882
84.2925 16.0445 -2.3005 -0.111926 0 -0.418789 -3.00694 -0.350799 0.837193 0.419581 -0.314015
84.5052 4.04375 -21.3705 0.0253165 0 0 1.9 0.371266 -0.926929 -0.0544414 -0.291107
96.077 7.4035 -15.168 -0.00110288 0 0 -1.3 0.671235 -0.532535 -0.515606 0.251363
80.871 13.263 -4.1145 -0.162694 0 0 -0.9 -0.728883 -0.521722 0.443323 0.0926834
88.3194 17.4142 5.65788 -0.545287 0 0.0821347 -3.15669 -0.522666 0.178357 0.833672 0.497242
79.0005 5.109 -22.5995 -0.432543 0 -0.109693 -3.5 -0.920515 -0.141556 -0.364163 0.999897
79.2487 7.083 -7.48375 0.0249734 0 0 3.8 0.135284 -0.886304 0.442904 0.336458
84.5553 10.898 -8.1195 0.183662 0 -0.487939 -0.8 0.475142 -0.480587 -0.737073 -0.846459
85.066 4.2695 -22.2125 -0.115542 0 -0.031091 1.71461 0.204896 -0.966372 -0.155377 -0.422873
90.72 21.1645 -6.3735 0.0165832 0 -0.000295154 -0.02168 -0.160928 0.904277 -0.395455 -0.385052
87.6025 9.65525 -9.3445 0.380773 0 0 -1.86722 -0.976469 -0.0263507 0.214043 -0.999881
89.214 24.373 0.422 0.511883 0 0 -3.9 -0.665859 0.560654 -0.492238 0.99985
87.543 16.0802 3.54675 -0.303033 0 -0.0505959 -3.5 -0.984825 0.000431191 0.173552 -0.905904
76.7725 16.4485 -5.92925 -0.114856 0 0 -0.9 -0.0476666 0.99878 -0.0128887 0.71443
85.1075 7.3055 1.5115 -0.3526 0 -0.915923 -3.5 -0.90354 -0.369742 -0.216577 0.866688
88.1445 19.3305 -8.64575 0.369993 0 0.166318 3.8 0.399789 0.87713 -0.266105 -0.921889
73.1855 16.0487 -11.0695 -0.0322267 0 0 4.5 -0.465114 -0.192191 0.864136 0.605142
82.1752 1.958 -12.1683 0.0542153 0 0 -2.61567 -0.457545 -0.841131 0.28836 -0.107576
77.9875 4.3035 -11.987 -0.11678 0 -0.415351 2.84333 -0.80157 -0.585463 -0.121319 0.44381
85.8095 6.45025 1.418 -0.339233 0 -0.292402 -3.5 -0.435654 -0.898121 -0.0598696 0.999917
87.2005 21.3885 -4.42275 0.141314 0 0 -3.9 -0.00866502 0.278145 0.9605 0.0416055
90.3055 2.93775 -11.5483 0.0123124 0 0 -4.5 0.787211 -0.554392 -0.270089 0.624556
77.9115 26.432 -8.7335 -0.436447 0 -0.531878 -3.5 -0.417342 0.500842 0.758277 0.999905
86.903 19.1715 2.909 -0.40981 0 -0.233507 -3.5 -0.937215 0.150019 -0.314838 0.999884
91.8385 25.4205 -0.147 -0.213619 0 -0.0199625 -3.9 -0.230947 0.96676 -0.109723 0.631846
76.1588 10.0068 -13.0428 -0.575257 0 -0.0160084 -3.5 -0.837446 0.492449 0.237019 0.611033
86.3118 13.6685 1.92525 -0.0495547 0 0 -0.7 -0.674766 -0.136527 0.725294 -0.0746719
84.618 18.0705 -3.8045 0.106652 0 0.0231832 -2.44102 -0.313713 0.664847 0.67791 0.310141
86.2345 6.7615 -10.1698 0.060374 0 0 -4.3492 -0.459691 0.480583 0.746809 -0.999879
83.7594 14.0869 -0.403125 -0.388233 0 -0.271474 -3.5 -0.457651 0.147263 0.876852 0.0327891
91.464 25.3895 1.0445 0.338617 0 0 -3.9 -0.0251653 0.998361 -0.0513959 0.351946
76.2122 16.2295 -6.92925 -0.132601 0 0 -0.9 -0.198231 0.972058 -0.12573 0.452551
83.5485 26.2745 -8.436 0.0796537 0 0.123859 -3.7168 -0.414585 0.373942 0.82963 -0.239785
83.513 25.3025 -7.8985 0.51054 0 0.498607 -3.9 -0.704978 0.418852 0.572336 -0.124409
91.618 2.0775 -5.1115 -0.055606 0 0 -1.3 -0.844541 -0.53119 -0.0677262 0.696316
89.8432 23.7197 -2.08225 0.220727 0 0.231761 -3.5 -0.466209 0.88461 -0.010713 0.664201
78.8337 4.634 -15.348 -0.066726 0 0 1.8 -0.717441 -0.460687 -0.522537 0.538865
82.5013 11.824 -0.72775 -0.0655213 0 0 -3.5 -0.67532 -0.232034 0.700074 0.869885
87.555 18.021 4.95625 -0.439127 0 -0.372973 -3.5 -0.762758 0.0653034 0.643378 0.416891
86.5015 6.1635 -9.2655 0.201391 0 0 -4.5 -0.482285 0.709778 0.513436 -0.619413
79.4685 6.5065 -8.4175 0.061649 0 0 3.8 0.153229 -0.724855 0.671644 0.225284
82.2905 21.6345 -7.323 -0.177331 0 0 -1.3 0.152812 -0.453748 0.87793 -0.183343
86.0127 21.4755 -4.62275 0.138024 0 0 -3.9 -0.391612 0.018738 0.919939 0.147713
90.686 24.02 -1.242 0.0744783 0 0.766221 -3.5 -0.512331 0.848184 -0.134541 -0.0747764
89.2128 17.6278 -3.01625 0.52206 0 -0.234901 -3.9 -0.802147 0.376059 0.463832 -0.579724
91.627 2.185 -3.739 -0.045295 0 0 -1.3 -0.91295 -0.389678 0.121135 0.765413
87.5533 15.992 -3.43075 0.40334 0 0.939114 -0.7 0.0406998 0.866114 0.498188 -0.999921
80.2172 22.3955 -7.102 0.0622727 0 -0.0882493 -1.3 -0.303585 -0.0429794 0.951834 0.539665
92.4095 11.8275 6.341 0.0843283 0 -0.00998224 -4.31062 0.19282 -0.170719 0.966269 0.178932
76.2045 14.1585 -10.5305 -0.057014 0 0 1.65 -0.550908 -0.665518 -0.503574 -0.287697
92.9675 22.124 -3.682 0.0732353 0 0 -3.5 0.290611 0.933939 -0.208092 -0.629639
85.6598 4.165 -23.887 -0.478407 0 -0.0786638 -3.5 0.305359 -0.945543 -0.112714 0.746328
79.2588 16.0042 -5.356 -0.031655 0 0 -0.9 -0.0703168 0.870651 0.486849 0.132772
81.4372 7.94 -5.67225 0.231493 0 0.145269 -0.8 -0.101872 -0.878325 0.467084 0.999887
78.5048 7.5995 -6.33375 0.00825747 0 0 3.8 -0.0356742 -0.729016 0.683566 0.836665
88.1505 18.9053 5.18325 -0.471263 0 -0.0232864 -3.5 -0.405341 0.294848 0.865311 0.463157
76.0245 7.52575 -10.6187 -0.0524847 0 0 3.8 -0.843678 -0.345619 -0.410798 0.644956
77.012 12.724 -10.0005 0.00666523 0 0 -0.9 -0.388598 -0.189331 -0.901746 -0.693003
86.7067 12.792 2.24875 -0.0976533 0 0 -0.477856 -0.885583 0.108826 0.451553 -0.53418
87.079 3.2445 -6.1405 -0.41962 0 -0.709751 -0.4 0.0548909 -0.403361 0.913393 0.999895
84.689 6.64 -10.084 0.118767 0 0 -0.41674 0.35026 0.746696 0.565477 -0.753691
86.942 4.4395 -6.19175 -0.358553 0 -0.129911 -0.4 -0.262147 0.420175 0.868753 0.97617
77.1127 11.8035 -15.7695 -0.108359 0 0 -2.74373 -0.868203 -0.219972 -0.444788 -0.432544
90.145 19.963 5.703 0.0383593 0 0 -3.5 -0.458482 0.759412 0.461613 0.708189
86.3655 22.7215 -4.5335 0.149956 0 0 -3.9 0.047203 0.382287 0.922837 0.57598
91.653 20.768 -8.723 0.0385087 0 -0 3.8 -0.233765 0.96861 -0.0845552 0.149851
79.0338 5.0685 -21.3545 -0.51607 0 -0.0674855 -3.5 -0.952074 0.047269 0.302193 0.881525
92.843 6.49375 1.50325 -0.112518 0 -0.0239088 -1.41137 -0.859398 -0.0186428 0.510967 -0.999857
85.7035 11.107 3.6965 0.0869207 0 0.504482 -3.5 -0.59164 0.727073 0.34832 0.9998
86.3958 3.6875 -13.9235 0.235589 1 0 -4.5 0.0185155 -0.0838796 -0.996304 -0.672604
88.3187 3.191 -6.85375 -0.36586 0 -0.00858042 -0.547766 0.368798 -0.659279 0.65524 0.4441
75.2345 15.769 -7.456 -0.126765 0 0 -0.9 -0.52008 0.833858 -0.184925 0.456517
80.9003 13.664 -3.102 -0.543377 0 -0.0631225 -3.5 -0.923038 -0.153475 0.352769 0.551178
78.991 11.0205 -11.8562 0.0321432 0 0.754036 3.8 -0.927363 0.373453 -0.0230331 -0.999905
94.231 1.4845 -3.457 0.057794 0 0 -1.3 0.591081 -0.740606 0.319572 0.680711
82.4498 9.005 -4.766 -0.079877 0 -0.550406 -0.8 -0.0733564 -0.660906 0.746875 0.353381
79.7955 3.273 -12.173 0.0201097 0 -0.0175836 1.8 -0.604787 -0.747936 0.27354 0.416859
89.6865 5.483 -21.2467 0.111075 0 0 1.9 0.278821 -0.759817 -0.587314 0.214926
90.245 20.393 -8.0965 -0.0646023 0 -0.842763 3.8 -0.468908 0.784523 -0.40577 0.180939
78.3152 6.918 -8.18525 0.0488417 1 0 3.8 -0.0911968 -0.842214 0.531374 -0.700989
91.189 5.772 -16.236 0.0223092 0 0 -1.3 -0.123237 -0.96093 -0.247845 -0.180927
86.0963 0.73975 -12.0795 0.354187 0 0 -4.5 0.0285852 -0.847936 0.529327 -0.533969
77.803 5.4465 -12.1285 -0.209748 0 -0.0457546 2.11069 -0.927348 -0.109378 -0.357858 -0.189307
83.7974 24.385 -6.51713 0.675317 0 0 -3.9 -0.732853 0.363238 0.575313 0.433972
87.4245 7.625 -7.919 0.261739 0 0 -1.6 -0.865282 -0.220978 0.449952 0.597952
85.2659 21.0946 -5.23812 0.166691 1 0 -3.9 -0.630469 -0.132456 0.764829 -0.364819
78.3684 8.65525 -20.2767 -0.109961 0 0 -0.7 -0.153489 -0.776496 0.611142 0.285119
91.265 4.9 -12.9368 -0.040281 0 0.241415 -3.40692 0.204531 -0.978544 -0.0248619 -0.365387
76.758 9.283 -19.9025 -0.0761313 0 0 -0.7 -0.617391 -0.685638 0.385654 0.99985
80.4847 7.56325 -8.04887 0.0481327 0 0 3.8 0.317097 -0.800975 0.507827 -0.71901
89.695 18.8249 -2.47062 0.7726 0 -0.00937984 -3.9 -0.989943 0.141425 -0.00352717 -0.707942
77.0953 10.6709 -16.0583 -0.245691 0 0 -3.5 -0.676069 0.535088 -0.506568 -0.519701
85.1365 5.706 -16.72 0.0411937 0 0 -3.2 -0.132573 -0.96065 0.244081 -0.498068
74.7958 10.942 -9.0565 -0.0454783 0 0 3.8 -0.938901 0.17091 -0.298754 0.533012
88.9153 22.8039 -4.36375 0.176364 0 0.790991 -3.5 -0.423272 0.87262 -0.24367 0.290983
89.1934 17.3496 -1.81913 1 1 0.396267 -3.9 -0.913128 0.397319 -0.0912922 -0.761521
88.589 5.785 -22.284 0.241794 0 0 1.9 0.262645 -0.698442 -0.665729 0.77164
94.41 2.24575 -2.74688 0.071365 0 0 -1.3 0.415969 -0.834594 0.361141 -0.117243
81.2832 27.5818 -9.22087 -0.210627 0 -0.03292 -3.5 -0.13393 0.0800358 0.987753 -0.414887
83.9005 8.184 -10.735 0.325245 0 0 -0.4 0.548135 -0.00704646 0.83636 -0.999891
91.258 7.11975 -0.33 -0.504417 0 0 -3.5 -0.723802 -0.688063 -0.0517666 -0.02267
87.8972 7.89225 3.60875 0.11644 0 0 -3.5 -0.0640187 -0.427002 0.901982 0.378759
80.3775 5.0055 -17.3285 -0.115204 0 -0.210683 -1.55404 -0.649107 -0.720391 -0.244332 0.288011
92.43 7.911 1.784 -0.131079 0 -0.636871 -3.5 -0.591844 -0.63726 0.49358 -0.999881
80.2343 7.0755 -20.1 -0.0249161 0 0 -3.5 -0.941083 0.0353619 0.336322 -0.689675
87.7195 7.4085 0.4015 -0.0891303 0 0 -3.5 0.121103 -0.774064 -0.621417 0.0826933
95.3005 1.684 -5.95 0.038532 0 0.153821 -2.59954 -0.00999562 -0.977278 -0.211726 0.311853
79.4465 26.0805 -8.661 -0.472197 0 -0.420235 -3.5 0.10229 0.650174 0.752868 0.229984
80.4404 7.42681 -19.0319 0.0370087 0 0 -3.5 -0.991736 -0.0554524 0.11569 -0.715608
83.1044 5.21075 -17.7222 -0.172211 0 -0.375966 -1.1075 0.0810789 -0.734935 0.673273 -0.676127
92.579 5.7585 -16.29 -0.0784807 0 0 -1.3 0.136184 -0.732416 -0.667099 0.0920586
82.564 2.18725 -22.1903 0.0245227 0 0 -3.5 0.470735 -0.836488 -0.280528 0.631328
88.3536 12.0811 5.16519 0.00631753 0 -0.136248 -0.4 -0.157624 -0.911449 0.38002 0.194218
76.0312 10.191 -16.092 -0.455507 0 0 -3.5 -0.518489 0.770142 -0.371552 0.819579
92.1478 21.1855 4.202 0.400653 0 0 -0.8 -0.741203 0.457056 0.491648 -0.999871
89.8521 7.35213 -4.605 0.125025 0 0 -1.6 -0.468277 -0.352119 0.810388 -0.282473
80.0508 7.24312 -16.7155 -0.208652 0 0 -3.5 -0.828786 -0.248438 -0.501391 -0.692621
88.2745 7.68575 -6.08675 0.227705 0 0 -1.6 -0.89153 -0.209023 0.401851 0.616282
87.2535 15.364 2.8725 -0.077787 0 0 -0.686431 -0.893803 0.0896127 0.439415 -0.48984
77.707 11.9301 -13.4171 -0.231758 0 -0.387255 1.56734 -0.672373 -0.119116 0.730565 -0.271645
89.0635 5.04513 -20.1208 0.138553 0 0 1.9 -0.0338412 -0.995232 -0.0914768 0.0921791
84.1216 8.02888 -6.741 0.0969207 0 0 -0.8 0.567194 -0.766818 0.300468 0.558848
77.064 10.4891 -13.1783 -0.645793 0 -0.0356001 -3.5 -0.527684 0.627798 0.572205 -0.127497
85.8572 12.8042 1.0195 -0.0184073 0 0 -0.7 -0.758723 -0.20641 0.617846 -0.363767
77.381 16.0572 -7.7475 -0.168482 0 0 -0.9 -0.0171021 0.998337 -0.0550553 -0.550239
88.7105 19.7384 -7.7975 0.43072 0 0 -0.255866 0.253991 0.5396 -0.802696 -0.807024
74.3095 12.9964 -7.581 -0.0165004 0 0 -0.9 -0.780429 -0.613995 0.118066 0.534133
89.1121 18.7066 5.59275 -0.12782 0 0 -3.5 -0.530058 0.390883 0.752495 -0.211563
90.9205 5.914 -21.103 0.0852497 0 0 1.9 0.527674 -0.579793 -0.620806 0.59856
88.9715 14.099 9.086 0.100191 0 0 -4.5 -0.95369 -0.292412 0.070504 0.488095
79.4208 23.1728 -7.52225 -0.136094 0 0 -2.36941 -0.599955 -0.176236 0.780381 0.484629
86.089 15.2896 1.81763 -0.0549637 0 0 -0.7 -0.724812 0.114252 0.679407 0.365608
88.616 9 -4.279 0.257593 0 0 -0.8 -0.871257 -0.46209 0.165483 0.262507
75.6285 9.3715 -10.4375 -0.066278 0 0 3.8 -0.739552 -0.0437202 -0.671678 0.175342
86.7144 10.956 -5.29 0.225526 0 0.1983 -3.83349 -0.0336669 -0.995445 0.0891895 -0.999855
85.228 10.4015 1.1625 -0.0637157 0 0 -3.5 -0.986146 0.157243 -0.0528306 0.0730457
86.3025 19.43 -3.926 0.302315 0 0.691216 -3.9 -0.19512 0.286519 0.937995 0.355986
86.0902 4.7575 -6.92825 -0.0670263 0 -0.027469 -0.4 -0.199494 0.741081 0.641093 0.282078
86.4951 -0.39575 -13.9669 0.138448 0 0 -4.5 0.528496 -0.826707 -0.192994 0.999896
89.299 8.567 -1.323 0.0633947 0 0 -3.5 -0.410863 -0.748172 -0.52099 -0.147655
78.7849 22.9905 -8.65888 -0.448097 0 0.229438 -2.14003 -0.725608 -0.511645 0.460123 0.0789362
79.7998 3.89062 -22.6003 -0.323612 0 -0.321368 -3.5 -0.696264 -0.44438 -0.563688 0.317952
90.0575 18.5625 6.7065 0.109125 0 0.124565 -4.5 -0.608172 0.541067 0.580838 0.126529
79.1665 5.50575 -9.228 -0.104444 0 0 3.8 0.179693 -0.571947 0.800367 0.359135
91.1489 8.17212 -1.88787 -0.183933 0 -0.144934 -2.30816 -0.439807 -0.828796 -0.345929 -0.662774
85.5371 11.7766 -8.52038 0.261861 0 -0.0827057 -3.07561 0.0555709 -0.885689 -0.460941 -0.81054
88.8619 22.0387 -3.47875 0.227828 0 0 -3.5 -0.883728 0.141612 0.446062 0.267546
91.8774 11.0553 5.88363 0.155125 0 0.595053 -3.9 -0.703986 -0.075361 0.706205 -0.0157175
91.927 6.08825 -16.984 -0.0427303 0 0 -1.3 0.278213 -0.891307 -0.358007 -0.0398353
84.8282 8.72762 3.8495 0.092224 0 0.0307487 -3.5 -0.462133 -0.542951 0.701168 0.999862
91.0501 20.6695 3.74088 0.43798 0 0 -3.5 -0.349344 0.668308 0.656752 -0.764063
80.374 2.82975 -21.231 -0.099045 0 0 -3.5 -0.639976 -0.735275 0.223163 0.581516
89.0929 8.8535 3.79975 0.0819137 0 0 -3.5 -0.0451818 0.0121737 0.998905 -0.111182
90.1823 21.5317 -5.58425 0.164422 0 0 -3.5 -0.08038 0.736593 -0.671543 -0.749965
77.3785 25.0665 -9.19 -0.452227 0 0 -3.5 -0.883252 -0.0218875 0.468388 0.594054
84.7688 4.08262 -20.1261 -0.0941757 0 0 1.9 0.270577 -0.961667 0.0445409 0.09501
85.5307 6.0755 -9.53162 0.169133 0 0 -1.38001 0.0871933 0.78884 0.608381 -0.474164
79.1516 7.24475 -15.9163 -0.138308 0 0 -0.42564 -0.448316 -0.388072 -0.805241 -0.751853
88.1217 5.89625 -15.9145 -0.0514497 0 0.350003 -3.2 0.249379 -0.967603 0.0394286 -0.34666
89.203 25.491 -9.6555 0.315385 0 0 3.8 0.32987 -0.427388 0.841739 -0.702502
84.5182 0.79925 -15.344 0.139698 0 0.220035 -4.5 -0.101462 -0.207095 -0.973045 0.622455
87.8727 10.5457 -4.264 0.243087 0 0.193874 -2.49635 -0.530936 -0.843939 -0.0766348 -0.474773
75.9837 16.6361 -10.0214 -0.0147029 0 0 4.2 -0.524917 0.3512 0.77532 -0.293849
95.1735 2.20925 -5.10362 0.0227941 0 0 -1.3 0.415199 -0.841962 0.344544 -0.407104
81.8235 11.5765 -2.102 -0.067781 0 0 -3.5 -0.86762 -0.392119 0.305741 0.714939
77.7815 11.4104 -16.7636 -0.0526947 0 0 -0.7 -0.989188 0.0941563 -0.112433 -0.999912
86.6735 10.7773 -4.05025 0.216862 0 0 -3.5 0.177005 -0.975467 -0.130894 -0.497636
85.1868 10.7335 -10.7881 0.40975 0 0.427421 -2.48591 0.0489871 -0.330854 0.94241 -0.999887
81.645 3.95625 -14.5011 -0.263816 0 0 1.8 0.503908 -0.0304398 -0.863221 -0.0677174
89.1619 16.1565 7.54225 0.181931 0 0 -2.10585 -0.898597 0.311001 0.309518 -0.249719
93.8057 1.13 -4.7615 0.0316992 0 0 -1.3 0.319534 -0.943204 0.0909126 0.603122
92.1194 23.4111 -2.13562 -0.068075 0 0 -3.73668 0.338467 0.621283 -0.706716 -0.254367
79.8398 21.6649 -12.159 -0.143177 0 0 -2.50574 -0.750901 -0.651039 0.110883 -0.99987
86.8201 10.6233 -2.82787 0.106652 0 0 -3.5 0.03418 -0.987326 -0.154982 -0.547411
87.9782 4.97375 -20.3645 0.166086 0 0 1.9 0.156252 -0.980241 0.121295 -0.344869
77.19 10.6815 -17.972 0.162837 0 0.153211 -0.7 -0.970609 -0.0277361 0.239059 -0.0331491
87.653 1.52731 -13.6657 0.237251 0 0.00221178 -4.5 0.757104 -0.362018 -0.543817 0.212938
89.8186 5.53125 -14.27 -0.0268253 0 0 -1.3 0.0142794 -0.705121 -0.708943 -0.729996
77.2998 8.60025 -16.8415 -0.42841 0 -0.0250485 -3.5 -0.139066 -0.655287 -0.742468 0.116386
94.2647 2.57125 -7.11325 -0.250832 0 -0.121498 -1.3 0.491973 -0.643159 -0.586779 0.258357
80.0826 5.84263 -16.5146 -0.218496 0 -0.00272281 -2.0797 -0.808301 -0.0252188 -0.588229 -0.758604
82.3111 7.94925 -7.12362 0.14791 0 0.0851328 -0.8 -0.0270411 -0.985448 0.167811 -0.33912
88.0579 7.23912 2.84488 0.0514397 0 0 -3.5 0.204663 -0.905514 0.371696 0.433653
83.407 6.2005 -16.398 0.0217937 0 0 -3.22628 0.0188213 -0.909501 0.415276 -0.890975
89.932 24.4995 3.297 0.740617 0 0 -3.9 -0.278941 0.437904 0.854653 0.783116
83.826 0.4385 -13.5825 0.0390733 0 0 -4.5 -0.474201 -0.85674 0.202802 -0.180211
84.8865 7.951 2.4255 -0.00449597 0 -0.541856 -3.5 -0.859121 -0.509358 -0.0496514 0.345836
89.703 2.04588 -11.1418 0.0312114 0 0 -4.5 0.578859 -0.804834 0.131012 0.836659
79.9446 3.74137 -20.1361 0.0266391 0 0 -3.5 -0.682636 -0.646511 0.340633 0.479581
87.7897 26.1701 -8.33912 0.242314 0 0 -3.5 0.490346 -0.189141 0.850756 -0.0870003
89.2517 23.1406 -2.85013 0.179415 0 0 -3.5 -0.850928 0.518423 0.0846131 0.518542
91.093 4.286 -1.988 0.0160147 0 0 -1.3 -0.996447 -0.0815381 -0.0210727 0.999837
95.6765 6.05325 -11.1497 -0.0618363 0 0 3.53672 0.449316 -0.890064 -0.0768216 -0.663004
92.5443 24.364 2.7565 0.459137 0 0.228867 -2.46572 0.0720383 0.870028 0.48771 -0.149944
86.797 1.519 -10.187 0.25856 0 0 -4.5 0.203096 -0.879009 0.431387 0.388808
86.7182 14.8165 5.46975 -0.0130201 0 0 -0.4 -0.972048 0.172518 0.159249 0.999886
89.0314 5.43663 -5.54712 0.0624843 0 0 -1.6 -0.507025 -0.352221 0.78668 0.368866
87.0413 8.56713 -9.72287 0.262466 0 0 -1.6 -0.867487 0.175201 0.465587 -0.343204
86.9252 6.78562 0.70025 -0.428717 0 -0.722034 -3.5 0.212459 -0.87826 -0.428394 0.779832
87.692 17.5478 1.20775 0.0271229 0 0 -0.7 -0.571301 0.754616 -0.322754 -0.167342
79.3027 4.09375 -21.5011 -0.282211 0 0 -3.5 -0.881664 -0.466108 0.0735683 0.732869
93.6214 8.96556 -18.1018 -0.0491023 0 0 -1.3 0.420453 -0.319626 -0.849151 0.166523
89.8678 7.92975 2.41675 0.0403177 0 0 -3.5 0.319769 -0.939346 0.124006 -0.53009
87.6184 23.0771 -8.22888 0.344913 0 0 -3.9 0.986982 0.0917671 0.132081 -0.313103
84.86 10.4489 3.21112 0.107636 0 0 -3.5 -0.78991 0.571961 0.221143 0.616977
88.7709 21.7227 1.20037 0.177605 0 0 -3.9 -0.994996 0.0962831 -0.026687 0.540624
93.609 4.796 -10.5895 -0.338787 0 0 -3.5 0.439131 -0.850189 -0.290417 0.0886953
79.1205 8.8465 -17.396 -0.086683 0 0 -3.5 -0.299595 -0.775031 -0.55639 -0.645158
87.1117 13.4773 3.71075 -0.310486 0 -0.13567 -0.4 -0.989496 0.102758 0.101677 -0.219312
82.4286 18.0518 -6.9165 -0.235163 0 -0.0953161 -0.9 -0.388935 0.836259 0.386523 0.172208
88.12 9.653 -6.37887 0.372647 0 0 -2.88194 -0.779215 -0.431133 0.454916 -0.692324
77.0318 7.586 -13.894 -0.516283 0 0 -3.5 -0.575692 -0.779851 0.245786 -0.220608
74.363 15.811 -10.61 -0.037829 0 0 4.5 -0.485159 -0.137859 0.863491 0.276269
83.1973 12.9482 -0.470937 -0.134025 0 0 -3.5 -0.347125 0.0718995 0.935059 0.599778
76.1916 13.3454 -5.23938 -0.148996 0 0 -0.9 -0.15086 -0.633094 0.759232 0.844289
80.3923 20.13 -11.8304 0.0143307 0 0 -1.05656 -0.972589 0.171614 0.156905 -0.999883
85.5437 15.5352 0.90375 -0.107303 1 0 -0.7 -0.777193 0.240377 0.581541 -0.211106
78.391 25.5945 -8.32975 -0.70124 0 -0.364122 -3.5 -0.35188 0.384647 0.853362 0.343393
80.7305 2.298 -22.3085 -0.0526047 0 0.00810296 -3.5 -0.550276 -0.809908 -0.203089 0.999874
92.6054 21.5466 5.07937 0.195416 0 0 -0.8 -0.85414 0.447109 0.265589 -0.46635
82.69 15.388 -1.914 -0.374607 0 -0.707336 -3.5 -0.497895 0.798317 0.338807 0.65115
83.0394 8.34775 -9.65788 0.039673 1 -0.714374 -0.4 0.952015 -0.20889 0.22368 -0.999906
88.279 2.828 -8.487 -0.00095974 0 0 -4.5 0.355396 -0.908051 0.221667 -0.425557
81.8496 5.37663 -14.1935 0.192933 0 0 1.41998 0.560476 -0.424933 -0.710843 -0.999884
87.0596 19.2375 4.36938 -0.522533 0 -0.697527 -3.5 -0.842988 0.181794 0.506283 0.999882
83.776 3.73125 -20.2113 -0.0189065 0 0.0572161 1.2343 0.471421 -0.866364 0.164848 -0.28947
91.548 5.61737 -3.611 -0.0417323 0 0 -1.3 -0.939047 0.0275971 0.342678 -0.260044
91.5929 24.8875 -1.04912 -0.38313 0 -0.341585 -3.9 -0.3202 0.795867 -0.513875 0.505774
80.1414 26.8086 -9.369 -0.281693 0 -0.129668 -3.5 -0.109864 0.230243 0.966912 -0.435824
78.2105 18.3895 -11.3975 0.202431 0 0.18383 4.2 0.00192372 0.859083 0.511832 -0.557622
91.9043 21.4665 -6.37612 0.056742 0 -0.223948 -1.27348 -0.0325872 0.853234 -0.52051 0.136436
88.8105 24.0989 1.50713 0.925853 0 0 -3.9 -0.986511 0.161074 0.0291582 0.999858
82.9905 3.87675 -18.7425 -0.0891367 0 0 -3.5 0.130148 -0.772487 0.62155 0.323005
79.096 9.3835 -19.85 -0.13198 0 0 -0.7 -0.405205 -0.715059 0.56965 -0.999867
92.6504 24.9999 1.59725 0.236553 0 0 -3.87558 0.00379071 0.917432 0.397874 -0.263617
90.5695 4.81175 -20.2393 0.099555 0 0 1.9 0.294196 -0.878279 -0.376929 0.99988
90.8958 13.0155 8.41 -0.130143 0 0 -4.5 0.086735 -0.946229 0.311653 0.333124
79.586 7.69 -6.5035 0.037501 0 0 3.8 0.279763 -0.677852 0.679889 0.652547
88.168 10.254 -3.33625 0.156166 0 -0.287432 -0.8 -0.656821 -0.752114 0.0539587 -0.407623
87.489 25.0868 -8.44125 0.545867 0 0.941686 -3.9 0.833675 -0.182262 0.521313 -0.65435
87.97 24.464 -9.25975 0.39172 0 0 3.8 0.7155 -0.059406 0.696082 -0.691376
81.0403 4.56563 -18.0842 -0.108467 0 -0.508677 -3.5 -0.119804 -0.800058 0.587839 0.135332
80.4362 16.4955 -7.17125 -0.0940827 0 0 -0.9 -0.41104 0.898561 0.153732 -0.930512
90.089 22.7081 -4.77238 0.356293 0 0.613127 -3.5 0.0123569 0.761831 -0.647658 0.302154
86.0006 11.0551 -7.971 0.306246 0 0 -2.36562 -0.267046 -0.777399 -0.569507 -0.357354
86.623 20.5655 -4.142 0.139941 0 0 -3.9 -0.306677 0.26957 0.912843 0.464112
78.8489 12.0534 -11.5106 -0.00200614 0 0.661812 -0.115963 -0.887861 -0.426597 -0.172387 -0.999897
75.729 7.9815 -14.702 -0.5497 0 -0.334417 -3.5 -0.685766 -0.689386 0.233394 0.709546
87.9648 10.4233 -1.84425 0.0788203 0 -0.4671 -1.4214 -0.40519 -0.8458 -0.347049 -0.999866
81.561 1.95 -13.1034 -0.113295 0 -0.019913 -1.4827 -0.489163 -0.848975 0.199902 0.0633202
87.5295 9.9 -0.871 -0.14511 0 0 -3.5 -0.275567 -0.818215 -0.504566 -0.467428
79.79 4.3315 -19.3293 -0.039681 0 0 -3.5 -0.902568 -0.215887 0.372509 0.999842
84.64 3.31962 -6.57088 0.0618463 0 0 -0.4 -0.238726 0.0459672 0.969998 0.903711
91.6957 6.00975 -0.940625 -0.0550337 0 0 -1.3 -0.997738 -0.0404598 -0.0536804 -0.163531
82.121 12.9277 -1.0575 -0.157548 0 0 -3.5 -0.727389 0.0267914 0.685702 0.614866
74.9025 17.6379 -10.6216 -0.0163628 0 0 4.5 -0.225925 0.0887557 0.970093 -0.0644562
75.6813 8.43575 -16.751 -0.495653 0 -0.313802 -3.5 -0.470181 -0.45028 -0.759064 0.9999
88.4307 19.5375 1.93125 -0.243108 0 -0.286605 -3.5 -0.695494 0.347418 -0.628958 -0.182421
88.6849 5.80925 -17.2045 -0.0247969 0 0.004228 1.14867 0.0041908 -0.94544 0.325769 -0.424992
78.0581 6.14062 -8.99438 -0.128656 0 -0.654631 3.8 -0.26758 -0.632748 0.726658 -0.189453
80.7199 12.107 -6.19575 -0.0310661 0 0 -0.9 -0.543242 -0.439701 0.715228 -0.999851
80.9605 5.0055 -15.6675 -0.067621 0 0 0.979621 0.595289 -0.700437 -0.393725 -0.219606
93.47 5.4485 -15.8895 -0.21202 0 -0.00446068 -1.3 0.317724 -0.79213 -0.521134 0.792685
86.562 11.8392 3.14925 -0.070358 0 0.0549039 -1.8843 -0.853349 0.413331 0.317732 -0.102556
82.3603 25.3848 -8.86913 -0.300636 0 -0.205224 -2.34337 -0.284969 0.216394 0.933791 -0.674571
80.7172 7.9205 -6.8405 0.09291 0 0.941468 -0.8 -0.0298485 -0.923639 0.3821 -0.119418
80.932 10.676 -5.94025 -0.186717 0 -0.95754 -0.8 -0.568733 0.284689 0.771683 -0.868502
91.4955 4.422 -4.39813 -0.136129 0 0 -1.3 -0.968371 -0.191357 0.160123 -0.347545
93.8865 4.5695 -9.51388 -0.281796 0 0.0440951 -2.26095 0.432844 -0.731914 -0.526259 -0.192283
75.84 7.6245 -15.8195 -0.558943 0 0 -3.5 -0.569326 -0.793102 -0.216464 0.999901
86.2887 7.972 -10.3792 0.238424 0 0 -1.6 -0.528173 0.131848 0.838838 -0.542454
90.2006 23.6696 -3.52888 0.09529 0 0 -3.5 -0.13919 0.92204 -0.361205 0.70765
77.8877 12.1295 -6.43875 -0.095132 0 0 0.34028 -0.0249593 -0.434469 0.900341 -0.27777
89.9239 4.72612 -18.8218 0.181071 0 0 1.9 0.0258135 -0.981437 0.190041 0.999813
76.0806 8.8545 -12.6326 -0.541903 0 -0.75079 -3.5 -0.935328 -0.0478976 0.350523 0.713788
88.3795 12.3641 6.60663 0.0262844 0 0 -0.4 -0.374576 -0.820783 0.431286 0.684602
89.3526 8.293 -3.94575 0.206475 0 -0.628322 -0.8 -0.560672 -0.687331 0.46176 0.128905
91.1872 9.07975 -19.3745 -0.0249896 0 0 1.9 0.872986 -0.228359 -0.430984 -0.999879
86.1415 29.4583 -8.1665 -0.0287827 0 0 -3.5 -0.39456 0.287609 0.872699 0.45785
86.9973 13.332 4.87925 0.00829627 0 -0.183335 -0.4 -0.980733 -0.195172 0.00835923 0.383016
88.8191 21.3563 -10.5155 0.278719 0 0 3.14665 0.3327 -0.184457 0.924817 -0.51812
83.4405 27.669 -9.02575 -0.133862 0 -0.38166 -1.95023 -0.25417 0.118864 0.959828 -0.682779
91.7545 7.20475 -1.32975 -0.357953 0 -0.434197 -3.5 -0.866107 -0.374889 -0.33063 -0.592794
86.34 4.717 -14.0955 0.0589033 0 0.0526721 -4.21673 -0.101515 -0.449935 -0.887273 -0.557832
90.753 24.6779 -0.05375 0.177512 0 -0.077707 -3.9 -0.446381 0.783857 -0.43164 -0.0931937
80.5329 14.6292 -4.1425 -0.090694 0 0 -0.9 -0.548618 0.318157 0.773172 0.0215305
88.8715 7.133 -5.4985 0.172566 0 0 -1.6 -0.748954 -0.30602 0.587724 0.179529
87.1095 14.189 2.74275 -0.157886 0 0 -0.486459 -0.915803 0.0907004 0.391251 -0.529626
90.0168 23.3961 -10.2207 0.205604 0 0 3.8 0.27937 -0.204705 0.938109 0.225651
92.5875 1.3535 -6.411 0.0246131 0 0 -1.3 -0.547361 -0.696171 -0.46448 0.999883
79.7524 9.36438 -18.6474 -0.123717 0 0 -0.791328 -0.429856 -0.883821 -0.184618 -0.775481
79.6503 3.37913 -13.7605 -0.203818 0 -0.435228 1.8 -0.581665 -0.764 -0.279231 0.141083
77.9966 5.00744 -13.5377 -0.0646827 0 0 1.8 -0.955307 -0.255279 -0.149065 0.469265
90.0738 7.7295 -0.25825 -0.0211101 0 0 -3.5 -0.26155 -0.945663 -0.193168 0.0150281
78.571 3.84125 -13.0765 -0.0300171 0 0 1.8 -0.636002 -0.76784 -0.0769651 0.70457
87.5071 16.3074 5.14375 -0.192709 0 -0.644418 -3.24619 -0.894098 0.220208 0.389996 0.125478
79.392 8.12875 -16.7362 -0.100796 0 0 -3.5 -0.39369 -0.640797 -0.65908 -0.786984
86.586 6.58663 2.284 -0.346777 0 0 -3.5 0.062032 -0.945757 0.318899 0.787644
83.5665 17.688 -3.9625 -0.0111555 0 0 -0.4 -0.593635 0.633223 0.496614 0.875842
78.0711 14.7292 -4.21175 0.0272885 0 0 -0.9 -0.00496468 -0.196569 0.980477 0.66978
83.6687 22.7535 -5.89325 0.149235 0 0 -3.9 -0.649311 -0.0661586 0.75764 0.999797
90.166 25.476 1.7285 0.731843 0 0 -3.9 -0.315416 0.936258 -0.154708 0.999905
85.7216 4.42712 -19.5814 -0.137992 0 -0.267111 1.9 0.319812 -0.918261 0.233489 0.251317
89.632 6.22875 -4.74975 0.047809 0 0 -1.6 -0.567805 -0.231806 0.78985 0.768755
87.3317 1.0175 -11.3308 0.398253 0 0 -4.5 0.281825 -0.878718 0.385264 0.56879
91.6598 5.92537 -19.9195 0.178636 0 0 1.9 0.896728 -0.356605 -0.262128 0.625114
83.3857 18.1987 -6.637 -0.155862 0 -0.489078 -0.9 -0.543724 0.792373 0.276604 -0.702569
88.0157 23.0445 -9.3825 0.33449 0 0 3.8 0.784383 -0.0477273 0.618438 -0.470631
89.367 21.767 2.8805 0.197668 0 0 -3.9 -0.645386 0.192029 0.739325 0.128951
90.9075 7.44975 -4.15562 0.0971437 0 0 -1.54359 -0.485279 -0.381662 0.786663 -0.956857
85.4378 14.1734 1.4465 -0.0294351 0 0 -0.7 -0.750463 -0.0357844 0.659943 0.840938
91.1965 23.9451 -2.14337 0.065385 0 0.0134125 -3.53748 0.0538255 0.913259 -0.403808 0.287181
77.2364 13.5636 -10.6874 -0.0501037 0 0.00378062 -0.615902 -0.624108 -0.540632 -0.564098 -0.999804
85.2117 3.56687 -14.1656 0.16696 0 0 -4.5 0.200004 0.22337 -0.953994 -0.345836
89.4575 5.2085 -17.683 0.0435963 0 0 1.9 -0.0317495 -0.89431 0.44632 0.876477
79.0874 15.2986 -4.50537 -0.0143496 0 0 -0.9 0.0187628 0.424982 0.905008 0.359784
78.2315 17.064 -9.16613 -0.0552663 0 0 4.2 -0.288519 0.730749 0.618678 -0.36296
84.6665 18.5041 -5.10525 0.140348 0 0 -2.0277 -0.584566 0.692228 0.423206 -0.817173
78.5641 11.2596 -10.6888 0.101178 0 0.863704 0.883489 -0.729042 0.0790494 -0.679889 -0.999905
76.6947 6.10675 -10.264 -0.132328 0 -0.0789869 3.8 -0.891868 -0.450822 -0.0364749 0.300486
86.2924 0.057 -14.8829 0.152835 0 0 -4.5 0.332948 -0.588486 -0.73677 0.999878
84.5432 10.4515 -1.38937 -0.0304722 0 0 -3.5 -0.275755 -0.901182 0.33441 -0.0443352
74.5629 15.1571 -8.12719 -0.048618 0 0 -0.9 -0.706074 0.662866 -0.249136 0.536979
77.3415 12.2163 -17.6506 -0.0547687 0 0 -0.51163 -0.794592 -0.549579 0.258045 -0.999877
80.532 3.26638 -14.6041 -0.237384 0 -0.410538 1.8 -0.147772 -0.516949 -0.843165 0.307545
83.5705 3.21513 -21.428 0.00642757 0 0.205719 -3.5 0.777434 -0.628842 -0.0124128 -0.0176019
85.6913 23.6982 -5.0045 0.282692 0 0 -3.9 0.0642725 0.394026 0.916849 0.402082
84.4779 4.76188 -7.13363 0.0606087 0 0 -0.4 -0.342617 0.478751 0.808339 0.660477
89.7275 11.4622 4.09725 -0.102041 0 0 -0.864143 -0.175537 -0.737501 0.652134 -0.999768
89.8034 4.48294 -6.25588 0.13265 0 0 -1.6 -0.0325188 -0.731246 0.681338 -0.0707558
76.9573 15.1167 -4.2815 -0.0287927 0 0 -0.9 -0.0300442 -0.134233 0.990494 0.491126
89.564 13.19 8.06625 0.0197032 0 0 -4.5 -0.468944 -0.76064 0.448907 0.17237
84.44 12.8442 -0.209125 -0.055776 0 0 -3.5 -0.474093 -0.10655 0.874004 -0.544656
88.993 20.1766 0.860625 0.206125 0 0 -3.9 -0.965148 0.165907 -0.202394 -0.380033
88.6045 1.71125 -12.3665 0.229449 0 0 -4.5 0.628727 -0.73994 -0.239145 0.376333
75.872 8.387 -13.629 -0.54379 0 -0.706795 -3.5 -0.918466 -0.250086 0.306394 0.391667
87.2609 0.737 -14.199 0.189986 0 0.340939 -4.5 0.830863 -0.323526 -0.452767 0.999834
91.5307 8.51437 2.81013 0.0931827 0 0 -3.5 -0.0950483 -0.993091 0.0688152 -0.999838
75.1084 12.0299 -7.50838 -0.0788237 0 0 0.0660889 -0.777089 -0.357686 0.517874 0.0657469
91.3964 4.14138 -5.51888 -0.114921 0 0 -1.3 -0.85665 -0.439656 0.269915 -0.654933
90.6888 26.0619 -9.3175 0.117527 0 0.357746 1.7539 0.0253347 -0.769821 0.637757 -0.286342
83.1096 17.7633 -5.27712 -0.248042 0 -0.254379 -0.605369 -0.525987 0.741059 0.417337 0.213155
89.7185 19.4885 -8.218 0.248871 0 -0.89141 3.8 -0.35855 0.814594 -0.455938 -0.823144
79.7166 4.11912 -15.3811 -0.0615483 0 0 1.8 -0.233778 -0.846117 -0.478992 0.359487
91.15 20.8569 -9.88713 0.263638 0 0.518924 -0.706057 -0.352199 0.781425 0.515103 -0.3224
75.8146 8.203 -7.029 -0.0286896 0 0 3.8 -0.635622 -0.301818 0.710557 0.791398
87.3292 0.5875 -12.3779 0.218654 0 0.0197449 -4.5 0.586577 -0.791641 0.170973 0.379056
85.268 22.3165 -4.755 0.132263 0 0 -3.9 -0.492656 -0.0218852 0.869949 0.999842
85.8008 10.051 -1.89775 -0.0392983 0 -0.344902 -2.33439 0.0326258 -0.99747 -0.0631647 0.300865
92.8615 21.439 6.1255 0.058681 0 0 -0.8 -0.654968 0.569827 0.4963 0.0791761
86.1505 5.5085 -17.059 -0.068011 0 0 -3.2 0.0643417 -0.984392 0.163804 -0.0797289
86.2028 16.728 -0.4925 -0.122734 0 -0.674824 -0.7 -0.306223 0.937358 -0.166095 0.509497
80.8645 8.734 -5.34137 0.164182 0 0 -0.8 -0.473392 -0.386747 0.791408 0.440279
88.289 5.1725 -19.4225 0.107319 0 0 1.9 -0.0191108 -0.97954 0.20034 -0.277718
90.9382 5.79175 -4.42175 0.00294454 0 0 -1.46503 -0.665182 -0.255454 0.701624 -0.134094
83.7555 3.77787 -7.01337 0.040529 0 0 -0.4 -0.741442 0.0579851 0.668507 0.999869
79.9837 9.9945 -6.0925 0.00759297 0 -0.862406 -0.506102 -0.252353 0.329489 0.90981 -0.156869
88.2724 10.2706 -5.32288 0.35075 0 0.466926 -2.95134 -0.766984 -0.607199 0.207471 -0.999868
85.1852 9.427 -10.7616 0.42556 0 0.787342 -0.452251 0.149135 -0.0619558 0.986874 -0.367918
92.3615 4.3285 -10.779 -0.614973 0 -0.00836193 -3.5 0.276129 -0.918003 -0.284647 0.465589
80.1106 3.72837 -11.2102 0.136025 0 0 1.8 -0.405058 -0.734995 0.543792 -0.121562
81.5954 14.3807 -2.00325 -0.426613 0 -0.0679341 -3.5 -0.809715 0.297974 0.505542 0.699113
85.7979 8.68775 0.5305 -0.114513 0 0 -3.5 -0.665156 -0.145115 -0.732467 -0.0630372
83.4145 1.92775 -15.3077 0.182929 0 0.0661757 -4.5 -0.232175 0.0346005 -0.972058 0.696162
84.0606 9.04375 2.73962 0.1059 0 0.899422 -3.5 -0.982117 0.0125287 0.187854 0.999911
86.3923 4.24575 -21.7675 -0.016631 0 0 1.9 0.319468 -0.935682 -0.149796 0.654447
91.9781 23.9019 3.45275 0.46224 0 0.0686647 -1.57076 -0.13252 0.485786 0.863974 0.238215
87.2964 17.9311 2.63462 -0.315625 0 -0.091827 -3.5 -0.842511 0.297005 -0.449404 -0.137423
92.9863 22.3965 -2.591 -0.101896 0 0 -3.5 0.281965 0.816374 -0.504012 -0.906778
88.2395 18.7399 -4.05675 -0.00403893 0 -0.809863 -3.9 -0.140827 0.164498 0.976273 -0.365612
90.654 4.8665 -13.7625 -0.0105497 0 0.836869 -1.3 0.0652319 -0.916966 -0.393597 0.135519
96.8025 6.1515 -13.4125 -0.0494373 0 0 3.8 0.272729 -0.874271 -0.401583 0.999855
94.1255 5.1285 -14.132 -0.273394 0 -0.582118 -1.3 0.576352 -0.81704 0.0162636 0.711746
81.3366 17.1685 -6.04012 -0.285864 0 -0.0904104 -0.9 -0.50023 0.822992 0.269173 0.38258
90.6513 20.2498 -9.15512 0.226802 0 -0.188747 2.25545 -0.52504 0.839726 0.138538 -0.333884
88.3743 18.3775 1.4835 0.00439187 0 0 -3.9 -0.850546 0.38607 -0.357102 -0.699894
82.5614 14.5211 -0.97375 -0.451533 0 -0.0221709 -3.5 -0.534315 0.351743 0.768625 0.746865
81.2497 3.63225 -18.8404 0.0109079 0 0 -3.5 -0.307082 -0.761796 0.57041 0.999807
90.367 26.7992 -7.91875 -0.37934 0 -0.736348 -3.5 -0.216875 -0.710712 0.669219 0.397011
83.3215 0.522875 -14.6018 0.128963 0 0.476946 -4.5 -0.536165 -0.702537 -0.467941 0.49988
73.575 13.991 -7.41 0.048458 0 0 -0.9 -0.986162 -0.147756 -0.0751855 0.999917
81.8541 6.69987 -9.1435 -0.224699 0 -0.505599 -0.4 -0.218799 -0.512334 0.830446 -0.631088
83.6736 1.60438 -9.53575 0.401883 0 0.125212 -0.4 -0.389037 -0.914301 0.112714 0.631404
86.6263 24.3598 -5.86338 0.783957 0 0.00172117 -3.9 0.590516 0.517253 0.619467 0.610613
76.391 11.8225 -18.9655 -0.101441 0 0 -0.7 -0.691179 -0.448501 0.566673 -0.444951
75.6178 7.58475 -7.80875 -0.0344813 0 0 3.8 -0.68881 -0.661033 0.297617 0.8463
77.2541 4.8185 -10.8219 -0.593013 0 -0.0988058 3.8 -0.785604 -0.618243 -0.0245371 0.70197
77.728 5.128 -9.3365 -0.56719 0 -0.873087 3.8 -0.480027 -0.467118 0.742546 0.999883
84.5387 -0.332375 -14.8035 0.301482 0 0.83591 -4.5 -0.323159 -0.832516 -0.449983 0.922218
89.1745 19.1921 -3.90875 0.0263908 0 -0.134459 -3.9 -0.720955 0.0838591 0.687889 -0.797349
81.733 7.79238 -8.16425 0.000864067 0 0 -0.4 -0.00866629 -0.895335 0.445309 -0.837945
89.2152 4.0515 -13.671 0.0189417 0 0 -4.5 0.462941 -0.517432 -0.719687 0.136044
78.2702 24.4508 -8.16212 -0.467813 0 -0.0216071 -3.5 -0.700324 -0.136213 0.700709 0.631565
91.4583 4.72425 -0.49 -0.0272643 0 -0.311063 -1.3 -0.987908 -0.00204042 0.155025 0.368873
89.533 26.2773 -9.09437 0.131532 0 0 -3.5 0.0978489 -0.72221 0.684717 -0.479036
80.3735 2.4145 -13.3282 -0.33485 0 -0.128347 1.8 -0.59514 -0.801396 -0.0597695 0.666938
85.2596 -0.640375 -13.9482 0.207235 0 0 -4.5 -0.115188 -0.990673 0.0727923 0.999868
74.857 12.8577 -6.44863 -0.0825747 0 0 -0.9 -0.608388 -0.605267 0.513338 0.639631
75.8305 10.8471 -6.88938 -0.0504143 0 0 3.8 -0.469276 -0.00225489 0.883049 0.741535
90.0437 12.443 7.0305 -0.138615 0 -0.518954 -4.5 -0.0464395 -0.947104 0.317548 0.424822
83.151 18.7511 -8.02063 -0.0800443 0 0 -0.962957 -0.485499 0.511194 0.709205 -0.999889
88.53 8.44038 -5.28788 0.217529 0 0 -1.6 -0.911211 -0.216168 0.350666 0.0427318
78.1451 4.3165 -9.92562 -0.589593 0 -0.0802108 3.8 -0.111949 -0.845047 0.522841 0.999892
85.8095 7.25375 0.423 -0.40857 0 -0.0566546 -3.5 -0.40729 -0.414798 -0.813669 0.797168
78.5186 22.0522 -10.5197 -0.098122 0 0 -3.5 -0.230565 -0.932107 0.279314 0.163622
76.7343 10.7443 -10.4268 -0.0163636 0 0 3.8 -0.291186 0.518439 -0.80401 -0.15678
84.6259 9.74537 1.835 0.0259657 0 0 -3.5 -0.85842 0.337103 -0.386623 0.542796
84.6225 14.9106 -0.08475 0.23134 0 0 -0.7 -0.723669 0.210364 0.657305 -0.298551
88.0293 22.6514 -4.98544 0.135359 0 0.75932 -3.5 0.027964 0.798712 0.601063 0.1564
88.2286 20.9864 -7.66025 0.269803 0 0 -2.16843 0.708274 0.413306 -0.572299 -0.274905
78.2676 17.8662 -10.193 0.0583823 0 0 4.2 -0.345718 0.828825 0.439918 -0.216519
84.8262 9.5485 -5.85831 0.107781 1 0 -0.8 0.706703 -0.662767 0.247609 0.0748629
81.679 11.4951 -5.35975 0.049738 0 -0.292566 -0.867188 -0.864674 -0.0324034 0.501287 -0.814146
77.0768 7.73163 -16.0274 -0.498057 0 -0.0250807 -3.5 -0.124826 -0.788504 -0.602229 0.349586
84.1215 9.70519 -8.26731 0.230827 0 0 -0.8 0.855045 -0.295492 -0.426125 -0.197964
85.73 9.882 -7.21 0.23813 0 0 -0.8 0.461395 -0.791571 -0.400662 0.168793
90.4398 5.83419 -16.9691 0.057186 0 0 0.187117 0.0721146 -0.976054 0.205226 -0.198122
89.3821 21.0751 -3.16575 0.169621 0 0 -3.5 -0.845245 -0.232944 0.480935 -0.625555
78.0551 22.6624 -9.80437 -0.166077 0 0 -3.5 -0.584615 -0.636226 0.50343 0.337655
76.3396 10.3575 -19.8461 -0.0551993 0 0 -0.7 -0.811382 -0.413681 0.412949 0.341396
91.9066 6.78788 -3.32862 0.100127 0 0 -1.3 -0.94383 -0.0270347 0.329325 -0.999856
79.515 18.0105 -9.0765 -0.0426403 0 0 4.2 -0.516558 0.549357 0.656791 0.138361
79.4052 6.45875 -22.9487 -0.279987 0 -0.268054 -3.5 -0.495063 -0.212332 -0.842513 0.188282
75.7978 16.2789 -5.20013 -0.0052082 0 0 -0.9 -0.222961 0.899792 0.375051 0.710814
89.0104 23.0295 0.559937 0.521103 0 0 -3.9 -0.967403 0.092788 -0.235631 0.339228
78.1344 7.21163 -15.5681 -0.218687 0 0 0.72199 -0.360454 -0.585041 -0.726499 -0.150531
81.7131 5.27825 -9.75425 0.200261 0 0.199888 -0.4 -0.44785 -0.182218 0.875344 -0.507284
84.1581 11.2664 -9.11019 0.085759 0 -0.972042 -0.8 0.782264 -0.610793 -0.122453 -0.9999
76.8778 8.88638 -6.37394 -0.0192394 0 0 3.8 -0.458286 -0.264076 0.848668 0.325045
89.1212 28.3354 -7.16594 -0.037529 0 0 -3.5 -0.254218 -0.412487 0.874773 0.229418
80.7454 25.9969 -8.98744 -0.391397 0 -0.675012 -3.5 0.0551216 0.429227 0.901513 -0.342777
76.67 11.6965 -14.766 -0.138373 0 0 -3.5 -0.969911 -0.108198 0.218096 0.110041
79.6777 21.5023 -10.4529 -0.133134 0 0 -1.61181 -0.726672 -0.684083 0.0630808 -0.306684
85.4799 11.9085 -9.77312 0.382213 0 -0.376439 -2.12326 -0.021916 -0.941101 0.337413 -0.99989
93.576 2.08037 -1.67675 0.073809 0 0 -1.3 0.193462 -0.979543 -0.0553818 0.354638
85.1635 27.3342 -8.31588 0.313748 0 0.0268844 -0.924179 -0.237617 0.362624 0.901134 -0.27779
89.4381 17.5352 6.33994 0.110539 0 0.315972 -2.40594 -0.761099 0.361298 0.538694 -0.535751
83.9569 5.483 -8.1225 -0.151375 0 -0.14984 -0.4 -0.185512 0.409135 0.893417 0.12601
87.8231 7.05837 1.52262 -0.177777 0 -0.31044 -3.5 0.393163 -0.913041 -0.108533 0.406428
84.7712 8.9775 -7.24025 0.17574 0 0 -0.8 0.811083 -0.562133 -0.161714 0.320092
82.6012 4.65662 -13.7963 0.192231 0 0 -0.0966058 0.183208 0.0789748 -0.979897 -0.99987
89.7799 20.1139 -2.414 0.330069 0 0 -3.9 -0.999958 0.0060919 0.00686012 -0.672904
87.1194 7.14175 -9.14275 0.049489 0 -0.0618464 -4.5 -0.88635 0.0935936 0.453457 -0.419923
91.7577 5.69294 -2.09656 0.00956297 0 0 -1.3 -0.975 0.220161 -0.0300734 -0.520648
78.0337 6.06056 -13.0343 -0.0774277 0 0 1.8 -0.99056 -0.123749 -0.0589607 -0.939252
95.4378 7.43675 -16.1532 0.037193 0 0 -1.3 0.68661 -0.457111 -0.565346 0.699756
87.2567 15.0336 4.13363 -0.0217242 0 0 -0.4 -0.979545 0.179115 -0.0917056 -0.190702
91.73 4.40688 1.258 -0.504413 0 -0.512861 -1.3 -0.886085 -0.11442 0.449178 0.934307
82.9036 8.28088 -5.68731 0.0240636 0 -0.205856 -0.8 0.139351 -0.865005 0.482025 0.392472
77.0231 6.85256 -8.34644 -0.00753913 0 0 3.8 -0.211146 -0.865653 0.453941 0.27254
81.7729 15.3968 -4.27419 -0.08788 0 -0.404319 -2.12033 -0.472218 0.694073 0.543391 -0.618073
81.6667 20.4575 -7.9905 -0.247577 0 0 -1.3 -0.107275 -0.467962 0.877213 -0.28661
74.486 15.111 -11.346 -0.0364283 0 0 4.5 -0.239204 -0.868044 0.435064 0.237808
79.7755 6.00794 -20.7418 -0.337617 0 -0.412564 -3.5 -0.888877 0.141265 0.435824 -0.50018
74.7511 15.7951 -6.07275 -0.0206161 0 0 -0.9 -0.700199 0.712191 0.0500565 0.625662
88.4994 6.34669 -6.50413 0.154754 1 0 -1.6 -0.848291 0.0236797 0.529 -0.384606
90.0378 8.50587 -2.1975 -0.126924 0 -0.854646 -0.8 -0.430612 -0.878177 -0.208276 -0.0844755
77.858 11.02 -6.472 -0.0575623 0 0 3.8 -0.123485 0.205679 0.970797 -0.189211
91.6946 22.6283 -4.15875 0.106093 0 0 -3.5 0.387114 0.844464 -0.370166 0.0908723
87.3692 9.8175 3.891 0.169322 0 0 -3.5 0.0821453 -0.095784 0.992007 -0.271504
81.4943 12.805 -2.38575 -0.431743 0 -0.0216459 -3.5 -0.939458 -0.228698 0.255178 0.251461
85.5735 19.8901 -4.90644 0.199098 0 0 -3.9 -0.688248 0.279708 0.669386 -0.307059
76.5379 9.66425 -11.7394 -0.162552 0 -0.0596082 -3.5 -0.818215 0.573643 0.0381834 0.032698
79.2369 22.2402 -9.42537 -0.190488 0 0 -2.80344 -0.683974 -0.69408 0.224573 -0.450427
93.3435 23.2516 -1.78762 -0.0853283 0 0 -3.5 -0.102366 0.395889 -0.912575 -0.687392
75.4853 8.2485 -9.23894 -0.0375377 0 0 3.8 -0.886307 -0.381405 -0.262659 -0.113098
77.5945 7.03 -12.0625 0.0089923 0 0 3.8 -0.874736 -0.308196 -0.373968 -0.9998
92.0957 6.85894 -18.3759 0.0469603 0 0 1.9 0.91672 -0.228003 -0.328085 0.311662
83.3248 7.21856 -9.52506 -0.0438293 0 -0.722958 -0.4 0.854883 0.459358 0.241175 -0.999863
93.5521 24.9199 -1.30387 -0.194195 0 -0.719947 -3.79522 -0.330871 0.57812 -0.745856 0.153331
83.5021 5.187 -13.9496 0.147629 0 0 -1.6 -0.209885 -0.590797 -0.779042 -0.426451
80.3252 6.097 -17.8377 -0.445453 0 -0.0993699 -3.5 -0.999123 0.0119932 -0.0401112 -0.335385
93.6272 1.97706 -0.148937 0.0047647 0 -0.730371 -0.918074 -0.382738 -0.914533 -0.130924 -0.035775
76.311 12.766 -14.652 -0.109473 0 0 -0.4 -0.671713 -0.676021 0.30298 0.119618
78.2676 5.58488 -15.154 -0.088528 0 0 1.8 -0.755634 -0.311488 -0.576188 0.553704
88.0953 21.7418 -9.625 0.275167 0 0 3.8 0.793561 -0.234225 0.561605 -0.0905606
90.6664 4.33875 -12.1234 -0.069133 0 0 -4.5 0.536585 -0.739843 -0.405844 -0.392578
92.419 21.004 -7.335 -0.0424767 0 0 -3.5 -0.127561 0.955983 -0.264244 -0.401997
91.2408 6.9365 -21.6746 0.24279 0 0 -0.4 0.768871 -0.632599 -0.093039 0.0567377
86.9938 2.29119 -7.399 -0.0400493 0 -0.0135975 -0.4 0.308879 -0.870287 0.38366 0.438986
84.3268 6.12569 -15.4535 0.0534267 0 0 -2.98421 -0.116226 -0.992412 -0.0401245 -0.502101
91.2425 20.382 4.85275 0.169749 0 0 -3.25939 -0.469894 0.864213 0.179823 -0.743707
84.6264 23.4836 -5.43181 0.407667 0 0 -3.9 -0.543298 0.16022 0.82411 0.32157
96.296 3.60906 -7.15137 0.0510577 0 0 -0.8 -0.125903 -0.569396 -0.812365 -0.673024
90.9782 3.89694 -6.80263 -0.0355013 0 0 -1.37246 -0.437831 -0.859619 0.263361 -0.17439
78.0395 12.8947 -11.5037 -0.0806393 0 -0.0258896 4.2 -0.764309 -0.630726 -0.134224 -0.321564
88.0375 4.65325 -6.246 -0.161821 0 -0.0472741 -0.455512 -0.202064 0.0255131 0.97904 0.140907
82.1406 10.6725 -3.11238 0.0365283 0 0 -3.5 -0.762736 -0.60294 0.233875 0.309911
81.3589 23.3407 -7.6965 -0.00060547 0 0 -1.55892 0.0650346 0.499315 0.863976 -0.331149
79.3279 11.6952 -6.79012 -0.151549 0 0 -0.9 -0.117208 -0.105888 0.987446 -0.999849
77.324 13.106 -5.59 -0.158421 0 0 -0.9 -0.0252462 -0.650801 0.758828 0.0270003
82.6533 0.889 -13.7125 0.127283 0 0.0784332 -4.5 -0.536115 -0.826872 0.169892 0.711953
77.717 9.731 -5.703 -0.0288086 0 0 3.8 -0.225565 0.127455 0.965855 0.999866
92.9621 4.50712 -14.2834 0.0779133 0 0 -1.3 0.104514 -0.99338 -0.0476648 0.999856
82.3774 6.28412 -15.6447 -0.0616563 0 -0.473501 -3.1943 0.240301 -0.970319 -0.0271451 -0.585927
87.4071 5.41656 -7.35388 -0.144625 0 0 -0.4 -0.441206 0.635467 0.633656 -0.498991
79.6494 18.909 -11.5754 0.131852 0 0 4.2 -0.6632 0.720106 0.203992 -0.654055
87.0856 13.556 6.05794 0.0294455 0 0 -0.4 -0.826838 -0.276278 0.489908 0.844122
95.0556 3.93038 -7.85881 -0.0324827 0 0 -1.22305 0.422165 -0.684352 -0.594508 -0.52013
85.4788 10.3728 -5.439 0.165932 0 0 -3.5 0.565451 -0.814634 0.128981 -0.78165
93.0374 1.06094 -3.83944 0.0732667 0 0 -1.3 -0.114681 -0.943129 0.312017 0.999794
95.5052 6.47888 -13.9314 -0.0718767 0 0 1.00495 0.425888 -0.851698 -0.305336 -0.210048
82.355 3.244 -14.4345 -0.0130533 0 0 -4.5 0.0112616 0.308393 -0.951192 -0.172947
87.3167 5.8275 -22.6081 0.276769 0 0 -0.701084 0.49921 -0.687077 -0.527935 -0.551652
87.1661 12.3123 4.21281 -0.302294 0 -0.773405 -0.4 -0.802604 -0.326598 0.49916 0.0859915
77.6738 11.9633 -10.3525 0.053057 0 0.065926 3.22931 -0.487836 -0.118463 -0.86486 -0.37216
94.8746 2.85075 -1.81869 0.191679 0 0.150351 -1.3 0.505763 -0.862098 -0.0314836 -0.571252
87.7565 4.85187 -21.3399 0.107403 0 0 1.9 0.291828 -0.921012 -0.258017 0.371115
82.2807 26.633 -8.81225 -0.675177 0 -0.0400021 -3.5 -0.108489 0.161329 0.980919 0.284289
91.5612 3.21675 -1.32475 0.0645533 0 0 -1.3 -0.810271 -0.507552 0.293004 0.750328
88.7614 2.65 -13.2384 0.205335 0 0 -4.5 0.56416 -0.389605 -0.727963 0.396694
73.9901 14.7064 -6.61281 0.0387867 0 0 -0.9 -0.919827 0.336459 0.201776 0.512586
88.5576 17.8644 0.204938 0.307799 0 0 -3.9 -0.760732 0.473473 -0.44397 -0.204259
91.1746 19.4436 6.84013 0.033204 0 -0.142908 -2.92573 -0.462106 0.555095 0.691613 0.244169
84.2574 16.9272 -3.08013 0.0385987 1 0 -0.4 -0.278976 0.57044 0.77251 0.303693
80.3282 20.3682 -8.50675 -0.188358 0 -0.0792621 -1.3 -0.765061 -0.468318 0.441995 0.137388
88.9576 19.2647 -0.485625 0.311671 0 0 -3.9 -0.947558 0.131687 -0.291191 0.487062
87.6517 29.1677 -7.4765 0.020198 0 0 -3.5 -0.442625 -0.10394 0.890662 0.288688
86.9132 11.1816 4.08981 0.0279412 0 0.927864 -3.5 -0.267114 0.180344 0.94664 0.278875
92.4379 1.21944 -5.20675 0.0377707 0 0 -1.3 -0.344426 -0.937723 -0.0452359 0.651272
89.5898 20.6812 -7.21381 0.137418 0 -0.194923 -0.0210169 0.0562931 0.806882 -0.588025 -0.140897
91.6233 5.97862 -18.0555 0.13455 0 0 1.9 0.634886 -0.761481 0.130635 0.197866
91.2349 21.5505 3.29737 0.663443 0 0 -3.9 -0.387212 0.141316 0.911096 -0.728429
88.3227 11.501 4.17225 -0.310873 0 -0.0171006 -0.4 -0.0661674 -0.458431 0.886263 -0.254446
77.1279 14.154 -12.0024 -0.051764 0 0 4.2 -0.665543 -0.741269 0.0870173 -0.866117
87.191 8.6785 3.8215 0.149491 0 0 -3.5 0.0609579 -0.282876 0.957217 -0.140364
83.1156 15.8658 -3.35906 -0.167174 0 -0.247688 -1.58652 -0.579585 0.676635 0.454144 -0.408923
77.8477 10.4231 -10.643 0.135319 0 0.529865 3.8 -0.359091 0.677435 -0.641978 -0.999913
75.296 13.994 -9.958 -0.0421737 0 0 -0.9 -0.60176 -0.280896 -0.747651 0.383557
83.5472 8.71 -8.29288 0.175513 0 0 -0.8 0.881141 -0.270763 -0.387656 -0.687144
88.6376 7.61144 -0.22375 0.00660877 0 0 -3.5 -0.105539 -0.892971 -0.437567 0.575362
84.2285 25.3711 -6.60437 1 0 0 -3.9 -0.651729 0.566454 0.504361 0.783593
91.5368 5.18488 -15.1615 0.093996 0 0.140406 -1.3 -0.197156 -0.879388 -0.433366 0.469413
90.8447 5.02738 -5.13938 -0.0163474 0 0 -1.6 -0.527775 -0.639894 0.55856 -0.265594
85.9421 16.4778 1.016 -0.049716 0 0 -0.7 -0.747366 0.539232 0.388165 0.458578
80.2136 4.94256 -10.2069 0.131998 0 0 0.255259 -0.036012 -0.594939 0.802963 -0.199066
86.7366 -0.0965 -12.9876 0.240239 0 0.315177 -4.5 0.352622 -0.847208 0.397361 0.697558
83.8714 1.87425 -8.16775 0.11193 0 0 -0.4 -0.664622 -0.654975 0.359563 0.609063
86.102 16.7645 -2.7825 0.227908 0 -0.705629 -0.684306 0.09895 0.830519 0.54813 0.124471
80.7846 12.7919 -5.24788 0.0599787 0 0 -0.9 -0.52339 -0.696035 0.491527 -0.582325
86.8614 4.63569 -20.4894 0.087288 0 0 1.9 0.294677 -0.944808 0.14319 0.0856497
80.8126 20.9715 -7.29938 -0.510067 0 -0.651472 -1.3 -0.231324 -0.58577 0.776765 0.999878
83.7644 9.27787 -4.81337 0.14643 0 0 -0.8 0.285509 -0.807867 0.515593 -0.0441136
87.2012 24.7242 -7.25609 1 0 0.33606 -3.9 0.871803 0.306919 0.381785 0.181606
85.0201 7.53988 -10.7822 0.283234 1 0 -1.6 0.0328657 0.393435 0.918765 -0.913604
85.027 1.456 -8.7365 0.220408 1 0 -0.4 -0.000686705 -0.997981 0.0635154 0.468667
87.7459 2.23875 -9.8435 0.268853 0 0 -3.96788 0.339828 -0.844573 0.413778 -0.856791
91.0743 12.101 5.98737 -0.141792 0 -0.425259 -4.5 -0.309893 -0.802944 0.509164 -0.117447
82.7186 22.9436 -6.9255 0.0458087 0 0 -3.9 -0.425209 0.171586 0.888682 0.10746
84.5458 5.2745 -17.5479 -0.268094 0 0 1.9 0.00256038 -0.853067 0.521795 -0.0412504
75.7517 14.8953 -4.36969 0.039885 0 0 -0.9 -0.220023 0.0416204 0.974606 0.733207
89.3336 19.1433 -9.49575 0.357103 0 0.210434 2.30874 -0.308076 0.907696 0.284916 -0.999878
91.6039 7.63969 -19.1269 0.0545997 0 0 1.9 0.896303 0.186128 -0.40249 -0.154002
93.9457 21.523 -5.56663 0.198512 0 0 -3.5 -0.0904424 0.981252 -0.170189 -0.428779
91.1332 11.4775 4.7195 -0.270872 0 -0.439539 -0.8 -0.626179 -0.433375 0.648141 -0.865895
76.9418 9.72956 -17.2203 -0.190939 0 0.352339 -1.3481 -0.737518 0.103207 -0.667395 0.0876006
93.6326 3.2365 -8.51606 -0.41078 0 -0.355634 -1.3 0.250024 -0.716546 -0.651191 0.555232
86.8624 17.0172 2.36981 -0.0700293 0 0 -0.7 -0.892705 0.384509 0.235012 0.238948
88.916 21.6969 -5.81419 0.160165 0 0 -3.7217 0.452388 0.733987 -0.506564 -0.371487
81.759 4.173 -9.92775 0.23051 1 0 -0.4 -0.603245 -0.331405 0.725442 -0.0261954
81.3791 2.744 -11.2697 0.033121 0 0 -0.4 -0.508779 -0.706972 0.491259 0.213964
74.7524 10.147 -8.03788 -0.0402203 0 0 3.8 -0.912634 -0.0611494 0.404179 0.609208
88.8239 14.1731 7.75875 0.0809483 0 0 -2.76656 -0.888607 -0.0350361 0.457329 -0.121509
89.4378 21.9401 -0.933 0.259264 0 0 -3.9 -0.997698 -0.0174125 -0.0655367 -0.0649903
87.3056 2.50494 -13.9126 0.314088 0 0 -4.5 0.393946 0.101942 -0.913463 0.0517724
77.7102 6.4945 -14.3469 -0.136559 0 0 1.8 -0.855163 -0.510042 -0.0924876 0.118751
86.837 9.966 -7.506 0.285929 0 0 -1.6 -0.799817 -0.600242 -0.00175195 -0.0252775
79.5718 18.7596 -9.89881 0.0044299 0 0 1.92351 -0.761947 0.580784 0.286579 0.0567616
86.0649 17.7239 -3.57987 0.419263 0 0.300567 -2.06126 0.0488516 0.374141 0.926084 -0.199651
84.6745 0.308 -12.565 0.0125576 0 0 -4.5 -0.254634 -0.845019 0.470217 0.488635
82.6223 2.611 -9.83062 0.335283 0 0 -0.4 -0.648287 -0.616056 0.447435 0.179958
90.403 25.0182 -9.98063 0.501047 0 0.851715 3.8 0.262975 -0.330206 0.906536 -0.129313
86.2669 9.41525 -10.5645 0.39058 0 0 -1.6 -0.494722 -0.0088336 0.869007 -0.69504
81.9346 2.15925 -20.8846 0.152741 0 0.0776986 -3.5 -0.0954021 -0.945723 0.310654 0.999853
76.2766 10.6313 -15.0091 -0.33699 0 0 -3.5 -0.823046 0.567783 -0.0147799 0.0817948
84.3839 4.02938 -18.6155 -0.503567 0 -0.115005 1.9 0.233346 -0.86506 0.444095 0.794565
74.6042 14.46 -5.308 0.00115599 0 0 -0.9 -0.762878 -0.244871 0.598377 0.586996
91.6509 2.97213 -5.851 -0.151616 0 0 -1.3 -0.934705 -0.319593 -0.155523 -0.0487096
84.8476 26.2687 -7.38225 1 0 0.000436978 -3.9 -0.343763 0.719978 0.602875 0.290604
82.965 24.0237 -8.05781 0.198167 0 0 -2.39411 -0.476282 0.51354 0.713746 -0.999848
94.7115 6.182 -15.0057 -0.159869 0 0 -1.3 0.635626 -0.682168 -0.361422 0.0859047
76.7011 8.13762 -11.8325 -0.158199 0 0 2.37013 -0.868259 -0.457347 -0.192247 -0.148334
91.1911 9.91069 4.71456 0.449917 0 0.128032 -3.9 -0.816733 0.215676 0.535193 -0.665764
85.4136 9.8995 4.13419 0.0301193 0 0 -3.5 -0.324419 0.171832 0.930175 0.699281
81.6474 10.0787 -4.53956 -0.108349 0 -0.98285 -0.8 -0.757334 -0.101655 0.645068 0.224949
86.4344 1.92344 -9.074 0.326411 0 0 -0.4 0.335341 -0.928817 0.157623 -0.24874
80.2937 8.21006 -17.939 -0.0796937 0 0 -3.5 -0.898826 -0.410066 -0.154785 -0.741809
85.0494 9.94563 -3.43913 0.197573 0 0 -1.96706 0.314934 -0.948205 0.0415214 0.259331
89.4605 2.85375 -12.5278 0.144139 0 0 -4.5 0.688124 -0.474094 -0.54929 0.446656
88.836 20.823 3.218 -0.0383777 0 -0.907737 -3.5 -0.578174 0.787538 0.213305 0.168103
81.7322 18.9778 -8.18262 -0.0648773 0 0 -1.3 -0.417879 0.135067 0.898406 -0.115194
87.4895 20.1467 -9.359 0.335787 0 0.181558 3.8 0.8728 0.487443 0.0249009 -0.999874
91.9626 6.50894 0.806437 -0.13873 0 -0.387777 -1.47721 -0.841238 -0.206058 0.499858 0.0558157
75.4072 15.0544 -12.0889 0.00216473 0 0 4.26688 -0.292836 -0.949647 0.111432 -0.684375
93.8955 1.18609 -6.09041 0.108638 0 0 -1.3 0.287031 -0.887854 -0.359623 0.570655
89.672 17.4656 8.46175 0.0911007 0 0 -4.5 -0.742123 0.634812 0.215096 0.446928
92.8515 2.80938 0.767 -0.0847513 0 -0.0681763 -1.26572 -0.792906 -0.583117 0.176846 0.222725
87.5019 5.43363 -18.0023 -0.034288 0 0 1.26879 0.144485 -0.956581 0.253135 -0.144721
85.8508 10.0728 -0.220313 -0.34757 0 -0.477065 -0.7 -0.604715 -0.711859 -0.357179 -0.148914
78.9806 13.0041 -5.7455 -0.152756 1 0 -0.9 -0.112358 -0.680897 0.723709 -0.52646
89.6973 23.2436 -0.75125 0.25733 0 0.794779 -3.53771 -0.801828 0.553098 -0.226174 -0.0575521
85.9727 3.31225 -6.51425 -0.119117 0 -0.66601 -0.4 -0.0911568 -0.16132 0.982683 0.128683
75.6392 12.1426 -9.8125 -0.0125301 0 0 1.23608 -0.51879 0.151851 -0.841308 0.250121
85.4258 1.48619 -7.65244 0.0833667 0 0 -0.4 0.0814405 -0.906067 0.415222 0.999849
82.7933 28.4349 -9.14487 -0.060511 0 -0.0672586 -3.2561 -0.150634 0.060225 0.986753 -0.272719
93.124 2.08006 -7.27156 -0.180497 0 -0.0881604 -1.3 -0.171356 -0.715775 -0.676981 0.391678
82.2114 1.64988 -14.698 0.062232 0 0.372846 -4.5 -0.559893 -0.529549 -0.637258 0.447884
83.4119 9.926 -3.43412 0.345973 0 0.514348 -0.8 -0.20037 -0.88126 0.428057 0.0929958
90.666 3.86069 -8.86438 -0.086823 0 0 -4.5 0.29262 -0.955833 0.0274921 -0.362162
89.1633 23.927 2.98525 0.863447 0 0 -3.9 -0.725598 0.397494 0.5617 0.999852
89.2927 18.1084 -0.99825 1 0 0.00125874 -3.9 -0.919687 0.186053 -0.345774 -0.801137
81.5922 5.36519 -16.647 -0.492227 0 -0.0858277 -3.5 0.293572 -0.881533 0.369749 -0.14826
79.8884 8.13316 -20.3405 -0.124288 0 0 -3.5 -0.746935 -0.414457 0.519916 -0.563732
81.3311 24.7577 -8.60075 -0.252411 0 0 -1.83439 0.226215 0.394044 0.890818 -0.532638
95.4989 6.03325 -12.2662 -0.0763213 0 0 0.560822 0.207409 -0.976305 -0.061725 -0.196813
92.295 2.12087 -2.29988 0.0366347 0 0 -1.3 -0.547063 -0.814231 0.194293 0.25775
87.5495 16.3831 -1.06275 0.18798 0 -0.38469 -0.7 -0.195597 0.902975 -0.382593 -0.565917
83.5607 1.5605 -11.6106 0.20635 0 0.0602115 -3.92662 -0.354234 -0.88056 0.314852 -0.319313
85.2848 25.2399 -5.54994 1 0 0.822225 -3.9 -0.178434 0.59149 0.786321 0.999873
89.0127 22.9509 -10.0254 0.261985 0 0 3.8 0.432976 -0.224609 0.872973 -0.284879
87.9893 8.07347 -6.96697 0.42471 0 0 -1.6 -0.871955 -0.168705 0.459601 -0.345853
86.7477 11.1702 -9.81612 0.498433 0 0 -4.5 -0.686842 -0.633136 0.356912 -0.999829
84.2763 29.6139 -8.91562 -0.468103 0 -0.227512 -0.4 -0.237307 0.505225 0.829719 0.204653
84.0683 10.3647 -9.9925 0.423313 0 0.466054 -0.4 0.816819 -0.271887 0.508807 -0.798785
84.1932 4.46088 -13.989 0.15556 0 0 -1.70136 -0.0607324 0.0549559 -0.99664 -0.263098
80.7198 6.13031 -9.61506 0.0929727 0 0.40174 1.18621 0.167026 -0.580206 0.797159 -0.655822
81.0062 17.3331 -8.2305 -0.0977907 0 -0.156121 3.26814 -0.472151 0.518328 0.713028 -0.999839
82.7616 10.8267 -1.37413 -0.0147385 0 0 -3.5 -0.455924 -0.780735 0.4273 0.705447
80.2159 23.8874 -7.32662 -0.252222 0 -0.435235 -3.28638 0.167181 0.296457 0.9403 0.58741
74.6906 9.33375 -9.422 -0.0552373 0 0 3.8 -0.931393 -0.232742 -0.27989 0.999887
77.4758 16.1782 -4.87813 0.0199921 0 0 -0.9 0.0642785 0.795791 0.60215 0.655492
85.374 5.90863 -15.1864 -0.0126777 0 0 -2.86478 -0.247491 -0.85881 -0.448547 -0.582547
78.1292 10.2534 -12.4802 -0.0930333 0 -0.821354 -3.5 -0.435823 0.873787 0.215765 -0.782948
79.2477 7.446 -21.5648 -0.170836 0 -0.608251 -3.5 -0.774702 -0.525597 0.351545 -0.218285
94.0045 5.68125 -12.7397 -0.172873 0 -0.135308 -2.42203 0.386121 -0.922167 -0.0227631 -0.357109
90.8907 25.299 2.50763 1 0 0 -3.9 -0.0924397 0.868673 0.486685 0.825948
91.0784 4.01912 -10.6326 -0.38678 0 -0.0648001 -3.60422 0.533154 -0.842134 -0.0809734 -0.264003
86.5721 16.3106 -1.85863 0.067823 0 -0.995371 -0.7 -0.0366171 0.998887 0.0297426 -0.38423
86.1786 11.622 1.79869 -0.0561973 0 0 -3.5 -0.864188 0.447928 0.229215 -0.501671
92.0839 3.43606 -8.10044 -0.326233 0 0 -1.3 -0.330373 -0.855666 -0.398359 0.0474207
80.405 19.2617 -8.85338 0.0183371 0 0 -1.3 -0.729063 0.161286 0.665172 0.0523122
79.5845 13.976 -4.57275 -0.0515733 0 0 -0.9 -0.269664 -0.437155 0.858007 0.174644
87.7941 4.35938 -14.2647 0.045862 0 0 -4.5 0.134521 -0.461237 -0.877021 0.0407526
79.5921 21.5821 -8.19525 -0.195601 0 -0.136741 -1.3 -0.797023 -0.450787 0.401928 0.622308
79.123 16.4116 -7.919 -0.110377 0 0 3.42194 -0.245463 0.869825 0.427964 -0.495053
89.7595 10.3144 3.61888 -0.115094 0 0 -1.99292 -0.21749 -0.0996524 0.970962 -0.830454
76.612 16.1209 -8.47987 -0.111563 0 0 1.70825 -0.396721 0.891511 0.218677 -0.124371
87.086 8.545 -8.159 0.270528 0 0 -1.6 -0.980157 -0.0624089 0.18814 0.340612
86.1195 26.346 -7.663 1 0 0 -3.9 0.310445 0.584689 0.749509 0.0563085
83.7815 7.419 -7.8 0.098473 0 -0.07796 -0.631588 0.638763 -0.729054 0.24589 0.243578
83.2237 4.07175 -8.1485 0.068138 0 0 -0.4 -0.79745 0.028758 0.602699 0.219591
88.8726 9.44681 -2.45203 -0.043166 0 -0.83326 -0.8 -0.728086 -0.681248 -0.0761112 -0.18296
75.1591 15.0347 -10.0577 -0.0464077 0 0 -0.9 -0.989137 -0.139292 -0.0469593 0.030876
76.7705 17.9823 -10.4421 0.047549 0 0 4.23018 -0.0631453 0.667306 0.742102 0.10433
80.1192 6.09941 -19.4141 -0.0235673 0 0 -3.5 -0.964945 0.187477 0.183669 -0.0625991
89.1197 7.55347 1.53969 0.038496 0 0 -3.5 0.29366 -0.955689 -0.0205223 0.166334
83.858 6.519 -8.356 -0.00187968 0 -0.415964 -0.4 0.730764 0.584749 0.352212 -0.145257
87.8615 9.0275 -0.508 0.046453 0 0 -3.5 -0.478041 -0.454918 -0.751349 -0.193255
89.5195 3.59134 -7.602 0.0160821 0 0 -1.6 0.344355 -0.888799 0.302416 -0.0333571
84.1048 15.6575 -0.862 -0.086954 0 -0.0761784 -3.08856 -0.518804 0.717957 0.464091 0.352074
89.4005 2.74541 -9.54578 0.034048 0 0 -4.5 0.396 -0.846316 0.356277 0.367773
87.12 17.93 3.74075 -0.47823 0 -0.153575 -3.5 -0.988883 -0.0785739 0.126238 0.288721
95.6421 4.90887 -8.62512 -0.0846083 0 0 -0.8 0.22541 -0.689927 -0.687889 -0.374384
84.4824 21.6616 -5.73491 0.215145 0 0 -3.9 -0.66654 -0.182553 0.722772 -0.0406535
81.8857 12.2196 -3.97213 -0.0302977 0 0.377245 -2.12041 -0.88285 -0.410825 0.227591 -0.796257
92.9389 21.9112 -4.84163 0.108813 0 0 -3.5 0.219981 0.931247 -0.290495 0.0273391
87.7816 23.1485 -6.08112 0.217777 0 0 -3.9 0.753592 0.604488 0.258252 0.212657
89.3187 20.6686 -0.336625 0.325198 0 0 -3.9 -0.964858 0.0795994 -0.250424 -0.450017
80.0801 20.0681 -10.4307 -0.0406797 0 0 -1.3 -0.998471 0.0460813 0.0305276 -0.157166
77.5525 9.58519 -18.9158 0.244307 0 0.584157 -0.7 -0.526371 -0.802915 0.279754 0.0427178
91.0347 7.89041 1.20034 -0.224005 0 -0.628164 -3.5 -0.138673 -0.938081 0.317448 -0.26827
75.1644 9.48569 -15.2994 -0.635597 0 -0.478575 -3.5 -0.990014 0.140436 0.0122667 0.999884
77.2187 7.35691 -7.17072 -0.0087087 0 0 3.8 -0.241869 -0.770223 0.590133 0.520609
88.6039 27.1108 -8.14269 0.112191 0 0 -3.5 -0.126963 -0.503571 0.854574 -0.0847597
87.6056 21.3423 -8.59825 0.302449 0 0 -1.85992 0.998107 -0.011473 -0.0604217 -0.462429
88.6311 16.2527 -2.28994 0.452353 1 0.213356 -1.66231 -0.475513 0.878495 0.0461866 -0.840268
92.0499 9.14487 -18.6914 0.046125 0 0 -1.3 0.503403 -0.422711 -0.753592 -0.537044
83.969 9.32881 -10.021 0.42763 0 0.0545316 -0.808122 0.810471 -0.432644 0.394911 -0.113585
87.806 6.559 -7.755 -0.131399 0 0 -1.6 -0.799669 0.218905 0.559115 -0.410617
81.4599 3.06406 -19.9963 0.071082 0 0 -3.5 -0.179771 -0.82806 0.531036 0.118054
83.784 3.84278 -22.8094 -0.116591 0 -0.0287492 -3.5 0.353775 -0.87936 -0.318699 0.0686235
88.1041 17.031 -3.916 0.223603 0 -0.0901215 -3.9 -0.210128 0.425207 0.880367 -0.804172
76.0872 6.874 -9.20662 -0.0402107 0 0 3.8 -0.691739 -0.710605 0.128597 0.505569
76.4993 12.1058 -6.76219 -0.126826 0 0 1.77207 -0.24441 -0.464058 0.851419 -0.32964
88.2067 20.7725 -4.16947 0.170698 0 0 -3.9 -0.300312 0.117794 0.94654 -0.277303
91.6064 7.75612 -3.10888 0.038991 0 0 -0.8 -0.648671 -0.71743 0.254008 -0.99986
81.1099 16.0091 -4.97819 0.0154021 0 0 -0.9 -0.255214 0.629616 0.733791 -0.0722325
83.3933 20.6717 -7.65644 -0.035532 0 0 -1.3 -0.477933 -0.268421 0.836379 -0.639403
79.5598 9.01325 -5.9325 0.061026 0 -0.0273424 3.64449 0.00199086 -0.238373 0.971172 0.11832
74.9022 12.3186 -8.55541 -0.0237817 0 0 -0.9 -0.942514 -0.195199 -0.271229 0.150752
89.8083 20.2703 3.71937 -0.0114555 0 0 -3.5 -0.18043 0.824424 0.536443 -0.742874
86.4815 10.544 -6.52425 0.278922 0 0 -2.40718 -0.0415472 -0.910569 0.411263 -0.655819
84.5823 11.1278 -0.032 -0.0698307 0 0 -3.5 -0.531778 -0.368478 0.76252 0.217005
87.7055 15.1099 6.45544 0.037688 0 0 -0.4 -0.714873 0.291941 0.635396 0.507344
89.1696 15.5808 8.98475 0.218492 0 0 -4.5 -0.977336 0.210918 -0.0181013 -0.230969
76.233 9.6935 -6.76328 -0.0308355 0 0 3.8 -0.543155 0.0568421 0.837706 0.077585
89.1409 6.25975 -15.3121 -0.029235 0 0 -1.3 0.0438615 -0.967455 -0.249212 -0.999844
92.7718 7.40662 -17.492 -0.101083 0 0 -1.3 0.55198 -0.465962 -0.691519 -0.305612
85.1892 1.44062 -10.4856 0.247619 0 0.528455 -0.643548 -0.031964 -0.959538 0.279758 -0.11026
90.4014 22.8182 3.40434 0.769723 0 0 -3.9 -0.243493 -0.0589937 0.968107 0.547611
92.7717 5.30028 -12.4691 -0.128941 0 -0.617192 -3.37999 0.328048 -0.940897 -0.0842483 -0.441117
85.1744 2.16438 -15.0041 0.0132723 0 0 -4.5 0.164828 0.410047 -0.897047 0.498034
86.9386 5.34119 -15.3074 -0.0264446 0 0.662262 -3.2 -0.0246116 -0.946287 -0.322391 -0.0440061
95.1158 5.59 -9.55725 0.052668 0 -0.561599 -0.8 0.430098 -0.829732 -0.355754 -0.677607
89.9313 7.93925 4.08975 0.0674687 0 0 -3.5 -0.263707 -0.886253 0.380808 0.269435
86.7085 27.7875 -8.213 0.179101 0 0 -3.5 -0.13464 0.0257411 0.99056 -0.27754
84.5421 19.5608 -5.97309 0.00992257 0 0 -3.9 -0.76753 0.261251 0.58536 -0.20125
78.1977 16.0868 -7.0973 -0.16849 0 0 -0.9 0.00559769 0.998609 -0.0524224 -0.499959
77.1281 6.72155 -11.2071 0.0037389 0 0 3.8 -0.765137 -0.323634 -0.55662 -0.525938
78.2398 9.28979 -18.0793 -0.0480743 0 0.658174 -1.27536 -0.24885 -0.872776 -0.419923 -0.0759158
90.3462 3.31776 -10.2141 -0.0377667 0 0 -4.5 0.720939 -0.664564 0.196472 0.08047
86.1567 4.62588 -22.8164 -0.211 0 -0.0136588 0.400853 0.576025 -0.808775 -0.118656 -0.0314765
3 260 469 754
3 504 754 469
3 297 340 63
3 22 613 774
3 774 687 178
3 687 53 178
3 490 687 590
3 142 613 397
3 609 134 678
3 207 659 110
3 659 420 110
3 110 420 359
3 659 756 420
3 659 198 756
3 420 756 332
3 332 354 23
3 23 354 498
3 23 498 650
3 650 498 510
3 510 559 650
3 498 263 27
3 498 341 263
3 341 68 640
3 754 640 260
3 68 198 640
3 173 754 504
3 173 171 754
3 263 794 292
3 72 192 302
3 72 302 41
3 302 239 477
3 314 738 495
3 314 495 581
3 581 495 652
3 652 495 506
3 495 738 401
3 738 340 247
3 506 401 729
3 156 731 407
3 116 156 539
3 156 596 539
3 613 22 737
3 539 596 661
3 178 646 774
3 16 430 646
3 646 430 780
3 16 470 430
3 16 714 550
3 16 550 470
3 714 218 550
3 550 218 666
3 359 547 110
3 490 53 687
3 110 547 207
3 547 359 666
3 141 666 793
3 420 332 296
3 23 650 296
3 650 377 529
3 510 27 242
3 556 671 193
3 556 193 739
3 538 151 11
3 739 538 336
3 11 336 538
3 151 285 11
3 21 90 507
3 90 57 507
3 183 593 689
3 117 593 349
3 349 118 117
3 118 663 117
3 349 593 698
3 698 593 515
3 713 698 72
3 698 515 72
3 215 225 728
3 477 41 302
3 503 489 548
3 753 725 600
3 753 581 652
3 652 506 725
3 715 137 74
3 327 74 64
3 137 64 74
3 715 98 508
3 98 209 116
3 715 508 635
3 715 635 415
3 415 299 575
3 768 299 482
3 299 661 482
3 482 661 596
3 768 423 483
3 768 482 423
3 482 211 423
3 483 423 646
3 542 483 780
3 542 780 577
3 577 780 513
3 757 513 430
3 470 767 534
3 550 767 470
3 534 767 344
3 344 767 404
3 344 404 472
3 472 404 471
3 471 404 167
3 141 767 550
3 167 103 471
3 103 379 60
3 103 60 471
3 161 379 376
3 480 161 376
3 376 379 14
3 376 14 428
3 14 379 559
3 379 377 559
3 14 121 428
3 559 12 121
3 12 559 265
3 556 739 48
3 326 187 48
3 462 336 273
3 336 11 273
3 236 226 303
3 707 689 31
3 363 707 790
3 790 31 520
3 616 703 663
3 616 118 168
3 567 703 168
3 616 168 703
3 567 385 748
3 748 432 567
3 126 633 66
3 66 633 573
3 66 626 126
3 536 626 600
3 675 536 600
3 675 600 725
3 728 600 626
3 294 675 55
3 294 55 458
3 294 426 391
3 771 13 426
3 426 13 383
3 771 458 64
3 64 458 327
3 771 64 137
3 400 137 715
3 771 400 370
3 400 384 726
3 370 400 726
3 575 684 384
3 726 384 684
3 684 575 357
3 542 577 441
3 773 441 577
3 437 441 773
3 76 577 513
3 773 322 350
3 773 350 437
3 437 350 138
3 174 91 125
3 91 164 125
3 91 757 164
3 344 472 228
3 164 344 125
3 228 125 344
3 644 620 645
3 487 60 620
3 620 60 445
3 445 46 645
3 161 480 46
3 46 334 645
3 645 334 102
3 480 691 334
3 691 576 334
3 409 691 480
3 253 587 409
3 691 409 587
3 253 409 346
3 346 409 428
3 409 376 428
3 194 696 19
3 19 696 326
3 326 462 317
3 196 765 410
3 93 796 450
3 703 411 468
3 411 149 751
3 149 127 105
3 105 127 330
3 170 432 748
3 402 383 112
3 112 79 402
3 599 653 112
3 79 112 653
3 722 623 744
3 85 599 611
3 611 305 85
3 744 85 305
3 611 535 29
3 249 545 572
3 572 545 749
3 157 88 749
3 624 88 726
3 88 157 370
3 88 370 726
3 370 157 29
3 370 29 535
3 370 535 771
3 669 497 351
3 726 684 624
3 669 160 692
3 692 160 627
3 533 160 138
3 160 437 138
3 266 734 533
3 266 350 475
3 174 125 710
3 174 710 466
3 125 228 710
3 655 44 702
3 702 467 655
3 702 44 102
3 102 576 702
3 576 654 702
3 464 448 245
3 464 245 473
3 786 587 709
3 716 555 565
3 565 634 177
3 634 660 38
3 634 38 435
3 38 660 387
3 682 38 6
3 387 6 38
3 625 387 450
3 240 450 387
3 240 660 310
3 410 310 37
3 310 660 317
3 37 317 764
3 764 658 37
3 450 86 93
3 387 625 6
3 625 450 592
3 450 588 592
3 625 592 259
3 625 259 438
3 205 162 320
3 320 162 213
3 181 592 588
3 733 628 274
3 324 274 628
3 468 751 628
3 751 39 288
3 751 643 39
3 494 39 643
3 238 328 78
3 328 543 78
3 231 769 502
3 330 221 769
3 221 330 546
3 330 127 546
3 127 170 546
3 454 653 766
3 653 599 623
3 722 436 701
3 436 744 619
3 744 301 619
3 301 744 492
3 492 744 114
3 492 114 20
3 114 461 298
3 461 305 446
3 298 339 122
3 712 406 777
3 35 34 406
3 35 712 572
3 627 672 692
3 34 692 672
3 627 533 18
3 524 496 18
3 627 18 496
3 496 524 584
3 584 524 500
3 614 524 734
3 206 734 524
3 522 735 412
3 412 735 440
3 511 522 466
3 622 467 630
3 702 654 783
3 81 786 649
3 595 649 727
3 405 223 481
3 481 270 473
3 786 398 649
3 649 154 727
3 343 243 682
3 399 343 438
3 781 501 165
3 358 438 205
3 501 399 606
3 606 233 501
3 165 501 233
3 606 390 552
3 390 637 552
3 637 390 563
3 69 358 320
3 563 390 213
3 463 758 479
3 244 325 656
3 656 325 704
3 656 704 373
3 704 47 373
3 704 392 560
3 643 605 494
3 163 605 94
3 94 238 315
3 315 562 94
3 562 315 638
3 750 638 315
3 750 78 543
3 256 543 396
3 554 256 312
3 396 312 256
3 396 356 120
3 356 275 120
3 275 648 685
3 648 502 526
3 648 526 752
3 601 526 175
3 454 766 129
3 701 284 597
3 284 642 452
3 342 452 108
3 108 452 746
3 642 97 746
3 642 216 203
3 216 619 301
3 216 301 395
3 372 111 143
3 293 372 348
3 143 348 372
3 777 417 298
3 406 433 683
3 627 496 672
3 672 496 584
3 584 500 776
3 732 169 705
3 732 527 169
3 763 169 527
3 355 282 657
3 500 524 499
3 499 614 762
3 145 741 241
3 527 124 763
3 222 522 412
3 222 412 686
3 337 686 412
3 337 440 43
3 337 30 686
3 337 43 30
3 688 686 30
3 688 564 686
3 688 670 564
3 670 279 631
3 631 307 670
3 279 389 631
3 631 389 58
3 631 58 745
3 745 58 272
3 431 166 621
3 421 431 621
3 421 261 431
3 595 261 649
3 595 419 261
3 476 673 595
3 781 617 262
3 165 233 617
3 347 80 665
3 552 782 606
3 552 637 782
3 782 637 761
3 286 782 761
3 150 429 459
3 453 135 543
3 109 75 70
3 109 369 115
3 115 369 386
3 128 312 396
3 96 685 509
3 648 752 290
3 601 597 460
3 342 5 674
3 342 674 418
3 418 674 290
3 674 49 775
3 775 49 84
3 775 84 148
3 84 49 140
3 49 309 140
3 140 309 123
3 123 309 746
3 123 89 140
3 140 89 212
3 521 89 380
3 521 380 778
3 380 531 280
3 531 293 364
3 589 364 293
3 372 531 203
3 372 203 216
3 364 589 45
3 603 589 348
3 603 348 153
3 544 668 610
3 289 153 491
3 3 234 610
3 610 234 62
3 62 234 26
3 26 271 99
3 449 491 271
3 271 491 33
3 271 33 99
3 99 33 447
3 683 447 33
3 447 683 742
3 447 742 488
3 742 683 335
3 335 433 333
3 736 541 224
3 615 742 224
3 736 323 217
3 361 217 486
3 217 323 246
3 486 295 705
3 388 371 540
3 705 169 763
3 61 222 580
3 571 155 414
3 155 743 414
3 155 564 743
3 743 564 307
3 743 307 745
3 795 106 721
3 106 419 673
3 419 272 58
3 419 58 389
3 455 578 172
3 578 617 347
3 457 719 785
3 28 719 699
3 457 665 586
3 699 586 456
3 530 80 32
3 80 782 32
3 720 319 115
3 278 720 451
3 386 56 720
3 694 720 56
3 56 386 96
3 316 694 56
3 694 316 393
3 77 316 509
3 509 290 77
3 694 269 720
3 269 784 451
3 83 434 566
3 148 212 227
3 148 84 212
3 521 778 254
3 680 254 779
3 778 73 647
3 779 647 214
3 647 73 416
3 360 416 73
3 416 214 647
3 360 59 484
3 484 59 632
3 197 40 59
3 544 730 608
3 197 608 413
3 544 237 730
3 610 237 544
3 186 237 610
3 62 186 610
3 186 62 267
3 62 382 267
3 382 62 26
3 267 382 523
3 523 740 267
3 283 190 523
3 190 740 523
3 190 615 740
3 488 190 283
3 488 742 190
3 742 615 190
3 755 740 615
3 755 615 378
3 378 185 755
3 185 541 367
3 388 618 439
3 439 618 352
3 618 281 414
3 743 569 414
3 424 569 662
3 724 690 662
3 662 690 374
3 264 679 690
3 679 264 67
3 264 641 583
3 568 583 747
3 353 641 51
3 51 641 724
3 724 36 51
3 444 51 36
3 353 444 291
3 277 788 28
3 291 28 788
3 87 586 665
3 434 304 566
3 321 416 484
3 755 185 677
3 185 367 338
3 478 338 528
3 478 25 532
3 15 276 17
3 17 276 528
3 528 505 17
3 311 17 505
3 15 352 82
3 15 700 276
3 604 585 119
3 585 130 119
3 130 662 119
3 255 585 604
3 679 67 191
3 681 532 25
3 681 25 594
3 594 24 557
3 24 519 557
3 519 24 700
3 24 594 700
3 700 182 519
3 255 248 585
3 585 248 159
3 355 657 443
3 762 443 708
3 329 706 9
3 777 220 52
3 177 787 716
3 297 537 737
3 134 613 737
3 134 737 678
3 678 737 537
3 516 147 659
3 198 659 176
3 147 250 176
3 176 250 640
3 408 250 147
3 640 250 260
3 260 250 408
3 147 176 659
3 469 260 408
3 247 340 297
3 731 247 737
3 407 731 737
3 297 737 247
3 737 22 407
3 590 687 142
3 570 590 397
3 142 397 590
3 397 134 609
3 134 397 613
3 397 609 570
3 204 516 207
3 207 516 659
3 794 263 640
3 794 640 754
3 640 263 341
3 176 640 198
3 697 671 318
3 318 671 375
3 375 754 318
3 193 671 697
3 697 318 171
3 171 318 754
3 189 193 697
3 538 189 697
3 538 697 718
3 538 718 57
3 697 171 718
3 718 507 57
3 183 313 515
3 183 515 593
3 515 313 192
3 401 506 495
3 209 792 729
3 209 729 731
3 731 729 401
3 116 209 731
3 156 116 731
3 423 211 774
3 423 774 646
3 547 666 218
3 490 547 218
3 490 218 53
3 717 207 547
3 490 612 717
3 490 717 547
3 590 403 612
3 590 612 490
3 403 158 612
3 570 331 590
3 590 331 403
3 331 158 403
3 717 158 54
3 207 717 54
3 207 54 204
3 331 54 158
3 158 717 612
3 793 666 551
3 650 529 0
3 650 0 296
3 296 0 666
3 666 0 551
3 551 0 529
3 167 551 529
3 242 559 510
3 498 27 510
3 265 559 242
3 265 242 201
3 265 201 556
3 201 242 381
3 381 242 27
3 671 556 201
3 671 201 381
3 671 381 292
3 375 671 292
3 189 739 193
3 538 739 189
3 689 366 31
3 366 689 593
3 520 31 366
3 520 366 117
3 520 117 663
3 593 117 366
3 698 664 349
3 349 664 118
3 192 72 515
3 664 698 573
3 573 698 713
3 633 664 573
3 548 728 225
3 548 225 503
3 600 728 548
3 753 600 517
3 517 600 548
3 517 548 489
3 652 725 753
3 300 581 753
3 257 300 753
3 257 753 517
3 675 725 711
3 675 711 55
3 506 729 711
3 506 711 725
3 458 55 327
3 711 729 327
3 711 327 55
3 74 327 729
3 74 729 792
3 768 575 299
3 357 575 768
3 357 768 542
3 542 768 483
3 513 780 430
3 529 377 167
3 445 60 379
3 445 379 161
3 187 12 265
3 187 556 48
3 556 187 265
3 346 428 187
3 346 187 696
3 696 187 326
3 520 663 733
3 664 633 168
3 664 168 118
3 772 791 748
3 772 633 126
3 385 633 772
3 385 772 748
3 772 126 536
3 536 126 626
3 391 791 485
3 485 791 772
3 294 391 485
3 485 772 675
3 772 536 675
3 675 294 485
3 402 791 426
3 402 426 383
3 391 426 791
3 535 13 771
3 400 771 137
3 574 684 357
3 574 357 542
3 441 351 574
3 345 684 574
3 345 574 351
3 542 441 574
3 174 350 322
3 174 322 91
3 344 164 534
3 757 534 164
3 445 645 620
3 102 334 576
3 709 587 525
3 709 525 555
3 525 587 253
3 308 525 253
3 308 253 346
3 579 50 308
3 525 308 555
3 555 308 50
3 555 50 579
3 696 579 346
3 346 579 308
3 268 565 579
3 565 555 579
3 268 579 696
3 634 565 268
3 634 268 194
3 634 194 660
3 194 268 696
3 317 660 194
3 317 194 19
3 326 317 19
3 410 765 86
3 86 765 93
3 796 93 765
3 758 514 602
3 758 602 790
3 520 733 790
3 468 628 733
3 411 751 468
3 567 411 703
3 493 751 149
3 231 179 493
3 231 493 769
3 769 493 105
3 105 493 149
3 432 170 127
3 546 170 791
3 791 170 748
3 402 79 546
3 402 546 791
3 744 623 85
3 599 85 623
3 535 611 13
3 13 611 383
3 624 749 88
3 497 749 345
3 345 749 624
3 351 497 345
3 684 345 624
3 749 497 669
3 749 669 572
3 572 669 692
3 627 160 533
3 741 734 522
3 466 734 475
3 266 475 734
3 734 466 522
3 174 466 475
3 174 475 350
3 620 511 710
3 644 511 620
3 270 654 576
3 473 270 464
3 464 270 576
3 786 245 448
3 398 786 709
3 709 555 716
3 154 398 368
3 368 716 787
3 716 368 709
3 709 368 398
3 177 716 565
3 787 177 435
3 435 177 634
3 682 435 38
3 37 310 317
3 450 240 86
3 86 240 310
3 86 310 410
3 205 438 259
3 213 162 563
3 790 274 758
3 733 274 790
3 244 274 324
3 479 758 274
3 479 274 244
3 325 244 324
3 325 324 628
3 325 628 288
3 288 628 751
3 704 325 392
3 392 325 288
3 560 392 288
3 288 759 560
3 494 759 39
3 39 759 288
3 179 328 643
3 179 643 493
3 493 643 751
3 238 643 328
3 175 526 474
3 454 474 769
3 769 474 502
3 502 474 526
3 454 221 653
3 221 454 769
3 760 766 131
3 623 131 766
3 653 623 766
3 722 760 623
3 131 623 760
3 701 760 722
3 1 180 760
3 1 760 701
3 417 20 114
3 298 417 114
3 35 692 34
3 572 692 35
3 710 511 466
3 670 630 783
3 670 783 279
3 166 783 654
3 166 654 621
3 261 421 649
3 649 421 81
3 368 727 154
3 727 368 787
3 398 154 649
3 781 262 727
3 787 781 727
3 476 727 262
3 243 781 787
3 501 781 343
3 501 343 399
3 243 343 781
3 682 438 343
3 782 195 233
3 782 233 606
3 362 761 637
3 362 637 10
3 463 514 758
3 425 463 479
3 656 425 244
3 479 244 425
3 560 365 704
3 47 704 365
3 427 636 100
3 100 636 676
3 560 65 365
3 759 494 676
3 494 210 676
3 210 100 676
3 210 427 100
3 560 759 65
3 65 759 676
3 238 94 605
3 238 605 643
3 256 453 543
3 129 180 175
3 129 175 474
3 129 474 454
3 175 695 601
3 695 175 180
3 129 766 760
3 129 760 180
3 597 695 1
3 597 1 701
3 1 695 180
3 601 695 597
3 452 342 460
3 452 460 284
3 284 460 597
3 642 746 452
3 380 746 97
3 380 97 531
3 531 97 203
3 203 97 642
3 216 111 372
3 216 395 111
3 348 143 723
3 348 723 153
3 723 143 208
3 208 143 111
3 491 153 723
3 220 491 723
3 220 723 52
3 52 723 208
3 777 52 417
3 20 417 208
3 208 417 52
3 683 220 777
3 406 683 777
3 323 736 333
3 323 333 258
3 433 258 333
3 251 258 672
3 258 251 246
3 258 246 323
3 776 219 584
3 651 776 500
3 295 776 651
3 651 705 295
3 705 651 732
3 282 355 527
3 282 527 732
3 657 282 95
3 732 651 95
3 732 95 282
3 651 500 329
3 500 499 92
3 92 499 512
3 512 499 708
3 708 499 762
3 762 614 306
3 741 553 734
3 614 734 553
3 614 553 306
3 306 553 184
3 762 306 184
3 443 762 184
3 443 184 629
3 355 443 629
3 145 629 553
3 145 553 741
3 553 629 184
3 355 113 527
3 241 113 629
3 241 629 145
3 629 113 355
3 527 113 124
3 124 113 241
3 61 763 124
3 61 124 2
3 241 2 124
3 2 241 741
3 222 61 2
3 222 2 522
3 522 2 741
3 630 670 688
3 307 631 745
3 561 673 476
3 561 476 455
3 561 455 172
3 455 476 262
3 455 262 617
3 195 617 233
3 347 617 195
3 427 163 636
3 459 636 163
3 605 163 210
3 605 210 494
3 427 210 163
3 750 543 135
3 554 549 256
3 256 549 453
3 115 319 109
3 109 319 75
3 96 386 369
3 685 96 369
3 685 128 120
3 312 128 685
3 312 685 369
3 509 685 648
3 509 648 290
3 418 752 601
3 342 418 460
3 460 418 601
3 77 290 393
3 674 393 290
3 784 393 607
3 674 775 393
3 212 89 521
3 778 380 280
3 531 372 293
3 197 45 589
3 197 589 608
3 608 589 603
3 608 603 544
3 271 26 234
3 683 33 220
3 220 33 491
3 742 333 736
3 335 333 742
3 224 742 736
3 378 615 224
3 541 378 224
3 229 541 770
3 394 770 361
3 394 361 200
3 361 770 541
3 371 388 200
3 371 200 361
3 371 361 486
3 295 486 442
3 295 442 776
3 442 486 217
3 219 776 442
3 584 219 251
3 251 219 246
3 246 442 217
3 246 219 442
3 540 371 202
3 540 202 705
3 540 705 763
3 540 763 580
3 763 61 580
3 281 540 571
3 571 540 580
3 571 580 146
3 281 571 414
3 724 693 36
3 36 693 721
3 561 721 106
3 595 673 419
3 721 561 444
3 444 561 785
3 785 561 172
3 578 785 172
3 291 444 785
3 28 291 785
3 28 785 719
3 699 719 586
3 586 719 457
3 720 278 319
3 451 720 269
3 77 393 316
3 42 451 784
3 607 42 784
3 775 566 235
3 775 235 393
3 393 235 607
3 148 566 775
3 521 227 212
3 254 680 521
3 521 680 227
3 779 254 647
3 647 254 778
3 484 416 360
3 730 639 413
3 730 413 608
3 667 639 730
3 667 730 789
3 237 789 730
3 541 185 378
3 229 367 541
3 338 367 528
3 505 528 367
3 505 367 770
3 229 770 367
3 439 394 388
3 388 394 200
3 770 394 505
3 505 394 439
3 505 439 311
3 17 311 352
3 352 311 439
3 662 82 352
3 662 352 424
3 424 352 618
3 618 414 569
3 618 569 424
3 569 743 693
3 569 693 724
3 569 724 662
3 583 568 67
3 264 583 67
3 444 353 51
3 583 641 747
3 788 747 353
3 353 747 641
3 199 566 304
3 199 42 607
3 235 566 199
3 235 199 607
3 232 133 632
3 639 232 632
3 667 232 639
3 632 413 639
3 40 413 59
3 632 59 413
3 755 422 287
3 287 422 789
3 740 755 287
3 188 422 755
3 677 152 188
3 532 152 677
3 677 188 755
3 478 677 338
3 478 532 677
3 185 338 677
3 594 25 478
3 679 191 248
3 557 681 594
3 182 591 519
3 252 708 443
3 252 443 657
3 252 657 706
3 651 9 706
3 651 706 95
3 95 706 657
3 329 9 651
3 230 92 512
3 92 230 329
3 92 329 500
3 252 518 708
3 518 512 708
3 706 518 252
3 518 230 512
3 230 518 329
3 329 518 706
3 101 537 297
3 101 297 63
3 613 687 774
3 687 613 142
3 341 354 756
3 68 341 756
3 68 756 198
3 341 498 354
3 354 332 756
3 107 239 302
3 302 192 107
3 247 731 738
3 738 731 401
3 156 407 596
3 465 407 22
3 22 774 465
3 211 465 774
3 465 211 482
3 465 482 596
3 465 596 407
3 53 714 178
3 714 53 218
3 714 16 646
3 714 646 178
3 666 359 420
3 296 666 420
3 23 296 332
3 650 559 377
3 263 381 27
3 263 292 381
3 90 285 151
3 90 226 285
3 151 538 57
3 151 57 90
3 226 90 21
3 713 72 41
3 41 477 215
3 41 215 713
3 215 477 225
3 98 715 4
3 209 98 4
3 74 4 715
3 98 116 508
3 539 508 116
3 635 508 71
3 71 661 635
3 71 508 539
3 661 71 539
3 661 299 635
3 635 299 415
3 780 483 646
3 470 534 757
3 470 757 430
3 404 767 141
3 404 141 793
3 666 141 550
3 379 103 377
3 377 103 167
3 14 559 121
3 48 739 336
3 326 48 462
3 336 462 48
3 285 226 236
3 285 236 273
3 285 273 11
3 273 236 764
3 707 31 790
3 118 616 663
3 168 633 385
3 168 385 567
3 215 728 132
3 215 132 713
3 713 132 573
3 626 66 132
3 626 132 728
3 132 66 573
3 458 771 426
3 458 426 294
3 400 715 384
3 415 384 715
3 575 384 415
3 577 76 773
3 139 322 76
3 76 757 139
3 513 757 76
3 76 322 773
3 757 91 139
3 322 139 91
3 487 471 60
3 487 620 228
3 472 487 228
3 472 471 487
3 445 161 46
3 409 480 376
3 480 334 46
3 12 187 121
3 428 121 187
3 273 764 462
3 658 236 303
3 236 658 764
3 765 136 796
3 790 602 363
3 703 468 733
3 703 733 663
3 149 432 127
3 149 411 432
3 432 411 567
3 112 383 599
3 599 383 611
3 29 446 305
3 29 305 611
3 446 157 545
3 545 157 749
3 29 157 446
3 437 160 669
3 351 441 669
3 437 669 441
3 266 533 138
3 266 138 350
3 228 620 710
3 645 655 644
3 655 645 44
3 44 645 102
3 587 448 691
3 691 464 576
3 448 464 691
3 587 786 448
3 387 660 240
3 764 317 462
3 7 658 196
3 7 196 410
3 7 410 37
3 7 37 658
3 162 592 181
3 592 162 205
3 592 205 259
3 231 275 179
3 179 275 356
3 179 356 328
3 328 356 543
3 105 330 769
3 653 221 79
3 79 221 546
3 744 436 722
3 305 461 744
3 461 114 744
3 545 339 446
3 461 446 339
3 461 339 298
3 406 712 35
3 249 712 122
3 249 122 545
3 545 122 339
3 249 572 712
3 533 734 206
3 18 533 206
3 18 206 524
3 522 511 735
3 511 644 735
3 735 644 655
3 467 622 655
3 735 655 622
3 783 467 702
3 467 783 630
3 81 245 786
3 405 81 421
3 481 654 270
3 621 654 481
3 621 481 223
3 473 245 405
3 405 481 473
3 405 245 81
3 787 435 243
3 435 682 243
3 6 625 438
3 682 6 438
3 438 358 399
3 390 606 69
3 69 606 358
3 320 358 205
3 358 606 399
3 390 320 213
3 320 390 69
3 78 315 238
3 315 78 750
3 231 502 648
3 231 648 275
3 356 396 543
3 526 601 752
3 436 284 701
3 436 619 642
3 436 642 284
3 642 619 216
3 20 208 395
3 492 20 395
3 492 395 301
3 111 395 208
3 122 777 298
3 777 122 712
3 34 672 433
3 34 433 406
3 433 672 258
3 614 499 524
3 337 412 440
3 735 622 440
3 440 622 43
3 688 30 43
3 688 43 622
3 688 622 630
3 389 279 783
3 783 166 389
3 389 166 431
3 405 421 223
3 223 421 621
3 476 595 727
3 781 165 617
3 195 782 80
3 195 80 347
3 459 163 150
3 562 150 94
3 163 94 150
3 312 109 70
3 312 70 554
3 312 369 109
3 275 685 120
3 396 120 128
3 49 8 309
3 309 8 108
3 8 5 108
3 309 108 746
3 8 49 674
3 8 674 5
3 108 5 342
3 123 746 380
3 380 89 123
3 280 582 778
3 531 364 280
3 280 364 582
3 589 293 348
3 289 668 153
3 603 153 668
3 603 668 544
3 668 3 610
3 234 3 668
3 449 271 234
3 234 668 449
3 449 668 289
3 449 289 491
3 683 433 335
3 361 736 217
3 736 361 541
3 672 584 251
3 202 486 705
3 371 486 202
3 686 144 146
3 686 146 222
3 222 146 580
3 571 146 144
3 571 144 155
3 564 144 686
3 144 564 155
3 670 307 564
3 272 106 795
3 795 745 272
3 272 419 106
3 261 419 431
3 431 419 389
3 673 561 106
3 578 455 617
3 347 665 457
3 347 457 578
3 785 578 457
3 80 530 665
3 286 32 782
3 115 386 720
3 316 56 96
3 316 96 509
3 752 418 290
3 784 269 694
3 694 393 784
3 566 148 83
3 83 148 598
3 227 598 148
3 84 140 212
3 364 45 582
3 778 582 73
3 360 197 59
3 360 73 582
3 360 582 45
3 360 45 197
3 283 382 104
3 283 104 488
3 488 104 99
3 488 99 447
3 523 382 283
3 26 104 382
3 104 26 99
3 388 281 618
3 281 388 540
3 743 745 693
3 690 724 641
3 690 641 264
3 721 444 36
3 291 788 353
3 28 699 277
3 530 87 665
3 40 197 413
3 186 267 789
3 186 789 237
3 267 740 789
3 287 789 740
3 478 276 594
3 528 276 478
3 352 15 17
3 662 130 82
3 82 130 15
3 700 15 130
3 700 130 585
3 604 119 374
3 662 374 119
3 679 374 690
3 255 604 679
3 679 604 374
3 594 276 700
3 700 585 182
3 182 585 159
3 679 248 255
3 450 796 588
3 4 74 792
3 4 792 209
3 167 404 793
3 167 793 551
3 375 292 794
3 375 794 754
3 693 745 795
3 693 795 721
