ply
format ascii 1.0
comment Generated by PyMesh
element vertex 800
property float x
property float y
property float z
property float charge
property float ct
property float hbond
property float hphob
property float nx
property float ny
property float nz
property float si
element face 1469
property list uchar int vertex_indices
end_header
50.9765 2.7895 97.6495 0.082626 0 0.00137309 -0.7 -0.316759 0.684487 -0.656613 0.26928
68.133 10.4465 84.032 0.0652473 0 0 -1.3 0.539711 0.841698 0.0160305 0.579812
60.778 -9.87 82.076 0.206895 0 0 -3.9 -0.971574 -0.121769 -0.203018 0.859409
52.751 -3.334 87.716 0.161536 0 -0.029911 -3.5 -0.78376 -0.0157704 -0.620864 -0.135168
59.063 -2.083 80.284 0.167573 0 0 -0.4 -0.705751 0.33791 -0.622682 0.498736
52.0535 3.6 91.836 -0.188491 0 0 -3.5 -0.681079 0.429711 -0.592857 0.366568
59.783 4.567 87.0435 -0.151191 0 -0.004618 1.06251 -0.0841671 0.541234 -0.836649 -0.662883
72.186 6.8865 90.7635 0.139026 0 0 2.98891 0.297144 0.864919 0.404501 -0.999881
62.3195 3.0535 75.5355 -0.0035053 0 0 -3.5 0.0103655 0.274194 -0.961618 0.698039
67.648 -15.0025 80.348 0.246943 0 0 -3.9 0.178354 -0.93527 0.305712 0.481018
57.147 5.855 87.382 0.235809 0 0.29085 -0.8 -0.538703 0.421289 -0.729599 0.999875
55.099 -6.722 85.688 0.163863 0 0 -1.3 -0.949544 0.00738673 -0.313547 0.693957
64.7785 2.755 102.824 -0.127595 0 0 -0.4 0.944596 0.0762375 -0.31926 0.00434017
55.051 6.6875 97.3323 -0.235133 0 -0.00559823 -4.5 -0.315668 0.759671 -0.568554 -0.262067
58.1343 0.07175 81.7393 -0.0252081 0 0 2.8 -0.0976542 -0.225786 -0.96927 0.214786
52.798 4.0605 98.1565 -0.0244537 0 0 -0.836579 -0.676622 0.664715 -0.316761 0.158118
55.7822 1.9335 81.661 0.00484603 0 0 2.8 -0.358669 -0.237457 -0.902757 0.710393
66.0973 8.59275 87.8907 -0.175826 0 -0.229652 -1.3 -0.416422 0.524065 0.742932 0.677502
55.5415 5.9745 92.3658 0.0173761 0 0 -3.5 -0.221842 0.892727 -0.392206 -0.179352
53.849 6.5505 97.4925 -0.0481017 0 0 -4.5 -0.42915 0.529557 -0.73171 0.564233
64.4358 0.2555 80.004 0.213659 0 0.527535 -3.5 -0.897947 -0.439646 -0.0200728 -0.786837
53.212 6.82725 98.3125 0.0062123 0 0 -4.5 -0.737152 0.339333 -0.584346 0.638673
65.5058 2.1015 99.7337 -0.108206 0 0 2.89852 0.511743 0.415157 0.752173 -0.855999
66.79 -3.229 69.661 0.128963 0 0 -4.5 -0.650654 -0.212962 -0.728901 0.56704
60.7545 7.1355 88.981 -0.0049653 0 0 -0.7 -0.397733 0.914297 -0.0766113 0.623112
57.198 7.56025 99.6793 -0.171877 0 0 1.51816 0.19842 0.968936 0.147622 0.179169
67.949 7.02 77.374 0.039618 0 0.56991 -3.77411 -0.832157 0.549683 -0.0732264 0.0256134
63.7757 -2.94875 74.7435 -0.0757303 0 0 -0.4 -0.949808 -0.311671 0.0269314 -0.0967379
73.3637 -0.214 99.8402 -0.191599 0 0 -3.5 -0.586618 -0.0880035 0.805068 0.487648
63.683 -1.0265 77.0488 -0.46034 0 -0.067663 -0.4 -0.888866 -0.242663 0.388627 0.190087
73.2065 2.878 97.448 -0.0704597 0 0 -3.22638 -0.436763 0.767049 0.469973 -0.178836
53.0868 5.78425 98.6998 0.016742 0 0 -4.5 -0.884932 -0.0358698 -0.464336 -0.0875672
57.2245 -9.532 83.8745 -0.169949 0 -0.91301 -1.3 0.140265 -0.557858 -0.817997 0.999877
63.016 -13.26 84.986 0.233015 0 0 -0.4 -0.233593 0.205699 -0.950328 -0.834702
52.834 3.541 91.186 0.044035 0 0 -3.5 -0.347505 0.426437 -0.8351 0.632311
62.9398 1.4645 79.5595 -0.0098037 0 0 -3.5 -0.716532 -0.465975 0.519085 0.635508
53.99 -5.5455 89.1055 0.31844 0 0 -3.5 -0.497761 -0.57881 -0.645921 -0.882886
67.089 -11.281 77.176 0.305073 0 0 -3.9 -0.000120845 0.164264 -0.986416 -0.350042
52.6842 -8.03575 87.694 -0.205417 0 0 -0.7 0.00390861 0.829516 -0.558469 0.325864
64.0803 -9.7115 78.673 0.63013 0 0 2.8 -0.591669 0.042581 -0.805056 -0.23628
76.3035 -3.0265 100.307 -0.327645 0 -0.0369286 -0.8 0.213207 0.663656 0.71701 -0.676616
63.076 0.491 77.3285 -0.0862363 0 -0.0343835 -1.91462 -0.418648 -0.697265 0.581855 -0.560722
56.3573 -1.25775 85.663 0.0915907 0 0 2.8 -0.757431 -0.247252 -0.604288 -0.82649
54.691 0.405 85.941 0.00753403 0 0 2.8 -0.83511 -0.545353 -0.0719809 0.264831
69.6255 3.41675 94.891 -0.273633 0 0 3.8 0.105863 -0.284352 0.952857 -0.634199
74.934 -2.116 100.444 -0.43093 0 -0 -0.8 0.123315 0.567046 0.814403 0.105747
67.4795 0.45625 72.8662 -0.521 0 0 -4.5 -0.437861 0.896995 -0.0606465 -0.340268
56.1473 1.19975 88.58 0.25282 0 0 2.8 -0.804476 0.485126 0.34274 -0.999891
55.6613 8.87325 99.923 0.077631 0 0 -4.5 0.709035 0.415352 -0.56987 0.401074
61.4151 5.2185 86.8045 -0.0556423 0 0 -0.7 -0.212399 0.241745 -0.946808 -0.195661
56.376 -4.823 85.105 0.271702 0 -0.285311 -1.76101 -0.646496 -0.0723115 -0.759482 -0.999849
68.161 8.5075 93.3842 -0.546447 0 -0.776011 -3.5 0.332573 0.820572 0.46482 0.859043
72.509 -2.5125 102.478 -0.161739 0 0 -0.8 -0.00297052 0.816359 0.577537 0.999903
76.74 -1.9905 99.339 -0.207507 0 -0.343965 -1.60739 0.140787 0.241363 0.960168 -0.87139
71.2515 -10.7458 74.338 -0.0797187 0 0 -0.8 0.437916 -0.595434 -0.673564 0.885739
63.219 5.7865 97.6705 -0.129628 0 0.0253469 -0.163621 0.144209 0.981062 -0.129308 -0.73734
59.4165 -7.508 84.043 0.226601 0 0 -3.9 -0.500828 0.0442763 -0.864414 -0.340971
67.248 8.741 92.624 -0.567563 0 -0.276599 -3.5 -0.390225 0.912858 -0.120061 0.793363
57.1155 8.6565 95.381 -0.0379393 0 0 3.8 -0.316788 0.853998 0.412714 0.999884
54.3865 -6.4605 89.2572 0.206659 0 0 -3.5 -0.716057 0.0888136 -0.692368 -0.999882
55.7513 4.453 88.7035 0.0224854 0 0 -0.8 -0.964124 0.155146 -0.215395 0.52643
54.3865 -7.489 88.7742 0.149607 0 0 -1.00793 -0.711461 0.569248 -0.412043 -0.999893
66.619 -14.2335 82.908 0.302852 0 0 -3.87298 0.0945964 -0.945808 -0.310641 0.128691
76.273 3.595 96.604 -0.24935 0 -0 3.8 0.0685177 0.888171 0.454377 -0.618224
58.618 -5.32275 83.9453 0.44997 0 0.21082 -2.79487 -0.334732 -0.714951 -0.613839 -0.798433
62.14 5.4285 95.3195 -0.103862 0 0 -2.68485 0.390287 0.90889 -0.14695 -0.819533
57.925 6.807 92.1935 0.035164 1 0 3.8 -0.391683 0.607196 -0.691301 -0.764978
70.0235 5.2675 94.5107 -0.42007 0 -0.180218 0.30572 0.284304 0.708765 0.645619 -0.622792
59.807 -1.3755 80.439 -0.0444357 0 0 -0.4 -0.314156 0.692339 -0.649594 0.37276
67.438 9.72 88.917 -0.146151 0 0 2.8 -0.916818 0.313801 0.246927 0.544978
60.6445 -17.3325 86.0352 0.167837 0 0 -1.6 -0.167213 -0.149058 -0.974588 -0.549955
71.8652 -10.8973 75.1982 -0.107474 0 0 -0.8 0.734251 -0.479569 -0.480509 0.393413
55.5045 -7.521 83.7275 0.235192 0 0.460001 -1.3 -0.768925 0.191147 -0.610096 0.99991
55.1772 4.038 90.6265 0.194419 0 0 -3.5 -0.654005 -0.037147 -0.755578 -0.448043
58.2433 7.12575 100.696 -0.165186 0 -0.0212621 1.9 0.144358 0.954453 0.261114 0.267084
60.7718 -16.3398 85.7432 -0.00963607 0 0 -1.00802 -0.23095 -0.52754 -0.817535 -0.474613
58.415 1.143 81.472 -0.0135656 0 0 2.8 0.355078 0.160816 -0.920901 0.829891
60.0695 -13.6222 84.7913 -0.1785 0 0 -0.4 -0.221527 0.169217 -0.96036 0.10981
53.853 -5.01225 88.1615 0.230326 0 0 -3.5 -0.576515 -0.80291 -0.15155 -0.651852
53.4987 5.47575 91.2475 0.0866337 0 0 -3.5 -0.371389 0.445556 -0.814586 0.999874
59.9767 3.0335 76.917 0.147131 0 0.605818 -3.5 -0.923392 0.383822 0.00530052 0.999907
75 0.942 100.405 -0.323521 0 0 -3.5 -0.129228 -0.190445 0.973155 0.177888
60.7918 -8.80125 82.2322 0.227742 1 0 -3.9 -0.913502 -0.0652537 -0.401566 0.0614873
58.7433 9.49525 92.4057 -0.0193887 0 0 3.8 -0.295456 0.774446 -0.55941 0.795696
67.107 7.1155 90.6425 -0.228835 0 0 -3.44672 -0.596142 0.762544 -0.251281 -0.999825
61.9285 -10.777 79.3535 0.63212 0 0.71826 -3.9 -0.721281 0.0512985 -0.69074 0.999937
68.5788 1.9275 94.9693 -0.305367 0 0 2.95162 0.757859 0.259924 0.598406 -0.999905
62.9115 -16.19 76.7005 0.92119 0 0 -3.9 -0.91665 -0.0519328 -0.396303 0.529817
70.7982 -11.365 75.059 -0.086757 0 0 -0.8 0.00603255 -0.882932 -0.469462 0.43158
64.0482 -13.7172 80.132 0.403307 0 0.315382 -3.9 -0.452454 -0.569757 0.686049 -0.109696
73.8855 -2.7295 101.141 -0.264038 0 -0.293356 -0.8 0.166005 0.815941 0.553789 -0.225308
63.189 -16.4135 84.62 -0.0423157 0 0 -3.5 -0.223713 -0.403516 -0.887202 0.239953
68.7425 6.18625 97.8555 -0.12038 0 0 2.8 0.719531 0.636084 0.278696 0.999929
67.5717 10.6955 82.8268 0.0788693 0 0 -1.3 0.216063 0.92507 -0.31235 0.999877
64.1943 4.68025 79.5312 -0.0595823 0 0 -3.5 -0.0575836 0.968478 0.242353 0.748652
66.5928 5.95175 80.6837 -0.214995 0 -0.0628826 -1.80789 -0.875323 0.349181 -0.334488 -0.155147
55.8597 6.86875 93.9255 -0.0320051 0 0 3.8 -0.86561 0.49068 -0.0997586 0.0143085
52.7427 5.818 92.1773 0.153121 0 0.546989 -3.5 -0.702807 0.706828 -0.0803506 0.999913
69.2347 -8.7985 73.5208 0.0255789 0 -0.00359552 -0.8 -0.503918 -0.407412 -0.761631 0.15659
76.1975 1.636 101.336 -0.38624 0 0 -3.5 -0.441135 -0.187514 0.877632 0.771792
64.4045 -3.83125 77.66 -0.396773 0 0 -3.28834 -0.735778 0.669595 -0.101359 -0.999895
64.169 -3.5015 76.55 -0.334777 0 -0.0468384 -1.84333 -0.825943 0.45485 0.33306 -0.345975
59.8285 9.23025 92.1117 -0.0203686 0 0 3.8 0.305704 0.690508 -0.655548 0.676296
55.491 7.549 98.192 -0.0193329 0 0 -4.5 0.0176215 0.826971 -0.561968 0.225553
68.217 1.05275 73.8945 -0.106361 0 0 -4.2627 -0.76944 0.592274 -0.239111 -0.47572
77.456 -0.684 99.7375 -0.202816 0 0 -3.39016 -0.357937 -0.403914 0.841863 -0.851904
59.2565 6.592 87.8333 0.0537967 0 0 -0.8 0.108546 0.889396 -0.444064 0.562636
54.4507 0.88075 84.2383 -0.0410597 0 0 2.8 -0.736626 -0.636514 -0.228541 0.699117
61.1545 2.30125 78.312 -0.128564 0 0 -3.5 -0.534799 -0.313888 0.784515 0.679121
58.412 7.3645 98.6285 -0.430937 0 -0.0537101 1.9 0.307776 0.921394 -0.237291 0.999822
50.5075 -2.81 88.982 0.144127 0 0.514238 -0.7 -0.0935682 0.271137 -0.957982 -0.487658
72.1995 5.284 95.2937 -0.173434 0 0 3.8 -0.112222 0.702701 0.702579 0.999849
65.0615 9.4665 85.5202 0.007105 0 0 -1.3 -0.846581 0.529168 0.0572914 0.742903
63.6375 -4.91175 75.2279 -0.7526 0 -0.34987 -3.5 -0.929074 0.0687894 -0.363442 0.347345
60.3008 -0.48925 81.151 -0.372083 0 0 -0.4 -0.0180899 0.785597 -0.618475 0.603725
51.9535 -3.328 88.3402 0.134174 0 0.369755 -2.09967 -0.449114 0.169925 -0.877167 -0.0945253
58.8353 4.01275 86.6267 -0.164513 0 -0.52511 2.8 -0.128401 0.636225 -0.760743 -0.437928
53.042 -10.6853 86.7832 0.00714973 0 -0.39764 -0.557407 -0.56094 -0.31201 -0.766809 0.434793
62.9995 -2.16875 73.8873 -0.0104564 0 0 -0.4 -0.923335 -0.311928 -0.223951 0.99991
71.0458 5.28925 94.566 -0.217171 0 0 3.8 -0.147168 0.699225 0.69959 -0.294624
56.363 -3.83575 83.2715 0.104599 0 0 -0.4 -0.872768 -0.289261 -0.393196 0.999871
66.913 8.4245 93.591 -0.599757 0 -0.0188438 -3.5 -0.3405 0.813391 0.471652 0.803716
63.323 -13.666 76.483 0.174671 0 0 -3.9 -0.673038 0.423141 -0.606606 0.762046
52.0725 0.97025 88.7927 -0.00913287 0 0 -0.7 0.264927 0.647923 -0.71415 0.588219
50.4748 0.8105 92.2835 -0.00172296 0 0 -0.7 -0.665535 0.636835 0.389236 -0.292352
58.083 8.483 92.15 -0.00683327 0 0 3.8 -0.693505 0.353547 -0.627738 0.999825
51.96 4.604 93.286 -0.327102 0 -0.799028 -3.5 -0.677082 0.726023 0.120208 0.776383
58.2355 2.29575 82.1247 -7.5295e-05 0 0 2.8 0.551567 0.632758 -0.543499 0.904506
61.2533 -10.8118 84.655 0.134555 0 0 -2.48637 -0.486608 -0.476698 -0.732101 -0.612493
66.3197 10.5437 83.1868 0.0217179 0 0 -1.3 -0.530532 0.760747 -0.373899 0.999872
75.193 3.6345 98.4525 -0.3701 0 -0.446769 -3.5 -0.379752 0.905227 -0.190664 0.236722
54.3438 3.90175 95.874 -0.080621 0 0 -4.5 -0.928679 0.361897 -0.0811589 -0.650232
72.1793 4.12325 95.9465 -0.092581 0 0.0320155 3.8 -0.28693 0.468414 0.835619 0.282045
76.772 6.173 93.526 -0.298251 0 0 4.5 0.306242 0.655644 0.690179 -0.0603476
62.8315 -14.2952 78.5967 0.37959 0 0 -3.9 -0.967738 0.142241 0.207969 0.51302
59.0575 8.67825 91.6312 -0.00881663 0 0 3.8 -0.282643 0.391387 -0.875745 0.645558
58.088 -9.549 84.4995 -0.0844803 0 -0.0520859 -1.3 0.227977 -0.443402 -0.866845 -0.290299
67.6777 8.18675 91.03 -0.248552 0 -0.264508 -0.921179 -0.822181 0.544467 -0.166052 -0.044573
60.9432 -10.7533 82.5805 0.15602 0 0 -3.9 -0.809609 -0.58694 0.0058855 0.784407
56.813 -11.4913 85.597 0.0235346 0 0 -3.9 -0.342427 -0.0611663 -0.937551 -0.63532
73.5365 2.96375 98.6575 -0.176322 0 0 -3.5 -0.578662 0.760439 0.294759 0.99981
58.0495 2.806 83.125 -0.133344 0 0 2.8 0.588609 0.773809 -0.234007 0.465542
58.7615 9.849 94.809 -0.0390643 0 0 3.8 -0.206481 0.818123 0.536694 0.999903
61.2472 8.99225 94.1087 -0.0554543 0 0 3.8 0.882083 0.380795 0.277353 0.999909
51.2837 3.7415 92.8895 -0.446313 0 -0.0969029 -3.5 -0.889365 0.419334 -0.182177 0.761772
63.8317 -6.55775 75.9798 -0.359463 0 -0.00640915 -3.5 -0.58825 -0.759328 -0.278177 0.795481
67.9252 -7.238 73.4143 -0.0711543 0 -0.278729 -1.02697 -0.353332 -0.748245 -0.561503 -0.292398
61.9033 -5.5545 78.043 -0.47622 0 -0.0526815 2.8 -0.552061 -0.25193 -0.794834 0.279327
67.1732 -5.45775 71.2565 0.0786927 0 0 -4.5 -0.455695 -0.794282 -0.401817 0.572984
72.46 5.86625 94.0735 -0.153121 0 0 3.8 0.171931 0.787708 0.59157 -0.157631
63.1985 -15.3425 84.0488 0.081315 0 0 -3.5 0.0246145 -0.19623 -0.980249 0.740934
53.7925 1.825 85.1565 0.0481413 0 0 2.8 -0.96158 -0.231182 0.148053 0.842233
76.9925 0.0435 100.487 -0.61705 0 -0.464969 -3.5 -0.179894 -0.615594 0.767257 0.0744804
59.807 7.13575 102.747 0.00692937 0 0 1.81184 -0.210875 0.902337 -0.375926 0.239906
62.669 -5.4985 77.3083 -0.320271 0 -0.375954 -2.38754 -0.827256 -0.106175 -0.551702 0.289346
67.9525 -4.9995 70.038 0.0249962 0 0 -4.5 -0.020688 -0.774513 -0.632219 0.856349
65.3402 9.68425 84.3 -0.0678143 0 0 -1.3 -0.854972 0.445012 -0.266434 0.535534
49.8882 0.938 88.9695 0.00980793 0 0 -0.7 -0.635577 0.336565 -0.694813 0.999932
61.1775 -13.8975 84.2865 -0.252628 0 0 -0.4 -0.228328 0.12777 -0.965164 0.776794
65.381 0.97575 75.685 -0.148148 0 0 -0.545409 0.0540322 0.656282 -0.752578 -0.856305
61.027 -1.734 79.056 -0.0263498 0 0 -0.4 0.164187 0.643225 -0.747866 0.999915
63.4685 3.56037 84.8671 -0.226521 0 0.562275 -0.67906 -0.541356 0.653316 -0.529256 0.0715908
60.526 -7.228 82.371 0.248729 0 0 -3.9 -0.761458 -0.0457179 -0.6466 0.21099
60.9002 7.3785 92.5628 0.0364847 0 0 3.8 0.883049 0.25815 -0.391896 -0.679325
68.7634 3.963 98.2542 -0.147606 0 0 2.8 0.970357 -0.036399 0.238918 0.691732
62.6995 4.6385 93.428 0.0751063 1 0 3.41217 0.39983 0.876859 -0.266934 -0.887695
65.2087 -7.09975 75.8063 -0.120402 0 0 -3.5 -0.454765 -0.80627 -0.378308 0.137272
67.5366 6.69125 97.4591 -0.137262 0 0 2.8 0.298963 0.938592 0.17224 0.539796
63.9173 3.792 80.412 -0.0441343 0 0 -3.5 -0.466566 0.496144 0.732228 0.379079
63.4552 -13.1637 78.3424 0.62923 0 0 -3.9 -0.891867 0.417803 -0.173245 -0.313978
63.6776 0.046125 74.6331 -0.16681 0 -0.491654 -0.4 -0.74745 0.393798 -0.535016 0.221823
68.1699 6.252 95.3149 -0.520357 0 -0.137716 1.14296 0.626591 0.759828 0.173336 -0.179092
65.5064 6.24563 94.4845 -0.184152 0 0 2.8 -0.548274 0.821563 -0.156298 -0.610365
73.2094 -1.834 99.9161 -0.233877 0 0 -2.3746 -0.183855 0.71119 0.678532 -0.286119
65.1442 2.85525 104.044 -0.0899307 0 0 -0.4 0.993654 0.078027 -0.0810141 0.580713
53.7686 7.911 98.8946 0.213761 0 0 -4.5 -0.307808 0.542305 -0.781767 -0.037844
64.717 -7.11875 76.9857 -0.221582 0 0 -3.5 -0.5767 -0.716694 -0.39213 -0.398439
55.0877 -2.68038 86.0114 0.110069 0 0 -3.5 -0.320943 0.569288 -0.756906 -0.455661
61.3983 -6.4005 80.4047 -0.0316538 0 0 2.8 -0.808027 -0.553078 -0.202971 -0.200078
68.1052 8.5265 79.3419 0.065363 0 0 -1.3 -0.821634 0.345687 -0.45323 -0.676696
56.5143 -2.58175 83.539 0.108653 0 0 -0.4 -0.929804 0.199671 -0.309185 0.538942
65.4806 -3.78938 72.522 0.231064 0 0.103601 -0.4 -0.715146 -0.38757 -0.581684 -0.0481711
65.143 5.9535 99.2803 0.000238944 0 0 1.9 0.615565 0.786389 -0.0516904 0.503422
67.9352 8.942 90.2955 -0.181418 0 0 2.8 -0.925903 0.226876 0.302043 -0.106263
54.0901 -5.32025 85.829 -0.34787 0 -0.388076 -3.5 -0.666288 -0.483517 -0.567689 0.99988
54.3583 7.44019 98.1637 0.0331937 0 0 -4.5 -0.191154 0.696092 -0.692038 0.541272
64.7024 0.6905 82.5943 0.0969947 0 0 -2.99161 -0.895276 0.318994 -0.311005 -0.900191
65.8643 4.04938 77.865 0.176229 0 0.0389273 -3.57013 -0.0591559 0.994181 0.0900218 -0.99988
69.173 -2.64538 101.911 -0.367533 0 -0.0111281 2.8 0.501922 0.615432 0.607716 -0.0796548
63.051 2.629 80.0717 -0.00418183 0 0 -3.5 -0.642387 0.0603081 0.764004 0.709126
59.2176 6.45175 98.1038 -0.194776 0 -0.0120676 1.76284 0.396385 0.909299 -0.126709 -0.558004
53.9165 -2.98563 86.2179 -0.084971 0 -0.203655 -3.5 -0.417163 0.443379 -0.793341 0.452069
65.5214 4.178 82.0748 -0.310449 0 -0.46111 -2.24862 -0.800753 0.578139 -0.156684 -0.742336
60.8116 1.17537 76.1008 0.104902 0 0 -3.5 -0.569288 -0.731826 -0.374623 0.999885
56.325 7.182 97.409 -0.0720073 0 0 -4.5 -0.190484 0.955333 -0.225953 -0.0569497
61.3814 6.17438 95.6475 -0.126483 0 0 -2.18288 0.546082 0.837669 -0.0102088 -0.131221
53.3488 -2.08125 87.0738 0.127794 0 0 -3.5 -0.608648 0.399029 -0.685801 0.546825
73.3875 5.185 95.156 -0.258575 0 -0.344306 3.8 -0.118186 0.760569 0.638409 -0.038048
49.9508 1.02094 91.0762 -0.026579 0 0 -0.7 -0.733199 0.608646 0.303266 0.4716
55.7074 0.66375 89.364 0.050255 0 0 1.58884 -0.567255 0.786151 -0.245335 -0.999903
63.0964 2.35188 75.7842 0.085994 0 0 -3.5 0.17269 0.144278 -0.974352 -0.272524
71.997 -0.4215 98.5202 -0.415053 0 -0.867706 -1.6 -0.492291 0.414501 0.7654 -0.309774
62.7262 6.76975 100.049 0.0691043 0 0 1.9 -0.291472 0.95543 0.0468859 0.785001
59.2692 5.52462 87.1924 -0.04001 0 0 -0.8 0.0185194 0.366159 -0.930368 0.366721
67.6783 6.9495 78.4925 -0.437813 0 0 -1.3 -0.897313 0.310324 -0.313891 0.0932917
64.7565 4.44012 78.5806 0.00599533 0 0 -3.5 0.212954 0.973513 -0.0832078 -0.198028
59.5054 3.81875 85.8829 -0.44113 0 -0.0666704 2.8 -0.118 0.781461 -0.612694 0.796067
55.2579 -5.68075 85.5117 0.099678 0 -0.787514 -3.22575 -0.684619 -0.114027 -0.719926 -0.121836
52.334 3.227 97.2055 -0.040001 0 0 -0.7 -0.555994 0.760868 -0.33459 -0.032
51.9875 -1.0725 88.8125 -0.0115495 0 0 -0.906687 -0.315478 0.0699455 -0.946352 -0.293764
62.0896 7.31112 102.651 -0.01662 0 0 1.8 0.194206 0.755708 -0.625451 0.442826
57.8467 2.829 84.3877 -0.205759 0 -0.150472 2.8 0.369313 0.926624 -0.0705433 -0.305031
71.0058 -1.959 99.0652 -0.390327 0 0 -0.866312 -0.166392 0.682499 0.711694 -0.574698
66.9222 9.694 82.0153 0.0191108 0 0 -1.3 -0.412895 0.727914 -0.547411 0.225746
49.679 -3.676 88.51 0.134163 0 0.220461 -0.7 0.0769128 0.497414 -0.864097 0.276602
74.896 2.13512 100.371 -0.43576 0 0 -3.5 -0.466298 0.141077 0.873306 0.217248
71.6466 -9.7865 74.2262 -0.0754613 0 0 -0.8 0.689996 -0.302058 -0.657774 0.478564
55.9245 3.50362 87.4555 0.0567623 0 0 -0.8 -0.95392 0.270173 -0.130552 0.153457
69.9974 -3.21388 101.84 -0.07603 0 0.199083 -0.8 0.196985 0.834687 0.514289 -0.524914
63.9642 -16.73 79.1598 0.7417 0 0.248927 -3.9 -0.307075 -0.488857 0.816532 0.793392
64.6136 5.19075 92.3844 -0.0304874 1 0 -3.5 -0.702517 0.703516 0.107403 -0.666066
51.795 -8.67875 87.091 -0.265902 0 -0.256881 -0.7 -0.354018 0.300013 -0.885812 0.711773
70.0914 -2.469 100.66 -0.212209 0 0 1.07163 0.533032 0.772104 0.346023 -0.0879031
69.8969 1.92925 94.6196 -0.210219 0 0 2.56182 -0.0419824 0.0722762 0.996501 -0.999873
64.2385 6.1665 102.942 -0.245271 0 0 1.8169 0.726362 0.561554 -0.396302 0.356643
53.3195 -7.599 89.149 0.182953 0 0 -0.7 -0.164413 0.761365 -0.627129 -0.846469
70.7992 8.15275 90.9707 -0.068716 0 0 2.8 0.639705 0.509599 0.575401 -0.305174
66.4155 5.94037 98.5296 -0.191956 0 0 2.8 -0.0013693 0.73827 0.674504 0.447759
69.4946 -11.021 74.59 -0.0484733 0 0 -0.8 -0.461732 -0.799708 -0.383758 0.70732
66.0346 3.18563 99.3255 -0.192022 0 0 2.8 0.334144 0.115474 0.935422 -0.547925
67.9766 9.34275 79.9535 0.079391 0 -0.478503 -1.04839 -0.833988 0.415453 -0.363128 0.0799723
51.6596 0.69275 95.795 0.0339437 0 0 0.604595 -0.699958 0.670962 -0.244681 -0.999873
68.53 11.8097 89.3177 0.0258086 0 0 2.8 -0.281358 0.912375 0.297337 0.999925
63.2311 -8.59463 79.5499 0.3352 0 0 2.8 -0.625867 -0.111961 -0.771852 -0.651467
53.3871 4.8815 98.153 -0.0166305 0 0 -4.5 -0.856823 0.237061 -0.457882 -0.294103
66.4095 -14.4876 80.9186 0.639803 0 0 -3.9 -0.25531 -0.858718 0.44432 0.0892417
67.2771 5.647 79.5504 -0.173584 0 -0.380287 -3.11539 -0.86277 0.278372 -0.422062 -0.908714
71.4726 -7.3725 73.3885 -0.153802 0 0 -0.8 0.43705 -0.377692 -0.816294 -0.539547
64.6215 -0.31625 78.7258 0.198077 0 0 -3.5 -0.949441 -0.183796 0.254522 -0.999847
72.5049 -2.35625 100.992 -0.203695 0 0 -0.8 0.0154263 0.961798 0.273325 0.167796
59.9702 -8.742 83.8924 0.13998 0 0 -3.9 -0.614795 -0.387813 -0.686752 -0.271797
77.0953 4.38525 95.481 -0.215069 0 -0.0372855 3.41147 0.182149 0.749971 0.635897 -0.463216
70.6152 2.90013 95.0339 -0.180518 0 0 3.8 -0.559247 -0.00967598 0.828945 -0.465537
59.4305 6.67925 100.471 -0.0945033 0 -0.101715 1.9 0.403196 0.912742 0.0658405 -0.299499
68.1923 3.78725 99.255 -0.0989557 0 0 2.8 0.620669 0.0284386 0.783557 0.872124
69.8616 11.5183 88.9911 0.00868543 0 0 2.8 0.397953 0.908752 0.125712 0.755628
54.1795 -1.25025 87.0912 0.147141 0 0 -3.5 -0.649954 0.326399 -0.686311 0.0375837
64.1445 -2.0655 80.3207 -0.18209 0 0 -3.5 -0.687006 0.601235 -0.408092 -0.549147
62.1379 -8.395 80.2665 0.214366 0 0 -2.64228 -0.686522 0.0202686 -0.726827 -0.0815906
66.3075 7.90325 92.7105 -0.612013 0 -0.447219 -3.5 -0.857772 0.51403 7.56248e-05 0.999866
64.0512 -15.7867 75.6898 0.597687 0 0.265836 -3.9 -0.130735 0.108338 -0.98548 0.616466
60.5275 -15.1263 84.449 -0.31878 0 0 -0.4 -0.324926 -0.420632 -0.847049 0.859661
64.7097 3.74425 100.656 -0.381657 0 0 1.9 0.911247 -0.173609 0.373481 -0.685549
58.7626 7.06862 91.687 0.0369633 0 0 3.8 -0.503651 0.379717 -0.775984 -0.324849
66.2495 5.412 81.9941 -0.23034 0 -0.0585273 -2.37408 -0.93922 0.260225 -0.223938 -0.656868
55.5573 -6.92338 84.7292 0.229384 0 0.572443 -1.3 -0.864339 0.257471 -0.432003 0.0300322
51.5165 1.8605 96.6726 -0.0307504 0 0 -0.7 -0.654723 0.410339 -0.634791 -0.137483
66.9401 -15.5109 79.3389 0.130475 0 0 -3.9 0.475462 -0.800855 0.364099 0.345043
65.348 4.119 99.906 -0.145555 0 0 1.96821 0.769574 -0.109662 0.62907 -0.343458
60.2111 -6.2345 82.5953 0.326176 0 0.0366095 -1.2311 -0.772218 -0.263755 -0.578025 -0.123124
74.065 6.281 92.8444 -0.134875 0 0 4.36319 -0.26915 0.858455 0.436592 -0.394319
68.5555 3.368 96.543 -0.279009 0 0 2.8 0.969183 -0.190205 0.156546 -0.173644
57.6049 -15.026 85.1568 0.104784 0 0 -3.9 0.276888 -0.292737 -0.915226 0.170057
64.7312 -0.945 80.1784 -0.0035552 1 0.376012 -3.5 -0.9676 0.124496 -0.219661 -0.82621
63.9989 1.33625 83.7534 0.0728707 0 0 -0.8 -0.554985 0.188012 -0.810336 -0.878797
56.2438 7.92525 94.675 -0.0325194 0 0 3.8 -0.801967 0.588337 0.103486 0.851767
63.002 -11.9187 84.777 0.277761 0 0 -2.45377 -0.309465 -0.631846 -0.710635 -0.999869
64.7702 -2.88663 77.6506 -0.177321 0 0 -0.8 -0.994371 0.105952 -0.00114725 -0.733715
64.7598 2.51137 100.261 -0.255769 0 0 3.27164 0.808108 0.115073 0.577685 -0.999853
62.9715 5.79112 96.5426 -0.126118 0 0.0245925 -3.2 0.116372 0.977046 -0.178435 -0.146963
56.2415 7.89488 100.317 0.049325 0 0 -3.55019 0.715534 0.697128 0.0449914 0.0700326
75.6365 -3.51 102.33 -0.120917 0 0 -3.9 0.00615225 0.991794 0.127699 0.145327
63.1509 -5.596 76.0884 -0.692863 0 -0.590202 -3.5 -0.928805 -0.111668 -0.353342 0.569927
57.006 -5.004 83.804 0.228228 0 0 -0.4 -0.68755 -0.505195 -0.521587 0.0564376
63.4614 -0.93475 73.2425 0.0176099 0 0 -0.4 -0.77088 0.313644 -0.55441 0.907413
60.6849 4.195 86.5126 -0.109748 0 -0.0318383 0.960401 -0.109983 0.589208 -0.800461 -0.40333
57.8005 7.034 97.5372 -0.12495 0 -0.565587 1.9 0.242468 0.966182 0.0877607 -0.186902
51.8286 -9.87162 87.0831 -0.293729 0 -0.212992 -0.7 -0.566902 -0.372508 -0.734751 0.818291
59.2067 -12.9949 84.8355 -0.231688 0 0 -3.9 0.087075 -0.0834533 -0.9927 0.112947
65.2728 -14.302 83.5383 0.144766 0 0 -3.5 -0.306131 -0.644646 -0.700511 -0.510299
61.6035 6.945 93.4075 -0.00833477 0 0 3.8 0.949183 0.302838 -0.0856788 0.463768
78.0368 4.09613 97.9855 -0.196261 0 0 -3.87122 -0.448259 0.893524 0.0260517 -0.378769
59.937 -6.7365 83.5675 0.33597 1 0 -3.9 -0.781585 -0.269858 -0.562407 -0.802051
72.371 -11.6193 76.2774 -0.113945 0 0 -3.5 0.506228 -0.0444017 -0.861256 0.172449
76.4983 3.56337 97.7458 -0.358287 0 -0.399877 -3.5 -0.172471 0.974472 -0.143729 -0.69725
59.272 -11.6 84.9005 -0.212156 0 0 -3.9 0.174777 -0.00326186 -0.984603 0.14387
63.679 -13.0256 77.376 0.37473 0 0 -3.9 -0.793236 0.599921 -0.104261 0.570529
77.9284 4.03937 99.7923 -0.299221 0 -0.130304 -4.01686 -0.0435228 0.856185 0.514833 0.0209075
54.1759 5.74412 96.8926 -0.371333 0 -0.219153 -4.5 -0.736425 0.367974 -0.567691 0.122985
74.6745 7.3775 91.465 -0.243977 0 -0.608608 4.04225 -0.461181 0.808238 0.366146 -0.388324
66.1669 -10.6125 77.3662 0.262786 0 0 -0.66642 -0.232983 0.189553 -0.953828 -0.179848
72.6035 -1.19175 99.2266 -0.377587 0 -0.043909 -1.6 -0.459218 0.294623 0.838043 -0.384454
58.9067 7.22788 99.6425 -0.53069 0 -0.613678 1.9 0.453671 0.890876 0.02288 0.874287
64.896 6.04725 97.486 -0.203872 0 0 2.8 -0.194602 0.941024 0.276774 -0.238983
56.897 6.189 91.9323 -0.0224481 0 0 1.21161 -0.299385 0.722933 -0.622685 -0.358154
56.554 7.4625 98.6045 -0.0905593 0 -0.0684142 -4.05138 0.194268 0.944465 -0.265038 -0.109517
64.7542 6.60225 86.0371 -0.120806 0 0 -1.3 -0.839583 -0.00849416 -0.543165 -0.731822
67.0376 0.174625 71.3599 0.0459153 0 0.132871 -4.5 -0.663385 0.739517 0.114174 -0.0453999
52.9405 4.10213 94.392 -0.250124 0 -0.0716028 -3.5 -0.395213 0.577082 0.714691 0.105591
69.9303 6.2355 93.9055 -0.502313 0 -0.354637 -1.37201 0.17775 0.637886 0.749337 -0.0638971
69.0225 -9.89913 73.7565 0.00776363 0 0 -0.8 -0.523884 -0.344514 -0.779009 0.999889
55.5639 4.71275 89.926 0.0273093 0 0 -0.997198 -0.883235 0.22949 -0.408938 0.139523
54.7925 -6.857 86.994 0.134431 0 0 -1.3 -0.96816 0.0391713 -0.247249 -0.21518
67.8382 7.896 94.117 -0.72769 0 -0.686005 -3.5 0.319359 0.61204 0.723475 0.609302
64.1021 5.84725 96.5709 -0.150449 0 0 2.8 -0.317161 0.947683 0.0361217 -0.423225
66.6079 6.76088 89.5394 -0.107935 0 0 -3.5 -0.548246 0.77246 0.320517 -0.825122
62.7363 -14.3999 77.5417 0.42999 0 0 -3.9 -0.970392 0.207375 -0.123832 0.808486
63.804 6.93025 100.599 0.104447 0 0 1.9 0.0973542 0.993788 0.0539273 0.660217
68.6586 -13.2474 78.0714 0.419627 0 0 -3.9 0.292496 -0.617058 -0.730538 -0.310967
68.7605 -0.9855 99.757 -0.116245 0 0 2.8 0.530481 0.743261 0.407619 -0.0812404
78.0663 4.64825 94.909 -0.163234 0 0 0.956186 0.124387 0.888231 0.442238 -0.156823
72.7504 6.641 92.6289 -0.110887 0 0 3.8 0.345369 0.877479 0.332792 0.0533649
61.9808 6.964 87.2903 -0.0303569 0 0 -0.7 -0.179715 0.808312 -0.560656 0.99987
56.4378 5.0705 87.7659 0.0128909 0 0 -0.8 -0.677685 0.372754 -0.633876 0.39701
60.39 -5.203 81.423 0.339883 0 0 -0.4 -0.480637 -0.855802 -0.191287 -0.827837
66.8685 -7.093 73.501 0.0366463 0 0 -3.5 -0.428383 -0.69975 -0.571698 0.753105
53.3553 -4.68625 87.317 -0.0632013 0 -0.24659 -3.5 -0.814663 -0.5324 -0.229945 0.217317
75.6375 4.30575 99.7401 -0.635917 0 -0.0856764 -3.5 -0.44093 0.883588 0.157651 0.9999
58.225 -10.97 84.911 -0.136785 0 0 -2.74245 -0.100612 -0.129254 -0.986494 -0.150648
59.1558 2.10525 84.014 -0.154949 0 0 2.8 0.413909 0.757271 -0.505193 -0.0413849
64.5218 5.26088 102.469 -0.232104 0 -0.0790845 1.82728 0.938643 0.338601 -0.0655721 -0.11481
61.398 -0.774 81.6188 -0.355447 0 -0.0555593 -1.96281 0.307373 0.818341 -0.485634 0.0446022
53.8964 3.26075 85.1315 0.049966 0 0 2.8 -0.769778 0.573883 0.279464 0.999907
74.0026 0.446375 100.318 -0.196372 0 0 -3.5 -0.221645 -0.116284 0.968169 0.704717
64.9116 1.57575 102.782 -0.0214307 0 0 2.12934 0.909191 0.391684 -0.141265 -0.339412
70.1451 -10.5262 73.8163 -0.0390883 0 0 -0.8 0.12163 -0.508582 -0.852379 0.999851
55.9775 -0.390375 84.9376 -0.0823693 0 0 2.8 -0.741742 -0.585723 -0.326723 -0.317023
55.0841 -0.453 86.3689 0.0787347 0 0 2.8 -0.775386 -0.280903 -0.565571 -0.173922
67.3375 0.415125 74.0486 -0.35505 0 0 -4.5 -0.440609 0.873586 -0.206668 -0.80204
67.1045 0.669375 75.2085 -0.172795 0 -0.560227 -0.8 -0.357333 0.738581 -0.571675 -0.999866
62.2948 6.3095 98.321 -0.113857 0 0 1.9 0.0449919 0.981241 -0.187463 -0.0515328
67.4023 2.54612 99.3359 -0.116742 0 0 2.8 0.458547 -0.0768214 0.885344 0.331341
69.7165 9.806 91.6527 -0.0422313 0 0 2.8 0.16907 0.543244 0.822376 0.89491
61.2019 -3.43 78.794 -0.087147 0 0 -0.4 0.101817 0.126304 -0.986753 0.526942
58.713 -6.22487 84.5324 0.305029 1 0 -3.28319 -0.256218 -0.182332 -0.949267 -0.999888
69.281 -4.043 103.695 -0.0553063 0 0 -3.5 0.290919 0.92337 0.250506 -0.446638
61.865 -16.4455 85.432 -0.000848197 0 0 -1.25629 -0.420008 -0.335086 -0.843392 -0.581979
58.3548 6.57912 88.8589 0.0842903 0 -0.160485 -0.8 -0.0779661 0.980667 0.179479 0.652492
53.7848 2.43925 84.309 0.0609077 0 0 2.8 -0.957704 0.0541312 -0.282617 0.711972
55.2291 2.908 81.8073 0.081011 0 0 2.8 -0.409528 0.386529 -0.826367 0.999911
76.8951 4.05662 98.5798 -0.61335 0 0 -3.5 -0.0720847 0.961419 -0.265474 0.347329
58.5368 3.07063 85.4027 -0.368993 0 -0.739593 2.8 -0.110663 0.851008 -0.513361 -0.122345
58.638 9.89525 93.5661 -0.0280655 0 0 3.8 -0.580515 0.794174 -0.179692 0.999837
62.6835 6.7785 89.6107 0.00201838 0 0 -0.7 0.198351 0.912467 0.357856 0.495214
68.4681 9.958 90.812 -0.0624317 0 0 2.8 -0.586444 0.564359 0.581018 0.387862
52.2465 1.722 95.7028 -0.005162 0 -0.0127125 -0.9178 -0.897291 0.383658 -0.218347 -0.867355
67.7538 7.7565 89.9459 -0.174208 0 0 2.8 -0.886279 0.44518 0.127766 -0.999872
65.6608 -0.765625 103.647 -0.0949917 0 -0.334212 4.5 0.940197 0.263103 0.216347 -0.585491
52.347 4.58525 92.2085 -0.169425 0 -0.00889479 -3.5 -0.700616 0.494647 -0.514258 0.136031
58.9195 6.8965 101.842 0.0171436 0 0 1.9 -0.040999 0.994826 0.092956 0.171737
65.832 4.074 75.8205 0.308844 0 0.124154 -3.84508 -0.522835 -0.112915 -0.844923 0.141256
63.8695 1.0615 80.3936 0.0201591 0 0 -3.5 -0.858763 -0.346544 0.377404 0.226771
68.5801 -1.17387 101.736 -0.478167 0 -0.220242 2.8 0.485094 0.721652 0.493864 0.999853
52.5005 -4.27375 88.0795 0.12806 0 -0.351703 -3.13781 -0.478849 -0.527207 -0.701966 0.17324
51.5131 3.55275 93.9976 -0.394693 0 -0.274357 -3.5 -0.808936 0.313628 0.497252 0.689115
74.5494 -4.09387 103.282 -0.0599543 0 0.799145 -1.23834 -0.342023 0.674105 0.654678 0.22448
74.2329 -1.125 99.8863 -0.214193 0 0 -0.969882 -0.151904 0.0614944 0.98648 -0.221774
67.2675 -14.0743 83.7424 -0.134453 0 -0.276845 -3.5 0.372638 -0.874389 -0.310782 -0.545466
65.3171 6.23012 89.8326 0.0201122 0 0 -1.93498 -0.230171 0.957013 0.176487 -0.454629
69.2825 4.449 95.5745 -0.253622 0 0 -3.5 0.51347 -0.263148 0.816763 0.06251
63.9315 -3.08087 79.0829 -0.0456257 0 0 0.465533 -0.503817 0.689629 -0.520172 -0.40558
61.983 -11.4935 84.397 0.175568 0 0 -2.06256 -0.517824 -0.575774 -0.632726 -0.141967
60.1814 -11.0451 85.0671 0.090969 0 0 -2.8634 -0.0216626 -0.214914 -0.976393 -0.568136
54.3836 1.7355 86.245 0.0311916 0 0 2.8 -0.909003 0.000984408 0.416788 0.282662
67.3205 -0.394 100.029 -0.142125 0 -0.262242 2.8 0.561507 0.718429 0.410573 -0.692972
54.0662 3.4435 91.0127 0.146751 0 0 -3.5 -0.260767 0.159561 -0.952124 -0.246856
64.739 -13.0751 81.3336 0.971393 0 0.276536 -3.9 -0.549089 -0.732983 0.401544 -0.671123
55.2257 -13.7762 85.6609 0.195014 0 0.278885 -3.9 -0.603591 0.128359 -0.786893 0.334693
62.8865 -15.9729 78.441 0.581587 0 0 -3.9 -0.89565 -0.218606 0.387327 0.651365
71.8378 0.6165 97.8258 -0.142003 0 0 -3.5 -0.685841 0.508276 0.520843 0.0641795
60.765 3.248 77.96 -0.106071 0 -0.344258 -3.5 -0.82821 0.150285 0.539891 0.226663
54.0185 0.154 88.599 0.0171945 0 0 -0.0443092 -0.366954 0.722175 -0.586352 -0.247952
65.8583 7.0755 96.622 -0.0952507 0 0 2.8 -0.241653 0.921166 0.305054 0.66944
57.1245 -10.184 84.7186 -0.139468 0 -0.433977 -1.49803 -0.252349 -0.578055 -0.775998 0.0380989
60.7163 4.40125 77.8662 -0.466093 0 -0.864924 -3.5 -0.899935 0.26559 0.345803 0.999892
54.8068 -5.90125 88.2213 0.197064 0 0 -2.06031 -0.885037 -0.451643 -0.112813 -0.884088
56.4534 7.9095 93.4747 -0.0165635 0 0 3.8 -0.689135 0.638164 -0.343278 0.881008
50.4274 1.87312 90.0342 -0.0167479 0 0 -0.7 -0.455006 0.862113 -0.223003 0.719018
64.6212 -4.82613 73.6004 -0.475593 0 -0.10397 -3.5 -0.576106 -0.372566 -0.727528 0.57245
62.5465 6.4505 101.192 0.07703 0 0 1.9 -0.192375 0.980937 -0.0274803 -0.545299
70.433 -2.5035 99.6992 -0.158415 0 0 0.331097 0.177819 0.88593 0.428379 -0.999875
59.0272 6.72225 96.736 -0.0260606 0 0 3.8 0.359725 0.811125 0.461167 -0.737481
60.5949 -5.53575 79.948 -0.198414 0 -0.0190188 -0.105583 -0.696662 -0.717271 -0.0135918 -0.11305
62.8083 5.18025 78.1622 -0.271715 0 -0.897942 -3.5 0.234024 0.949594 0.208577 0.674851
73.5378 5.55538 94.1019 -0.141299 0 0 3.8 -0.0403353 0.914925 0.401603 -0.740637
57.6722 -13.8665 85.0065 0.0551327 0 0 -3.9 0.0676758 -0.112646 -0.991328 0.0792515
65.1472 -10.1634 77.9439 0.30892 0 0 -3.12272 -0.491937 0.117644 -0.862646 -0.236643
61.6334 6.30875 99.8451 -0.040533 0 0 1.9 -0.141307 0.988183 -0.0593929 -0.331967
71.0102 -4.6795 104.039 -0.147971 0 -0.521312 -2.07945 0.53572 0.651517 0.53715 0.192897
65.908 -16.575 78.4993 0.667987 0 0.131206 -3.9 0.453192 -0.65938 0.599862 0.33604
63.0274 7.11137 103.504 -0.0406837 0 -0.330411 1.8 0.495445 0.797389 -0.344537 -0.445301
75.9857 0.696875 100.614 -0.597457 0 0 -3.5 -0.32206 -0.36908 0.871813 -0.0824364
61.7118 5.447 77.734 -0.613387 0 -0.0334718 -3.5 -0.335463 0.939772 -0.065513 0.99991
66.4245 7.4005 95.735 -0.0663037 0 0 2.8 0.0716303 0.995261 0.0657565 0.99986
77.3945 1.15325 101.666 -0.81507 0 -0.0796762 -3.5 -0.0952784 -0.294452 0.950905 0.999876
65.2093 -14.16 80.357 0.48589 0 0 -3.9 -0.426502 -0.658713 0.619833 -0.20457
77.556 3.91 96.3484 -0.204444 0 0 -4.5 -0.324988 0.930495 0.169002 -0.464888
51.1119 0.51425 93.5736 0.0909767 0 0 1.57236 -0.673745 0.687068 0.272039 -0.93603
65.9575 -4.71775 72.838 0.149983 0 0.2271 -1.85419 -0.541573 -0.54757 -0.63786 -0.452433
58.0037 4.89888 87.0439 0.00277736 0 0 -0.8 -0.167489 0.375237 -0.911671 0.107932
68.9714 -0.196625 98.6817 0.121536 0 0 2.8 0.509848 0.705445 0.492343 0.29428
68.2288 1.94625 98.0488 -0.12166 0 0 2.8 0.921097 -0.0264976 0.388431 -0.0284898
56.6409 -13.0996 85.2436 0.113318 0 0 -3.9 -0.287456 0.170031 -0.942581 0.0951725
63.46 4.51575 92.0498 0.0221236 0 0 -1.06165 0.0370529 0.940152 0.338734 -0.99989
70.63 -6.4095 72.2483 -0.209762 0 0 -3.5 0.172247 -0.583563 -0.79359 -0.165181
52.372 -1.932 88.3925 0.106189 0 0 -3.5 -0.626091 0.213449 -0.749966 -0.19397
52.3824 5.53894 100.166 0.00475757 0 0 -4.5 -0.939718 -0.341745 -0.0118709 0.429103
74.8875 -3.41825 101.578 -0.244437 0 -0.694201 -0.8 0.236538 0.881627 0.408392 -0.56421
56.8815 2.91375 82.154 -0.0333447 0 0 2.8 0.264475 0.776382 -0.572088 0.659565
57.033 3.45 83.27 -0.106299 0 0 2.8 0.372055 0.922826 -0.0998408 0.856239
54.7057 -3.74575 85.305 -0.273402 0 0 -3.5 -0.420019 0.12126 -0.899378 0.537529
75.8156 7.46562 93.0909 -0.687913 0 -0.239332 4.5 0.0235639 0.570829 0.820731 0.478376
53.3382 0.9915 90.0654 -0.239268 0 0 -3.5 0.300639 0.717431 -0.628418 -0.902028
74.6182 3.04187 99.4929 -0.49487 0 0 -3.5 -0.608645 0.672884 0.420451 0.123842
59.751 6.543 99.216 -0.237014 0 0 1.9 0.336913 0.93597 -0.102221 -0.140409
56.4139 1.89688 89.28 0.211931 0 0 -0.8 -0.980969 0.120748 -0.152051 -0.999886
66.2913 0.060375 72.7339 -0.203236 0 0 -4.5 -0.250698 0.890102 -0.380618 0.0910676
52.1885 -7.787 88.87 -0.0171019 0 -0.000122585 -0.7 0.2089 0.776491 -0.594493 -0.942779
53.067 0.487 88.789 0.00582943 0 0 -0.7 0.0398295 0.462949 -0.88549 0.279726
53.747 3.3375 95.056 -0.0279129 0 0 -3.56816 -0.548591 0.751048 0.36739 -0.99989
64.5807 8.03275 85.949 0.070836 0 0.142122 -1.3 -0.931696 0.192186 -0.308232 0.318552
69.5149 -1.67163 99.424 -0.103467 0 0 2.8 0.658163 0.678211 0.326883 -0.673978
63.1734 -13.2874 79.626 0.471603 0 0.137318 -3.9 -0.970987 -0.23213 0.057453 0.230384
76.6513 4.326 99.9707 -0.735723 0 -0.793851 -3.5 0.0791781 0.923749 0.374725 0.715046
61.7834 4.376 78.9678 -0.609677 0 -0.0195768 -3.5 -0.415981 0.463022 0.782669 0.708343
72.7401 0.682625 99.0285 -0.156324 0 0 -3.5 -0.775827 0.19917 0.598685 0.116061
68.237 2.18 96.722 -0.236136 0 0 2.8 0.998879 -0.0189795 0.0433635 -0.586461
66.2166 -1.6575 102.729 -0.154806 0 0 1.8419 0.74184 0.416279 0.525723 -0.866155
69.6456 -12.5196 77.5943 0.240043 0 0 -3.67567 -0.110841 -0.624344 -0.773245 -0.437828
69.0884 7.23375 93.3831 -0.735397 0 -0.348972 -3.5 0.529866 0.627112 0.570939 -0.333508
55.4115 3.803 84.8035 -0.0249574 0 0 2.8 -0.0581942 0.996553 0.059127 0.796609
63.7817 -1.67975 81.2145 0.0450107 1 -0.36023 -3.5 -0.479021 0.553807 -0.681056 -0.972518
61.0565 -5.85825 78.6848 -0.41029 0 -0.392776 2.8 -0.653276 -0.58028 -0.486318 0.631512
70.6714 9.99837 90.4955 -0.0574797 0 0 2.8 0.711173 0.388414 0.585976 0.667553
65.5105 -11.4204 76.8874 0.177361 0 0 -3.9 -0.191733 0.416829 -0.888534 0.754831
65.9046 -15.2115 84.0965 0.0112443 0 0 -3.5 0.147805 -0.788467 -0.597055 0.414708
67.5033 -9.9605 76.9731 0.36203 0 -0.696057 -0.238124 -0.468547 -0.242182 -0.849595 -0.486911
56.5807 -8.15888 83.3867 0.261204 0 0 -1.3 0.0830963 0.0340893 -0.995958 0.725241
61.116 -4.49875 78.644 -0.318249 0 -0.220872 1.25599 -0.344808 0.108558 -0.932375 0.160897
64.2182 4.864 93.4624 -0.036886 0 0 -1.53022 -0.39411 0.839304 -0.374495 -0.999872
57.5369 6.0225 91.1059 0.00311614 0 0 -0.8 -0.302954 0.900164 -0.312926 -0.365112
67.7969 6.13237 98.4444 -0.073903 0 0 2.8 0.122861 0.6903 0.713015 0.999794
60.1356 1.72275 77.1796 0.0900667 0 0.192109 -3.5 -0.880959 -0.381532 0.279902 0.999895
63.1885 -15.0033 76.4515 0.517877 0 0 -3.9 -0.66927 0.135056 -0.730642 0.445223
52.2513 2.6905 91.1852 -0.0313764 0 0 -1.94006 -0.40034 0.489647 -0.77458 -0.111374
70.2674 6.86188 92.9354 -0.320456 0 0 3.8 0.209856 0.795333 0.568688 -0.436886
60.7179 9.53613 93.3141 -0.0417477 0 0 3.8 0.594169 0.794495 -0.125466 0.939956
64.1137 5.31325 86.5521 -0.115115 0 -0.0640965 -0.667836 -0.392025 0.258349 -0.882934 -0.914612
65.0404 -2.447 72.3932 0.0580423 0 0 -0.4 -0.674185 -0.110457 -0.730256 -0.0482393
65.2159 7.15163 84.4746 -0.163698 0 0 -1.3 -0.925087 -0.00387691 -0.379736 0.384893
63.2012 6.783 99.1513 0.0073859 0 0 1.9 0.117818 0.959101 -0.257379 0.840321
59.7783 10.0127 93.4334 -0.035048 0 0 3.8 0.201077 0.975837 -0.0855009 0.999873
51.8952 1.98775 89.9017 -0.0223849 0 0 -0.7 0.0156779 0.822779 -0.568145 0.398902
74.8945 7.38 92.513 -0.521527 0 -0.0880396 4.5 -0.556077 0.73359 0.390671 0.68131
66.9658 -14.2782 76.365 0.0943913 0 0 -3.9 0.577879 -0.0679552 -0.813288 0.999882
65.9291 5.3285 99.2086 -0.165029 0 0 2.19127 0.516824 0.604631 0.606065 -0.0939267
68.4975 2.99813 95.2907 -0.305537 0 0 2.89095 0.756352 -0.290331 0.586207 -0.74476
64.7755 5.75075 94.012 -0.0608817 0 0 -0.313882 -0.512714 0.805048 -0.298365 -0.0307294
63.1021 6.63875 102.066 -0.0432047 0 0 1.9 0.326203 0.927597 -0.182088 -0.0808545
66.0965 10.4052 86.367 0.0504153 0 0 -1.3 -0.39153 0.86931 0.301668 0.999851
59.5527 -9.70125 84.7205 0.127377 0 0 -1.3 -0.16184 -0.390451 -0.906287 -0.509679
50.9025 -9.236 88.1535 -0.129788 0 -0.64753 -0.7 -0.778705 -0.259489 -0.571213 0.450909
74.5245 5.39125 95.7732 -0.67358 0 -0.362764 3.8 -0.110194 0.825519 0.553512 0.865104
64.0055 0.3095 83.2702 0.144596 0 0 -0.8 -0.511982 0.688391 -0.513802 -0.999861
73.7128 -3.18175 102.195 -0.117345 0 0.0534671 -0.8 0.227583 0.790904 0.568046 0.136738
56.0095 7.29325 101.164 0.14689 0 0 -1.29076 0.78667 0.405033 0.465938 -0.591005
77.1687 2.2445 101.528 -0.75394 0 -0.527701 -3.5 -0.00174361 0.408576 0.912723 0.838449
53.375 -3.91825 86.2057 -0.37903 0 -0.872029 -3.5 -0.797572 0.0184811 -0.602941 0.670962
58.1753 -12.2515 84.6318 -0.339437 0 0 -3.9 -0.161031 0.0580252 -0.985242 0.819004
55.9777 -10.7754 85.648 0.082823 0 0 -1.37796 -0.341945 -0.183791 -0.921572 -0.25784
65.379 4.51925 79.6039 -0.193377 0 -0.549187 -3.5 -0.189309 0.980769 0.0474744 -0.17297
50.8901 0.86025 88.7016 -0.00606367 0 0 -0.7 -0.173996 0.230114 -0.957483 0.678129
69.7216 8.33212 91.8109 -0.150946 0 0 2.8 0.480267 0.487633 0.72908 -0.139581
51.0175 -7.5805 88.1546 0.0527253 0 -0.148089 -0.7 0.0300864 0.384512 -0.92263 0.222815
52.9511 -6.40413 89.8059 0.183934 0 0 -3.20816 -0.028184 0.0734966 -0.996897 -0.999877
65.866 0.27825 102.68 -0.0937367 0 0 4.5 0.866236 0.422711 0.266366 0.320824
67.5499 -13.4843 77.3586 0.315084 0 0 -3.9 0.710158 -0.292518 -0.640397 -0.0900347
55.707 -8.78388 83.9001 0.0342833 0 -0.113881 -1.3 -0.636936 -0.445965 -0.628831 0.728296
67.0882 4.40338 99.2124 -0.205067 0 0 2.8 0.176383 0.27569 0.944925 0.277516
60.8991 -1.38538 80.2279 -0.036703 1 0 -0.4 0.200964 0.836235 -0.510221 0.152859
69.0815 -1.279 100.775 -0.633683 0 -0.653787 2.8 0.665398 0.735305 0.128733 0.646174
63.2393 4.31375 79.4532 -0.073123 0 -0.309601 -3.5 -0.331125 0.664801 0.669624 0.217806
64.0936 -3.82119 73.8915 -0.17248 0 -0.690832 -3.43721 -0.847114 -0.19172 -0.495623 0.266518
67.3865 -14.9817 77.9717 0.217732 0 0 -3.9 0.833493 -0.463748 -0.300379 0.401555
64.6342 -15.4777 84.3434 0.0802833 0 0 -3.5 -0.071268 -0.522192 -0.849845 0.272297
75.2887 -0.00275 100.033 -0.275567 0 0 -3.5 -0.0656945 -0.328802 0.942111 -0.623246
62.6258 5.57863 91.2004 0.34046 0 0 -0.7 0.293374 0.838848 0.458548 -0.390069
57.763 6.10625 89.8451 -0.0621273 1 0 -0.8 -0.219012 0.961368 0.166749 -0.336017
64.7231 -8.17138 77.6941 0.0818983 0 0 2.8 -0.618101 -0.301905 -0.725813 0.117552
64.6065 2.06675 83.096 -0.0796137 0 0 -0.8 -0.877448 0.0133028 -0.479488 -0.608873
72.0979 -2.21125 99.8254 -0.303407 0 0 -0.968884 -0.285329 0.771694 0.568397 -0.625473
73.0543 6.74438 91.4865 0.00188266 0 0 1.9 -0.00756263 0.957425 0.288582 -0.390231
51.4955 -2.19325 88.9632 0.0320362 0 -0.503501 -1.35644 -0.293451 0.137461 -0.94604 -0.795077
64.2316 5.999 98.2941 -0.0645517 0 0 2.06728 0.223325 0.926324 -0.303396 -0.199629
64.8225 1.503 101.233 -0.152018 0 0 4.5 0.737381 0.603619 0.303172 -0.999818
54.7514 0.854625 90.1573 -0.328205 0 0 -3.5 -0.176071 0.787342 -0.59084 -0.654218
70.1823 0.402312 95.4644 -0.136472 0 0 0.502147 0.0887928 0.819 0.566882 -0.737301
67.6349 5.99219 77.6888 0.42681 0 0 -2.80107 -0.910688 0.396265 0.116708 -0.632663
59.5716 -3.6365 79.26 0.0738983 0 0 -0.4 -0.62038 -0.032461 -0.783629 0.802383
58.5136 -0.880625 81.7299 -0.144547 0 0 0.99464 -0.466933 0.373119 -0.80172 -0.113513
54.3204 2.63044 83.1363 0.01905 0 0 2.8 -0.828414 0.364942 -0.42491 0.598631
54.6911 3.52894 83.9779 0.00806843 0 0 2.8 -0.591746 0.766634 -0.249215 0.556841
65.5957 7.957 83.7535 -0.279899 0 0 -1.3 -0.918586 0.0124932 -0.395023 -0.641349
54.1881 -5.71675 86.9264 -0.046624 0 0 -1.93925 -0.744172 -0.666464 -0.0450948 0.188397
63.9242 4.5825 78.0227 -0.0276951 0 0 -3.5 0.152067 0.98825 -0.0154139 -0.161343
67.7664 -2.73187 102.728 -0.143172 0 -0.30282 0.592922 0.395142 0.580611 0.711867 -0.350391
68.4252 6.0145 96.5455 -0.193515 0 0 2.8 0.803314 0.590495 -0.0774782 0.203177
72.8026 7.45087 90.0159 0.207225 0 0.300192 2.36976 -0.0634237 0.845393 0.530366 -0.383134
57.428 -0.8445 82.4295 -0.0409513 0 0 0.59797 -0.678284 -0.136751 -0.721962 -0.103197
71.1574 -13.892 77.4359 -0.0783777 0 0 -3.5 -0.411831 -0.764068 -0.496584 0.515417
63.9548 0.653875 78.4439 -0.000806377 0 -0.20243 -2.80662 -0.673106 -0.676115 0.299661 -0.840926
69.2739 1.13275 95.0273 -0.351017 1 0 1.9751 0.226043 0.600389 0.767097 -0.783215
53.1157 8.80462 99.3307 0.13032 0 0 -4.5 -0.445208 0.403439 -0.799391 0.999851
62.3737 -1.80988 81.1288 0.222192 0 -0.0799323 -0.913955 0.23413 0.742079 -0.628094 -0.883181
64.8689 1.79681 81.7286 0.0450253 0 0 -2.26579 -0.981824 0.0497489 0.18316 -0.649741
71.528 3.24575 95.8008 0.0188331 0 0.0265058 3.8 -0.649421 0.21266 0.730087 -0.113363
56.1538 6.83581 92.8222 -0.0162933 0 0 3.8 -0.639142 0.588231 -0.495462 0.307919
63.9894 -0.24675 77.6624 -0.248183 0 -0.787392 -0.4 -0.80985 -0.244894 0.533076 -0.549573
56.8199 -1.41813 84.7084 0.0727517 0 0 2.34492 -0.978929 -0.0548491 -0.196698 -0.843504
54.2492 -13.8411 87.2558 0.166225 0 0 -3.9 -0.976524 0.188537 -0.104187 0.207272
71.5202 1.92375 96.2393 0.0559973 0 0.478296 3.8 -0.796478 0.131097 0.590285 0.314307
67.9882 -14.4241 78.9264 0.52782 0 0 -3.9 0.506152 -0.785161 -0.356837 -0.163199
53.5344 -9.46988 86.8746 -0.131469 0 -0.0796922 -0.42511 -0.263982 0.29254 -0.919094 -0.0620818
65.3649 5.13963 100.296 0.0181631 0 0 1.9 0.905897 0.0657075 0.418369 0.381027
63.3242 -12.3438 79.0128 1 0 0 -3.9 -0.796684 -4.93499e-05 -0.604396 -0.26597
54.0955 -8.04575 87.3731 0.0703777 0 0 -1.3 -0.506051 0.663639 -0.550904 -0.0725307
63.1704 -2.59 80.0831 0.102593 0 0 -0.4 -0.0428291 0.86028 -0.50802 -0.580274
53.0179 -0.780187 88.3844 0.0626003 0 0 -1.93792 -0.430264 0.378712 -0.819421 -0.0253373
56.854 -1.191 83.5882 -0.00354423 0 0 1.69763 -0.909398 -0.280688 -0.306937 -0.105862
72.9369 -4.45087 102.974 -0.130932 0 0.124906 -0.8 -0.0457981 0.330221 0.942792 -0.0613788
72.342 3.167 96.7985 0.0129546 0 0.425383 3.8 -0.50856 0.510794 0.69315 0.47939
52.4533 -4.91237 89.1694 0.329386 0 0 -2.36809 -0.0240228 -0.643416 -0.76514 -0.778358
54.9565 -13.5334 88.4563 0.234955 0 0 -0.4 -0.916671 -0.16101 0.365774 -0.588888
64.3962 2.32413 80.9 0.141244 0 0 -3.5 -0.732778 -0.0319421 0.679717 -0.477218
63.8086 6.71425 86.7277 -0.0371653 0 0 -0.803155 -0.592191 0.361321 -0.720248 0.0669938
62.9513 0.510938 75.4549 -0.133005 0 0.222774 -2.5368 -0.297869 0.163441 -0.940511 0.0805271
61.847 -11.209 83.297 0.214047 0 0 -3.9 -0.478659 -0.877999 -0.00169879 -0.0126719
65.6726 6.77112 83.4846 -0.251981 0 0 -1.3 -0.915252 0.0321637 -0.401596 -0.53503
64.443 4.5585 77.0977 0.0559923 0 0 -3.5 0.0789704 0.98629 -0.144898 0.283024
62.9347 0.441063 83.7554 0.0219009 0 0 -2.08649 -0.140051 0.551587 -0.822276 -0.821872
54.9894 -12.0203 85.8625 0.345517 0 0.530738 -3.9 -0.509476 -0.0158124 -0.860339 0.399287
65.746 4.71263 76.6118 0.348287 0 0 -3.59761 -0.540316 0.836975 0.0867832 0.190712
60.6636 6.17306 98.3476 -0.131383 0 0 -0.207075 0.0529947 0.998567 0.0075104 -0.699589
61.473 -12.7907 84.832 0.174641 0 0 -0.4 -0.0749635 0.226626 -0.971093 -0.0537645
55.3196 -8.36012 85.236 0.021853 0 -0.110414 -1.3 -0.97041 -0.0519337 -0.235814 0.168499
72.3884 1.67694 97.7305 -0.0213786 0 0 -3.5 -0.80139 0.375933 0.46524 -0.0232534
57.1361 1.99181 81.4991 0.050373 0 0 2.8 0.0608798 0.238286 -0.969285 0.568036
75.0691 4.42494 96.4648 -0.421707 0 -0.355226 3.8 0.0243263 0.630195 0.776056 0.346966
57.082 7.51837 96.3968 -0.066501 0 0 3.8 -0.389381 0.802975 0.451235 -0.0458973
61.388 -9.336 80.742 0.274708 0 0 -3.9 -0.868016 0.045881 -0.494412 0.558744
64.3395 0.0635 81.164 0.027601 0 0.0224057 -3.5 -0.95039 0.243276 -0.193845 -0.152339
60.5795 5.77087 87.2129 -0.0563223 0 0 -0.7 -0.237181 0.540195 -0.807425 0.163578
61.4533 6.00138 91.7888 0.466053 0 0.739433 0.035695 0.641028 0.758446 -0.117661 -0.644047
68.5062 11.4771 88.2082 0.0443537 0 0 2.8 -0.458867 0.873825 -0.160842 0.440543
76.2555 5.1845 95.111 -0.415533 0 -0.346579 4.18155 0.290447 0.748177 0.59655 0.346517
73.3909 4.06712 95.9561 -0.18274 0 -0.431345 3.8 -0.137824 0.661187 0.737453 -0.766643
60.9637 6.74 102.413 0.115711 0 0 1.84966 -0.0222359 0.809954 -0.586072 -0.583118
58.445 -2.0055 81.121 0.07721 0 0 -0.4 -0.736804 0.222558 -0.638426 0.262712
68.0856 10.8024 89.8057 -0.0295087 0 0 2.8 -0.776109 0.46358 0.427492 0.599305
61.9564 6.544 97.1403 -0.144478 0 0.817202 -3.2 0.260131 0.958182 -0.119248 0.999819
58.7583 -3.6195 80.5287 0.310179 0 0 -0.4 -0.79115 -0.115804 -0.600559 0.252848
67.0372 10.7572 84.0847 0.0693177 0 0 -1.3 -0.117675 0.993052 -0.000856981 0.468495
56.6495 -16.1891 85.3731 0.164361 0 0 -3.9 0.238924 -0.244931 -0.939641 -0.100967
56.0739 2.18756 88.1008 0.33605 0 0 2.8 -0.878278 0.175399 0.444818 -0.376074
56.6135 -14.818 84.7008 0.075421 0 0 -3.9 -0.0656941 -0.039599 -0.997054 0.999869
65.07 -0.41775 72.4505 0.00305354 0 0 -0.4 -0.362936 0.311873 -0.878073 0.863455
63.798 -10.8545 78.6815 1 0 0.0736744 -3.9 -0.569614 0.208284 -0.795083 -0.172357
54.4489 -10.7871 86.1448 0.142265 0 0 -0.4 -0.489574 -0.0101345 -0.871903 0.162245
64.0055 -2.30525 76.0505 0.00794847 0 0 -0.4 -0.916899 -0.265216 0.298257 -0.264716
66.5397 4.506 77.2367 0.884 0 0.0456931 -3.9 -0.607581 0.670995 0.424985 -0.999854
66.508 -4.6625 71.729 0.241814 0 0 -4.5 -0.780767 -0.556234 -0.284615 -0.223307
57.6761 8.8825 94.2096 -0.0221731 0 0 3.8 -0.570862 0.820455 0.0311495 0.127726
55.2179 2.75519 90.6554 0.168569 0 0 -3.5 -0.478122 0.0196966 -0.878072 -0.511312
63.9755 -2.38913 73.0099 0.0201637 0 0 -0.4 -0.6552 -0.29912 -0.693715 0.426558
64.8712 4.80475 85.3348 -0.138518 0 0 -1.24577 -0.689339 0.540449 -0.482417 -0.935133
55.2764 -1.61744 86.4469 0.187094 0 0 -2.77114 -0.454481 0.228703 -0.860896 -0.569233
67.2183 10.1838 87.0881 -0.0434563 0 0 -0.342491 -0.559288 0.754457 0.343498 -0.0629157
66.2226 -2.61669 104.104 -0.196372 0 -0.0220001 3.67362 0.823307 0.458481 0.334606 -0.376825
70.4821 10.9943 86.6147 0.36363 0 0.0596057 0.339881 -0.297708 0.779618 -0.550968 0.20784
65.6825 -15.833 84.8571 0.00830097 0 0 -3.5 0.404923 -0.613663 -0.677831 -0.0993413
64.43 3.751 101.899 -0.34093 0 0 0.55341 0.997911 -0.0560445 0.0321489 -0.438395
70.2278 -11.4655 76.446 -0.148713 0 -0.307317 -0.8 -0.382131 -0.8136 -0.438213 -0.844664
64.484 -14.2967 76.1314 0.43188 0 0 -3.9 -0.0767675 0.26691 -0.960659 0.35377
61.3936 -0.17125 83.1988 -0.169467 0 0 -2.54769 0.132792 0.808384 -0.573482 -0.775439
71.9938 6.79413 93.6488 -0.164346 0 0 3.8 0.178581 0.837409 0.516581 0.999878
57.462 8.04988 92.8242 -0.00468533 0 0 3.8 -0.571217 0.491668 -0.657247 0.0641837
51.0429 -4.50437 88.4085 0.547303 0 0.43715 -0.7 0.204439 -0.00635442 -0.978859 0.090388
64.5301 0.722375 75.0066 -0.231259 0 0 -0.4 -0.0762242 0.833299 -0.547543 0.0639135
67.7387 -3.638 103.685 0.0968 0 0 -2.74461 0.30885 0.804057 0.508039 -0.463317
64.2247 3.50912 75.8735 0.0977343 0 0 -3.5 -0.013275 0.348675 -0.93715 0.370693
62.6685 -11.5146 79.1982 1 0 0 -3.9 -0.659035 -0.280997 -0.697649 0.322106
65.983 -6.21075 73.7871 -0.00241778 0 0 -3.5 -0.548522 -0.562948 -0.618234 0.0402916
53.2631 -11.478 88.1521 0.0892123 0 0 -0.432654 -0.630541 -0.76595 -0.125454 -0.0871231
67.3791 6.81356 96.3652 -0.149856 0 0 2.8 0.448853 0.886753 0.110452 0.300539
62.3535 6.2515 86.6513 -0.050857 0 0 -0.7 -0.143016 0.407464 -0.901953 0.52941
54.649 2.803 86.1807 0.050539 0 0 2.8 -0.681487 0.440756 0.584218 0.442768
55.734 1.83594 90.3528 0.125284 0 0 -1.63502 -0.58409 0.226064 -0.779573 -0.999867
63.4689 -15.3444 79.4521 0.37402 0 0 -3.9 -0.444803 -0.318329 0.837148 0.509622
60.2155 9.03137 94.9149 -0.0519097 0 0 3.8 0.476425 0.578601 0.661997 0.574022
61.8722 -15.1628 84.419 -0.190761 0 0 -2.12543 -0.204974 -0.365849 -0.907822 0.152743
75.8013 3.22481 100.774 -0.69205 0 -0.123782 -3.5 -0.336536 0.468706 0.816736 0.860938
53.8797 4.01031 97.0751 -0.0644313 0 0 -4.5 -0.739468 0.539604 -0.402511 -0.745879
65.9684 10.5188 84.9672 0.0151421 0 0 -1.3 -0.449201 0.893351 -0.0118861 0.73654
49.7483 -5.34891 87.9938 0.0580637 0 0 -0.7 0.143922 -0.0947097 -0.985046 0.312638
70.5985 -8.88825 73.5274 -0.00793917 0 -0.0801407 -0.8 0.175897 -0.315975 -0.93232 0.0631408
60.6487 -12.337 85.2821 0.109883 0 0 -0.4 -0.13049 0.0248987 -0.991137 -0.999859
64.4775 -17.5274 78.5004 1 0 0.101099 -3.9 -0.000572326 -0.869501 0.493932 0.999878
66.0677 -15.2666 76.3334 0.32921 0 0 -3.9 0.46545 -0.168516 -0.868883 0.313266
55.4692 3.42525 86.2364 0.00878883 0 0 2.57725 -0.459753 0.831013 0.313121 0.219905
63.4173 -6.48875 77.8685 -0.150003 0 -0.529717 -3.11125 -0.605556 -0.691454 -0.393946 -0.385274
61.6942 5.95563 94.2909 -0.0161969 0 0 3.8 0.78027 0.616837 0.103402 -0.320717
60.1368 6.3705 96.9746 -0.110201 0 0 -3.2 0.183048 0.959758 0.212972 -0.321977
65.85 -7.78575 76.6789 0.0227743 0 0 -3.5 -0.470052 -0.692802 -0.546879 -0.314327
66.082 0.293375 74.5748 0.0364843 0 0 -0.4 0.0229405 0.958088 -0.285553 -0.848081
69.0807 5.94575 94.7562 -0.84899 0 -0.845043 -3.5 0.494093 0.666006 0.558846 -0.0501167
61.091 3.8985 76.4723 -0.137669 0 -0.311037 -3.5 -0.556428 0.546642 -0.625756 0.309337
56.8672 6.66181 101.421 0.057531 0 0 1.9 0.182245 0.901429 0.3927 -0.664576
51.0354 -5.87169 88.5557 0.0922077 0 0 -0.7 0.561435 0.0203102 -0.827271 0.303304
66.1695 9.01872 82.2138 -0.080739 0 0 -1.3 -0.871053 0.251246 -0.422069 0.369939
66.7248 6.97219 80.5607 -0.041112 0 0 -1.3 -0.920841 0.0112693 -0.389775 0.124716
55.1231 5.93775 93.5953 -0.033891 0 0 1.27705 -0.561813 0.815289 0.140249 -0.176683
51.501 -6.85138 89.2312 0.179545 0 0 -0.7 0.584478 0.118348 -0.802732 -0.877357
65.9856 5.10094 80.4698 -0.60247 0 -0.239426 -3.5 -0.730659 0.663668 -0.160256 0.109971
59.7116 -4.865 79.731 0.0712773 0 0 -0.4 -0.674837 -0.585151 -0.44966 0.402067
60.8731 7.53994 94.6619 -0.0457617 0 0 3.8 0.873823 0.222675 0.432261 -0.0846758
70.4236 -3.94313 102.9 0.0986967 0 0 -0.8 0.158439 0.830127 0.53459 -0.396991
55.226 8.23775 99.093 0.128438 0 0 -4.5 0.276471 0.723871 -0.632119 0.138102
68.4821 0.610125 98.0048 0.0151456 0 0 2.8 0.749363 0.454005 0.48201 -0.21343
63.895 2.87838 83.8245 0.203219 0 0.0597872 -0.8 -0.682915 0.298618 -0.666674 -0.0507278
63.8639 -7.31738 78.3453 0.0261111 1 0 2.8 -0.644451 -0.462956 -0.608568 -0.763944
67.0062 -14.1736 81.8817 1 0 0 -3.9 0.0239254 -0.965585 0.258984 -0.154942
66.4109 1.31237 99.8603 -0.104976 0 0 2.8 0.518093 0.419861 0.745182 -0.0250892
61.3861 -7.91431 81.3162 0.210077 0 0 -3.9 -0.858618 -0.0277014 -0.511867 -0.219188
68.3725 8.85538 91.9143 -0.241487 0 0 -0.2014 -0.30029 0.862213 0.40794 0.0805621
61.962 1.17231 75.4808 0.251862 0 0.151897 -3.5 -0.264312 -0.283834 -0.921725 0.366088
65.9768 6.75144 93.3689 -0.504363 0 0 -3.5 -0.781376 0.61852 0.0829705 -0.17949
63.1319 -4.43406 77.7538 -0.285155 0 -0.0380711 -3.28681 -0.587008 0.649979 -0.482649 -0.0211174
68.1852 -12.0932 77.0897 0.223355 0 0 -3.9 0.101848 -0.299295 -0.948709 0.0886424
60.8104 -10.0466 83.869 0.126859 0 0 -3.9 -0.821538 -0.528847 -0.213062 -0.128273
67.1663 -8.25944 76.4242 0.314569 0 0 -2.73855 -0.569037 -0.579238 -0.583678 -0.999792
64.3907 2.27569 101.736 -0.249488 0 0 3.05575 0.987368 0.158108 -0.0103029 -0.884779
65.9971 2.24825 76.3698 -0.150987 0 0 -0.965905 -0.029527 0.0817971 -0.996212 -0.999851
70.9865 4.526 95.312 -0.186568 0 0 3.8 -0.0943013 0.369117 0.924586 0.23423
69.0107 -7.3945 72.45 -0.410757 0 -0.0404692 -0.8 -0.320471 -0.546174 -0.773946 0.637323
63.0235 -17.0597 77.8257 1 0 0.151011 -3.9 -0.838853 -0.512112 0.18457 0.999867
52.749 4.18794 99.4867 -0.0195464 0 0 -4.5 -0.954433 0.183267 0.235522 0.133694
56.2776 -2.71494 85.4929 0.170476 0 0 -2.29052 -0.674211 0.376199 -0.635542 -0.825093
66.2442 7.1715 82.1 -0.15381 0 0 -1.3 -0.946804 -0.00981318 -0.321661 -0.516183
67.7988 -6.31225 72.4805 0.161652 0 -0.430332 -2.5473 -0.482059 -0.62449 -0.614517 -0.0623525
65.1825 9.10369 86.9554 0.0157814 0 0.0963755 -1.3 -0.619026 0.59742 0.5098 0.36305
67.2814 0.456187 99.2406 -0.047246 0 0 2.8 0.637586 0.379046 0.670677 -0.492691
70.2963 -7.66294 72.6598 -0.545877 0 -0.673117 -0.8 0.242673 -0.480907 -0.842519 0.633586
64.0599 -5.82 74.681 -0.423887 0 -0.0528081 -3.5 -0.645853 -0.477285 -0.59588 0.682795
50.6507 -0.879188 89.0821 -0.161498 0 0 -0.7 -0.294928 0.0775405 -0.952368 -0.0525095
58.5005 -8.37313 84.0856 0.0939903 0 -0.168474 -1.67789 0.118981 -0.14447 -0.98233 0.155961
65.4581 -13.7128 82.4856 0.619653 0 0 -3.9 -0.515613 -0.828144 -0.219818 0.0754214
58.7631 -5.06344 81.3428 0.37553 0 0.813714 -0.4 -0.511147 -0.7688 -0.384286 0.548565
64.8092 3.25019 81.7048 -0.105108 0 0 -3.5 -0.876329 0.430037 0.217062 -0.0770286
71.4286 10.018 89.2095 0.102169 0 0.307303 -0.973286 0.604132 0.490782 0.62782 -0.069633
61.7156 7.287 88.4289 -0.0170706 0 0 -0.7 -0.165644 0.975484 -0.144887 0.623429
64.4711 -16.615 84.8438 -0.129795 0 0 -3.5 0.259866 -0.314972 -0.912832 -0.165471
51.7614 1.44175 93.7809 -0.0169939 0 -0.392632 -0.33035 -0.79316 0.575304 0.199807 -0.299537
64.5163 6.68538 88.8356 -0.0352343 0 -0.104609 -0.936848 0.0290862 0.855395 0.517159 -0.498463
55.8881 5.55656 91.1374 0.0249906 0 0.407661 -3.12305 -0.340593 0.907671 -0.245213 -0.144198
59.4441 -5.46088 82.6965 0.34193 0 0.276528 -1.03323 -0.507195 -0.769486 -0.388128 -0.309608
51.7392 3.19744 98.9666 0.00825597 0 0 -0.7 -0.352097 0.918051 0.182237 0.0306077
66.5113 7.40275 91.7555 -0.627043 0 -0.117319 -3.5 -0.652263 0.69045 -0.312782 0.0506122
65.0336 1.60238 104.041 0.170121 0 0.0303814 4.5 0.988087 0.133825 0.075997 -0.13328
66.4866 -16.4135 77.5439 0.44694 0 0.823995 -3.9 0.810292 -0.551091 -0.199311 0.539297
57.8513 -4.88987 82.8925 0.297354 0 0.0529522 -0.4 -0.481401 -0.799542 -0.359145 0.23254
60.3363 7.12406 95.7046 -0.062956 0 0 3.8 0.57302 0.582516 0.576475 0.0551431
63.6738 -4.14819 75.9137 -0.527277 0 -0.384305 -3.5 -0.967137 0.24747 -0.0583487 0.150565
61.6181 -10.7548 80.3211 0.788767 0 0.784223 -3.9 -0.880043 -0.161076 -0.446743 0.340146
57.7197 6.64419 87.7014 0.297678 0 0.798121 -0.8 -0.213761 0.860047 -0.463276 0.999888
64.8115 4.745 103.388 -0.361857 0 -0.618763 1.47107 0.970167 0.061579 -0.234485 0.113366
62.7638 -9.826 79.4108 1 0 0.0802711 -3.9 -0.521545 0.261582 -0.812136 0.0785354
54.6524 5.26281 91.0676 0.141482 0 0 -3.5 -0.258798 0.594854 -0.761033 0.191166
57.9805 -16.593 85.9175 0.115682 0 0 -3.03408 0.177897 -0.265669 -0.947509 -0.513814
66.4857 8.644 80.9017 0.0300592 0 0 -1.3 -0.805272 0.398541 -0.438979 0.788273
60.0729 -8.08062 83.1041 0.181511 0 0 -3.9 -0.855587 -0.189142 -0.481867 0.442073
60.0135 6.5095 88.4852 -0.0394417 0 -0.0936675 -0.710049 -0.199452 0.96555 -0.167129 -0.208419
55.3993 3.57506 82.8136 0.081712 0 0 2.8 -0.216089 0.908968 -0.356486 0.787082
71.2988 -2.72109 101.537 -0.20338 0 0 -0.8 -0.190552 0.899182 0.393905 0.0961823
59.932 -2.31469 79.2191 0.0419867 0 0 -0.4 -0.436287 0.489398 -0.755078 0.666618
62.7275 -12.5855 80.7645 1 0 0.258116 -3.9 -0.685725 -0.703752 0.185781 0.494727
62.3344 -6.83712 79.1659 -0.18804 0 -0.652629 2.8 -0.598037 -0.549848 -0.583111 -0.0661644
67.0441 -0.719625 101.522 -0.257375 0 0 2.8 0.523505 0.666322 0.530996 -0.0550604
54.6283 1.38969 82.8229 -0.0311068 0 0 2.8 -0.729838 -0.45348 -0.511558 0.708308
61.4714 -11.0452 81.4447 0.366767 0 0.0167804 -3.9 -0.792801 -0.60018 -0.10607 0.30798
62.1262 3.2005 79.0993 -0.00469757 0 0 -3.5 -0.64285 -0.0851314 0.761247 0.0865115
64.8564 6.08437 101.015 0.0371637 0 0 1.9 0.796306 0.561298 0.225479 0.652321
63.1934 7.13956 88.0741 -0.0191156 0 0 -0.7 -0.0791017 0.992932 -0.0884766 0.0915409
68.6188 2.90987 98.2011 -0.0668853 0 0 2.8 0.937506 -0.276913 0.210717 0.999767
62.4563 1.54087 78.4356 0.047288 0 0 -3.5 -0.484396 -0.654544 0.58046 -0.143277
57.087 0.01 82.027 -0.00914207 0 0 2.8 -0.449592 -0.460079 -0.765634 0.442283
58.8259 6.11331 90.5999 0.050208 0 0 3.8 -0.202272 0.970135 -0.133883 -0.556604
64.6424 0.38125 73.3688 0.0191915 0 0 -0.4 -0.398574 0.823924 -0.40285 0.774051
64.551 3.59225 83.0786 -0.232937 0 -0.958116 -0.8 -0.890935 0.309884 -0.331974 0.329621
61.2803 1.28556 84.1016 -0.072918 0 0 -0.4 0.0204703 0.445529 -0.895033 -0.407956
62.7066 4.4525 76.3668 -0.0561043 0 0 -3.5 0.114852 0.737937 -0.665025 0.488867
65.8627 6.93025 88.68 -0.190248 0 -0.0944962 -1.38569 -0.316051 0.663487 0.678157 -0.73344
65.7605 -2.8555 71.0209 0.075372 0 0 -4.5 -0.862707 -0.0838961 -0.498697 0.462739
64.2178 7.94244 87.5644 0.191675 0 0.725844 -1.3 -0.591101 0.74862 0.300281 0.384777
65.6154 -15.1198 79.7129 0.348547 0 0 -3.9 -0.124476 -0.687316 0.715613 -0.156676
60.4591 2.40963 75.6975 0.114769 0 0.140027 -3.5 -0.681962 0.00392447 -0.731377 0.999906
69.632 10.7692 90.4825 -0.057072 0 0 2.8 0.160061 0.775753 0.6104 0.499642
66.856 7.31262 94.6666 -0.38467 0 -0.0515542 -0.227388 -0.307472 0.892489 0.330037 0.0525875
61.0779 8.45494 92.6749 -0.0270304 0 0 3.8 0.913912 0.242561 -0.325466 0.457425
54.0393 6.24956 92.4512 0.347837 0 0.430877 -3.5 -0.0990667 0.990939 -0.0906906 0.838136
66.655 -4.24069 70.2393 0.0861043 0 0 -4.5 -0.673729 -0.487509 -0.555359 0.873582
54.0145 2.3375 90.8398 0.12041 0 0 -3.5 -0.0343547 0.382913 -0.923145 -0.330958
59.4683 -16.0213 85.9744 0.0469103 0 0 -1.79331 -0.152041 -0.344471 -0.926403 -0.591227
70.5191 11.1903 88.1718 0.123754 0 0.194639 -2.45885 0.0434792 0.992597 0.113409 0.0682819
63.1521 -1.3555 74.8109 0.009213 0 -0.177345 -0.4 -0.998985 0.0420919 -0.0160533 0.206094
75.9553 -1.20963 99.7351 -0.220442 0 -0.00779779 -3.39253 0.172782 -0.00745769 0.984932 -0.171588
61.203 -6.35025 81.7287 0.3593 0 0 -3.9 -0.811841 -0.379608 -0.443635 -0.999859
57.5096 2.92575 85.8733 -0.127917 1 -0.834192 2.8 0.100296 0.897418 -0.42963 -0.999852
56.2716 -3.38788 84.5912 0.199704 0 0 -0.654796 -0.885451 0.167335 -0.433561 -0.109253
62.831 -0.397625 76.1159 -0.273919 0 -0.211776 -0.4 -0.856355 -0.515233 0.0345155 0.293054
74.8518 3.52806 97.2717 -0.222455 0 -0.0151371 -3.01623 -0.205157 0.927687 0.311942 -0.253171
75.2128 6.11156 93.9465 -0.249481 0 -0.174105 4.14998 -0.141806 0.7962 0.588181 0.0694013
68.6736 -5.77269 71.8513 0.0428057 0 0 -4.5 -0.000418568 -0.702977 -0.711212 -0.269644
57.879 -7.30237 84.3704 0.180676 0 0 -1.3 0.150643 0.219026 -0.96402 -0.773297
54.0793 -12.3792 87.0742 0.249555 0 0.0060626 -0.905083 -0.855529 -0.382367 -0.349093 0.163668
62.7993 5.45425 94.2872 -0.0252396 0 0 2.8386 -0.0709613 0.939284 -0.335723 0.12776
69.6831 -13.7534 78.7063 0.126075 0 0 -3.9 -0.0789122 -0.784827 -0.61467 -0.0773044
64.4479 -12.1663 77.1129 0.242181 0 0 -3.9 -0.60569 0.468472 -0.643175 0.293767
65.4839 -16.2737 76.2373 0.97678 0 0 -3.9 0.534609 -0.233303 -0.812258 0.531101
64.7254 6.28725 95.435 -0.092593 0 0 2.8 -0.459365 0.865791 -0.19847 0.33704
56.8565 4.00663 86.9647 0.02047 0 0 1.51783 -0.287589 0.766818 -0.573832 -0.120204
66.9423 4.63156 78.5824 0.023912 0 0.269571 -3.81996 -0.693066 0.696847 -0.184563 -0.999829
67.1272 7.87844 79.837 0.0170518 0 0 -1.3 -0.787681 0.223129 -0.574258 0.381749
55.9761 3.41206 89.6234 0.101671 0 0 -0.8 -0.93704 -0.18302 -0.297422 -0.480083
54.7215 0.7545 87.698 0.05462 0 0 2.12814 -0.861268 0.483169 0.157372 0.121565
65.904 -1.48625 71.943 0.133009 0 0 -4.5 -0.791646 0.360775 -0.493091 -0.288017
63.4245 -14.21 84.2225 0.140981 0 0 -3.5 -0.27706 0.0397421 -0.96003 0.143969
71.8993 -3.96725 102.997 -0.375573 0 -0.570154 -0.8 0.113891 0.503742 0.856313 0.043739
68.6866 5.08044 98.2383 -0.0889103 0 0 2.8 0.841529 0.233405 0.487187 0.416033
64.369 -12.752 84.079 0.253868 0 0 -3.9 -0.858797 0.00646678 -0.512275 -0.999929
71.5741 8.11731 89.9611 -0.0126923 0 0.197024 2.8 0.652403 0.522179 0.549272 -0.4627
55.3595 -9.67956 85.6413 -0.00611313 0 0 -1.3 -0.72837 -0.228045 -0.646122 0.0422027
52.6079 6.86 99.5607 0.134059 0 0 -4.5 -0.822378 0.0543937 -0.566336 0.120683
67.3177 1.89262 75.8209 -0.36019 0 0 -0.8 -0.401602 0.161042 -0.901544 -0.999751
63.2571 -11.8409 82.2158 0.962743 0 0 -3.9 -0.44023 -0.848067 0.294923 -0.424017
55.873 0.2045 84.1345 -0.210316 0 0 2.8 -0.64142 -0.699199 -0.315754 -0.472828
63.0312 -0.54725 82.106 -0.261332 0 -0.571184 -3.5 -0.203583 0.757519 -0.620257 -0.0526178
61.3698 0.866219 77.3804 -0.0350323 0 0 -3.5 -0.433415 -0.822301 0.368745 0.498801
66.2692 -7.34633 74.9531 0.0147011 0 0 -3.5 -0.502577 -0.786543 -0.358842 0.343871
64.4155 1.87888 75.924 -0.084381 0 0 -3.5 0.138477 0.306518 -0.941738 -0.301684
65.6847 0.702812 101.262 -0.118706 0 0 4.5 0.714065 0.649885 0.260309 -0.361579
52.5055 2.902 95.3775 -0.065643 0 0 -3.29602 -0.858156 0.494081 0.139468 0.11101
65.3524 -13.4911 76.3576 0.287212 0 0 -3.9 -0.0156364 0.213191 -0.976885 0.396541
71.8611 -8.47381 73.7886 -0.0836563 0 0 -0.8 0.568809 -0.350475 -0.744059 0.468347
64.3918 5.60887 91.2895 0.103504 0 0 -1.01731 -0.420983 0.801468 0.424762 -0.127821
71.2921 0.950156 95.7826 -0.099085 0 0 1.18721 -0.670046 0.390968 0.631017 -0.75858
61.8203 6.01069 92.8944 0.0581093 0 0 3.8 0.797508 0.603003 -0.019181 0.0485797
64.196 -12.07 83.3175 0.57679 0 0 -3.9 -0.73242 -0.678123 -0.0609124 -0.413645
67.917 10.4748 85.2926 0.0194484 0 0 0.245819 0.283025 0.958993 0.0151231 0.136264
60.6151 6.34694 101.244 0.12989 0 0 1.9 0.137014 0.976169 -0.168292 -0.755659
70.294 -0.486 97.815 -0.13574 0 -0.0951816 0.63257 0.0571311 0.746665 0.662743 -0.246876
56.2593 5.87813 89.3215 -0.00812597 0 0 -0.8 -0.705938 0.692161 -0.150219 0.563106
64.8186 -15.955 79.1688 0.756363 0 0 -3.9 0.151531 -0.474484 0.867123 -0.143873
65.3922 5.05769 83.9448 -0.186912 0 -0.363527 -0.973873 -0.868374 0.357067 -0.344135 -0.361229
59.7566 0.641219 83.4891 -0.057933 0 0 2.8 0.539706 0.598356 -0.592188 -0.783456
70.9551 -12.3682 76.7357 -0.0276863 0 0 -3.5 -0.239545 -0.629444 -0.739202 0.083687
68.7889 11.1684 86.9551 0.100028 0 0 2.8 -0.049435 0.891349 -0.450615 0.356272
71.2367 7.29425 91.9555 -0.0994207 0 0 3.8 0.393538 0.863961 0.314165 0.061881
54.3114 4.741 94.9612 -0.0677777 0 -0.0324237 -4.5 -0.844025 0.509574 0.1672 -0.12553
58.9227 8.18297 95.6287 -0.0450693 0 0 3.8 0.122873 0.657351 0.7435 0.109316
55.2066 -15.3919 85.3132 0.146373 0 0 -3.9 -0.360366 0.214297 -0.907862 0.052679
62.5947 4.57094 86.4759 -0.0605463 0 0 -0.459295 -0.232671 0.533895 -0.812909 -0.500988
57.2513 -3.49709 82.0364 0.08201 1 0 -0.4 -0.778205 -0.125676 -0.615306 0.538119
53.1585 5.13025 93.594 -0.0202438 0 0 -3.5 -0.494251 0.733386 0.466755 0.242959
62.9853 6.19312 90.497 0.0553297 1 0 -0.7 0.151255 0.837222 0.525529 0.236297
59.1037 -14.889 85.4561 -0.0039221 0 0 -0.4 -0.153407 -0.261061 -0.953055 -0.309823
59.5253 0.175187 82.1298 -0.22552 0 0 -0.4 0.347274 0.639942 -0.685475 0.0804485
62.6203 2.34481 84.2892 0.0036373 1 0 -0.4 -0.271405 0.426574 -0.862771 0.0465354
60.5171 2.60753 84.7753 -0.40658 0 -0.118007 1.79091 0.0109006 0.634169 -0.773118 0.0636854
55.0639 -8.34287 86.2998 0.040687 0 0 -1.3 -0.818266 0.123705 -0.561372 -0.448728
56.859 -5.984 84.108 0.204835 0 0.208697 -1.01067 -0.27173 0.148631 -0.950827 0.164646
65.8531 -8.99306 77.4347 0.181532 0 0 2.8 -0.41234 -0.269873 -0.870141 -0.41415
68.644 -11.0413 76.5597 -0.0219614 0 -0.606077 -0.8 -0.447519 -0.617776 -0.646591 -0.100532
73.3354 1.70387 99.7629 -0.182185 0 0 -3.5 -0.674146 0.31369 0.668674 0.999826
66.6279 -12.803 76.6815 0.190806 0 0 -3.9 0.281118 0.17081 -0.94435 0.253146
67.1655 8.47819 88.5088 -0.179891 0 -0.030046 2.16533 -0.744932 0.370854 0.554566 -0.458808
69.3583 -4.71594 70.7262 0.069014 0 0.589777 -3.79725 0.231234 -0.762996 -0.603629 -0.355662
64.379 -2.108 78.9945 -0.0546457 0 0 -0.8 -0.993401 0.0882075 0.0733127 -0.136646
60.5345 6.80575 90.7365 0.033311 0 0 0.40952 0.215243 0.959742 -0.180463 0.103128
68.5029 -9.57788 75.2217 0.240451 0 0 -0.8 -0.83485 -0.337576 -0.434819 -0.0890665
62.2269 -2.51048 79.7547 -0.00417157 0 0 -0.4 0.340766 0.700745 -0.626765 -0.110008
51.2266 2.118 92.0215 -0.0676373 0 -0.00480567 -0.91438 -0.889786 0.43511 0.137698 0.0417962
68.7195 1.04825 96.643 -0.172621 0 0 2.8 0.750417 0.609256 0.256282 -0.362767
68.0847 -8.33009 75.0983 0.407397 0 0 -3.03936 -0.592499 -0.663812 -0.456397 -0.456463
60.7865 -9.3585 83.0745 0.208418 0 0 -3.9 -0.925571 -0.290596 -0.242635 -0.505319
54.9525 6.23696 96.3913 -0.53053 0 -0.607425 -4.5 -0.559479 0.763113 -0.323485 0.276546
57.4626 -1.99682 82.2099 -0.012571 0 0 -0.4 -0.735238 0.195216 -0.649089 0.150654
52.335 1.975 94.495 -0.0485193 0 -0.675363 -3.5 -0.931734 0.282076 0.228702 -0.60179
56.3402 3.46925 85.5875 -0.083347 0 0 2.8 0.221776 0.972899 -0.0654447 0.0665513
68.7306 5.38987 95.6702 -0.36542 0 -0.165444 0.215453 0.873161 0.312125 0.37439 -0.09477
55.7581 6.47022 95.3538 -0.177065 0 0 1.2543 -0.750852 0.660466 0.00252502 -0.323429
3 256 208 750
3 208 256 0
3 0 665 208
3 461 473 221
3 221 473 38
3 473 617 621
3 38 473 417
3 586 617 603
3 653 471 209
3 209 471 418
3 471 123 418
3 123 412 418
3 412 452 710
3 452 377 790
3 144 5 790
3 790 5 444
3 5 126 348
3 348 126 772
3 348 772 97
3 126 298 772
3 288 767 601
3 298 354 750
3 208 15 601
3 288 234 31
3 31 406 741
3 741 21 31
3 723 567 540
3 522 117 277
3 117 592 277
3 522 38 525
3 778 525 302
3 38 417 225
3 36 531 78
3 503 78 316
3 586 110 115
3 3 115 405
3 467 3 196
3 467 196 191
3 527 405 209
3 527 209 418
3 365 444 34
3 452 790 444
3 34 444 5
3 34 348 365
3 79 708 676
3 265 799 548
3 13 794 288
3 13 288 185
3 185 288 19
3 21 175 185
3 175 21 741
3 741 512 175
3 616 349 74
3 74 349 243
3 243 292 74
3 758 349 153
3 367 769 519
3 519 540 367
3 540 402 367
3 564 367 402
3 402 540 139
3 402 139 468
3 373 469 740
3 32 654 136
3 240 654 56
3 240 56 679
3 778 740 567
3 544 11 255
3 207 11 302
3 207 302 503
3 503 184 207
3 120 717 180
3 177 410 191
3 575 191 196
3 191 575 177
3 575 246 327
3 326 327 43
3 327 246 733
3 327 733 43
3 733 363 43
3 733 563 595
3 563 732 217
3 760 10 313
3 760 673 10
3 301 73 676
3 676 73 365
3 301 676 663
3 663 760 301
3 516 585 294
3 663 440 487
3 585 571 342
3 571 376 265
3 265 58 571
3 571 58 768
3 571 768 142
3 109 276 295
3 103 295 194
3 626 185 175
3 626 48 270
3 626 270 295
3 109 292 190
3 414 292 243
3 758 387 414
3 450 387 202
3 769 564 562
3 262 562 564
3 402 468 385
3 468 318 285
3 285 318 460
3 460 318 136
3 793 679 82
3 2 82 549
3 679 162 82
3 82 162 632
3 82 632 549
3 679 259 162
3 669 656 664
3 120 669 273
3 744 43 107
3 107 43 151
3 43 363 151
3 744 107 687
3 107 338 687
3 338 500 687
3 500 338 501
3 501 681 500
3 313 729 217
3 217 729 608
3 608 729 797
3 729 313 399
3 399 313 10
3 399 203 116
3 341 116 206
3 106 551 203
3 106 680 551
3 680 659 551
3 337 680 106
3 659 680 24
3 487 337 673
3 487 673 760
3 125 135 253
3 253 135 787
3 83 125 342
3 342 125 585
3 446 598 143
3 598 624 143
3 670 624 598
3 670 598 768
3 195 670 611
3 611 559 195
3 493 330 450
3 493 182 455
3 493 455 293
3 523 252 258
3 307 202 379
3 379 758 556
3 210 390 458
3 458 224 320
3 458 320 690
3 224 674 320
3 505 577 588
3 562 262 677
3 677 262 774
3 251 599 75
3 158 735 599
3 735 150 599
3 735 158 543
3 743 536 688
3 688 684 743
3 2 549 688
3 672 549 248
3 672 248 675
3 685 632 178
3 632 162 715
3 656 560 623
3 623 560 498
3 771 795 557
3 508 180 528
3 508 528 694
3 694 528 744
3 180 518 528
3 694 16 546
3 546 16 339
3 546 339 408
3 408 409 141
3 409 211 141
3 211 409 716
3 341 777 319
3 341 319 211
3 211 319 141
3 698 777 776
3 776 777 770
3 206 275 777
3 49 275 551
3 343 787 773
3 552 787 163
3 163 707 280
3 755 163 280
3 280 707 624
3 624 610 280
3 787 552 486
3 552 755 486
3 220 457 635
3 457 728 172
3 728 304 372
3 593 372 167
3 167 372 441
3 372 293 441
3 441 293 227
3 244 737 478
3 455 478 227
3 455 182 523
3 455 523 258
3 455 258 229
3 229 478 455
3 268 252 640
3 12 580 674
3 12 174 324
3 749 324 475
3 475 667 347
3 494 749 631
3 749 475 686
3 660 91 150
3 150 91 599
3 435 484 279
3 484 735 279
3 735 543 33
3 743 684 366
3 89 684 422
3 422 597 89
3 597 422 134
3 590 422 684
3 590 684 672
3 675 566 590
3 39 675 233
3 39 233 488
3 685 629 233
3 233 629 488
3 685 147 609
3 609 147 154
3 609 154 272
3 147 438 636
3 147 636 154
3 438 432 623
3 432 382 623
3 333 498 683
3 683 498 4
3 4 498 560
3 683 4 68
3 68 499 114
3 694 76 14
3 14 76 775
3 14 775 499
3 775 114 499
3 76 127 763
3 763 141 319
3 775 583 321
3 161 770 574
3 594 691 534
3 420 534 702
3 534 691 702
3 649 112 420
3 112 649 459
3 576 784 69
3 700 17 649
3 700 702 662
3 662 773 358
3 358 773 753
3 358 753 666
3 635 249 666
3 137 666 633
3 57 633 666
3 633 183 137
3 633 344 183
3 51 633 57
3 344 633 332
3 332 633 472
3 303 614 429
3 303 121 706
3 121 249 706
3 393 706 728
3 393 593 171
3 167 506 593
3 171 506 798
3 798 614 171
3 506 737 798
3 737 244 164
3 401 627 791
3 692 331 401
3 650 331 631
3 331 478 229
3 331 229 631
3 352 364 686
3 480 309 352
3 480 352 222
3 188 222 352
3 222 188 218
3 222 218 682
3 625 188 588
3 505 588 188
3 625 335 388
3 388 736 625
3 435 62 357
3 279 655 435
3 62 435 655
3 655 630 62
3 279 735 655
3 235 655 395
3 597 219 761
3 219 597 368
3 306 644 368
3 443 87 306
3 87 443 250
3 582 250 443
3 122 726 582
3 751 582 726
3 726 122 286
3 726 566 434
3 488 780 386
3 488 629 176
3 176 629 609
3 176 145 166
3 145 272 652
3 652 272 113
3 113 272 671
3 671 636 101
3 636 789 360
3 321 479 114
3 479 683 68
3 479 68 114
3 321 583 745
3 247 431 263
3 186 489 514
3 489 628 697
3 628 762 697
3 628 161 762
3 574 762 161
3 537 762 449
3 449 762 296
3 449 420 502
3 502 156 618
3 156 602 561
3 757 561 602
3 459 576 757
3 576 765 757
3 553 576 69
3 344 558 183
3 558 69 183
3 69 784 183
3 84 305 358
3 705 558 344
3 433 472 226
3 507 491 289
3 453 260 720
3 197 149 111
3 584 299 149
3 149 299 119
3 149 119 111
3 111 119 642
3 299 584 445
3 384 197 462
3 197 111 555
3 462 197 547
3 555 547 197
3 132 515 530
3 798 737 164
3 692 426 261
3 692 401 426
3 401 791 426
3 400 309 759
3 212 490 759
3 736 682 625
3 483 521 257
3 9 257 521
3 235 703 9
3 257 9 703
3 483 257 668
3 668 257 389
3 257 703 761
3 606 761 219
3 727 250 607
3 607 582 751
3 607 668 727
3 607 483 668
3 308 476 637
3 783 476 454
3 639 780 612
3 780 488 612
3 612 747 639
3 792 639 747
3 747 166 591
3 652 378 398
3 648 398 570
3 573 482 27
3 573 27 118
3 118 27 713
3 713 568 718
3 718 568 29
3 29 786 517
3 238 263 20
3 238 20 510
3 510 20 351
3 510 35 693
3 693 35 689
3 189 689 35
3 537 647 254
3 192 254 622
3 537 502 647
3 618 213 678
3 1 561 757
3 553 712 765
3 765 712 578
3 712 245 658
3 433 658 705
3 433 739 658
3 739 226 766
3 554 547 241
3 284 719 130
3 284 130 340
3 719 30 140
3 30 530 545
3 545 140 30
3 545 782 140
3 520 754 545
3 754 369 545
3 782 545 425
3 369 425 545
3 201 291 425
3 464 90 239
3 45 90 407
3 464 736 529
3 464 529 355
3 271 464 355
3 725 428 764
3 637 428 308
3 581 781 228
3 228 781 788
3 747 315 792
3 792 315 146
3 792 146 643
3 648 315 591
3 721 148 155
3 148 570 709
3 181 398 378
3 181 448 701
3 701 448 734
3 573 565 448
3 448 565 734
3 565 274 696
3 696 713 170
3 8 615 699
3 442 108 370
3 108 746 693
3 370 689 374
3 374 689 424
3 189 481 689
3 481 424 689
3 424 481 383
3 205 504 94
3 481 94 504
3 504 383 481
3 504 205 538
3 205 94 470
3 730 470 622
3 94 168 470
3 470 168 657
3 470 657 622
3 622 657 192
3 205 470 187
3 731 678 230
3 340 423 287
3 287 600 466
3 317 413 600
3 782 413 140
3 413 317 130
3 140 413 719
3 130 719 413
3 782 323 215
3 215 323 81
3 81 391 215
3 40 714 45
3 283 764 71
3 71 764 88
3 54 88 325
3 604 300 98
3 98 651 604
3 651 98 643
3 300 788 98
3 98 788 792
3 643 98 792
3 604 651 237
3 237 752 604
3 651 643 404
3 404 643 721
3 709 570 701
3 565 696 416
3 696 613 416
3 696 587 613
3 587 696 170
3 170 535 587
3 748 200 589
3 699 589 200
3 589 699 538
3 615 80 370
3 615 370 374
3 383 504 699
3 504 538 699
3 350 589 541
3 589 538 541
3 187 538 205
3 497 204 26
3 152 391 714
3 714 391 485
3 152 99 391
3 99 466 600
3 46 297 416
3 328 104 46
3 329 613 159
3 329 159 742
3 742 159 641
3 613 587 159
3 619 647 678
3 618 678 647
3 41 693 746
3 41 746 718
3 517 41 718
3 718 746 634
3 718 634 535
3 520 530 515
3 520 515 242
3 631 22 494
3 787 695 253
3 790 198 124
3 124 397 790
3 790 397 661
3 231 345 661
3 345 796 661
3 750 796 345
3 345 231 256
3 750 345 256
3 417 473 621
3 474 225 417
3 474 417 621
3 36 474 531
3 531 474 621
3 586 531 621
3 586 621 617
3 115 110 492
3 115 492 405
3 653 209 492
3 492 209 405
3 495 412 710
3 767 772 298
3 601 131 419
3 208 601 750
3 601 419 750
3 298 750 419
3 298 419 767
3 767 419 131
3 767 131 601
3 288 601 234
3 15 234 601
3 31 645 406
3 645 31 234
3 645 234 15
3 645 15 665
3 723 519 532
3 723 532 592
3 519 723 540
3 522 525 778
3 375 302 59
3 59 302 61
3 61 302 525
3 375 59 36
3 78 503 375
3 78 375 36
3 36 59 474
3 474 59 225
3 225 59 61
3 225 61 525
3 302 375 503
3 316 78 353
3 586 353 531
3 531 353 78
3 467 316 3
3 115 3 353
3 115 353 586
3 353 3 316
3 246 196 371
3 371 196 527
3 733 246 371
3 371 527 418
3 733 371 495
3 412 495 371
3 412 371 418
3 563 733 47
3 199 733 495
3 733 199 47
3 596 415 199
3 596 199 495
3 47 199 415
3 47 415 563
3 710 572 596
3 710 596 495
3 301 732 73
3 365 73 572
3 365 572 710
3 572 73 732
3 444 365 710
3 444 710 452
3 18 708 620
3 18 620 516
3 96 516 620
3 767 620 772
3 620 708 772
3 96 620 799
3 548 799 194
3 194 799 794
3 194 794 13
3 194 13 103
3 185 103 13
3 270 465 616
3 270 616 25
3 25 616 74
3 758 153 556
3 564 769 367
3 318 468 139
3 318 139 373
3 373 139 469
3 469 139 540
3 740 469 567
3 567 469 540
3 318 373 136
3 136 373 32
3 460 654 240
3 136 654 460
3 282 679 56
3 282 56 334
3 334 56 722
3 722 56 654
3 740 778 544
3 544 778 11
3 255 11 207
3 717 273 50
3 50 273 779
3 50 779 207
3 717 120 273
3 717 50 410
3 410 50 207
3 207 779 255
3 646 717 177
3 177 717 410
3 608 595 563
3 608 563 217
3 732 563 415
3 732 415 596
3 732 596 572
3 18 676 708
3 440 663 294
3 516 294 18
3 18 294 663
3 18 663 676
3 440 66 253
3 125 253 585
3 585 253 66
3 294 585 66
3 294 66 440
3 571 585 376
3 276 381 768
3 381 276 190
3 190 276 109
3 548 276 768
3 295 276 194
3 276 548 194
3 25 295 270
3 611 670 381
3 611 381 190
3 559 611 542
3 542 611 190
3 542 190 414
3 414 190 292
3 330 559 542
3 542 387 330
3 387 450 330
3 387 542 414
3 379 202 387
3 379 387 758
3 77 774 278
3 262 385 774
3 774 385 278
3 543 77 605
3 605 77 278
3 605 278 285
3 361 128 638
3 638 138 536
3 362 128 605
3 285 362 605
3 285 460 362
3 362 460 128
3 128 460 638
3 793 638 240
3 679 793 240
3 240 638 460
3 259 282 664
3 282 259 679
3 669 664 64
3 64 334 779
3 669 64 273
3 273 64 779
3 722 779 334
3 282 334 64
3 282 64 664
3 717 518 180
3 42 518 646
3 42 326 518
3 575 42 646
3 575 646 177
3 717 646 518
3 327 326 42
3 327 42 575
3 399 116 716
3 399 716 729
3 341 716 116
3 797 729 716
3 275 206 6
3 551 275 6
3 551 6 203
3 116 203 6
3 116 6 206
3 440 253 695
3 440 695 487
3 163 787 707
3 610 624 670
3 610 670 195
3 269 724 65
3 610 65 724
3 269 65 559
3 559 65 195
3 195 65 610
3 728 724 304
3 304 724 269
3 293 372 304
3 493 293 55
3 493 55 330
3 330 55 559
3 559 55 269
3 269 55 304
3 304 55 293
3 227 293 455
3 674 580 320
3 320 580 690
3 556 210 458
3 556 458 379
3 458 390 224
3 427 475 347
3 427 577 505
3 347 577 427
3 711 774 251
3 677 774 711
3 70 711 75
3 75 711 251
3 336 75 599
3 75 336 70
3 91 336 599
3 638 536 361
3 128 361 605
3 605 361 543
3 536 266 361
3 33 543 266
3 756 266 536
3 756 536 743
3 361 266 543
3 672 684 688
3 549 672 688
3 233 675 248
3 233 248 685
3 632 685 248
3 632 715 178
3 382 715 314
3 382 314 623
3 178 715 382
3 656 623 314
3 656 314 664
3 664 314 715
3 664 715 259
3 259 715 162
3 326 528 518
3 744 528 326
3 716 341 211
3 763 319 777
3 763 777 698
3 770 777 275
3 770 275 49
3 770 49 594
3 662 702 691
3 662 691 343
3 163 755 552
3 439 220 403
3 165 403 755
3 486 403 753
3 439 403 165
3 486 755 403
3 457 220 439
3 724 439 165
3 724 165 610
3 610 165 755
3 635 457 172
3 706 249 635
3 706 635 172
3 706 172 728
3 631 229 22
3 22 229 268
3 268 229 258
3 268 258 252
3 494 22 268
3 494 268 640
3 640 580 12
3 580 640 252
3 749 494 324
3 324 640 12
3 640 324 494
3 475 324 667
3 667 324 174
3 505 686 427
3 427 686 475
3 484 579 660
3 579 484 435
3 738 735 33
3 266 756 738
3 266 738 33
3 756 735 738
3 756 743 366
3 366 655 756
3 655 735 756
3 395 655 366
3 395 366 89
3 395 89 597
3 89 366 684
3 524 422 590
3 169 134 422
3 169 422 524
3 39 566 675
3 685 609 629
3 636 438 789
3 333 789 438
3 694 14 508
3 508 14 499
3 795 508 499
3 795 499 557
3 775 76 763
3 698 583 763
3 775 763 583
3 745 583 539
3 539 583 698
3 539 698 776
3 264 463 539
3 745 539 463
3 186 463 264
3 186 264 489
3 776 264 539
3 264 628 489
3 628 264 776
3 161 628 776
3 574 296 762
3 296 574 447
3 296 447 534
3 534 447 594
3 594 447 770
3 770 447 574
3 420 296 534
3 784 576 17
3 17 576 649
3 649 576 459
3 305 700 358
3 662 358 700
3 220 753 403
3 753 773 486
3 84 666 137
3 84 137 346
3 346 137 183
3 445 766 472
3 766 445 584
3 429 445 472
3 429 472 633
3 299 445 429
3 614 299 429
3 171 614 706
3 303 706 614
3 171 706 393
3 650 400 627
3 331 650 401
3 401 650 627
3 309 400 650
3 309 650 364
3 309 364 352
3 686 364 749
3 749 364 631
3 631 364 650
3 421 309 480
3 380 222 682
3 222 421 480
3 421 222 380
3 625 682 218
3 625 218 188
3 62 630 357
3 703 395 597
3 235 395 703
3 761 703 597
3 87 644 306
3 524 726 169
3 169 726 286
3 566 726 524
3 566 524 590
3 386 434 566
3 386 566 39
3 386 39 488
3 290 434 386
3 290 386 780
3 612 176 166
3 176 612 488
3 482 671 27
3 27 568 713
3 101 568 671
3 671 568 27
3 786 568 267
3 100 267 101
3 100 101 636
3 101 267 568
3 360 267 100
3 360 100 636
3 786 267 360
3 526 360 789
3 513 789 479
3 513 479 321
3 513 321 745
3 526 513 431
3 526 431 247
3 431 513 745
3 550 263 431
3 263 550 20
3 550 431 745
3 351 20 550
3 463 550 745
3 351 550 514
3 351 514 533
3 514 550 186
3 186 550 463
3 502 537 449
3 553 765 576
3 305 346 784
3 346 305 84
3 700 305 784
3 784 346 183
3 226 472 766
3 491 766 311
3 289 260 453
3 260 289 491
3 260 491 311
3 384 720 260
3 149 384 311
3 149 311 584
3 311 384 260
3 197 384 149
3 67 119 299
3 67 299 614
3 359 642 798
3 798 642 614
3 614 642 67
3 67 642 119
3 555 132 530
3 44 642 359
3 261 359 798
3 242 515 642
3 242 642 44
3 223 242 44
3 86 223 456
3 223 44 456
3 791 86 426
3 426 86 456
3 456 261 426
3 223 86 511
3 511 86 791
3 261 456 359
3 359 456 44
3 511 791 496
3 759 754 496
3 369 754 759
3 759 496 791
3 400 759 791
3 400 791 627
3 201 369 759
3 380 212 759
3 380 759 421
3 421 759 309
3 490 212 380
3 490 380 682
3 490 682 239
3 761 389 257
3 389 761 606
3 582 607 250
3 476 483 454
3 637 476 783
3 37 637 783
3 434 37 783
3 436 788 781
3 780 436 290
3 434 290 37
3 37 290 436
3 37 436 637
3 637 436 781
3 792 788 639
3 639 436 780
3 436 639 788
3 612 166 747
3 591 398 648
3 398 591 652
3 448 482 573
3 170 713 718
3 170 718 535
3 786 29 568
3 238 517 786
3 263 786 247
3 786 263 238
3 247 786 360
3 247 360 526
3 513 526 789
3 238 510 517
3 693 41 510
3 510 41 517
3 489 697 514
3 657 514 697
3 514 657 533
3 657 168 533
3 192 657 697
3 254 762 537
3 762 254 192
3 762 192 697
3 647 619 254
3 95 622 254
3 95 254 619
3 491 507 7
3 491 7 766
3 766 7 739
3 739 7 507
3 720 554 133
3 720 133 411
3 554 241 310
3 310 241 396
3 284 281 396
3 284 396 63
3 281 284 340
3 719 284 63
3 719 63 547
3 547 63 241
3 241 63 396
3 30 719 555
3 530 30 555
3 555 719 547
3 425 369 201
3 356 28 291
3 356 291 173
3 239 173 490
3 490 173 291
3 425 291 28
3 356 323 28
3 356 173 45
3 45 173 90
3 90 173 239
3 407 90 464
3 271 407 464
3 581 88 764
3 781 428 637
3 764 428 581
3 581 428 781
3 725 308 428
3 308 521 476
3 476 521 483
3 521 308 725
3 648 643 146
3 648 146 315
3 721 643 648
3 570 398 181
3 701 570 181
3 748 587 535
3 748 535 200
3 200 535 634
3 187 730 569
3 470 730 187
3 497 569 730
3 497 730 204
3 204 730 236
3 236 730 622
3 731 204 236
3 731 236 619
3 95 236 622
3 95 619 236
3 179 204 731
3 230 179 731
3 287 281 340
3 215 413 782
3 413 215 600
3 485 391 81
3 323 485 81
3 714 356 45
3 356 714 485
3 356 485 323
3 53 105 714
3 651 404 237
3 785 721 155
3 297 734 416
3 416 734 565
3 613 328 416
3 159 587 748
3 641 748 589
3 350 742 641
3 350 641 589
3 538 187 541
3 541 187 569
3 105 152 714
3 613 329 328
3 641 159 748
3 511 496 754
3 223 511 754
3 223 754 242
3 242 754 520
3 593 506 171
3 337 695 680
3 680 695 787
3 680 787 24
3 487 695 337
3 38 225 525
3 790 377 198
3 377 452 471
3 471 452 123
3 123 452 412
3 157 377 471
3 354 144 790
3 354 790 750
3 298 126 354
3 354 126 144
3 144 126 5
3 665 15 208
3 592 117 723
3 723 117 567
3 567 117 522
3 522 221 38
3 221 522 277
3 461 221 277
3 214 110 586
3 405 527 196
3 196 3 405
3 5 348 34
3 97 772 708
3 708 79 97
3 97 79 348
3 31 21 288
3 288 21 19
3 19 21 185
3 243 349 758
3 740 544 477
3 477 373 740
3 373 477 32
3 654 32 437
3 722 654 437
3 477 437 32
3 522 778 567
3 11 778 302
3 410 184 467
3 467 191 410
3 184 410 207
3 467 184 316
3 503 316 184
3 196 246 575
3 733 595 363
3 732 301 60
3 60 301 760
3 60 760 313
3 365 348 79
3 365 79 676
3 516 96 376
3 516 376 585
3 799 265 96
3 96 265 376
3 548 58 265
3 58 548 768
3 103 185 626
3 292 25 74
3 109 295 25
3 109 25 292
3 243 758 414
3 262 564 385
3 385 564 402
3 385 468 278
3 285 278 468
3 437 477 72
3 72 255 779
3 72 779 437
3 544 72 477
3 544 255 72
3 437 779 722
3 120 180 771
3 669 120 771
3 326 43 744
3 338 107 151
3 322 338 151
3 322 151 363
3 322 363 595
3 322 595 608
3 322 608 430
3 322 430 501
3 501 338 322
3 217 732 60
3 217 60 313
3 673 337 106
3 106 203 673
3 203 399 673
3 673 399 10
3 487 760 663
3 135 83 102
3 135 102 787
3 135 125 83
3 83 342 451
3 83 451 102
3 102 451 446
3 102 446 707
3 102 707 787
3 446 451 598
3 142 768 598
3 142 598 451
3 142 451 342
3 342 571 142
3 381 670 768
3 103 626 295
3 202 307 450
3 182 493 450
3 182 450 690
3 307 690 450
3 182 690 523
3 523 690 580
3 523 580 252
3 158 251 774
3 158 774 77
3 158 77 543
3 158 599 251
3 536 138 688
3 2 688 138
3 2 138 638
3 632 248 549
3 771 560 656
3 771 656 669
3 560 771 557
3 744 687 694
3 694 687 16
3 339 681 408
3 339 16 687
3 339 687 500
3 339 500 681
3 409 681 430
3 430 681 501
3 681 409 408
3 430 608 797
3 341 206 777
3 659 343 691
3 659 691 312
3 659 312 551
3 312 594 551
3 551 594 49
3 787 659 24
3 787 343 659
3 143 707 446
3 143 624 707
3 755 280 610
3 457 724 728
3 457 439 724
3 478 441 227
3 441 478 737
3 174 12 674
3 379 458 307
3 458 690 307
3 660 150 735
3 660 735 484
3 85 675 590
3 590 672 85
3 675 85 672
3 178 382 432
3 178 432 685
3 432 147 685
3 147 432 438
3 623 498 438
3 438 498 333
3 560 557 4
3 4 557 499
3 4 499 68
3 127 76 546
3 76 694 546
3 141 127 408
3 408 127 546
3 127 141 763
3 776 770 161
3 691 594 312
3 649 702 700
3 702 649 420
3 343 773 662
3 773 787 486
3 220 635 753
3 121 57 249
3 121 303 51
3 121 51 57
3 57 666 249
3 429 633 51
3 303 429 51
3 372 393 728
3 393 372 593
3 441 737 92
3 92 737 506
3 167 92 506
3 92 167 441
3 478 331 244
3 244 692 164
3 331 692 244
3 352 505 188
3 352 686 505
3 588 335 625
3 655 235 630
3 368 597 134
3 306 134 169
3 134 306 368
3 306 169 286
3 306 286 122
3 122 582 443
3 122 443 306
3 154 636 272
3 671 272 636
3 272 145 609
3 609 145 176
3 160 479 789
3 789 333 160
3 683 160 333
3 160 683 479
3 321 114 775
3 296 420 449
3 156 112 602
3 156 420 112
3 420 156 502
3 459 602 112
3 757 602 459
3 553 69 558
3 17 700 784
3 358 666 84
3 753 635 666
3 344 332 705
3 433 705 332
3 433 332 472
3 766 584 311
3 642 515 132
3 642 132 111
3 555 111 132
3 164 692 798
3 798 692 261
3 630 235 9
3 606 219 644
3 644 219 368
3 454 607 751
3 454 751 783
3 607 454 483
3 434 783 751
3 434 751 726
3 652 166 145
3 166 652 591
3 378 652 482
3 652 113 482
3 671 482 113
3 274 118 713
3 118 274 573
3 351 533 35
3 533 189 35
3 351 35 510
3 129 213 618
3 129 618 156
3 129 156 561
3 561 93 129
3 561 1 93
3 129 93 213
3 232 553 558
3 558 705 232
3 232 705 245
3 245 553 232
3 705 658 245
3 245 712 553
3 739 433 226
3 720 411 453
3 462 547 554
3 462 554 720
3 462 720 384
3 545 530 520
3 759 490 201
3 201 490 291
3 464 239 52
3 239 682 52
3 52 682 736
3 52 736 464
3 764 509 725
3 591 315 747
3 148 648 570
3 648 148 721
3 482 181 378
3 181 482 448
3 713 696 274
3 274 565 573
3 634 746 193
3 517 718 29
3 108 442 746
3 746 442 193
3 193 704 634
3 634 8 200
3 8 634 615
3 615 634 704
3 693 689 108
3 108 689 370
3 533 168 189
3 481 189 168
3 94 481 168
3 731 619 678
3 618 647 502
3 423 317 600
3 423 600 287
3 317 423 340
3 130 317 340
3 323 782 28
3 425 28 782
3 40 45 407
3 88 54 71
3 216 71 54
3 88 581 228
3 88 228 325
3 54 325 216
3 216 325 752
3 604 752 325
3 325 228 300
3 325 300 604
3 228 788 300
3 148 709 155
3 23 709 701
3 8 699 200
3 80 704 442
3 80 615 704
3 704 193 442
3 442 370 80
3 383 392 424
3 424 392 374
3 392 383 699
3 699 615 392
3 392 615 374
3 466 99 394
3 152 394 99
3 215 99 600
3 215 391 99
3 328 46 416
3 2 638 793
3 2 793 82
3 767 288 794
3 767 794 799
3 180 508 795
3 180 795 771
3 409 430 797
3 409 797 716
3 790 661 796
3 790 796 750
3 767 799 620
